<?xml version="1.0" encoding="utf-8"?>
<svg xmlns="http://www.w3.org/2000/svg" width="24" height="24" viewBox="0 0 24 24" fill="none">
<path d="M18.4394 4.5H15.75V3H21V8.25H19.5V5.56068L13.875 11.1857L10.125 7.43567L4.06066 13.5L3 12.4394L10.125 5.31435L13.875 9.06435L18.4394 4.5Z" fill="#502D3C"/>
<path fill-rule="evenodd" clip-rule="evenodd" d="M21 10.5H16.5V21H21V10.5ZM18 19.5V12H19.5V19.5H18Z" fill="#502D3C"/>
<path fill-rule="evenodd" clip-rule="evenodd" d="M9.75 12.75H14.25V21H9.75V12.75ZM11.25 14.25V19.5H12.75V14.25H11.25Z" fill="#502D3C"/>
<path fill-rule="evenodd" clip-rule="evenodd" d="M7.5 15H3V21H7.5V15ZM4.5 19.5V16.5H6V19.5H4.5Z" fill="#502D3C"/>
</svg>