<?xml version="1.0" encoding="utf-8"?>
<svg xmlns="http://www.w3.org/2000/svg" width="20" height="20" viewBox="0 0 20 20" fill="none">
<path fill-rule="evenodd" clip-rule="evenodd" d="M4.375 2.5C3.33947 2.5 2.5 3.33947 2.5 4.375V7.5C2.5 8.53553 3.33947 9.375 4.375 9.375H7.5C8.53553 9.375 9.375 8.53553 9.375 7.5V4.375C9.375 3.33947 8.53553 2.5 7.5 2.5H4.375ZM3.75 4.375C3.75 4.02982 4.02982 3.75 4.375 3.75H7.5C7.84518 3.75 8.125 4.02982 8.125 4.375V7.5C8.125 7.84518 7.84518 8.125 7.5 8.125H4.375C4.02982 8.125 3.75 7.84518 3.75 7.5V4.375Z" fill="#402530"/>
<path fill-rule="evenodd" clip-rule="evenodd" d="M2.5 12.5C2.5 11.4645 3.33947 10.625 4.375 10.625H7.5C8.53553 10.625 9.375 11.4645 9.375 12.5V15.625C9.375 16.6605 8.53553 17.5 7.5 17.5H4.375C3.33947 17.5 2.5 16.6605 2.5 15.625V12.5ZM4.375 11.875C4.02982 11.875 3.75 12.1548 3.75 12.5V15.625C3.75 15.9702 4.02982 16.25 4.375 16.25H7.5C7.84518 16.25 8.125 15.9702 8.125 15.625V12.5C8.125 12.1548 7.84518 11.875 7.5 11.875H4.375Z" fill="#402530"/>
<path fill-rule="evenodd" clip-rule="evenodd" d="M10.625 12.5C10.625 11.4645 11.4645 10.625 12.5 10.625H15.625C16.6605 10.625 17.5 11.4645 17.5 12.5V15.625C17.5 16.6605 16.6605 17.5 15.625 17.5H12.5C11.4645 17.5 10.625 16.6605 10.625 15.625V12.5ZM12.5 11.875C12.1548 11.875 11.875 12.1548 11.875 12.5V15.625C11.875 15.9702 12.1548 16.25 12.5 16.25H15.625C15.9702 16.25 16.25 15.9702 16.25 15.625V12.5C16.25 12.1548 15.9702 11.875 15.625 11.875H12.5Z" fill="#402530"/>
<path d="M11.25 6.5625V5.3125H13.4375V3.125H14.6875V5.3125H16.875V6.5625H14.6875V8.75H13.4375V6.5625H11.25Z" fill="#402530"/>
</svg>