<?xml version="1.0" encoding="utf-8"?>
<svg xmlns="http://www.w3.org/2000/svg" width="48" height="48" viewBox="0 0 48 48" fill="none">
<g clip-path="url(#clip0_3907_8592)">
<path d="M40.5 0H7.5C3.35786 0 0 3.35786 0 7.5V40.5C0 44.6421 3.35786 48 7.5 48H40.5C44.6421 48 48 44.6421 48 40.5V7.5C48 3.35786 44.6421 0 40.5 0Z" fill="#552D3C"/>
<path d="M23.9962 17.0913L25.7109 22.3694H31.2599L26.7702 25.6301L28.4849 30.9082L23.9962 27.6466L19.5065 30.9082L21.2212 25.6301L16.7324 22.3694H22.2815L23.9962 17.0913Z" fill="#FDB71C"/>
<path d="M12.7056 13.4858L11.38 12.1602C4.85121 18.6889 4.85121 29.3117 11.38 35.8405L12.7056 34.5148C6.90809 28.7173 6.90809 19.2842 12.7056 13.4858ZM14.9584 15.7386C10.4031 20.2939 10.4031 27.7058 14.9584 32.2611L16.284 30.9355C12.46 27.1114 12.46 20.8892 16.284 17.0642L14.9584 15.7386ZM36.6118 12.1602L35.2862 13.4858C38.095 16.2945 39.6418 20.0286 39.6418 23.9998C39.6418 27.9711 38.095 31.7061 35.2862 34.5139L36.6118 35.8395C39.774 32.6773 41.5159 28.4717 41.5159 23.9998C41.5159 19.528 39.774 15.3223 36.6118 12.1602ZM33.0334 15.7386L31.7078 17.0642C35.5318 20.8883 35.5318 27.1105 31.7078 30.9355L33.0334 32.2611C37.5887 27.7058 37.5887 20.2939 33.0334 15.7386Z" fill="white"/>
</g>
<defs>
<clipPath id="clip0_3907_8592">
<rect width="48" height="48" fill="white"/>
</clipPath>
</defs>
</svg>