<?xml version="1.0" encoding="utf-8"?>
<svg xmlns="http://www.w3.org/2000/svg" width="48" height="48" viewBox="0 0 48 48" fill="none">
<g clip-path="url(#clip0_1326_48077)">
<path d="M40.5 0H7.5C3.35786 0 0 3.35786 0 7.5V40.5C0 44.6421 3.35786 48 7.5 48H40.5C44.6421 48 48 44.6421 48 40.5V7.5C48 3.35786 44.6421 0 40.5 0Z" fill="#502D3C"/>
<path d="M34.8655 35.207H13.1333V38.2567H34.8655V35.207Z" fill="white"/>
<path d="M35.582 28.9723H27.392V22.917C27.392 21.9223 27.9067 21.0485 28.6848 20.547C29.6523 19.9235 30.2101 18.8266 30.2101 17.6754V13.136C30.2101 11.2629 28.6913 9.74414 26.8182 9.74414H21.182C19.3088 9.74414 17.7901 11.2629 17.7901 13.136V17.6754C17.7901 18.8266 18.3479 19.9226 19.3154 20.547C20.0935 21.0485 20.6082 21.9223 20.6082 22.917V28.9723H12.4182C11.4442 28.9723 10.6548 29.7616 10.6548 30.7357V33.4432C10.6548 34.4173 11.4442 35.2066 12.4182 35.2066H35.5829C36.557 35.2066 37.3463 34.4173 37.3463 33.4432V30.7357C37.3463 29.7616 36.557 28.9723 35.5829 28.9723H35.582Z" fill="#FDB71C"/>
</g>
<defs>
<clipPath id="clip0_1326_48077">
<rect width="48" height="48" fill="white"/>
</clipPath>
</defs>
</svg>