<?xml version="1.0" encoding="utf-8"?>
<svg xmlns="http://www.w3.org/2000/svg" width="48" height="48" viewBox="0 0 48 48" fill="none">
<g clip-path="url(#clip0_1326_47283)">
<path d="M40.5 0H7.50001C3.35787 0 7.62939e-06 3.35786 7.62939e-06 7.5V40.5C7.62939e-06 44.6421 3.35787 48 7.50001 48H40.5C44.6421 48 48 44.6421 48 40.5V7.5C48 3.35786 44.6421 0 40.5 0Z" fill="#502D3C"/>
<path d="M12.2344 31.8055C13.6266 31.8055 14.7553 30.6768 14.7553 29.2846C14.7553 27.8924 13.6266 26.7637 12.2344 26.7637C10.8422 26.7637 9.71345 27.8924 9.71345 29.2846C9.71345 30.6768 10.8422 31.8055 12.2344 31.8055Z" fill="#FDB71C"/>
<path d="M12.2344 33.1035C9.67876 33.1035 7.60032 35.182 7.60032 37.7376H9.10969H15.4697H16.8684C16.8684 35.1829 14.79 33.1035 12.2344 33.1035Z" fill="#FDB71C"/>
<path d="M35.7656 31.8055C37.1578 31.8055 38.2866 30.6768 38.2866 29.2846C38.2866 27.8924 37.1578 26.7637 35.7656 26.7637C34.3734 26.7637 33.2447 27.8924 33.2447 29.2846C33.2447 30.6768 34.3734 31.8055 35.7656 31.8055Z" fill="#FDB71C"/>
<path d="M35.7656 33.1035C33.21 33.1035 31.1316 35.182 31.1316 37.7376H32.641H39.001H40.3997C40.3997 35.1829 38.3213 33.1035 35.7656 33.1035Z" fill="#FDB71C"/>
<path d="M24 13.1483C25.3922 13.1483 26.5209 12.0196 26.5209 10.6274C26.5209 9.2352 25.3922 8.10645 24 8.10645C22.6078 8.10645 21.4791 9.2352 21.4791 10.6274C21.4791 12.0196 22.6078 13.1483 24 13.1483Z" fill="#FDB71C"/>
<path d="M24 14.4463C21.4444 14.4463 19.366 16.5247 19.366 19.0804H20.8753H27.2353H28.6341C28.6341 16.5257 26.5556 14.4463 24 14.4463Z" fill="#FDB71C"/>
<path d="M24.9375 22.5312H23.0625V28.8669H24.9375V22.5312Z" fill="white"/>
<path d="M23.5318 28.0548L18.045 31.2227L18.9825 32.8465L24.4693 29.6786L23.5318 28.0548Z" fill="white"/>
<path d="M24.4689 28.0539L23.5314 29.6777L29.0183 32.8455L29.9558 31.2217L24.4689 28.0539Z" fill="white"/>
</g>
<defs>
<clipPath id="clip0_1326_47283">
<rect width="48" height="48" fill="white"/>
</clipPath>
</defs>
</svg>