<?xml version="1.0" encoding="utf-8"?>
<svg xmlns="http://www.w3.org/2000/svg" width="48" height="48" viewBox="0 0 48 48" fill="none">
<g clip-path="url(#clip0_1328_26483)">
<path d="M40.5 0H7.5C3.35786 0 0 3.35786 0 7.5V40.5C0 44.6421 3.35786 48 7.5 48H40.5C44.6421 48 48 44.6421 48 40.5V7.5C48 3.35786 44.6421 0 40.5 0Z" fill="#502D3C"/>
<path d="M12.6489 10.0693V37.93H35.3514V17.5318L27.8899 10.0693H12.6489Z" fill="white"/>
<path d="M35.3512 17.5318L27.8896 10.0693V17.5318H35.3512Z" fill="#FDB71C"/>
<path d="M31.6997 31.0898H16.3003V32.9648H31.6997V31.0898Z" fill="#502D3C"/>
<path d="M31.6997 25.9434H16.3003V27.8184H31.6997V25.9434Z" fill="#502D3C"/>
<path d="M31.7 20.7959H24.3359V22.6709H31.7V20.7959Z" fill="#502D3C"/>
<path d="M22.5459 19.8407C22.5459 18.2854 21.2803 17.0198 19.725 17.0198H18.1725C17.6512 17.0198 17.2266 16.5951 17.2266 16.0739C17.2266 15.5526 17.6512 15.1279 18.1725 15.1279H21.6075V13.2529H19.8853V12.0576H18.0103V13.2586C16.53 13.3429 15.3516 14.5739 15.3516 16.0748C15.3516 17.5757 16.6172 18.8957 18.1725 18.8957H19.725C20.2462 18.8957 20.6709 19.3204 20.6709 19.8417C20.6709 20.3629 20.2462 20.7876 19.725 20.7876H16.2881V22.6626H18.0112V23.8579H19.8862V22.6579C21.3675 22.5745 22.5469 21.3436 22.5469 19.8417L22.5459 19.8407Z" fill="#FDB71C"/>
</g>
<defs>
<clipPath id="clip0_1328_26483">
<rect width="48" height="48" fill="white"/>
</clipPath>
</defs>
</svg>