<?xml version="1.0" encoding="utf-8"?>
<svg xmlns="http://www.w3.org/2000/svg" width="20" height="20" viewBox="0 0 20 20" fill="none">
<path d="M18.125 2.5H1.875V14.375H3.75V18.6964L8.07138 14.375H12.5V13.125H7.55362L5 15.6786V13.125H3.125V3.75H16.875V8.75H18.125V2.5Z" fill="#402530"/>
<path fill-rule="evenodd" clip-rule="evenodd" d="M11.9508 5.44206C11.2186 4.70983 10.0314 4.70982 9.29918 5.44206L9.19194 5.54929C8.45971 6.28152 8.45971 7.46871 9.19194 8.20094L15.3661 14.3751H18.125V11.6162L11.9508 5.44206ZM11.6225 6.88152L11.0669 6.32594C10.8229 6.08186 10.4271 6.08186 10.1831 6.32594L10.0758 6.43317C9.83175 6.67725 9.83175 7.07298 10.0758 7.31706L10.6314 7.87264L11.6225 6.88152ZM11.5153 8.75652L15.8839 13.1251H16.875V12.134L12.5064 7.76541L11.5153 8.75652Z" fill="#402530"/>
</svg>