<?xml version="1.0" encoding="utf-8"?>
<svg xmlns="http://www.w3.org/2000/svg" width="24" height="24" viewBox="0 0 24 24" fill="none">
<path fill-rule="evenodd" clip-rule="evenodd" d="M7.43551 19.7163C6.7912 19.7134 6.1478 19.4661 5.65621 18.9745C5.16582 18.4841 4.91857 17.8427 4.91445 17.2C4.27148 17.196 3.62973 16.9488 3.13915 16.4582C2.15006 15.4691 2.15006 13.8655 3.13915 12.8764L3.58947 12.4261L3.35114 12.1878C0.932081 9.76871 0.865981 5.86702 3.25859 3.47441C5.6512 1.0818 9.55289 1.1479 11.9719 3.56696L12.0388 3.6338L12.1942 3.48521C14.6559 1.19846 18.4552 1.11047 20.7892 3.44445C23.1728 5.82805 23.0303 9.73998 20.5996 12.1946L21.1921 12.7871C22.1859 13.7809 22.2242 15.3981 21.2232 16.3991C20.7282 16.8942 20.0823 17.1348 19.4357 17.1314C19.439 17.778 19.1984 18.424 18.7033 18.9191C18.2082 19.4141 17.5624 19.6549 16.9159 19.6517C16.9191 20.2983 16.6783 20.9441 16.1832 21.4392C15.1823 22.4401 13.565 22.4017 12.5713 21.4079L12.209 21.0457L11.7591 21.4956C10.77 22.4847 9.16638 22.4847 8.1773 21.4956C7.6857 21.004 7.43844 20.3606 7.43551 19.7163ZM4.4118 11.1271C2.55412 9.26943 2.53654 6.31779 4.31925 4.53507C6.10197 2.75236 9.05361 2.76994 10.9113 4.62762L10.9781 4.69446L9.75848 5.91411C8.75867 6.91392 8.75867 8.53494 9.75848 9.53476C10.7366 10.5129 12.3147 10.5372 13.3225 9.58968L14.6372 8.35358L20.1315 13.8478C20.564 14.2803 20.5535 14.9475 20.1626 15.3385C19.7745 15.7266 19.1125 15.7392 18.68 15.3149L17.6192 16.3755C18.0435 16.8082 18.0309 17.4702 17.6426 17.8584C17.2518 18.2492 16.5846 18.2598 16.1521 17.8272L15.0914 18.8878C15.5239 19.3204 15.5135 19.9876 15.1225 20.3785C14.7317 20.7693 14.0645 20.7799 13.632 20.3473L13.2508 19.9661C13.99 18.9744 13.9093 17.5646 13.0088 16.6641C12.5172 16.1725 11.8738 15.9252 11.2295 15.9223C11.2266 15.278 10.9793 14.6346 10.4877 14.143C9.99723 13.6525 9.35559 13.4052 8.71272 13.4012C8.70867 12.7584 8.46141 12.1169 7.97095 11.6264C7.07051 10.726 5.66074 10.6453 4.669 11.3843L4.4118 11.1271ZM9.23053 18.982C9.23303 18.9795 9.23552 18.977 9.23801 18.9745L10.4877 17.7248C10.4902 17.7223 10.4927 17.7198 10.4952 17.7173C10.8991 17.3215 11.5474 17.3239 11.9482 17.7248C12.3515 18.1281 12.3515 18.7819 11.9482 19.1852L10.6984 20.435C10.2951 20.8383 9.64126 20.8383 9.23796 20.435C8.83715 20.0342 8.83467 19.3859 9.23053 18.982ZM9.43443 16.6567C9.43196 16.6592 9.42949 16.6616 9.42702 16.6641L8.1773 17.9138C8.17481 17.9163 8.17232 17.9188 8.16985 17.9213C7.76598 18.3172 7.11768 18.3147 6.71687 17.9139C6.33668 17.5337 6.31489 16.9308 6.65152 16.5251C6.67498 16.5033 6.69813 16.481 6.72095 16.4582L7.97095 15.2082C7.99389 15.1853 8.01629 15.162 8.03816 15.1384C8.44387 14.8017 9.04684 14.8234 9.42708 15.2037C9.82791 15.6045 9.83036 16.2529 9.43443 16.6567ZM6.90594 14.143C6.92883 14.1201 6.95204 14.0978 6.97557 14.0759C7.31227 13.6702 7.29051 13.0673 6.91029 12.6871C6.50699 12.2838 5.85311 12.2838 5.44981 12.6871L4.19981 13.9371C3.79651 14.3404 3.79651 14.9942 4.19981 15.3975C4.58007 15.7778 5.18311 15.7995 5.58882 15.4627C5.61075 15.4391 5.63321 15.4157 5.65621 15.3927L6.90594 14.143ZM10.8191 6.97477C10.4051 7.38879 10.4051 8.06007 10.8191 8.4741C11.2242 8.87913 11.8777 8.8892 12.295 8.49684L14.4867 6.43627L15.6035 5.31944L16.6642 6.3801L15.7246 7.31965L19.5389 11.1339C21.4393 9.20992 21.4723 6.24894 19.7285 4.50511C17.9776 2.75419 14.9996 2.79466 13.0763 4.71799L10.8191 6.97477Z" fill="#502D3C"/>
</svg>