<?xml version="1.0" encoding="utf-8"?>
<svg xmlns="http://www.w3.org/2000/svg" width="24" height="24" viewBox="0 0 24 24" fill="none">
<path fill-rule="evenodd" clip-rule="evenodd" d="M2.77047 3.08972C4.34102 2.58485 6.21586 2.47428 8.14176 2.8423C9.5821 3.11753 10.8962 3.63079 12 4.30924C13.1038 3.63079 14.4179 3.11753 15.8582 2.8423C17.7841 2.47428 19.659 2.58485 21.2295 3.08972L21.75 3.25704V17.2539L20.7705 16.939C19.4616 16.5183 17.8432 16.4114 16.1398 16.7369C14.7005 17.012 13.4283 17.5523 12.4253 18.2428L12 18.5355L11.5747 18.2428C10.5717 17.5523 9.29955 17.012 7.86022 16.7369C6.15677 16.4114 4.5384 16.5183 3.22953 16.939L2.25 17.2539V3.25704L2.77047 3.08972ZM3.75 4.3711V15.2555C5.09502 14.981 6.60208 14.9694 8.14176 15.2636C9.26851 15.4789 10.318 15.8399 11.25 16.3116V5.60907C10.3027 5.02046 9.14842 4.5618 7.86022 4.31564C6.37609 4.03204 4.95654 4.07665 3.75 4.3711ZM15.8582 15.2636C14.7315 15.4789 13.682 15.8399 12.75 16.3116V5.60907C13.6973 5.02046 14.8516 4.5618 16.1398 4.31564C17.6239 4.03204 19.0435 4.07665 20.25 4.3711V15.2555C18.905 14.981 17.3979 14.9694 15.8582 15.2636Z" fill="#502D3C"/>
<path d="M21.75 18.7077L20.7705 18.3928C19.4616 17.972 17.8432 17.8651 16.1398 18.1907C14.7005 18.4657 13.4283 19.006 12.4253 19.6965L12 19.9893L11.5747 19.6965C10.5717 19.006 9.29955 18.4657 7.86022 18.1907C6.15677 17.8651 4.5384 17.972 3.22953 18.3928L2.25 18.7077V20.2065L3.22953 19.8916C4.5384 19.4709 6.15677 19.364 7.86022 19.6895C9 19.875 11.3417 21.2135 12 21.6604C12.6583 21.2135 15 19.875 16.1398 19.6895C17.8432 19.364 19.4616 19.4709 20.7705 19.8916L21.75 20.2065V18.7077Z" fill="#502D3C"/>
</svg>