<?xml version="1.0" encoding="utf-8"?>
<svg xmlns="http://www.w3.org/2000/svg" width="48" height="48" viewBox="0 0 48 48" fill="none">
<g id="CreditCard">
<g id="Vector">
<path d="M15.75 36.75V39.75C15.75 40.9926 16.7574 42 18 42H45.75C46.9926 42 48 40.9926 48 39.75V36.75C48 37.9926 46.9926 39 45.75 39H18C16.7574 39 15.75 37.9926 15.75 36.75Z" fill="#502D3C"/>
<path d="M15.75 20.25C15.75 19.0074 16.7574 18 18 18H45.75C46.9926 18 48 19.0074 48 20.25V36.75C48 37.9926 46.9926 39 45.75 39H18C16.7574 39 15.75 37.9926 15.75 36.75V20.25Z" fill="#825568"/>
<path d="M48 30H2.25C1.00736 30 0 28.9926 0 27.75V24.75C0 25.9926 1.00736 27 2.25 27H30C31.2426 27 32.25 25.9926 32.25 24.75V24H48V30Z" fill="#502D3C"/>
<path d="M0 8.25C0 7.00736 1.00736 6 2.25 6H30C31.2426 6 32.25 7.00736 32.25 8.25V24.75C32.25 25.9926 31.2426 27 30 27H2.25C1.00736 27 0 25.9926 0 24.75V8.25Z" fill="#FDB71C"/>
<path d="M3.75 15C3.75 14.5858 4.08579 14.25 4.5 14.25H9C9.41421 14.25 9.75 14.5858 9.75 15V18C9.75 18.4142 9.41421 18.75 9 18.75H4.5C4.08579 18.75 3.75 18.4142 3.75 18V15Z" fill="#825568"/>
</g>
</g>
</svg>