<?xml version="1.0" encoding="utf-8"?>
<svg xmlns="http://www.w3.org/2000/svg" width="20" height="16" viewBox="0 0 20 16" fill="none">
<path fill-rule="evenodd" clip-rule="evenodd" d="M16.9639 14.6502C17.4653 14.4605 17.9297 14.1845 18.336 13.8347C19.0749 13.2033 19.6023 12.3604 19.8471 11.4199C20.0919 10.4793 20.0424 9.48627 19.7052 8.57475C19.3679 7.66322 18.7592 6.87706 17.9612 6.32233C17.1631 5.76759 16.2142 5.47098 15.2422 5.47249H14.8927C14.0586 5.53842 13.2559 5.81939 12.5627 6.288V0.967773H10.621V14.6502H12.5757V14.1583C13.2131 14.5884 13.9452 14.8578 14.7093 14.9434C15.4735 15.0291 16.247 14.9285 16.9639 14.6502ZM18.0473 10.2542C18.0552 10.6168 17.9906 10.9773 17.8573 11.3146C17.7241 11.6518 17.5247 11.9591 17.2711 12.2183C17.0175 12.4775 16.7147 12.6835 16.3804 12.8241C16.0461 12.9647 15.6871 13.0371 15.3244 13.0371C14.9618 13.0371 14.6027 12.9647 14.2685 12.8241C13.9342 12.6835 13.6313 12.4775 13.3777 12.2183C13.1241 11.9591 12.9248 11.6518 12.7915 11.3146C12.6582 10.9773 12.5936 10.6168 12.6015 10.2542C12.617 9.54234 12.9107 8.86485 13.4197 8.36688C13.9286 7.8689 14.6124 7.59005 15.3244 7.59005C16.0365 7.59005 16.7202 7.8689 17.2291 8.36688C17.7381 8.86485 18.0318 9.54234 18.0473 10.2542Z" fill="white"/>
<path d="M3.65006 12.7409C4.30922 13.0412 5.06071 13.0675 5.73922 12.8138C6.41772 12.5601 6.96767 12.0473 7.26807 11.3881H9.41687C9.1399 12.5229 8.45674 13.5168 7.49658 14.1819C6.53643 14.8471 5.36583 15.1374 4.20615 14.9979C3.04646 14.8584 1.97808 14.2988 1.20304 13.4249C0.42799 12.5511 0 11.4235 0 10.2555C0 9.08745 0.42799 7.95989 1.20304 7.08604C1.97808 6.21218 3.04646 5.65261 4.20615 5.51312C5.36583 5.37364 6.53643 5.66391 7.49658 6.32906C8.45674 6.9942 9.1399 7.98812 9.41687 9.12284H7.26807C7.08516 8.72145 6.80774 8.37033 6.45956 8.09951C6.11137 7.82869 5.70277 7.64623 5.26871 7.56773C4.83464 7.48924 4.38802 7.51704 3.96704 7.64876C3.54606 7.78049 3.16325 8.01221 2.85134 8.32412C2.53943 8.63603 2.3077 9.01884 2.17598 9.43983C2.04426 9.86081 2.01645 10.3074 2.09495 10.7415C2.17345 11.1756 2.35591 11.5842 2.62672 11.9323C2.89754 12.2805 3.24866 12.5579 3.65006 12.7409Z" fill="white"/>
</svg>