<?xml version="1.0" encoding="utf-8"?>
<svg xmlns="http://www.w3.org/2000/svg" width="48" height="48" viewBox="0 0 48 48" fill="none">
<g clip-path="url(#clip0_1328_26183)">
<path d="M40.5 0H7.5C3.35786 0 0 3.35786 0 7.5V40.5C0 44.6421 3.35786 48 7.5 48H40.5C44.6421 48 48 44.6421 48 40.5V7.5C48 3.35786 44.6421 0 40.5 0Z" fill="#502D3C"/>
<path d="M26.7084 31.2285V33.1035H21.299V31.2285H8.1084C8.1084 32.1733 8.48373 33.0795 9.15183 33.7476C9.81993 34.4157 10.7261 34.791 11.6709 34.791H36.3384C37.2832 34.791 38.1894 34.4157 38.8575 33.7476C39.5256 33.0795 39.9009 32.1733 39.9009 31.2285H26.7084Z" fill="#FDB71C"/>
<path d="M21.299 31.228V33.103H26.7084V31.228H37.4896V14.1309C37.4896 13.8822 37.3908 13.6438 37.215 13.4679C37.0392 13.2921 36.8008 13.1934 36.5521 13.1934H11.5706C11.3219 13.1934 11.0835 13.2921 10.9076 13.4679C10.7318 13.6438 10.6331 13.8822 10.6331 14.1309V31.228H21.299ZM12.5081 15.0684H35.6127V29.3634H12.5081V15.0684Z" fill="white"/>
</g>
<defs>
<clipPath id="clip0_1328_26183">
<rect width="48" height="48" fill="white"/>
</clipPath>
</defs>
</svg>