<?xml version="1.0" encoding="utf-8"?>
<svg xmlns="http://www.w3.org/2000/svg" width="48" height="48" viewBox="0 0 48 48" fill="none">
<g clip-path="url(#clip0_1328_26475)">
<path d="M40.5 0H7.5C3.35786 0 0 3.35786 0 7.5V40.5C0 44.6421 3.35786 48 7.5 48H40.5C44.6421 48 48 44.6421 48 40.5V7.5C48 3.35786 44.6421 0 40.5 0Z" fill="#502D3C"/>
<path d="M36.5805 25.0682L28.6867 31.4104C28.2452 31.7657 27.6948 31.9588 27.1277 31.9588H22.3258V30.1757H27.0161C28.1317 30.1757 29.0842 29.3085 29.1217 28.1929C29.1602 27.0276 28.2273 26.0704 27.0705 26.0704H19.2198C17.268 26.0704 15.3967 26.8457 14.0167 28.2257L8.55859 33.6838L14.4002 39.9941L16.7505 37.6438L28.4692 37.146C29.3711 37.1113 30.2242 36.726 30.8467 36.0716L38.9523 27.6604C39.5898 26.9985 39.6114 25.9588 39.002 25.2716C38.3795 24.5685 37.3145 24.4785 36.5823 25.0673L36.5805 25.0682Z" fill="#FDB71C"/>
<path d="M28.112 18.9802C28.112 17.2243 26.6833 15.7955 24.9273 15.7955H23.0748C22.352 15.7955 21.7651 15.2077 21.7651 14.4859C21.7651 13.764 22.3529 13.1762 23.0748 13.1762H27.1736V11.3012H24.9376V9.69336H23.0626V11.3021C21.3123 11.3087 19.8901 12.7346 19.8901 14.4868C19.8901 16.239 21.3189 17.6715 23.0748 17.6715H24.9273C25.6501 17.6715 26.237 18.2593 26.237 18.9812C26.237 19.703 25.6492 20.2909 24.9273 20.2909H20.8258V22.1659H23.0626V23.7737H24.9376V22.1649C26.6889 22.1593 28.112 20.7334 28.112 18.9802Z" fill="white"/>
</g>
<defs>
<clipPath id="clip0_1328_26475">
<rect width="48" height="48" fill="white"/>
</clipPath>
</defs>
</svg>