<?xml version="1.0" encoding="utf-8"?>
<svg xmlns="http://www.w3.org/2000/svg" width="24" height="24" viewBox="0 0 24 24" fill="none">
<g clip-path="url(#clip0_6141_6829)">
<path d="M0 0H24V24H0V0Z" fill="#00008B"/>
<path d="M12 0V1.5L7.54688 6L12 10.3828V12H10.4297L5.95312 7.59375L1.59375 12H0V10.4062L4.35938 6.02344L0 1.73438V0H1.45312L5.95312 4.40625L10.3125 0H12Z" fill="white"/>
<path d="M4.3125 7.59375L4.57031 8.39062L0.984375 12H0V11.9297L4.3125 7.59375ZM7.21875 7.3125L8.48438 7.5L12 10.9453V12L7.21875 7.3125ZM12 0L7.5 4.59375L7.40625 3.5625L10.9219 0H12ZM0 0.0234375L4.52344 4.45312L3.14062 4.26562L0 1.14844V0.0234375Z" fill="#FF0000"/>
<path d="M4.125 0V12H7.875V0H4.125ZM0 4.125V7.875H12V4.125H0Z" fill="white"/>
<path d="M0 4.875V7.125H12V4.875H0ZM4.875 0V12H7.125V0H4.875Z" fill="#FF0000"/>
<path d="M9.46875 18.8812L7.32187 19.1344L7.5375 21.2859L6 19.7672L4.45312 21.2766L4.68281 19.125L2.53593 18.8531L4.35937 17.6906L3.23437 15.8438L5.27812 16.5469L6.01875 14.5125L6.74531 16.5516L8.79375 15.8625L7.65468 17.7L9.47343 18.8766L9.46875 18.8812ZM19.9078 19.2562L18.9469 19.3781L19.05 20.3391L18.3562 19.6641L17.6672 20.3438L17.7609 19.3828L16.8 19.2703L17.6109 18.7453L17.1 17.925L18.0187 18.2297L18.3422 17.3156L18.675 18.225L19.5891 17.9109L19.0875 18.7359L19.9078 19.2562ZM19.4531 13.7625L19.5797 13.1531L19.1203 12.7313L19.7391 12.6609L19.9969 12.0938L20.2547 12.6609L20.8734 12.7313L20.4141 13.1531L20.5406 13.7625L19.9969 13.4531L19.4531 13.7625ZM15.5109 10.95L14.5594 11.0531L14.6437 12.0047L13.9687 11.325L13.275 11.9859L13.3875 11.0344L12.4406 10.9078L13.2516 10.4016L12.7594 9.58125L13.6641 9.9L14.0016 9.00469L14.3156 9.90937L15.225 9.61406L14.7141 10.425L15.5109 10.95ZM23.7516 9.4125L22.7719 9.53906L22.8797 10.5187L22.1719 9.82969L21.4687 10.5234L21.5672 9.53906L20.5875 9.42656L21.4172 8.8875L20.8969 8.04844L21.8344 8.3625L22.1625 7.43438L22.5 8.3625L23.4328 8.03906L22.9172 8.88281L23.7516 9.4125ZM19.9031 5.49844L18.9328 5.60625L19.0219 6.58125L18.3328 5.8875L17.625 6.5625L17.7375 5.59219L16.7672 5.46094L17.5969 4.94531L17.0953 4.10625L18.0187 4.42969L18.3609 3.51562L18.6797 4.43906L19.6078 4.13437L19.0875 4.95938L19.9031 5.49844Z" fill="white"/>
</g>
<defs>
<clipPath id="clip0_6141_6829">
<rect width="24" height="24" rx="4" fill="white"/>
</clipPath>
</defs>
</svg>