<?xml version="1.0" encoding="utf-8"?>
<svg xmlns="http://www.w3.org/2000/svg" width="48" height="48" viewBox="0 0 48 48" fill="none">
<path d="M33 48.002H18C18 43.8598 21.3579 40.502 25.5 40.502C29.6421 40.502 33 43.8598 33 48.002Z" fill="#FDB71C"/>
<path d="M10.5765 4.19902C6.8167 8.05151 4.5 13.3187 4.5 19.127C4.5 30.9321 14.0699 40.502 25.875 40.502C31.9957 40.502 37.5156 37.9294 41.4123 33.8065L40.7981 34.4207L37.6207 31.2433C34.5828 34.1888 30.4406 36.002 25.875 36.002C16.5552 36.002 9 28.4468 9 19.127C9 14.5613 10.8132 10.4191 13.7587 7.38126L10.5765 4.19902Z" fill="#825568"/>
<path d="M14.127 0.640625L10.5725 4.19507L13.7587 7.38126C14.9373 6.16568 16.2973 5.12691 17.7949 4.30856L14.127 0.640625Z" fill="#502D3C"/>
<path d="M40.6934 27.2071C39.875 28.7047 38.8363 30.0646 37.6207 31.2433L40.7981 34.4207L44.3525 30.8662L40.6934 27.2071Z" fill="#502D3C"/>
<path d="M42.75 19.127C42.75 28.4468 35.1948 36.002 25.875 36.002C16.5552 36.002 9 28.4468 9 19.127C9 9.80715 16.5552 2.25195 25.875 2.25195C35.1948 2.25195 42.75 9.80715 42.75 19.127Z" fill="#FDB71C"/>
<path d="M11.25 13.502L15 18.002V21.002L18.75 25.502L18.8439 30.002L20.25 31.502H22.5L24.0008 30.3415V28.1314L27.6848 24.002V20.252H24.75L21.75 17.252H18L15.75 15.002V12.0537L21.75 12.002L25.4744 7.50195V2.25662C19.3908 2.39835 14.1034 5.75958 11.25 10.7026V13.502Z" fill="#502D3C"/>
<path d="M36.7272 6.20378L33.75 9.75196V12.752H37.5V15.002H39.75V17.252H35.25L33 19.502V22.502L35.25 24.752H38.25L40.6975 27.1995C42.0062 24.8016 42.75 22.0511 42.75 19.127C42.75 13.9398 40.4096 9.2993 36.7272 6.20378Z" fill="#502D3C"/>
</svg>