<?xml version="1.0" encoding="utf-8"?>
<svg xmlns="http://www.w3.org/2000/svg" width="20" height="20" viewBox="0 0 20 20" fill="none">
<path d="M10.0097 1.73633C7.7465 1.73633 7.46247 1.74622 6.57357 1.78668C5.68641 1.8273 5.08085 1.96775 4.55098 2.17383C4.00289 2.38668 3.53795 2.67141 3.07475 3.13478C2.61121 3.59798 2.32648 4.06292 2.11294 4.61084C1.90634 5.14088 1.76571 5.74661 1.72578 6.63343C1.6862 7.52233 1.67578 7.80653 1.67578 10.0697C1.67578 12.333 1.68585 12.6161 1.72613 13.505C1.76693 14.3922 1.90738 14.9978 2.11329 15.5276C2.32631 16.0757 2.61103 16.5407 3.07441 17.0038C3.53743 17.4674 4.00237 17.7528 4.55012 17.9657C5.08033 18.1717 5.68607 18.3122 6.57305 18.3528C7.46195 18.3933 7.74581 18.4032 10.0089 18.4032C12.2722 18.4032 12.5554 18.3933 13.4443 18.3528C14.3315 18.3122 14.9377 18.1717 15.4679 17.9657C16.0159 17.7528 16.4801 17.4674 16.9431 17.0038C17.4067 16.5407 17.6914 16.0757 17.9049 15.5278C18.1098 14.9978 18.2504 14.392 18.2921 13.5052C18.332 12.6163 18.3424 12.333 18.3424 10.0697C18.3424 7.80653 18.332 7.5225 18.2921 6.6336C18.2504 5.74644 18.1098 5.14088 17.9049 4.61101C17.6914 4.06291 17.4067 3.59798 16.9431 3.13478C16.4796 2.67123 16.016 2.38651 15.4674 2.17383C14.9362 1.96775 14.3303 1.8273 13.4431 1.78668C12.5542 1.74622 12.2712 1.73633 10.0073 1.73633H10.0097ZM9.26214 3.23808C9.48402 3.23773 9.73159 3.23808 10.0097 3.23808C12.2347 3.23808 12.4985 3.24607 13.3771 3.286C14.1896 3.32315 14.6306 3.45892 14.9244 3.57298C15.3132 3.72402 15.5905 3.90458 15.882 4.19625C16.1737 4.48792 16.3542 4.7657 16.5056 5.15459C16.6197 5.448 16.7556 5.88898 16.7926 6.70148C16.8325 7.57997 16.8412 7.84386 16.8412 10.0678C16.8412 12.2918 16.8325 12.5557 16.7926 13.4342C16.7555 14.2467 16.6197 14.6877 16.5056 14.9811C16.3546 15.37 16.1737 15.6469 15.882 15.9384C15.5903 16.2301 15.3134 16.4106 14.9244 16.5617C14.6309 16.6762 14.1896 16.8117 13.3771 16.8488C12.4986 16.8887 12.2347 16.8974 10.0097 16.8974C7.78452 16.8974 7.52081 16.8887 6.64233 16.8488C5.82982 16.8113 5.38884 16.6755 5.09491 16.5615C4.70602 16.4104 4.42824 16.2299 4.13657 15.9382C3.8449 15.6465 3.66434 15.3695 3.51295 14.9804C3.39889 14.687 3.26295 14.246 3.22597 13.4335C3.18604 12.555 3.17805 12.2911 3.17805 10.0658C3.17805 7.84038 3.18604 7.57788 3.22597 6.6994C3.26312 5.88689 3.39889 5.44592 3.51295 5.15216C3.664 4.76327 3.8449 4.48549 4.13657 4.19382C4.42824 3.90215 4.70602 3.72159 5.09491 3.5702C5.38867 3.45562 5.82982 3.3202 6.64233 3.28287C7.41108 3.24815 7.709 3.23773 9.26214 3.236V3.23808ZM14.458 4.62177C14.2602 4.62177 14.0669 4.68043 13.9024 4.79033C13.738 4.90023 13.6098 5.05643 13.5341 5.23918C13.4584 5.42193 13.4386 5.62301 13.4773 5.81701C13.5159 6.011 13.6112 6.18918 13.751 6.32902C13.8909 6.46886 14.0691 6.56408 14.2632 6.60262C14.4572 6.64117 14.6582 6.62132 14.841 6.54558C15.0237 6.46983 15.1798 6.34161 15.2897 6.17711C15.3995 6.01261 15.4581 5.81924 15.458 5.62144C15.458 5.06935 15.0101 4.62143 14.458 4.62143V4.62177ZM10.0097 5.79019C7.64633 5.79019 5.73016 7.70636 5.73016 10.0697C5.73016 12.4331 7.64633 14.3484 10.0097 14.3484C12.3731 14.3484 14.2888 12.4331 14.2888 10.0697C14.2888 7.70636 12.3731 5.79019 10.0097 5.79019ZM10.0097 7.29194C11.5438 7.29194 12.7875 8.53553 12.7875 10.0697C12.7875 11.6038 11.5438 12.8476 10.0097 12.8476C8.4755 12.8476 7.23191 11.6038 7.23191 10.0697C7.23191 8.53553 8.4755 7.29194 10.0097 7.29194Z" fill="white"/>
</svg>