<?xml version="1.0" encoding="utf-8"?>
<svg xmlns="http://www.w3.org/2000/svg" width="48" height="48" viewBox="0 0 48 48" fill="none">
<g clip-path="url(#clip0_1328_26179)">
<path d="M40.5 0H7.5C3.35786 0 0 3.35786 0 7.5V40.5C0 44.6421 3.35786 48 7.5 48H40.5C44.6421 48 48 44.6421 48 40.5V7.5C48 3.35786 44.6421 0 40.5 0Z" fill="#502D3C"/>
<path d="M31.2638 22.8818H22.5245C22.298 22.075 21.7871 21.3775 21.0862 20.9181C20.3853 20.4588 19.5418 20.2687 18.7116 20.383C17.8815 20.4973 17.1208 20.9083 16.5701 21.54C16.0194 22.1717 15.7161 22.9813 15.7161 23.8193C15.7161 24.6573 16.0194 25.467 16.5701 26.0987C17.1208 26.7304 17.8815 27.1414 18.7116 27.2557C19.5418 27.37 20.3853 27.1799 21.0862 26.7206C21.7871 26.2612 22.298 25.5637 22.5245 24.7568H26.5792V27.1006H28.4542V24.7568H30.3292V27.1006H32.2042V23.8193C32.2042 23.696 32.1798 23.5739 32.1325 23.4599C32.0852 23.346 32.0159 23.2425 31.9286 23.1554C31.8412 23.0683 31.7375 22.9993 31.6235 22.9524C31.5094 22.9054 31.3872 22.8815 31.2638 22.8818ZM19.1851 25.4131C18.8699 25.4131 18.5617 25.3196 18.2997 25.1445C18.0376 24.9694 17.8333 24.7205 17.7127 24.4292C17.592 24.138 17.5605 23.8176 17.622 23.5084C17.6835 23.1993 17.8353 22.9153 18.0581 22.6924C18.281 22.4695 18.565 22.3177 18.8742 22.2562C19.1833 22.1947 19.5038 22.2263 19.795 22.3469C20.0862 22.4675 20.3351 22.6718 20.5103 22.9339C20.6854 23.196 20.7788 23.5041 20.7788 23.8193C20.779 24.0287 20.7378 24.2361 20.6578 24.4295C20.5778 24.623 20.4604 24.7988 20.3124 24.9469C20.1644 25.095 19.9886 25.2125 19.7952 25.2926C19.6018 25.3728 19.3945 25.414 19.1851 25.414V25.4131Z" fill="white"/>
<path d="M24.0001 11.4229C26.3495 11.4203 28.6519 12.0802 30.6432 13.3269L28.8395 15.1307H33.9564V10.0138L31.9998 11.9704C29.6322 10.3881 26.8478 9.54493 24.0001 9.54786C16.0314 9.54786 9.54762 16.0316 9.54762 24.0004C9.54434 26.8611 10.395 29.6576 11.9907 32.0319L13.3464 30.6772C12.0871 28.6781 11.4201 26.363 11.4226 24.0004C11.4226 17.0629 17.0626 11.4229 24.0001 11.4229ZM36.0086 15.9697L34.6548 17.3235C35.9139 19.3227 36.5806 21.6377 36.5776 24.0004C36.5776 30.9379 30.9357 36.5779 24.0001 36.5779C21.642 36.5806 19.3312 35.9162 17.3345 34.6616L19.1907 32.8044H14.0739V37.9213L15.9798 36.0154C18.3514 37.6073 21.1438 38.456 24.0001 38.4529C31.9689 38.4529 38.4526 31.9691 38.4526 24.0004C38.4557 21.1398 37.6046 18.3436 36.0086 15.9697Z" fill="#FDB71C"/>
</g>
<defs>
<clipPath id="clip0_1328_26179">
<rect width="48" height="48" fill="white"/>
</clipPath>
</defs>
</svg>