<?xml version="1.0" encoding="utf-8"?>
<svg xmlns="http://www.w3.org/2000/svg" width="48" height="48" viewBox="0 0 48 48" fill="none">
<g clip-path="url(#clip0_1387_18176)">
<path d="M40.5 0H7.5C3.35786 0 0 3.35786 0 7.5V40.5C0 44.6421 3.35786 48 7.5 48H40.5C44.6421 48 48 44.6421 48 40.5V7.5C48 3.35786 44.6421 0 40.5 0Z" fill="#502D3C"/>
<path d="M23.9999 24V28.7981C23.9991 28.8968 23.9693 28.9931 23.9143 29.075C23.8592 29.1569 23.7813 29.2208 23.6902 29.2588C23.599 29.2967 23.4988 29.3071 23.4019 29.2885C23.3049 29.2699 23.2156 29.2233 23.1449 29.1544C22.8503 28.8885 22.5001 28.6917 22.1198 28.5782C21.7395 28.4647 21.3387 28.4373 20.9465 28.4981C20.2727 28.5962 19.6613 28.9465 19.236 29.4783C18.8106 30.01 18.6031 30.6834 18.6554 31.3623C18.7077 32.0412 19.0159 32.6749 19.5176 33.1352C20.0193 33.5955 20.6772 33.8481 21.3581 33.8419C22.0208 33.8431 22.6601 33.5967 23.1506 33.1509C23.2213 33.0828 23.3105 33.037 23.407 33.0191C23.5036 33.0012 23.6032 33.0121 23.6937 33.0503C23.7841 33.0886 23.8613 33.1525 23.9158 33.2342C23.9702 33.3159 23.9995 33.4118 23.9999 33.51V38.3109C25.8792 38.3108 27.7399 37.9406 29.4761 37.2213C31.2122 36.502 32.7896 35.4479 34.1184 34.119C35.4471 32.7901 36.501 31.2125 37.2201 29.4763C37.9391 27.7401 38.3091 25.8792 38.309 24H23.9999Z" fill="white"/>
<path d="M33.5034 24.0005H38.3091C38.3091 20.2055 36.8015 16.5659 34.118 13.8824C31.4346 11.199 27.795 9.69141 24 9.69141V24.0005H28.8094C29.2556 24.0005 29.4591 24.5245 29.1591 24.8555C28.8937 25.1486 28.6969 25.4971 28.5829 25.8757C28.4689 26.2544 28.4406 26.6536 28.5 27.0445C28.5981 27.7171 28.9475 28.3275 29.4777 28.7526C30.008 29.1777 30.6798 29.386 31.3575 29.3355C32.0353 29.285 32.6688 28.9794 33.1301 28.4803C33.5915 27.9812 33.8465 27.3258 33.8438 26.6461C33.8452 25.9827 33.598 25.3428 33.1509 24.8527C33.0827 24.7823 33.0366 24.6935 33.0182 24.5972C32.9998 24.5009 33.0099 24.4014 33.0474 24.3108C33.0849 24.2203 33.148 24.1426 33.229 24.0875C33.3101 24.0323 33.4054 24.0021 33.5034 24.0005Z" fill="#FDB71C"/>
<path d="M27.0544 14.1905C26.662 14.1296 26.2611 14.157 25.8806 14.2705C25.5002 14.384 25.1498 14.5809 24.855 14.8467C24.7843 14.9156 24.695 14.9623 24.5981 14.9808C24.5011 14.9994 24.4009 14.9891 24.3098 14.9511C24.2187 14.9131 24.1407 14.8492 24.0857 14.7673C24.0306 14.6854 24.0008 14.5892 24 14.4905V9.69141C20.205 9.69141 16.5654 11.199 13.8819 13.8824C11.1985 16.5659 9.69092 20.2055 9.69092 24.0005H24V19.2005C24.0004 19.1023 24.0297 19.0064 24.0841 18.9247C24.1386 18.843 24.2158 18.779 24.3062 18.7408C24.3967 18.7026 24.4964 18.6917 24.5929 18.7096C24.6894 18.7275 24.7786 18.7733 24.8494 18.8414C25.3398 19.2872 25.9791 19.5336 26.6419 19.5323C27.3208 19.5354 27.9757 19.2814 28.475 18.8213C28.9742 18.3612 29.2808 17.7292 29.3331 17.0523C29.3853 16.3754 29.1794 15.7038 28.7566 15.1725C28.3339 14.6412 27.7257 14.2897 27.0544 14.1886V14.1905Z" fill="white"/>
<path d="M23.1506 33.1494C22.6607 33.5965 22.0214 33.8443 21.3581 33.8441C20.9225 33.8448 20.4933 33.7395 20.1075 33.5374C19.7216 33.3352 19.3907 33.0423 19.1433 32.6838C18.8959 32.3253 18.7394 31.912 18.6873 31.4795C18.6351 31.0471 18.689 30.6084 18.8441 30.2014C18.9993 29.7944 19.2511 29.4312 19.5779 29.1432C19.9046 28.8552 20.2965 28.651 20.7198 28.5481C21.1431 28.4453 21.585 28.447 22.0075 28.553C22.43 28.659 22.8204 28.8661 23.145 29.1566C23.2156 29.2255 23.305 29.2721 23.4019 29.2907C23.4988 29.3093 23.5991 29.2989 23.6902 29.261C23.7813 29.223 23.8592 29.1591 23.9143 29.0772C23.9694 28.9953 23.9992 28.899 24 28.8003V24.0003H19.2065C19.1084 23.9996 19.0125 23.9702 18.9309 23.9156C18.8493 23.8611 18.7854 23.7838 18.7472 23.6933C18.709 23.6029 18.6982 23.5032 18.716 23.4067C18.7338 23.3101 18.7795 23.2209 18.8475 23.15C19.1938 22.7638 19.4209 22.2855 19.5013 21.773C19.5817 21.2604 19.5119 20.7356 19.3004 20.2619C19.0889 19.7882 18.7448 19.3858 18.3095 19.1035C17.8743 18.8211 17.3666 18.6709 16.8478 18.6709C16.329 18.6709 15.8213 18.8211 15.3861 19.1035C14.9508 19.3858 14.6067 19.7882 14.3952 20.2619C14.1837 20.7356 14.1139 21.2604 14.1943 21.773C14.2747 22.2855 14.5018 22.7638 14.8481 23.15C14.9149 23.221 14.9596 23.31 14.9765 23.406C14.9935 23.502 14.9821 23.6009 14.9437 23.6905C14.9052 23.7801 14.8415 23.8565 14.7602 23.9104C14.679 23.9643 14.5837 23.9933 14.4862 23.9938H9.69092C9.69018 25.8734 10.0597 27.7347 10.7785 29.4715C11.4973 31.2082 12.5511 32.7864 13.8799 34.1158C15.2087 35.4452 16.7863 36.4998 18.5228 37.2193C20.2592 37.9389 22.1204 38.3093 24 38.3094V33.5085C23.9995 33.4103 23.9703 33.3144 23.9158 33.2327C23.8614 33.151 23.7842 33.087 23.6937 33.0488C23.6033 33.0106 23.5036 32.9997 23.4071 33.0176C23.3105 33.0355 23.2213 33.0813 23.1506 33.1494Z" fill="#FDB71C"/>
</g>
<defs>
<clipPath id="clip0_1387_18176">
<rect width="48" height="48" fill="white"/>
</clipPath>
</defs>
</svg>