<?xml version="1.0" encoding="utf-8"?>
<svg xmlns="http://www.w3.org/2000/svg" width="48" height="48" viewBox="0 0 48 48" fill="none">
<g clip-path="url(#clip0_1328_26191)">
<path d="M40.5 0H7.5C3.35786 0 0 3.35786 0 7.5V40.5C0 44.6421 3.35786 48 7.5 48H40.5C44.6421 48 48 44.6421 48 40.5V7.5C48 3.35786 44.6421 0 40.5 0Z" fill="#502D3C"/>
<path d="M11.7825 20.3037H36.2175C36.2175 21.1896 35.8655 22.0392 35.2391 22.6657C34.6127 23.2921 33.7631 23.644 32.8772 23.644H15.1228C14.2369 23.644 13.3873 23.2921 12.7608 22.6657C12.1344 22.0392 11.7825 21.1896 11.7825 20.3037Z" fill="#FDB71C"/>
<path d="M33.96 20.3034V8.48438C33.96 8.23573 33.8613 7.99728 33.6854 7.82146C33.5096 7.64565 33.2712 7.54688 33.0225 7.54688H14.9775C14.7289 7.54688 14.4904 7.64565 14.3146 7.82146C14.1388 7.99728 14.04 8.23573 14.04 8.48438V20.3034H33.96ZM15.915 9.42188H32.085V18.495H15.915V9.42188Z" fill="white"/>
<path d="M41.8238 33.8158L36.5119 28.5049H11.4872L6.17627 33.8158L7.50283 35.1424L11.49 31.1552V40.4533H36.5119V31.1561L40.4981 35.1424L41.8238 33.8158Z" fill="#FDB71C"/>
<path d="M22.7363 34.4786L24.0001 35.7424L25.2638 34.4786L26.5351 35.7508V28.5049H21.4651V35.7508L22.7363 34.4786Z" fill="white"/>
<path d="M22.7363 34.4786L24.0001 35.7424L25.2638 34.4786L26.5351 35.7508V28.5049H21.4651V35.7508L22.7363 34.4786Z" fill="white"/>
</g>
<defs>
<clipPath id="clip0_1328_26191">
<rect width="48" height="48" fill="white"/>
</clipPath>
</defs>
</svg>