<?xml version="1.0" encoding="utf-8"?>
<svg xmlns="http://www.w3.org/2000/svg" width="24" height="24" viewBox="0 0 24 24" fill="none">
<path fill-rule="evenodd" clip-rule="evenodd" d="M18.3281 18.3281H15.6695V14.1249C15.6695 13.1216 15.6496 11.8325 14.2859 11.8325C12.9012 11.8325 12.6899 12.9243 12.6899 14.0514V18.3281H10.0312V9.6841H12.5822V10.8645H12.6181C12.974 10.1852 13.8422 9.46875 15.1372 9.46875C17.8307 9.46875 18.3281 11.2589 18.3281 13.5875V18.3281ZM6.93801 8.62496C6.08091 8.62496 5.39062 7.93225 5.39062 7.07761C5.39062 6.22396 6.08091 5.53125 6.93801 5.53125C7.79012 5.53125 8.4844 6.22396 8.4844 7.07761C8.4844 7.93225 7.79012 8.62496 6.93801 8.62496ZM5.67188 18.3281H8.34377V9.75H5.67188V18.3281ZM19.667 3H4.327C3.595 3 3 3.582 3 4.297V19.702C3 20.42 3.595 21 4.327 21H19.667C20.4 21 21 20.42 21 19.702V4.297C21 3.582 20.4 3 19.667 3Z" fill="white"/>
</svg>