<?xml version="1.0" encoding="utf-8"?>
<svg xmlns="http://www.w3.org/2000/svg" width="48" height="48" viewBox="0 0 48 48" fill="none">
<g id="LocalCurrency">
<g id="Vector">
<path d="M20.25 45C20.25 45 25.5155 45 17.5046 45C9.49381 45 3 38.4566 3 30.375C3 22.2934 9.49381 15.75 17.5046 15.75H20.25V45Z" fill="#825568"/>
<path d="M20.625 45C28.7022 45 35.25 38.4522 35.25 30.375C35.25 22.2978 28.7022 15.75 20.625 15.75C12.5478 15.75 6 22.2978 6 30.375C6 38.4522 12.5478 45 20.625 45Z" fill="#502D3C"/>
<path d="M24.75 32.25C24.75 32.25 30.0155 32.25 22.0046 32.25C13.9938 32.25 7.5 25.7066 7.5 17.625C7.5 9.54338 13.9938 3 22.0046 3H24.75V32.25Z" fill="#825568"/>
<path d="M25.125 32.25C33.2022 32.25 39.75 25.7022 39.75 17.625C39.75 9.54784 33.2022 3 25.125 3C17.0478 3 10.5 9.54784 10.5 17.625C10.5 25.7022 17.0478 32.25 25.125 32.25Z" fill="#502D3C"/>
<path d="M30 45C30 45 35.2655 45 27.2546 45C19.2438 45 12.75 38.4566 12.75 30.375C12.75 22.2934 19.2438 15.75 27.2546 15.75H30V45Z" fill="#825568"/>
<path d="M30.375 45C38.4522 45 45 38.4522 45 30.375C45 22.2978 38.4522 15.75 30.375 15.75C22.2978 15.75 15.75 22.2978 15.75 30.375C15.75 38.4522 22.2978 45 30.375 45Z" fill="#FDB71C"/>
<path d="M31.5033 24.7464H34.6358V26.9964H28.8277C28.2006 26.9964 27.6925 27.5046 27.6925 28.1316C27.6925 28.7586 28.2006 29.2668 28.8277 29.2668H31.9223C33.792 29.2668 35.3075 30.7823 35.3075 32.6519C35.3075 34.5216 33.792 36.0371 31.9223 36.0371H31.5033V37.8749H29.2533V36.0371H26.1142V33.7871H31.9223C32.5493 33.7871 33.0575 33.279 33.0575 32.6519C33.0575 32.0249 32.5493 31.5168 31.9223 31.5168H28.8277C26.958 31.5168 25.4425 30.0013 25.4425 28.1316C25.4425 26.2619 26.958 24.7464 28.8277 24.7464H29.2533V22.8751H31.5033V24.7464Z" fill="#502D3C"/>
</g>
</g>
</svg>