<?xml version="1.0" encoding="utf-8"?>
<svg xmlns="http://www.w3.org/2000/svg" width="24" height="24" viewBox="0 0 24 24" fill="none">
<path fill-rule="evenodd" clip-rule="evenodd" d="M18.5265 10.1874L21.5288 7.19816L20.4704 6.13519L17.7968 8.79716L17.0402 8.04052L19.7219 5.35882L18.6612 4.29816L15.9795 6.97986L15.2008 6.20114L17.8721 3.54148L16.8137 2.47852L13.8184 5.46084C12.738 6.53652 12.6485 8.23027 13.551 9.40838L12.3205 10.6389L4.37098 2.68946L3.31032 3.75012C2.13875 4.9217 2.13875 6.82119 3.31032 7.99277L9.06383 13.7463L3.84053 18.9696L4.90119 20.0302L10.1245 14.8069L11.6538 16.3362L13.7751 14.2149L19.2155 19.6553L20.2762 18.5947L13.3811 11.6996L14.6149 10.4658C15.788 11.3438 17.4579 11.2514 18.5265 10.1874ZM4.37098 4.81078C3.78519 5.39657 3.78519 6.34632 4.37098 6.93211L11.6538 14.2149L12.7144 13.1542L4.37098 4.81078Z" fill="#502D3C"/>
</svg>