<?xml version="1.0" encoding="utf-8"?>
<svg xmlns="http://www.w3.org/2000/svg" width="48" height="48" viewBox="0 0 48 48" fill="none">
<rect width="48" height="48" rx="8" fill="white"/>
<path d="M30.5023 29.9898C25.9752 26.5275 26.4791 23.5284 26.4222 22.293H29.1856C29.5107 21.6915 29.6733 21.1389 29.6733 20.4399L26.5441 18.3755C27.6332 17.5871 28.3403 16.3029 28.3403 14.8562C28.3403 13.0356 27.2187 11.467 25.6257 10.8249C25.1218 10.6217 21.5782 22.293 21.5782 22.293C21.5619 22.5612 21.5619 22.9107 21.5619 23.3333C21.5619 24.4956 24.4066 24.3168 24.2521 25.3408C24.0246 26.8688 23.9758 28.0392 22.6591 31.7129C21.7732 34.2 15.8482 31.7129 15.4255 32.932C15.1329 33.7773 14.9785 34.7283 14.9785 35.7523C14.9785 35.858 15.2142 37.4998 24.0002 37.4998C32.7862 37.4998 33.0219 35.858 33.0219 35.7523C33.0219 33.2572 32.0953 31.2009 30.5023 29.9898Z" fill="#5D9948"/>
<path d="M23.8378 31.5424C24.3255 29.3155 24.7562 26.9422 25.0245 25.5199C25.3496 23.748 22.6674 23.4311 21.5621 23.2685C21.5133 24.7803 21.0907 27.2429 17.4901 29.9901C16.5229 30.7297 15.7996 31.7863 15.377 33.0704C16.3523 33.5418 17.6446 33.8263 19.644 33.8263C20.9281 33.8263 23.3014 33.9807 23.8378 31.5424ZM25.7234 22.2851C26.1461 21.1797 26.0973 20.432 26.0973 20.432L24.3255 18.3675C26.2111 17.5629 27.349 16.043 27.349 14.2793C27.349 12.8733 26.6744 11.6135 25.6422 10.8251C25.1382 10.6219 24.5856 10.5 24.0085 10.5C21.6108 10.5 19.6683 12.4425 19.6683 14.8483C19.6683 16.295 20.3754 17.5792 21.4646 18.3675L18.3354 20.432C18.3354 21.1228 18.498 21.6836 18.8231 22.2851H25.7234Z" fill="#81B64C"/>
<path d="M23.7561 11.3948C26.2594 11.7849 22.602 14.6946 21.4479 14.5564C20.3506 14.4183 21.4072 11.029 23.7561 11.3948Z" fill="#B2E068"/>
</svg>