<?xml version="1.0" encoding="utf-8"?>
<svg xmlns="http://www.w3.org/2000/svg" width="48" height="48" viewBox="0 0 48 48" fill="none">
<rect width="48" height="48" rx="8" fill="white"/>
<path d="M24.0184 30.0048L24.6523 32.0446L24.657 32.0398H26.708L25.0485 33.2928L25.6825 35.3327L24.0231 34.0699L22.3637 35.3327L22.9976 33.2928L21.3335 32.0446H23.3845L24.0184 30.0048Z" fill="black"/>
<path d="M26.8571 15.347L22.7086 19.1741L16.9985 24.4292V19.0867L23.9578 12.666L26.8571 15.347Z" fill="black"/>
<path d="M23.9578 21.35L26.8571 24.0309L22.7086 27.8678L16.9985 33.1131V27.7707L23.9578 21.35Z" fill="black"/>
<path d="M24.2888 27.0227L27.1927 24.3418L31.001 27.8581V33.2006L24.2888 27.0227Z" fill="black"/>
<path d="M31.001 24.5069L24.2888 18.3388L27.1927 15.6578L31.001 19.1741V24.5069Z" fill="black"/>
</svg>