<?xml version="1.0" encoding="utf-8"?>
<svg xmlns="http://www.w3.org/2000/svg" width="48" height="48" viewBox="0 0 48 48" fill="none">
<path d="M0 6.4C0 2.86538 2.86538 0 6.4 0H41.6C45.1346 0 48 2.86538 48 6.4V41.6C48 45.1346 45.1346 48 41.6 48H6.4C2.86538 48 0 45.1346 0 41.6V6.4Z" fill="white"/>
<path d="M31.7894 13.5996H16.2106C15.101 13.5996 14.2007 14.4981 14.2007 15.6055V23.5384C14.2007 29.5366 19.0736 34.3996 25.0841 34.3996H31.7894C32.899 34.3996 33.7993 33.5012 33.7993 32.3937V15.6055C33.7993 14.4981 32.899 13.5996 31.7894 13.5996Z" fill="#D14310"/>
<path d="M31.3963 30.1174C31.0818 30.1174 30.9283 29.9537 30.9283 29.6157V26.0537C30.9283 24.9983 30.6003 24.1711 29.9528 23.5962C29.3063 23.0213 28.4079 22.7305 27.2819 22.7305C26.5562 22.7305 25.9252 22.8489 25.407 23.0829C24.8908 23.3179 24.471 23.6299 24.1584 24.0112C23.8467 24.3925 23.6171 24.823 23.4772 25.292L23.4704 25.3151L25.2082 25.8746L25.214 25.8485C25.3163 25.3892 25.5324 25.0108 25.8557 24.7209C26.177 24.4339 26.6508 24.2885 27.2635 24.2885C27.8762 24.2885 28.3539 24.4398 28.654 24.7373C28.9521 25.0368 29.1036 25.4384 29.1036 25.9314V26.4687H26.4906C25.8567 26.4687 25.2825 26.5698 24.7846 26.7682C24.2829 26.9685 23.8834 27.2699 23.5958 27.6638C23.3064 28.0576 23.1606 28.5612 23.1606 29.1602C23.1606 29.7591 23.3073 30.2551 23.5958 30.6663C23.8824 31.0774 24.2761 31.3933 24.7663 31.6052C25.2536 31.816 25.8152 31.9229 26.4375 31.9229C27.0599 31.9229 27.525 31.8363 27.8907 31.6668C28.2564 31.4954 28.5372 31.2893 28.7254 31.0543C28.9068 30.8271 29.0477 30.6239 29.1432 30.4496H29.3671V30.4775C29.3671 30.8473 29.5002 31.1429 29.7637 31.3567C30.0242 31.5695 30.3667 31.6774 30.7807 31.6774H32.1595V30.1183H31.3963V30.1174ZM29.1036 28.0711C29.1036 28.7856 28.8817 29.3557 28.4436 29.7649C28.0056 30.1732 27.4189 30.3812 26.7019 30.3812C26.1819 30.3812 25.7679 30.2647 25.4688 30.0355C25.1716 29.8073 25.0201 29.4944 25.0201 29.1063C25.0201 28.7182 25.1648 28.4226 25.4504 28.2232C25.736 28.0229 26.122 27.9209 26.5968 27.9209H29.1036V28.0711Z" fill="white"/>
</svg>