<?xml version="1.0" encoding="utf-8"?>
<svg xmlns="http://www.w3.org/2000/svg" width="48" height="48" viewBox="0 0 48 48" fill="none">
<rect width="48" height="48" rx="8" fill="white"/>
<path fill-rule="evenodd" clip-rule="evenodd" d="M14.7503 19.5532C15.2182 19.3167 15.577 18.9609 15.577 18.2927C15.577 17.2525 14.6828 16.7871 13.6226 16.7871H11V22.7097H13.598C14.7845 22.7097 15.7108 22.2693 15.7108 20.9666C15.7108 20.2224 15.3264 19.8417 14.7503 19.5532ZM12.2861 17.9207H13.6472C14.1152 17.9207 14.2566 18.2504 14.2566 18.5216C14.2566 18.809 14.0649 19.0889 13.7468 19.0889H12.2861V17.9207ZM12.2861 21.5588V20.1292H13.6397C13.9824 20.1292 14.3669 20.2648 14.3669 20.831C14.3669 21.1694 14.1998 21.5588 13.7318 21.5588H12.2861Z" fill="black"/>
<path d="M17.8057 16.7871H16.4938V22.7097H20.5332V21.5675H17.8057V16.7871Z" fill="black"/>
<path fill-rule="evenodd" clip-rule="evenodd" d="M22.9898 16.7871L20.9348 22.7097H22.3634L22.7296 21.5078H24.6947L25.0106 22.7097H26.4895L24.6358 16.7871H22.9898ZM24.4109 20.4253H23.0616L23.7833 18.1181L24.4109 20.4253Z" fill="black"/>
<path d="M37.7409 16.7871H36.0873L34.0324 18.9663V16.7871H32.7462V22.7097H34.0237V20.5913L34.5849 20.0196L36.3627 22.7097H37.941L35.4544 19.1247L37.7409 16.7871Z" fill="black"/>
<path d="M28.5028 16.7871L30.7077 20.882V16.7871H31.9018V22.7097H30.5652L28.3271 18.5552V22.7097H27.1331V16.7871H28.5028Z" fill="black"/>
<path d="M10.0701 27.2554L11.4568 27.5938H11.4581C12.4518 27.839 12.9529 28.339 12.9529 29.2101C12.9529 30.5627 11.926 31.2147 10.5306 31.2147C8.96917 31.2147 8 30.6647 8 29.1504H9.30336C9.39537 29.8869 9.79598 30.1234 10.506 30.1234C10.99 30.1234 11.625 29.9455 11.625 29.4292C11.625 29.1157 11.4323 28.9812 11.0649 28.8792L9.36978 28.4226C8.82682 28.2794 8.18317 27.8726 8.18317 26.79C8.18317 25.4699 9.41039 25.0469 10.5134 25.0469C11.9249 25.0469 12.7259 25.5795 12.8683 27.0178H11.5651C11.5651 26.341 11.0306 26.1468 10.4879 26.1468C10.0284 26.1468 9.46835 26.2574 9.46835 26.7141C9.46835 27.0265 9.81946 27.1957 10.0701 27.2554Z" fill="black"/>
<path d="M28.6293 28.508H25.9403V29.9626H29.0716V31.0973H24.6037V25.1746H29.0223V26.3255H25.9403V27.4591H28.6293V28.508Z" fill="black"/>
<path fill-rule="evenodd" clip-rule="evenodd" d="M23.4524 29.2532C23.4105 28.5764 23.2102 28.3985 22.6672 28.1956C23.3527 27.9331 23.6279 27.4428 23.6279 26.7573C23.6279 26.1314 23.3527 25.5977 22.7423 25.3439C22.3749 25.1833 21.999 25.1746 21.606 25.1746H18.9246V31.0984H20.2278V28.738H21.4808C21.9231 28.738 22.1158 29.0005 22.1575 29.4398L22.2742 30.7935C22.2913 31.0137 22.3996 31.0984 22.5077 31.0984H23.7607V30.8955C23.585 30.7089 23.5433 30.6081 23.5186 30.2436L23.4524 29.2532ZM21.5815 27.6879H20.2278V26.3093H21.5815C21.9906 26.3093 22.2913 26.4611 22.2913 26.9612C22.2913 27.4612 21.9906 27.689 21.5815 27.689V27.6879Z" fill="black"/>
<path d="M35.1136 26.3255V25.1746H40V26.3255H38.2214V31.0973H36.9009V26.3255H35.1136Z" fill="black"/>
<path d="M31.2962 28.508H33.9433V27.4591H31.2962V26.3255H34.3363V25.1746H29.9854V31.0973H34.3866V29.9626H31.2962V28.508Z" fill="black"/>
<path d="M15.0826 26.2995H13.3208V25.1746H18.1485V26.2995H16.3857V31.0973H15.0826V26.2995Z" fill="black"/>
</svg>