<?xml version="1.0" encoding="utf-8"?>
<svg xmlns="http://www.w3.org/2000/svg" width="48" height="48" viewBox="0 0 48 48" fill="none">
<g id="OnboardingEmployee">
<g id="Vector">
<path d="M33 12.75C33 17.7206 28.9706 21.75 24 21.75C19.0294 21.75 15 17.7206 15 12.75C15 7.77944 19.0294 3.75 24 3.75C28.9706 3.75 33 7.77944 33 12.75Z" fill="#825568"/>
<path d="M2.25 35.25C2.25 30.2794 6.27944 26.25 11.25 26.25H36.75C41.7206 26.25 45.75 30.2794 45.75 35.25C45.75 40.2206 41.7206 44.25 36.75 44.25H11.25C6.27944 44.25 2.25 40.2206 2.25 35.25Z" fill="#825568"/>
<path d="M37.842 26.25V44.25H34.7759C29.653 44.25 25.5 40.2206 25.5 35.25C25.5 30.2794 29.653 26.25 34.7759 26.25C39.8989 26.25 37.842 26.25 37.842 26.25Z" fill="#502D3C"/>
<path d="M46.5 35.25C46.5 40.2206 42.4706 44.25 37.5 44.25C32.5294 44.25 28.5 40.2206 28.5 35.25C28.5 30.2794 32.5294 26.25 37.5 26.25C42.4706 26.25 46.5 30.2794 46.5 35.25Z" fill="#FDB71C"/>
<path d="M36.375 36.375L36.375 39.75L38.625 39.75L38.625 36.375L42 36.375L42 34.125L38.625 34.125L38.625 30.75L36.375 30.75L36.375 34.125L33 34.125L33 36.375L36.375 36.375Z" fill="#502D3C"/>
</g>
</g>
</svg>