<?xml version="1.0" encoding="utf-8"?>
<svg xmlns="http://www.w3.org/2000/svg" width="48" height="48" viewBox="0 0 48 48" fill="none">
<g clip-path="url(#clip0_1326_47235)">
<path d="M40.5 0H7.5C3.35786 0 0 3.35786 0 7.5V40.5C0 44.6421 3.35786 48 7.5 48H40.5C44.6421 48 48 44.6421 48 40.5V7.5C48 3.35786 44.6421 0 40.5 0Z" fill="#502D3C"/>
<path d="M24 38.4529C16.0312 38.4529 9.54749 31.9691 9.54749 24.0004C9.54749 16.0316 16.0312 9.54785 24 9.54785C31.9687 9.54785 38.4525 16.0316 38.4525 24.0004C38.4525 31.9691 31.9687 38.4529 24 38.4529ZM24 11.4229C17.0625 11.4229 11.4225 17.0629 11.4225 24.0004C11.4225 30.9379 17.0625 36.5779 24 36.5779C30.9375 36.5779 36.5775 30.9379 36.5775 24.0004C36.5775 17.0629 30.9375 11.4229 24 11.4229Z" fill="white"/>
<path d="M25.125 23.0633H22.8825C22.6388 23.0801 22.3943 23.0466 22.1642 22.9649C21.934 22.8832 21.7231 22.7551 21.5445 22.5884C21.366 22.4218 21.2236 22.2202 21.1263 21.9962C21.029 21.7722 20.9787 21.5305 20.9787 21.2863C20.9787 21.0421 21.029 20.8004 21.1263 20.5764C21.2236 20.3524 21.366 20.1508 21.5445 19.9842C21.7231 19.8175 21.934 19.6893 22.1642 19.6076C22.3943 19.5259 22.6388 19.4925 22.8825 19.5093H27.8334V17.6343H24.9375V15.7236H23.0625V17.6343H22.8825C22.3881 17.6105 21.8941 17.6873 21.4303 17.8601C20.9665 18.0329 20.5427 18.2981 20.1844 18.6396C19.8261 18.981 19.5409 19.3917 19.346 19.8466C19.1511 20.3016 19.0507 20.7914 19.0507 21.2863C19.0507 21.7812 19.1511 22.271 19.346 22.7259C19.5409 23.1809 19.8261 23.5915 20.1844 23.933C20.5427 24.2745 20.9665 24.5396 21.4303 24.7124C21.8941 24.8852 22.3881 24.9621 22.8825 24.9383H25.125C25.5751 24.9694 25.9967 25.1701 26.3046 25.4999C26.6125 25.8298 26.7837 26.2641 26.7837 26.7154C26.7837 27.1666 26.6125 27.601 26.3046 27.9308C25.9967 28.2606 25.5751 28.4613 25.125 28.4924H20.1656V30.3674H23.0625V32.278H24.9375V30.3674H25.125C26.0632 30.3223 26.9481 29.9178 27.5961 29.2379C28.2442 28.5579 28.6057 27.6547 28.6057 26.7154C28.6057 25.7761 28.2442 24.8728 27.5961 24.1928C26.9481 23.5129 26.0632 23.1084 25.125 23.0633Z" fill="#FDB71C"/>
</g>
<defs>
<clipPath id="clip0_1326_47235">
<rect width="48" height="48" fill="white"/>
</clipPath>
</defs>
</svg>