<?xml version="1.0" encoding="utf-8"?>
<svg xmlns="http://www.w3.org/2000/svg" width="48" height="48" viewBox="0 0 48 48" fill="none">
<g clip-path="url(#clip0_1326_47543)">
<path d="M40.5 0H7.5C3.35786 0 0 3.35786 0 7.5V40.5C0 44.6421 3.35786 48 7.5 48H40.5C44.6421 48 48 44.6421 48 40.5V7.5C48 3.35786 44.6421 0 40.5 0Z" fill="#502D3C"/>
<path d="M24.045 11.3327C25.1732 11.3327 26.0878 10.4181 26.0878 9.28988C26.0878 8.16167 25.1732 7.24707 24.045 7.24707C22.9168 7.24707 22.0022 8.16167 22.0022 9.28988C22.0022 10.4181 22.9168 11.3327 24.045 11.3327Z" fill="#FDB71C"/>
<path d="M27.9778 16.5939C27.9778 15.5509 27.5635 14.5506 26.8259 13.813C26.0884 13.0755 25.088 12.6611 24.045 12.6611C23.002 12.6611 22.0016 13.0755 21.2641 13.813C20.5265 14.5506 20.1122 15.5509 20.1122 16.5939H27.9778Z" fill="#FDB71C"/>
<path d="M13.1287 23.6882C14.257 23.6882 15.1716 22.7736 15.1716 21.6454C15.1716 20.5171 14.257 19.6025 13.1287 19.6025C12.0005 19.6025 11.0859 20.5171 11.0859 21.6454C11.0859 22.7736 12.0005 23.6882 13.1287 23.6882Z" fill="#FDB71C"/>
<path d="M17.0625 28.9495C17.0132 27.9397 16.5773 26.9875 15.8452 26.2903C15.113 25.593 14.1408 25.2041 13.1297 25.2041C12.1187 25.2041 11.1464 25.593 10.4142 26.2903C9.6821 26.9875 9.24622 27.9397 9.1969 28.9495H17.0625Z" fill="#FDB71C"/>
<path d="M36.7748 22.4272C37.2066 21.3848 36.7116 20.1898 35.6693 19.7581C34.6269 19.3264 33.4319 19.8213 33.0002 20.8637C32.5684 21.906 33.0634 23.101 34.1058 23.5327C35.1481 23.9645 36.3431 23.4695 36.7748 22.4272Z" fill="#FDB71C"/>
<path d="M38.82 28.9489C38.846 28.4163 38.7636 27.8839 38.5777 27.3841C38.3918 26.8843 38.1063 26.4275 37.7385 26.0414C37.3708 25.6552 36.9284 25.3478 36.4383 25.1377C35.9482 24.9277 35.4205 24.8193 34.8872 24.8193C34.354 24.8193 33.8263 24.9277 33.3361 25.1377C32.846 25.3478 32.4036 25.6552 32.0359 26.0414C31.6681 26.4275 31.3826 26.8843 31.1967 27.3841C31.0108 27.8839 30.9284 28.4163 30.9544 28.9489H38.82Z" fill="#FDB71C"/>
<path d="M24.0075 34.9294C25.1357 34.9294 26.0503 34.0148 26.0503 32.8866C26.0503 31.7583 25.1357 30.8438 24.0075 30.8438C22.8793 30.8438 21.9647 31.7583 21.9647 32.8866C21.9647 34.0148 22.8793 34.9294 24.0075 34.9294Z" fill="#FDB71C"/>
<path d="M27.9375 40.1918C27.9456 39.6703 27.8498 39.1524 27.6558 38.6682C27.4618 38.1841 27.1735 37.7433 26.8075 37.3717C26.4416 37 26.0053 36.7049 25.5242 36.5034C25.0431 36.302 24.5268 36.1982 24.0052 36.1982C23.4836 36.1982 22.9673 36.302 22.4862 36.5034C22.0051 36.7049 21.5688 37 21.2029 37.3717C20.8369 37.7433 20.5486 38.1841 20.3546 38.6682C20.1606 39.1524 20.0648 39.6703 20.0729 40.1918H27.9375Z" fill="#FDB71C"/>
<path d="M32.1563 11.6592H29.1272V13.5342H32.1563C32.631 13.5347 33.0862 13.7235 33.4219 14.0592C33.7576 14.3949 33.9464 14.8501 33.9469 15.3248V17.3442H35.8219V15.3248C35.8209 14.3529 35.4344 13.4211 34.7472 12.7339C34.0599 12.0467 33.1281 11.6602 32.1563 11.6592Z" fill="white"/>
<path d="M12.1875 15.3248V17.3442H14.0625V15.3248C14.063 14.8501 14.2518 14.3949 14.5875 14.0592C14.9232 13.7235 15.3784 13.5347 15.8531 13.5342H18.8859V11.6592H15.8559C14.8836 11.6594 13.9511 12.0456 13.2632 12.7329C12.5754 13.4202 12.1885 14.3524 12.1875 15.3248Z" fill="white"/>
<path d="M14.0625 33.3808V31.458H12.1875V33.3808C12.1885 34.3527 12.575 35.2845 13.2622 35.9717C13.9495 36.6589 14.8812 37.0455 15.8531 37.0464H18.8859V35.1714H15.8559C15.3807 35.1717 14.9248 34.9832 14.5885 34.6474C14.2522 34.3117 14.063 33.8561 14.0625 33.3808Z" fill="white"/>
<path d="M33.9506 33.3808C33.9501 33.8556 33.7613 34.3107 33.4256 34.6464C33.0899 34.9821 32.6348 35.171 32.16 35.1714H29.1272V37.0464H32.1563C33.1281 37.0455 34.0599 36.6589 34.7472 35.9717C35.4344 35.2845 35.8209 34.3527 35.8219 33.3808V31.458H33.9469L33.9506 33.3808Z" fill="white"/>
</g>
<defs>
<clipPath id="clip0_1326_47543">
<rect width="48" height="48" fill="white"/>
</clipPath>
</defs>
</svg>