<?xml version="1.0" encoding="utf-8"?>
<svg xmlns="http://www.w3.org/2000/svg" width="48" height="48" viewBox="0 0 48 48" fill="none">
<g clip-path="url(#clip0_1326_48081)">
<path d="M40.5 0H7.5C3.35786 0 0 3.35786 0 7.5V40.5C0 44.6421 3.35786 48 7.5 48H40.5C44.6421 48 48 44.6421 48 40.5V7.5C48 3.35786 44.6421 0 40.5 0Z" fill="#502D3C"/>
<path d="M30.796 12.75C30.0396 12.7509 29.3042 12.9986 28.7013 13.4554C28.0985 13.9123 27.6612 14.5533 27.4557 15.2813H18.7163C18.4677 15.2813 18.2292 15.38 18.0534 15.5558C17.8776 15.7317 17.7788 15.9701 17.7788 16.2188V19.5H19.6538V17.1563H21.5288V19.5H23.4038V17.1563H27.4585C27.633 17.7779 27.9775 18.3385 28.4533 18.7749C28.9291 19.2114 29.5173 19.5064 30.1516 19.6267C30.7859 19.7471 31.4413 19.688 32.0439 19.4561C32.6464 19.2242 33.1723 18.8288 33.5624 18.3143C33.9524 17.7998 34.1911 17.1866 34.2516 16.5438C34.3121 15.901 34.192 15.254 33.9048 14.6758C33.6176 14.0975 33.1747 13.6109 32.626 13.2707C32.0773 12.9304 31.4445 12.7501 30.7988 12.75H30.796ZM30.796 17.8125C30.4808 17.8125 30.1726 17.719 29.9106 17.5439C29.6485 17.3688 29.4442 17.1199 29.3236 16.8287C29.2029 16.5374 29.1714 16.217 29.2329 15.9078C29.2944 15.5987 29.4462 15.3147 29.669 15.0918C29.8919 14.8689 30.1759 14.7171 30.4851 14.6556C30.7942 14.5941 31.1147 14.6257 31.4059 14.7463C31.6971 14.8669 31.946 15.0712 32.1211 15.3333C32.2963 15.5954 32.3897 15.9035 32.3897 16.2188C32.3897 16.6414 32.2218 17.0468 31.9229 17.3457C31.6241 17.6446 31.2187 17.8125 30.796 17.8125Z" fill="white"/>
<path d="M36.3367 20.8725L28.443 27.2157C28.0007 27.5704 27.4508 27.7638 26.8839 27.7641H22.082V25.9828H26.7696C27.8852 25.9828 28.8377 25.1157 28.8742 24C28.8837 23.7248 28.8376 23.4504 28.7388 23.1933C28.6399 22.9362 28.4903 22.7016 28.2989 22.5036C28.1075 22.3055 27.8782 22.148 27.6246 22.0405C27.3711 21.9329 27.0984 21.8775 26.823 21.8775H18.9752C18.0088 21.8776 17.0519 22.0681 16.1591 22.4381C15.2664 22.808 14.4552 23.3503 13.772 24.0338L8.31299 29.4891L14.1564 35.7994L16.5067 33.4491L28.2255 32.9522C29.1273 32.9159 29.9795 32.5295 30.6011 31.875L38.7067 23.4638C39.0142 23.1448 39.19 22.7216 39.1992 22.2787C39.2084 21.8357 39.0503 21.4056 38.7564 21.0741C38.4561 20.7363 38.0373 20.527 37.5869 20.4895C37.1364 20.452 36.6888 20.5891 36.3367 20.8725Z" fill="#FDB71C"/>
</g>
<defs>
<clipPath id="clip0_1326_48081">
<rect width="48" height="48" fill="white"/>
</clipPath>
</defs>
</svg>