<?xml version="1.0" encoding="utf-8"?>
<svg xmlns="http://www.w3.org/2000/svg" width="20" height="20" viewBox="0 0 20 20" fill="none">
<path fill-rule="evenodd" clip-rule="evenodd" d="M10 1.25C7.78426 1.25 5.86902 2.53095 4.95206 4.39077C2.87724 4.57318 1.25 6.31531 1.25 8.4375C1.25 10.3586 2.58309 11.9678 4.375 12.3912V18.75H15.625V12.3912C17.4169 11.9678 18.75 10.3586 18.75 8.4375C18.75 6.31531 17.1228 4.57318 15.0479 4.39077C14.131 2.53095 12.2157 1.25 10 1.25ZM5.94265 5.23483C6.59206 3.63016 8.1648 2.5 10 2.5C11.8352 2.5 13.4079 3.63016 14.0573 5.23483L14.2179 5.6315L14.6458 5.6253C14.6597 5.6251 14.6736 5.625 14.6875 5.625C16.2408 5.625 17.5 6.8842 17.5 8.4375C17.5 9.90427 16.3767 11.1094 14.9439 11.2385L14.375 11.2898V15H13.125V12.5H11.875V15H10.625V12.5H9.375V15H8.125V12.5H6.875V15H5.625V11.2898L5.05609 11.2385C3.62328 11.1094 2.5 9.90427 2.5 8.4375C2.5 6.8842 3.7592 5.625 5.3125 5.625C5.32643 5.625 5.34035 5.6251 5.35424 5.6253L5.78212 5.6315L5.94265 5.23483ZM5.625 16.25V17.5H14.375V16.25H5.625Z" fill="#402530"/>
</svg>