<?xml version="1.0" encoding="utf-8"?>
<svg xmlns="http://www.w3.org/2000/svg" width="24" height="24" viewBox="0 0 24 24" fill="none">
<path fill-rule="evenodd" clip-rule="evenodd" d="M12 1.5C9.34111 1.5 7.04282 3.03714 5.94248 5.26893C3.45269 5.48781 1.5 7.57837 1.5 10.125C1.5 12.4303 3.09971 14.3613 5.25 14.8694V22.5H18.75V14.8694C20.9003 14.3613 22.5 12.4303 22.5 10.125C22.5 7.57837 20.5473 5.48781 18.0575 5.26893C16.9572 3.03714 14.6589 1.5 12 1.5ZM7.13118 6.2818C7.91047 4.3562 9.79775 3 12 3C14.2022 3 16.0895 4.3562 16.8688 6.2818L17.0615 6.7578L17.5749 6.75036C17.5916 6.75012 17.6083 6.75 17.625 6.75C19.489 6.75 21 8.26104 21 10.125C21 11.8851 19.6521 13.3313 17.9327 13.4862L17.25 13.5477V18H15.75V15H14.25V18H12.75V15H11.25V18H9.75V15H8.25V18H6.75V13.5477L6.06731 13.4862C4.34793 13.3313 3 11.8851 3 10.125C3 8.26104 4.51104 6.75 6.375 6.75C6.39172 6.75 6.40841 6.75012 6.42509 6.75036L6.93855 6.7578L7.13118 6.2818ZM6.75 19.5V21H17.25V19.5H6.75Z" fill="#502D3C"/>
</svg>