<?xml version="1.0" encoding="utf-8"?>
<svg xmlns="http://www.w3.org/2000/svg" width="48" height="48" viewBox="0 0 48 48" fill="none">
<g clip-path="url(#clip0_1326_47395)">
<path d="M40.5 0H7.5C3.35786 0 0 3.35786 0 7.5V40.5C0 44.6421 3.35786 48 7.5 48H40.5C44.6421 48 48 44.6421 48 40.5V7.5C48 3.35786 44.6421 0 40.5 0Z" fill="#502D3C"/>
<path d="M40.6406 39.3434L34.7438 33.4466C36.9638 30.9247 38.3128 27.6172 38.3128 24.0003C38.3128 16.1084 31.8919 9.6875 24 9.6875C16.1081 9.6875 9.68719 16.1084 9.68719 24.0003C9.68719 31.8922 16.1081 38.3131 24 38.3131C27.6019 38.3131 30.8972 36.9753 33.4163 34.7703L39.315 40.6691L40.6406 39.3434ZM24 36.4381C17.1422 36.4381 11.5622 30.8591 11.5622 24.0003C11.5622 17.1416 17.1422 11.5625 24 11.5625C30.8578 11.5625 36.4378 17.1425 36.4378 24.0003C36.4378 30.8581 30.8578 36.4381 24 36.4381Z" fill="white"/>
<path d="M24 16.9434L25.6463 22.0115H30.976L26.6644 25.1437L28.3116 30.2118L24 27.0796L19.6885 30.2118L21.3356 25.1437L17.0241 22.0115H22.3538L24 16.9434Z" fill="#FDB71C"/>
</g>
<defs>
<clipPath id="clip0_1326_47395">
<rect width="48" height="48" fill="white"/>
</clipPath>
</defs>
</svg>