<?xml version="1.0" encoding="utf-8"?>
<svg xmlns="http://www.w3.org/2000/svg" width="48" height="48" viewBox="0 0 48 48" fill="none">
<g clip-path="url(#clip0_1326_48073)">
<path d="M40.4736 0H7.47363C3.3315 0 -0.0263672 3.35786 -0.0263672 7.5V40.5C-0.0263672 44.6421 3.3315 48 7.47363 48H40.4736C44.6158 48 47.9736 44.6421 47.9736 40.5V7.5C47.9736 3.35786 44.6158 0 40.4736 0Z" fill="#502D3C"/>
<path d="M23.9735 37.4832C16.496 37.4832 10.4126 31.3998 10.4126 23.9223C10.4126 16.4448 16.4998 10.3623 23.9735 10.3623C31.4473 10.3623 37.5335 16.4457 37.5335 23.9223C37.5335 31.3989 31.4501 37.4832 23.9735 37.4832ZM23.9735 12.2373C21.6622 12.2371 19.4027 12.9224 17.4808 14.2063C15.5589 15.4903 14.061 17.3154 13.1764 19.4508C12.2918 21.5862 12.0603 23.9359 12.5112 26.2028C12.962 28.4698 14.075 30.5521 15.7094 32.1864C17.3438 33.8208 19.4261 34.9338 21.693 35.3847C23.96 35.8356 26.3097 35.6041 28.445 34.7195C30.5804 33.8349 32.4055 32.3369 33.6895 30.415C34.9735 28.4931 35.6587 26.2336 35.6585 23.9223C35.6548 20.8244 34.4225 17.8544 32.232 15.6639C30.0414 13.4733 27.0714 12.241 23.9735 12.2373Z" fill="white"/>
<path d="M23.9736 24.0001L38.9483 19.9801C38.2408 17.3551 36.8567 14.9618 34.9343 13.0394C33.012 11.117 30.6186 9.73287 27.9936 9.02539L23.9736 24.0001Z" fill="#FDB71C"/>
</g>
<defs>
<clipPath id="clip0_1326_48073">
<rect width="48" height="48" fill="white"/>
</clipPath>
</defs>
</svg>