<?xml version="1.0" encoding="utf-8"?>
<svg xmlns="http://www.w3.org/2000/svg" width="24" height="24" viewBox="0 0 24 24" fill="none">
<path d="M17.9996 7.5C18.8281 7.5 19.4996 6.82843 19.4996 6C19.4996 5.17157 18.8281 4.5 17.9996 4.5C17.1712 4.5 16.4996 5.17157 16.4996 6C16.4996 6.82843 17.1712 7.5 17.9996 7.5Z" fill="#502D3C"/>
<path d="M11.3003 8.63866C12.1442 7.79482 13.4992 7.77374 14.3686 8.57543L15.2218 7.72225L16.2825 8.78291L15.4306 9.63479L16.4028 10.607L15.3421 11.6676L13.3738 9.69932C13.0941 9.41965 12.6407 9.41965 12.361 9.69932C12.0813 9.979 12.0813 10.4324 12.361 10.7121L13.2926 11.6437C14.1581 12.5091 14.1581 13.9123 13.2926 14.7778C12.4488 15.6216 11.0937 15.6427 10.2244 14.841L9.37076 15.6946L8.3101 14.634L9.16239 13.7817L8.1902 12.8095L9.25086 11.7488L11.2192 13.7171C11.4989 13.9968 11.9523 13.9968 12.232 13.7171C12.5117 13.4374 12.5117 12.984 12.232 12.7043L11.3003 11.7728C10.4349 10.9073 10.4349 9.50413 11.3003 8.63866Z" fill="#502D3C"/>
<path fill-rule="evenodd" clip-rule="evenodd" d="M22.4997 1.5H12.7851L1.53516 12.75L11.2497 22.4645L22.4997 11.2145V1.5ZM3.65648 12.75L13.4065 3H20.9997V10.5932L11.2497 20.3432L3.65648 12.75Z" fill="#502D3C"/>
</svg>