<?xml version="1.0" encoding="utf-8"?>
<svg xmlns="http://www.w3.org/2000/svg" width="48" height="48" viewBox="0 0 48 48" fill="none">
<g clip-path="url(#clip0_1326_47331)">
<path d="M40.5 0H7.5C3.35786 0 0 3.35786 0 7.5V40.5C0 44.6421 3.35786 48 7.5 48H40.5C44.6421 48 48 44.6421 48 40.5V7.5C48 3.35786 44.6421 0 40.5 0Z" fill="#502D3C"/>
<path d="M39.5944 15.5293H8.40469V35.003H39.5944V15.5293Z" fill="white"/>
<path d="M39.5953 11.4805H8.41128V15.5286H39.5953V11.4805Z" fill="#FDB71C"/>
<path d="M20.1432 17.3867H16.1476V21.3823H20.1432V17.3867Z" fill="#502D3C"/>
<path d="M26.0128 17.3867H22.0172V21.3823H26.0128V17.3867Z" fill="#502D3C"/>
<path d="M31.8862 17.3867H27.8906V21.3823H31.8862V17.3867Z" fill="#502D3C"/>
<path d="M14.2697 23.2617H10.2741V27.2573H14.2697V23.2617Z" fill="#502D3C"/>
<path d="M20.1432 23.2617H16.1476V27.2573H20.1432V23.2617Z" fill="#502D3C"/>
<path d="M26.0128 23.2617H22.0172V27.2573H26.0128V23.2617Z" fill="#502D3C"/>
<path d="M20.1432 29.1348H16.1476V33.1304H20.1432V29.1348Z" fill="#502D3C"/>
<path d="M26.0128 29.1348H22.0172V33.1304H26.0128V29.1348Z" fill="#502D3C"/>
<path d="M16.1569 9.53418H14.2819V13.4257H16.1569V9.53418Z" fill="white"/>
<path d="M33.7743 9.53418H31.8993V13.4257H33.7743V9.53418Z" fill="white"/>
<path d="M36.0346 39.5527C40.5656 39.5527 44.2387 35.8796 44.2387 31.3486C44.2387 26.8176 40.5656 23.1445 36.0346 23.1445C31.5037 23.1445 27.8306 26.8176 27.8306 31.3486C27.8306 35.8796 31.5037 39.5527 36.0346 39.5527Z" fill="#FDB71C"/>
<path d="M41.5679 32.2822H35.0991V25.8135H36.9741V30.4072H41.5679V32.2822Z" fill="white"/>
</g>
<defs>
<clipPath id="clip0_1326_47331">
<rect width="48" height="48" fill="white"/>
</clipPath>
</defs>
</svg>