<?xml version="1.0" encoding="utf-8"?>
<svg xmlns="http://www.w3.org/2000/svg" width="48" height="48" viewBox="0 0 48 48" fill="none">
<g clip-path="url(#clip0_1328_26479)">
<path d="M40.5 0H7.5C3.35786 0 0 3.35786 0 7.5V40.5C0 44.6421 3.35786 48 7.5 48H40.5C44.6421 48 48 44.6421 48 40.5V7.5C48 3.35786 44.6421 0 40.5 0Z" fill="#502D3C"/>
<path d="M36.8541 13.5986H11.1459C10.4028 13.5986 9.69 13.8939 9.16449 14.4194C8.63898 14.9449 8.34375 15.6576 8.34375 16.4008V17.9861H39.6562V16.4008C39.6562 15.6576 39.361 14.9449 38.8355 14.4194C38.31 13.8939 37.5972 13.5986 36.8541 13.5986Z" fill="#FDB71C"/>
<path d="M8.34375 31.6C8.34314 31.9683 8.41516 32.3332 8.55571 32.6738C8.69626 33.0143 8.90257 33.3237 9.16284 33.5844C9.4231 33.8451 9.73222 34.052 10.0725 34.1931C10.4128 34.3342 10.7776 34.4068 11.1459 34.4068H36.8541C37.2225 34.4068 37.5872 34.3342 37.9275 34.1931C38.2678 34.052 38.5769 33.8451 38.8372 33.5844C39.0974 33.3237 39.3038 33.0143 39.4443 32.6738C39.5848 32.3332 39.6569 31.9683 39.6563 31.6V22.374H8.34375V31.6Z" fill="#FDB71C"/>
</g>
<defs>
<clipPath id="clip0_1328_26479">
<rect width="48" height="48" fill="white"/>
</clipPath>
</defs>
</svg>