<?xml version="1.0" encoding="utf-8"?>
<svg xmlns="http://www.w3.org/2000/svg" width="16" height="16" viewBox="0 0 16 16" fill="none">
<g clip-path="url(#clip0_6581_13563)">
<path d="M7.5 6.5V11.5H8.5V6.5H7.5Z" fill="#8C8888"/>
<path d="M7.5 5.5V4.5H8.5V5.5H7.5Z" fill="#8C8888"/>
<path fill-rule="evenodd" clip-rule="evenodd" d="M1 8C1 4.13401 4.13401 1 8 1C11.866 1 15 4.13401 15 8C15 11.866 11.866 15 8 15C4.13401 15 1 11.866 1 8ZM8 2C4.68629 2 2 4.68629 2 8C2 11.3137 4.68629 14 8 14C11.3137 14 14 11.3137 14 8C14 4.68629 11.3137 2 8 2Z" fill="#8C8888"/>
</g>
<defs>
<clipPath id="clip0_6581_13563">
<rect width="16" height="16" fill="white"/>
</clipPath>
</defs>
</svg>