<?xml version="1.0" encoding="utf-8"?>
<svg xmlns="http://www.w3.org/2000/svg" width="16" height="17" viewBox="0 0 16 17" fill="none">
<mask id="path-1-inside-1_6895_46257" fill="white">
<path d="M6.58579 1.41421C7.36683 0.633165 8.63317 0.633165 9.41421 1.41421L15.0711 7.07107C15.8521 7.85212 15.8521 9.11845 15.0711 9.89949L9.41421 15.5563C8.63317 16.3374 7.36683 16.3374 6.58579 15.5563L0.928932 9.89949C0.147884 9.11845 0.147884 7.85212 0.928932 7.07107L6.58579 1.41421Z"/>
</mask>
<path d="M6.58579 1.41421C7.36683 0.633165 8.63317 0.633165 9.41421 1.41421L15.0711 7.07107C15.8521 7.85212 15.8521 9.11845 15.0711 9.89949L9.41421 15.5563C8.63317 16.3374 7.36683 16.3374 6.58579 15.5563L0.928932 9.89949C0.147884 9.11845 0.147884 7.85212 0.928932 7.07107L6.58579 1.41421Z" fill="white"/>
<path d="M8 0L16.4853 8.48528L8 0ZM10.1213 16.2635C8.94975 17.435 7.05025 17.435 5.87868 16.2635L0.928932 11.3137C-0.242641 10.1421 -0.242641 8.24264 0.928932 7.07107C0.538408 7.46159 0.854991 8.41134 1.63604 9.19239L7.29289 14.8492C7.68342 15.2398 8.31658 15.2398 8.70711 14.8492L10.1213 16.2635ZM-0.485281 8.48528L8 0L-0.485281 8.48528ZM15.0711 7.07107C16.2426 8.24264 16.2426 10.1421 15.0711 11.3137L10.1213 16.2635C8.94975 17.435 7.05025 17.435 5.87868 16.2635L7.29289 14.8492C7.68342 15.2398 8.31658 15.2398 8.70711 14.8492L14.364 9.19239C15.145 8.41134 15.4616 7.46159 15.0711 7.07107Z" fill="#C7C5C5" mask="url(#path-1-inside-1_6895_46257)"/>
</svg>