<?xml version="1.0" encoding="utf-8"?>
<svg xmlns="http://www.w3.org/2000/svg" width="1320" height="170" viewBox="0 0 1320 170" fill="none">
<g clip-path="url(#clip0_3176_32633)">
<path d="M42.0147 165.816H0V4.15625H103.19C152.823 4.15625 177.293 22.629 177.293 52.8782C177.293 73.4292 165.289 88.9001 142.896 96.7511C165.981 100.215 176.369 112.453 176.369 134.389V165.793H133.893V136.237C133.893 117.764 124.659 110.375 100.42 110.375H42.0147V165.793V165.816ZM100.881 27.709H42.0147V86.8219H100.42C121.658 86.8219 134.816 75.0455 134.816 56.5728C134.816 38.1 122.581 27.709 100.881 27.709Z" fill="#825568"/>
<path d="M250.241 4.15625H208.227V165.816H250.241V4.15625Z" fill="#825568"/>
<path d="M379.055 113.146H327.807V165.793H285.792V4.15625H379.979C429.611 4.15625 455.697 24.9381 455.697 58.1891C455.697 91.4401 429.15 113.146 379.055 113.146ZM378.132 27.709H327.807V89.5929H377.67C399.37 89.5929 412.759 78.5092 412.759 58.42C412.759 38.3309 399.37 27.709 378.132 27.709Z" fill="#825568"/>
<path d="M573.893 113.146H522.645V165.793H480.63V4.15625H574.817C624.449 4.15625 650.535 24.9381 650.535 58.1891C650.535 91.4401 623.988 113.146 573.893 113.146ZM572.97 27.709H522.645V89.5929H572.508C594.208 89.5929 607.597 78.5092 607.597 58.42C607.597 38.3309 594.208 27.709 572.97 27.709Z" fill="#825568"/>
<path d="M717.482 4.15625V141.778H822.287V165.816H675.467V4.15625H717.482Z" fill="#825568"/>
<path d="M890.596 4.15625H848.581V165.816H890.596V4.15625Z" fill="#825568"/>
<path d="M953.848 58.1891V165.816H926.146V4.15625H957.565L1072.07 111.76V4.15625H1099.77V165.816H1068.37L953.848 58.1891Z" fill="#825568"/>
<path d="M1236.89 23.091C1196.96 23.091 1170.87 48.491 1170.87 86.3602C1170.87 124.229 1195.8 146.859 1234.59 146.859H1237.36C1250.51 146.859 1265.29 144.088 1278.91 139.7V96.0585H1211.04V72.9675H1320V148.937C1297.38 160.713 1263.21 169.95 1235.51 169.95H1231.82C1168.1 169.95 1127.01 136.237 1127.01 87.2839C1127.01 38.331 1169.26 0 1234.12 0H1237.82C1264.83 0 1295.76 8.54366 1318.62 21.9364L1306.61 41.5638C1286.07 30.2492 1261.6 23.091 1239.66 23.091H1236.89Z" fill="#825568"/>
</g>
<defs>
<clipPath id="clip0_3176_32633">
<rect width="1320" height="170" fill="white"/>
</clipPath>
</defs>
</svg>