<svg width="50" height="50" viewBox="0 0 50 50" fill="none" xmlns="http://www.w3.org/2000/svg">
<g clip-path="url(#clip0)">
<path d="M21.033 30.54C23.263 40.34 2.413 47.66 0.633004 30.54C0.303004 27.38 3.403 24.69 5.243 21.77C8.793 16.12 12.633 11.17 12.633 11.17L16.723 9.99999C16.723 8.92999 20.303 5.99999 21.103 11.4C21.373 16.46 28.953 16.9 28.963 11.3C28.963 7.80999 32.263 6.87999 33.283 9.62999C36.873 10.71 41.423 14.74 44.353 21.35C46.433 23.87 49.353 25.5 49.283 31.21C48.963 45.21 28.193 42.6 28.593 30.52C26.4 29.36 21.033 30.54 21.033 30.54Z" fill="white"/>
<path d="M9.58287 15.2599C9.58287 15.2599 7.46287 19.2599 10.6429 20.4899C16.5729 21.3399 20.6429 24.0999 21.0329 30.5399C21.0329 30.5399 26.5729 29.2999 28.5929 30.4799C30.1529 25.1999 33.1329 21.7999 37.9029 20.7999C37.9029 20.7999 42.9029 18.7999 40.6129 14.8599C34.3529 6.29992 28.5229 11.8599 28.2829 12.8599C28.0429 13.8599 22.1129 13.2099 22.1129 13.2099C18.1929 8.99992 14.0999 8.13992 9.58287 15.2599Z" fill="#E8B23B"/>
<path d="M17.643 31.82C17.423 31.49 17.183 31.15 16.973 30.82C16.8081 30.4979 16.5722 30.2175 16.283 30C16.1021 29.9198 15.9309 29.8192 15.773 29.7C15.5191 29.3219 15.1756 29.0127 14.773 28.8C14.5384 28.4514 14.2182 28.1691 13.843 27.98C13.0805 27.5307 12.2296 27.2524 11.349 27.1644C10.4685 27.0763 9.57929 27.1806 8.74298 27.47C7.10657 28.1351 5.7114 29.2827 4.74298 30.76C4.59104 31.151 4.41401 31.5318 4.21298 31.9C4.12298 32.24 4.14298 32.55 4.53298 32.58C4.92298 32.61 5.11298 32.25 5.39298 32.04C5.5021 31.857 5.62583 31.6831 5.76298 31.52C5.84975 31.414 5.94328 31.3138 6.04298 31.22C6.21313 31.1128 6.35401 30.965 6.45298 30.79C6.75199 30.6903 7.01357 30.5019 7.20298 30.25C7.43788 30.1042 7.62815 29.8966 7.75298 29.65C8.03883 29.3727 8.37943 29.1581 8.75298 29.02C8.39655 29.2957 8.10681 29.6482 7.90527 30.0512C7.70374 30.4543 7.5956 30.8975 7.58887 31.3481C7.58215 31.7987 7.67701 32.245 7.86643 32.6539C8.05584 33.0628 8.33493 33.4237 8.68298 33.71C9.13298 33.97 9.45298 34.43 10.023 34.45C10.2852 34.415 10.5508 34.415 10.813 34.45C11.1117 34.4911 11.4157 34.4668 11.7041 34.3787C11.9925 34.2906 12.2582 34.1409 12.483 33.94C12.8768 33.7614 13.2232 33.4928 13.4941 33.1558C13.7651 32.8189 13.9531 32.4229 14.043 32C14.1077 31.5275 14.0688 31.0466 13.929 30.5907C13.7891 30.1348 13.5516 29.7148 13.233 29.36C13.54 29.4996 13.813 29.7043 14.033 29.96C14.383 30.02 14.543 30.23 14.833 30.38C14.893 30.52 14.833 30.7 15.043 30.8C15.4001 31.0241 15.735 31.282 16.043 31.57C16.043 31.57 16.363 31.94 16.453 32.07C16.753 32.26 16.973 32.56 17.353 32.56C17.733 32.56 17.753 32.15 17.643 31.82Z" fill="black"/>
<path d="M49.793 29.7399C49.6938 29.581 49.6164 29.4094 49.563 29.2299C49.5991 28.8087 49.5268 28.3852 49.353 27.9999C49.3832 27.6113 49.3108 27.2217 49.143 26.8699C48.933 26.3899 48.883 25.8699 48.453 25.4999C48.2289 25.0373 47.9539 24.6013 47.633 24.1999C47.4363 23.905 47.2191 23.6243 46.983 23.3599C46.8362 23.1398 46.7058 22.9092 46.593 22.6699C46.383 22.5299 46.403 22.3099 46.353 22.0999C46.303 21.8899 45.993 21.6099 45.803 21.3799C45.613 21.1499 45.373 21.1699 45.283 20.9399C45.0612 20.5938 44.8208 20.26 44.563 19.9399C44.493 19.7699 44.273 19.8199 44.173 19.7199C44.173 19.1399 43.713 19.0299 43.413 18.1399C43.0726 17.757 42.7804 17.3339 42.543 16.8799C42.2292 16.6289 41.9848 16.3019 41.833 15.9299C41.403 15.7299 41.533 15.6499 41.193 15.4199C41.209 15.2757 41.1736 15.1305 41.093 15.0099C40.853 14.7299 40.463 14.5699 40.253 14.2599C39.913 13.7199 40.073 13.8199 39.773 13.5099C39.7521 13.2262 39.6233 12.9614 39.413 12.7699C39.3032 12.536 39.1109 12.3508 38.873 12.2499C38.323 11.7799 37.923 10.8499 37.133 10.8299C36.903 10.2999 36.073 10.0799 35.593 9.68989C35.043 9.48989 34.463 9.45989 33.913 9.28989H33.773C33.778 9.19662 33.778 9.10316 33.773 9.00989C33.773 8.93989 33.643 8.89989 33.623 8.80989C33.618 8.77674 33.618 8.74304 33.623 8.70989C33.623 8.60989 33.543 8.55989 33.513 8.49989C33.483 8.43989 33.513 8.34989 33.453 8.29989C33.3691 8.16654 33.3051 8.02168 33.263 7.86989C33.0777 7.64689 32.8359 7.47768 32.563 7.37989C32.353 7.37989 32.153 7.47989 31.953 7.37989C31.5879 7.28081 31.1999 7.30903 30.853 7.45989C30.803 7.51989 30.793 7.63989 30.733 7.64989C30.483 7.51989 30.293 7.64989 30.063 7.75989C29.8767 7.86642 29.6739 7.94079 29.463 7.97989C28.893 8.48989 29.123 8.47989 28.663 8.97989C28.563 9.11989 28.663 9.30989 28.553 9.44989C28.443 9.58989 28.343 9.65989 28.353 9.78989C28.363 9.91989 28.443 9.98989 28.433 10.0799C28.4279 10.1798 28.4279 10.28 28.433 10.3799C28.433 10.5099 28.203 10.4699 28.223 10.6099C28.3059 10.8449 28.3531 11.0909 28.363 11.3399C28.3991 11.3691 28.4246 11.4095 28.4354 11.4547C28.4463 11.4999 28.4419 11.5474 28.423 11.5899C28.4059 11.615 28.3968 11.6446 28.3968 11.6749C28.3968 11.7052 28.4059 11.7348 28.423 11.7599C28.3198 11.9101 28.2641 12.0877 28.263 12.2699C28.043 12.9899 27.443 13.8499 27.883 14.5599C27.673 14.8699 27.773 15.1999 27.763 15.5599C27.753 15.8351 27.7229 16.1091 27.673 16.3799C27.7557 16.8821 27.7792 17.3922 27.743 17.8999C27.8747 18.2786 27.9091 18.6844 27.843 19.0799C28.103 19.4899 27.943 19.4799 28.113 19.8599C28.063 19.9899 27.913 20.0899 27.983 20.2599C28.033 20.6199 28.203 21.3399 28.203 21.3399C28.203 21.3399 28.363 21.4299 28.363 21.4799C28.378 21.6161 28.378 21.7536 28.363 21.8899C28.503 22.1699 28.553 22.4999 28.883 22.6299C28.9377 22.6484 28.9956 22.6559 29.0533 22.652C29.1109 22.6481 29.1672 22.6328 29.219 22.6071C29.2707 22.5813 29.3169 22.5456 29.3548 22.502C29.3927 22.4584 29.4217 22.4077 29.44 22.3529C29.4536 22.3132 29.4613 22.2718 29.463 22.2299C29.463 22.1399 29.403 22.0499 29.463 21.9699C29.433 21.7308 29.433 21.489 29.463 21.2499C29.539 20.9649 29.539 20.6649 29.463 20.3799C29.393 20.2299 29.273 20.0999 29.273 19.9399C29.348 19.5939 29.348 19.2359 29.273 18.8899C29.3362 18.7275 29.3668 18.5542 29.363 18.3799C29.3668 18.3682 29.3733 18.3576 29.382 18.3489C29.3907 18.3402 29.4013 18.3337 29.413 18.3299C29.5132 18.1406 29.6339 17.9629 29.773 17.7999C29.773 17.7999 30.203 17.4999 30.253 17.2099C30.303 16.9199 30.253 16.8999 30.373 16.7899C30.493 16.6799 30.913 16.4499 31.043 16.1599C31.273 16.0199 31.583 15.9699 31.763 15.7499C31.943 15.5299 32.433 15.4899 32.653 15.1599C33.3299 14.8648 34.0484 14.6759 34.783 14.5999C35.3227 14.5209 35.8675 14.4808 36.413 14.4799C36.823 14.5499 37.253 14.4799 37.673 14.5799C37.8468 14.685 38.0539 14.7208 38.253 14.6799V14.6199C38.4721 14.6041 38.6922 14.6278 38.903 14.6899C39.0151 14.8332 39.1353 14.9701 39.263 15.0999C39.533 15.2499 39.513 15.6099 39.803 15.7799C39.933 15.8699 40.113 15.9199 40.203 16.0499C40.33 16.379 40.528 16.676 40.783 16.9199C40.8652 17.2372 41.0192 17.5314 41.233 17.7799C41.513 18.1099 41.593 18.5499 42.013 18.7799C42.513 19.5099 43.503 21.0099 43.523 21.0499C43.1712 20.8982 42.8105 20.7679 42.443 20.6599C42.083 20.6599 41.803 20.3899 41.443 20.4099C41.253 20.4099 41.063 20.5099 40.873 20.4699C40.4848 20.3069 40.0616 20.245 39.643 20.2899C39.28 20.0778 38.8627 19.9769 38.443 19.9999C37.9293 19.9516 37.4115 20.027 36.933 20.2199C35.89 20.4069 34.8795 20.7437 33.933 21.2199C33.4442 21.4299 33.0048 21.7399 32.643 22.1299C31.721 22.7412 30.9402 23.5424 30.353 24.4799C30.283 24.5399 30.303 24.6699 30.233 24.7299C29.833 25.0099 29.803 25.4899 29.673 25.9199C29.4004 26.2284 29.208 26.5993 29.113 26.9999C28.8617 27.2824 28.6923 27.6282 28.623 27.9999C28.421 28.4764 28.332 28.9932 28.363 29.5099V29.8399C28.143 29.8399 27.783 29.5399 27.593 29.5799C27.403 29.6199 27.373 29.6799 27.293 29.6299C27.2137 29.5572 27.1174 29.5056 27.013 29.4799C26.933 29.3599 26.823 29.4199 26.723 29.4199C26.623 29.4199 26.423 29.1099 26.203 29.1499C25.983 29.1899 25.883 28.8699 25.453 29.0799C24.9382 28.99 24.4147 28.9598 23.893 28.9899C23.423 28.9899 23.213 29.2299 22.793 29.2499C22.5104 29.3119 22.2378 29.4128 21.983 29.5499C21.8766 29.5528 21.7744 29.5915 21.693 29.6599C21.5961 29.5094 21.5251 29.3438 21.483 29.1699C21.4948 28.7666 21.4127 28.366 21.243 27.9999C21.2598 27.6035 21.17 27.2098 20.983 26.8599C20.773 26.3799 20.723 25.8599 20.303 25.4899C20.0748 25.0296 19.8 24.594 19.483 24.1899C18.2179 22.3971 16.3691 21.0997 14.253 20.5199C13.903 20.5199 13.623 20.2499 13.253 20.2699C13.073 20.2699 12.873 20.3699 12.693 20.3299C12.3011 20.1673 11.8748 20.1054 11.453 20.1499C11.0967 19.9989 10.7063 19.9471 10.323 19.9999C9.80933 19.9532 9.29192 20.0286 8.81296 20.2199C7.99367 20.3627 7.19231 20.5941 6.42296 20.9099L6.61296 20.6499C6.75296 20.5299 6.61296 20.3399 6.71296 20.2099C7.25296 19.9999 7.23296 19.5799 7.98296 18.9999C8.26767 18.5617 8.60334 18.1589 8.98296 17.7999C9.12307 17.4127 9.36073 17.0683 9.67296 16.7999C9.74296 16.3299 9.85296 16.4299 9.97296 16.0399C10.103 15.9799 10.273 16.0399 10.343 15.8199C10.478 15.4768 10.635 15.1428 10.813 14.8199C10.943 14.7599 10.983 14.6099 11.043 14.5499C11.0907 14.5188 11.1344 14.4818 11.173 14.4399H11.443L11.933 14.3299C12.0389 14.341 12.1459 14.3238 12.243 14.2799C12.3956 14.3299 12.5603 14.3299 12.713 14.2799C12.9387 14.3948 13.1995 14.4198 13.443 14.3499C13.6688 14.3789 13.8973 14.3218 14.083 14.1899C14.5615 14.1653 15.0413 14.1955 15.513 14.2799C15.713 14.3599 15.873 14.0199 16.003 14.2799C16.133 14.5399 16.443 14.3999 16.633 14.5499C16.823 14.6999 16.993 14.6799 17.133 14.8399C17.3614 15.0183 17.6184 15.1569 17.893 15.2499C18.103 15.2499 18.143 15.4799 18.293 15.6099C18.443 15.7399 18.653 15.7299 18.793 15.8499C18.933 15.9699 18.923 16.1599 19.063 16.2299C19.543 16.3499 19.303 16.3799 19.693 16.5599C19.693 16.6799 19.633 16.8399 19.773 16.9399C20.0622 17.0984 20.3144 17.3166 20.513 17.5799C20.513 17.5799 20.653 17.5799 20.743 17.8499C20.7439 17.8783 20.7506 17.9063 20.7626 17.932C20.7747 17.9578 20.7918 17.9809 20.813 17.9999C20.8122 18.2677 20.7718 18.5339 20.693 18.7899C20.893 19.2199 20.693 19.1999 20.843 19.5899C20.773 19.7099 20.613 19.7899 20.653 19.9699C20.7186 20.3372 20.7653 20.7077 20.793 21.0799C20.8214 21.1288 20.8384 21.1835 20.843 21.2399C20.8469 21.375 20.83 21.5099 20.793 21.6399C20.893 21.9399 20.893 22.2699 21.193 22.4499C21.2992 22.5019 21.4217 22.5101 21.5339 22.4727C21.6461 22.4353 21.7392 22.3553 21.793 22.2499C21.8088 22.2181 21.8209 22.1845 21.829 22.1499V21.8899C21.84 21.6467 21.8769 21.4053 21.939 21.1699C22.0544 20.8989 22.0925 20.6012 22.049 20.3099C21.928 19.9875 21.928 19.6322 22.049 19.3099C22.189 19.0499 21.969 18.7799 22.179 18.5299C22.2841 18.2458 22.3218 17.9411 22.289 17.6399C22.499 17.2599 22.359 16.8599 22.369 16.4599C22.5333 15.5463 22.5937 14.6171 22.549 13.6899C22.649 13.6899 22.739 13.7599 22.759 13.6899C22.779 13.6199 22.879 13.7399 22.929 13.7699V13.6799H23.229C23.319 13.6799 23.349 13.7799 23.399 13.7999C23.449 13.8199 23.489 13.7999 23.539 13.7499C23.589 13.6999 23.649 13.7499 23.689 13.7499C23.789 13.4499 23.879 13.5999 24.099 13.5499C24.319 13.4999 24.309 13.5499 24.379 13.4999C24.449 13.4499 24.439 13.2599 24.499 13.4199C24.559 13.5799 24.629 13.4199 24.879 13.5699C24.949 13.5699 24.989 13.6499 25.039 13.6799C25.089 13.7099 25.089 13.6799 25.119 13.6799C25.1913 13.6549 25.2696 13.653 25.3431 13.6745C25.4166 13.696 25.4815 13.7398 25.529 13.7999C25.599 13.7999 25.689 13.7199 25.759 13.7399C25.829 13.7599 25.839 13.8999 25.909 13.8799C25.979 13.8599 26.019 13.7599 26.069 13.7599H26.229C26.299 13.7599 26.229 13.9699 26.299 13.9599C26.369 13.9499 26.619 13.8199 26.739 13.8899L26.959 13.3699L26.699 13.9599C26.749 13.9599 26.809 13.7899 26.889 13.8799C26.969 13.9699 27.299 13.7999 27.399 13.6399C27.499 13.4799 27.649 13.2099 27.549 13.0399C27.499 13.0399 27.459 13.0399 27.459 12.9699C27.459 12.8999 27.269 12.8899 27.209 12.7899V12.7099C27.009 12.7899 27.059 12.5499 26.839 12.6099C26.619 12.6699 26.669 12.7299 26.609 12.6899C26.5528 12.6322 26.4845 12.5878 26.409 12.5599C26.359 12.4499 26.279 12.5599 26.199 12.5599C26.119 12.5599 25.999 12.2799 25.829 12.3199C25.659 12.3599 25.689 12.3199 25.639 12.2399C25.589 12.1599 25.399 12.2399 25.289 12.2399C25.179 12.2399 24.909 12.0899 24.739 12.1599C24.5461 12.1128 24.347 12.096 24.149 12.1099C23.689 12.0399 23.689 12.2999 23.329 12.2599C23.1199 12.2898 22.9171 12.354 22.729 12.4499C22.599 12.4499 22.509 12.4499 22.459 12.5599V12.6199C22.4091 12.6809 22.348 12.7318 22.279 12.7699C22.146 12.4927 21.9991 12.2223 21.839 11.9599C21.814 11.8143 21.814 11.6655 21.839 11.5199C21.839 11.5199 21.979 11.1399 21.839 10.9499C21.699 10.7599 21.639 10.7899 21.639 10.6899C21.659 10.5674 21.659 10.4424 21.639 10.3199C21.699 10.1899 21.639 10.1099 21.539 9.99989C21.659 9.48989 21.399 9.42989 21.319 8.99989C21.239 8.56989 20.619 8.34989 20.319 7.99989C20.0063 7.77501 19.6488 7.62018 19.2709 7.54598C18.8929 7.47177 18.5035 7.47993 18.129 7.56989C17.779 7.62989 17.369 7.56989 17.129 7.90989C16.9681 8.09904 16.821 8.29956 16.689 8.50989C16.569 8.61989 16.449 8.69989 16.459 8.86989C16.459 8.86989 16.339 9.36989 16.329 9.37989C16.1626 9.39489 15.9953 9.39489 15.829 9.37989C14.3179 9.66186 12.9134 10.3537 11.769 11.3799C11.0549 12.2819 10.3873 13.2198 9.76896 14.1899C9.70896 14.4899 9.34896 14.5799 9.26896 14.9099C9.25438 15.0681 9.20668 15.2214 9.12896 15.3599C8.85481 15.5848 8.63011 15.864 8.46896 16.1799C8.18671 16.3466 7.94976 16.5801 7.77896 16.8599C7.54896 17.2199 7.15896 17.4299 7.05896 17.8599C6.51896 18.5599 5.95896 19.1999 5.41896 19.8599C4.94896 20.3199 4.76896 20.9399 4.32896 21.4099C3.88736 21.9646 3.47994 22.5457 3.10896 23.1499C3.10896 23.1499 2.46896 24.0399 2.23896 24.4499C2.17896 24.5099 2.18896 24.6399 2.12896 24.6999C1.71896 24.9799 1.68896 25.4599 1.55896 25.8899C1.27952 26.2075 1.0818 26.5885 0.982964 26.9999C0.735075 27.2847 0.566132 27.6295 0.492964 27.9999C0.289858 28.4759 0.204118 28.9938 0.242964 29.5099C0.0879572 30.5542 0.0879572 31.6156 0.242964 32.6599C0.549301 34.2711 1.23487 35.7862 2.24296 37.0799C2.55296 37.2699 2.56296 37.6899 2.92296 37.8799C3.10014 37.9448 3.26312 38.0432 3.40296 38.1699C3.63212 38.5252 3.9401 38.8229 4.30296 39.0399C4.55296 39.3299 4.76296 39.6899 5.14296 39.8299C5.52296 39.9699 5.90296 40.4799 6.50296 40.5299C7.44469 41.0176 8.45693 41.355 9.50296 41.5299C11.1241 41.7398 12.7719 41.565 14.313 41.0199C14.593 40.7699 15.003 40.8899 15.313 40.6099C15.463 40.4899 15.563 40.3099 15.743 40.2399C16.1535 40.1367 16.5338 39.9379 16.853 39.6599C17.2249 39.5526 17.5672 39.361 17.853 39.0999C19.0746 38.0955 20.0928 36.8667 20.853 35.4799C21.5211 34.0815 21.863 32.5497 21.853 30.9999C21.933 30.9999 21.993 30.9999 22.033 30.9499C22.0545 30.9215 22.0849 30.9011 22.1193 30.892C22.1538 30.883 22.1903 30.8857 22.223 30.8999C22.3715 30.9128 22.5198 30.8739 22.643 30.7899C22.713 30.7899 22.803 30.8699 22.873 30.8899C23.02 30.8747 23.1609 30.8231 23.283 30.7399C23.473 30.3399 23.723 30.6099 24.283 30.3999C24.333 30.2999 24.363 30.1599 24.463 30.3099C24.563 30.4599 24.743 30.3099 25.003 30.4499C25.093 30.4499 25.163 30.5199 25.233 30.5599C25.303 30.5999 25.313 30.5599 25.353 30.5599C25.593 30.6499 25.733 30.4899 25.953 30.6899C26.173 30.8899 26.173 30.6199 26.273 30.6899C26.373 30.7599 26.403 30.8599 26.503 30.8399C26.603 30.8199 26.643 30.7399 26.713 30.7399C26.783 30.7399 26.933 30.9699 27.053 30.9599C27.173 30.9499 27.483 30.8599 27.643 30.9599H27.733C27.733 30.9599 27.853 31.0399 27.913 31.0699C28.0751 31.0683 28.234 31.0234 28.373 30.9399C28.3562 31.5416 28.3897 32.1437 28.473 32.7399C28.7797 34.351 29.4653 35.866 30.473 37.1599C30.773 37.3499 30.793 37.7699 31.153 37.9599C31.3301 38.0248 31.4931 38.1232 31.633 38.2499C31.8559 38.6068 32.1611 38.9051 32.523 39.1199C32.7341 39.4515 33.0268 39.7235 33.373 39.9099C33.853 40.1799 34.133 40.5599 34.733 40.6099C35.6747 41.0976 36.6869 41.4351 37.733 41.6099C39.3541 41.8198 41.0019 41.645 42.543 41.0999C42.813 40.8499 43.223 40.9699 43.543 40.6899C43.683 40.5699 43.793 40.3899 43.963 40.3199C44.3751 40.2209 44.7564 40.0217 45.073 39.7399C45.4454 39.6337 45.7878 39.4419 46.073 39.1799C47.2731 38.17 48.2707 36.9416 49.013 35.5599C49.7181 34.0818 50.0609 32.4569 50.013 30.8199C49.733 30.4599 49.983 30.1099 49.793 29.7399ZM29.643 10.3199C29.753 10.2499 29.693 10.1599 29.693 10.0599C29.693 9.95989 30.003 9.84989 30.003 9.67989C30.003 9.50989 30.063 9.53989 30.143 9.50989C30.223 9.47989 30.253 9.30989 30.273 9.19989C30.3649 9.09709 30.4877 9.02691 30.623 8.99989C30.703 8.99989 30.753 8.84989 30.873 8.85989C31.193 8.74989 31.523 8.85989 31.793 8.68989C31.9918 8.78624 32.1688 8.92238 32.313 9.08989C32.3398 9.18194 32.396 9.2627 32.473 9.31989C32.163 9.49989 32.043 9.45989 31.743 9.63989C31.583 9.63989 31.443 9.49989 31.273 9.63989C30.9224 9.84766 30.5882 10.0817 30.273 10.3399C30.133 10.3399 30.023 10.4799 29.923 10.5199C29.7891 10.5526 29.6655 10.6179 29.563 10.7099C29.513 10.5699 29.583 10.4999 29.643 10.3199ZM37.643 13.0999C37.5356 13.0028 37.4085 12.9302 37.2704 12.887C37.1323 12.8439 36.9865 12.8312 36.843 12.8499C36.7202 12.8119 36.5909 12.8002 36.4633 12.8157C36.3358 12.8312 36.213 12.8736 36.103 12.9399C35.7722 12.9909 35.4371 13.0077 35.103 12.9899L34.473 13.0499C34.223 13.0499 34.193 13.4499 33.953 13.2699C33.413 13.1699 32.863 13.5399 32.323 13.5299C31.863 13.7699 31.413 14.0599 30.933 14.2899C30.627 14.5861 30.2919 14.8507 29.933 15.0799C29.803 15.5199 29.663 15.4499 29.513 15.7999C29.383 15.8599 29.223 15.7999 29.153 16.0099C29.083 16.2199 29.153 16.0699 29.153 16.0899C29.133 15.9238 29.133 15.756 29.153 15.5899C29.0651 14.7402 29.1398 13.8816 29.373 13.0599C29.6251 12.5668 29.9638 12.1231 30.373 11.7499C30.5595 11.6957 30.7241 11.5836 30.843 11.4299C30.993 11.1999 31.323 11.2899 31.523 11.0799C31.723 10.8699 31.823 10.7499 32.063 10.7899C32.2223 10.7699 32.3836 10.7699 32.543 10.7899C32.713 10.7199 32.883 10.6399 33.063 10.7899C33.3211 10.8538 33.5881 10.874 33.853 10.8499C34.0805 10.9689 34.3371 11.021 34.593 10.9999C35.813 11.1399 36.683 12.1799 37.593 12.8999C37.663 12.9799 37.723 13.0699 37.793 13.1599L37.643 13.0999ZM17.643 9.42989C17.643 9.42989 17.773 9.42989 17.803 9.32989C17.833 9.22989 18.143 8.98989 18.153 8.94989C18.313 8.77989 18.843 8.99989 19.053 8.94989C19.263 8.89989 19.203 8.74989 19.233 8.94989C19.263 9.14989 19.453 9.03989 19.593 9.27989C19.683 9.27989 19.753 9.46989 19.763 9.50989C19.843 9.71989 20.043 9.71989 20.003 9.97989C20.003 10.0799 20.193 10.1099 20.203 10.2199C20.2129 10.2491 20.2129 10.2807 20.203 10.3099C19.8414 10.1193 19.4588 9.97161 19.063 9.86989C18.8905 9.89489 18.7154 9.89489 18.543 9.86989C18.2489 9.7139 17.9251 9.62188 17.593 9.59989C17.589 9.56884 17.5923 9.53727 17.6027 9.50775C17.6131 9.47822 17.6304 9.45155 17.653 9.42989H17.643ZM13.433 11.7899C13.433 11.6499 13.433 11.4899 13.663 11.5399C13.893 11.5899 14.253 11.2399 14.603 11.1999C14.8218 11.1994 15.0374 11.1481 15.233 11.0499C15.5705 10.8712 15.9615 10.8215 16.333 10.9099C16.523 10.9099 16.693 10.7799 16.883 10.8099C17.073 10.8399 17.193 10.9499 17.343 10.9299C17.763 10.7399 17.673 10.9299 18.063 10.8499C18.153 10.9299 18.183 11.0999 18.353 11.0999C18.6936 11.116 19.0302 11.18 19.353 11.2899C19.423 11.3899 19.553 11.4099 19.613 11.4699C19.6929 11.5962 19.8074 11.6969 19.943 11.7599C20.073 12.0299 20.033 12.1599 20.313 12.3599C20.4011 12.5518 20.5531 12.7073 20.743 12.7999C20.9918 13.1969 21.1331 13.6518 21.153 14.1199C21.153 14.2799 21.333 14.3399 21.353 14.4699C21.143 14.6899 21.173 15.0099 21.123 15.3399C21.0739 15.6094 21.0002 15.8738 20.903 16.1299V16.1799C20.7958 16.1403 20.7021 16.0709 20.633 15.9799C20.4779 15.6564 20.2354 15.3828 19.933 15.1899C19.8049 14.8776 19.5761 14.6172 19.283 14.4499C18.943 14.2799 18.783 13.8699 18.343 13.8499C17.4919 13.397 16.5837 13.0607 15.643 12.8499C15.2091 12.7459 14.7568 12.7459 14.323 12.8499C13.6536 12.8236 12.9833 12.8671 12.323 12.9799C12.523 12.4799 13.103 12.2099 13.443 11.7899H13.433ZM20.433 30.7899C20.363 30.9199 20.433 31.0699 20.433 31.1699C20.3563 31.346 20.332 31.5404 20.363 31.7299C20.1792 31.9667 20.0837 32.2602 20.093 32.5599C19.9881 32.8028 19.967 33.0737 20.033 33.3299C20.033 33.9799 19.513 34.5399 19.353 35.1499C19.353 35.3099 19.443 35.4799 19.233 35.5299C19.023 35.5799 18.923 35.9899 18.703 36.1799C18.483 36.3699 18.423 36.5499 18.203 36.6699C18.1594 36.6858 18.1198 36.7111 18.087 36.7439C18.0542 36.7767 18.0289 36.8163 18.013 36.8599C17.623 37.1899 17.383 37.6399 16.923 37.8599C16.6613 38.1887 16.3159 38.4409 15.923 38.5899C15.693 38.9699 15.603 38.9099 15.313 39.1899C15.163 39.1899 15.003 39.0999 14.863 39.1899C14.5539 39.4361 14.2185 39.6474 13.863 39.8199C13.5654 39.8567 13.2711 39.9169 12.983 39.9999C12.6973 39.9049 12.3886 39.9049 12.103 39.9999C11.8375 39.984 11.5731 40.0466 11.343 40.1799C10.6942 40.218 10.0433 40.1912 9.39996 40.0999C9.26996 40.1799 9.11996 40.2899 9.00996 40.0999C8.89996 39.9099 8.47996 39.9199 8.22996 39.7999C7.96622 39.682 7.71496 39.5379 7.47996 39.3699C7.39277 39.3742 7.30714 39.3456 7.23996 39.2899C6.84996 39.0299 6.38996 38.9799 6.08996 38.6099C5.46996 38.3699 5.53996 38.3199 5.08996 37.9099C4.65996 37.8099 4.67996 37.6699 4.32996 37.5099C4.26996 37.3799 4.32996 37.1999 4.15996 37.0999C3.87996 36.8399 3.46996 36.6799 3.24996 36.3499C2.87996 35.8099 3.09996 35.9299 2.77996 35.5399C2.72191 34.9813 2.4872 34.4559 2.10996 34.0399C1.87016 33.437 1.69583 32.81 1.58996 32.1699C1.46996 32.0699 1.32996 31.9599 1.45996 31.7999C1.58996 31.4299 1.45996 31.0099 1.55996 30.6299C1.55889 30.4528 1.60002 30.2779 1.67996 30.1199C1.61996 29.8199 1.80996 29.5199 1.75996 29.1999C1.70996 28.8799 1.87996 28.7899 1.96996 28.5599C2.05996 28.3299 1.96996 28.0999 2.04996 27.8899C2.12996 27.6799 2.29996 27.5799 2.32996 27.3899C2.25996 26.9099 2.41996 26.9699 2.46996 26.5499C2.58996 26.4599 2.74996 26.4399 2.79996 26.2599C2.87304 25.871 3.0226 25.5005 3.23996 25.1699C3.35996 25.0999 3.40996 24.9499 3.47996 24.8799C3.63617 24.7749 3.76895 24.6387 3.86996 24.4799C4.15211 24.3886 4.40434 24.2228 4.59996 23.9999C4.82309 23.8546 4.99731 23.6455 5.09996 23.3999C5.60111 22.9876 6.14407 22.629 6.71996 22.3299C6.78996 22.1799 6.83996 22.0199 7.03996 22.0899C7.42514 22.0191 7.8058 21.9256 8.17996 21.8099C8.43688 21.8049 8.69217 21.7679 8.93996 21.6999C9.3635 21.5369 9.8241 21.4954 10.27 21.5799C10.49 21.5799 10.71 21.4499 10.94 21.4499C11.17 21.4499 11.31 21.5999 11.5 21.5599C11.96 21.3499 11.91 21.5599 12.34 21.4299C12.47 21.5199 12.53 21.6799 12.72 21.6599C13.1147 21.6432 13.51 21.6666 13.9 21.7299C14 21.8399 14.16 21.8399 14.25 21.8899C14.3996 22.0014 14.5694 22.0829 14.75 22.1299C14.9235 22.374 15.1733 22.5534 15.46 22.6399C15.6581 22.8186 15.9132 22.9214 16.18 22.9299C16.54 23.0499 16.74 23.3899 17.05 23.5799C17.2865 23.8796 17.6067 24.1024 17.97 24.2199C18.02 24.5699 18.3 24.7799 18.47 25.0799C18.6501 25.3114 18.7734 25.582 18.83 25.8699C19.1516 26.2929 19.3862 26.7756 19.52 27.2899C19.57 27.5099 19.77 27.6699 19.83 27.8899C19.89 28.1099 19.83 28.2899 19.9 28.4499C20.22 28.8099 20.1 28.8399 20.29 29.2199C20.29 29.3599 20.11 29.4699 20.19 29.6499C20.3198 30.0214 20.4201 30.4026 20.49 30.7899H20.433ZM48.553 30.7899C48.483 30.9199 48.553 31.0699 48.553 31.1699C48.4764 31.346 48.452 31.5404 48.483 31.7299C48.296 31.9656 48.197 32.2591 48.203 32.5599C48.1029 32.804 48.0819 33.0733 48.143 33.3299C47.9801 33.9585 47.7522 34.5685 47.463 35.1499C47.463 35.3099 47.553 35.4799 47.343 35.5299C47.133 35.5799 47.033 35.9899 46.823 36.1799C46.613 36.3699 46.543 36.5499 46.323 36.6699C46.2794 36.6858 46.2398 36.7111 46.207 36.7439C46.1742 36.7767 46.1489 36.8163 46.133 36.8599C45.743 37.1899 45.503 37.6399 45.033 37.8599C44.7733 38.1908 44.4273 38.4435 44.033 38.5899C43.803 38.9699 43.713 38.9099 43.423 39.1899C43.273 39.1899 43.123 39.0999 42.983 39.1899C42.6749 39.4376 42.3394 39.649 41.983 39.8199C41.6719 39.8548 41.3642 39.915 41.063 39.9999C40.7807 39.9049 40.4752 39.9049 40.193 39.9999C39.9274 39.983 39.6628 40.0457 39.433 40.1799C38.7852 40.2178 38.1354 40.191 37.493 40.0999C37.353 40.1799 37.213 40.2899 37.093 40.0999C36.973 39.9099 36.573 39.9199 36.313 39.7999C36.0513 39.6841 35.8031 39.5399 35.573 39.3699C35.4827 39.374 35.394 39.3456 35.323 39.2899C34.933 39.0299 34.473 38.9799 34.183 38.6099C33.7894 38.4772 33.4423 38.2342 33.183 37.9099C32.763 37.8099 32.783 37.6699 32.423 37.5099C32.373 37.3799 32.423 37.1999 32.263 37.0999C31.973 36.8399 31.563 36.6799 31.353 36.3499C30.993 35.8099 31.213 35.9299 30.893 35.5399C30.8312 34.9804 30.5931 34.4551 30.213 34.0399C29.9759 33.4368 29.8049 32.8098 29.703 32.1699C29.583 32.0699 29.433 31.9599 29.563 31.7999C29.703 31.4299 29.563 31.0099 29.663 30.6299C29.6703 30.4527 29.7146 30.279 29.793 30.1199C29.733 29.8199 29.913 29.5199 29.873 29.1999C29.8841 28.973 29.9529 28.7527 30.073 28.5599C30.163 28.3599 30.073 28.0999 30.163 27.8899C30.253 27.6799 30.413 27.5799 30.433 27.3899C30.373 26.9099 30.533 26.9699 30.583 26.5499C30.703 26.4599 30.863 26.4399 30.913 26.2599C30.9815 25.8697 31.1314 25.4983 31.353 25.1699C31.483 25.0999 31.533 24.9499 31.603 24.8799C31.7571 24.7724 31.8894 24.6367 31.993 24.4799C32.2713 24.377 32.5166 24.2008 32.703 23.9699C32.9228 23.8209 33.0961 23.613 33.203 23.3699C33.7041 22.9576 34.2471 22.599 34.823 22.2999C34.883 22.1499 34.943 21.9899 35.143 22.0599C35.5276 21.9867 35.9082 21.8933 36.283 21.7799C36.5399 21.7749 36.7952 21.7379 37.043 21.6699C37.4666 21.5074 37.9271 21.4659 38.373 21.5499C38.593 21.5499 38.803 21.4199 39.033 21.4199C39.263 21.4199 39.403 21.5699 39.593 21.5299C40.063 21.3199 40.003 21.5299 40.443 21.3999C40.563 21.4899 40.633 21.6499 40.823 21.6299C41.2143 21.6132 41.6064 21.6366 41.993 21.6999C42.103 21.8099 42.253 21.8099 42.343 21.8599C42.4963 21.9714 42.6693 22.0528 42.853 22.0999C43.0203 22.3458 43.2676 22.526 43.553 22.6099C43.7548 22.7891 44.0132 22.8917 44.283 22.8999C44.633 23.0199 44.843 23.3599 45.153 23.5499C45.3877 23.8515 45.7086 24.0746 46.073 24.1899C46.073 24.5399 46.393 24.7499 46.573 25.0499C46.7582 25.2771 46.8791 25.55 46.923 25.8399C47.249 26.2602 47.484 26.7438 47.613 27.2599C47.673 27.4799 47.863 27.6399 47.933 27.8599C48.003 28.0799 47.933 28.2599 48.003 28.4199C48.323 28.7799 48.193 28.8099 48.383 29.1899C48.383 29.3299 48.203 29.4399 48.283 29.6199C48.4222 29.9885 48.5228 30.3705 48.583 30.7599L48.553 30.7899Z" fill="black"/>
<path d="M45.7529 31.8201C45.5329 31.4901 45.1429 30.7401 45.1429 30.7401C44.8229 30.5501 44.7629 30.1401 44.4029 29.9501C44.2209 29.8719 44.0496 29.7711 43.8929 29.6501C43.639 29.272 43.2954 28.9628 42.8929 28.7501C42.6543 28.4013 42.3308 28.1191 41.9529 27.9301C41.1922 27.4811 40.3429 27.2029 39.464 27.1148C38.5851 27.0268 37.6975 27.1309 36.8629 27.4201C35.2248 28.0825 33.8289 29.2306 32.8629 30.7101C32.7089 31.1002 32.5319 31.4809 32.3329 31.8501C32.2429 32.1901 32.2629 32.5001 32.6529 32.5301C33.0429 32.5601 33.2229 32.2001 33.5129 31.9901C33.6197 31.8031 33.7472 31.6287 33.8929 31.4701C34.0129 31.3901 34.0729 31.2401 34.1529 31.1701C34.3239 31.0607 34.4676 30.9136 34.5729 30.7401C34.8707 30.6381 35.1317 30.4502 35.3229 30.2001C35.5543 30.0532 35.7411 29.8457 35.8629 29.6001C36.1874 29.3199 36.5698 29.115 36.9829 29.0001C36.6264 29.2758 36.3367 29.6283 36.1351 30.0313C35.9336 30.4344 35.8255 30.8776 35.8187 31.3282C35.812 31.7788 35.9069 32.2251 36.0963 32.634C36.2857 33.0429 36.5648 33.4038 36.9129 33.6901C37.3529 33.9501 37.6729 34.4101 38.2529 34.4301C38.515 34.3951 38.7807 34.3951 39.0429 34.4301C39.34 34.4704 39.6423 34.4457 39.929 34.3577C40.2156 34.2696 40.4796 34.1203 40.7029 33.9201C41.0751 33.732 41.3993 33.4612 41.6507 33.1283C41.902 32.7955 42.0738 32.4096 42.1529 32.0001C42.2205 31.5275 42.183 31.0459 42.043 30.5895C41.903 30.1331 41.6639 29.7133 41.3429 29.3601C41.6513 29.4972 41.9248 29.7023 42.1429 29.9601C42.4355 30.0512 42.7097 30.1934 42.9529 30.3801C43.0129 30.5201 42.9529 30.7001 43.1529 30.8001C43.4629 31.0801 43.9029 31.2501 44.1529 31.5901C44.3171 31.733 44.4647 31.8941 44.5929 32.0701C44.8829 32.2601 45.1129 32.5601 45.4829 32.5601C45.8529 32.5601 45.8729 32.1501 45.7529 31.8201Z" fill="black"/>
</g>
<defs>
<clipPath id="clip0">
<rect width="50" height="50" fill="white"/>
</clipPath>
</defs>
</svg>
