<?xml version="1.0" ?><svg xmlns="http://www.w3.org/2000/svg" width="66" height="62" viewBox="0 0 106 122" fill="none">
<g clip-path="url(#clip0_7648_7622)">
<path d="M53 0L105.828 30.5V91.5L53 122L0.172451 91.5V30.5L53 0Z" fill="#727272"/>
<path d="M4.85881 33.2057L53 5.41133L101.141 33.2057V88.7944L53 116.589L4.85881 88.7944V33.2057Z" stroke="white"/>
<g clip-path="url(#clip1_7648_7622)">
<g clip-path="url(#clip2_7648_7622)">
<path d="M48.8497 16.8037C48.9387 16.8037 49.024 16.8392 49.0869 16.9023L49.4359 17.2526H44.8518L44.5955 16.9953C44.525 16.9246 44.5749 16.8037 44.6745 16.8037H48.8497Z" fill="white"/>
<path d="M45.0755 17.477L45.5227 17.9259H50.1067L49.6595 17.477H45.0755Z" fill="white"/>
<path d="M50.3303 18.1503H45.7463L46.0953 18.5006C46.1582 18.5637 46.2435 18.5992 46.3324 18.5992H48.9886L48.9887 24.4345C48.9887 24.5238 49.024 24.6094 49.0869 24.6725L50.5867 26.1778C50.6571 26.2485 50.7776 26.1984 50.7776 26.0985L50.7775 18.7386C50.7775 18.6493 50.7422 18.5637 50.6793 18.5006L50.3303 18.1503Z" fill="white"/>
<path d="M57.9331 18.7386C57.9331 18.6493 57.8978 18.5637 57.8349 18.5006L57.4859 18.1503H52.1192L51.7702 18.5006C51.7073 18.5637 51.672 18.6493 51.672 18.7386V26.0985C51.672 26.1984 51.7924 26.2485 51.8629 26.1778L53.3626 24.6725C53.4256 24.6094 53.4609 24.5238 53.4609 24.4345V22.1901V18.5992H56.1442V21.068H54.6253C54.5956 21.068 54.5672 21.0798 54.5462 21.1008L53.4609 22.1901L56.9404 25.6825C57.0033 25.7456 57.0887 25.7811 57.1776 25.7811H59.0049C59.1045 25.7811 59.1544 25.6602 59.0839 25.5895L56.256 22.7512L56.5915 22.4146H55.9206L55.697 22.1901H56.8151L57.2623 21.7413H55.2498L55.0262 21.5168H57.4859L57.8349 21.1666C57.8978 21.1034 57.9331 21.0178 57.9331 20.9285V18.7386Z" fill="white"/>
<path d="M52.7901 17.477L52.3428 17.9259H57.2623L56.8151 17.477H52.7901Z" fill="white"/>
<path d="M53.5998 16.8037C53.5109 16.8037 53.4256 16.8392 53.3626 16.9023L53.0137 17.2526H56.5915L56.2425 16.9023C56.1796 16.8392 56.0943 16.8037 56.0053 16.8037H53.5998Z" fill="white"/>
</g>
<g clip-path="url(#clip3_7648_7622)">
<path d="M72.0878 33.1367C72.0878 32.378 71.6524 32.0954 70.5972 31.8276C69.9626 31.6714 69.7928 31.545 69.7928 31.3219C69.7928 31.0987 69.9921 30.95 70.4053 30.95C70.8259 30.95 71.3056 31.0913 71.7114 31.307L71.8443 30.4963C71.4384 30.3178 70.944 30.2136 70.4127 30.2136C69.4608 30.2136 68.9 30.7045 68.9 31.3888C68.9 32.1252 69.3132 32.4078 70.3094 32.6532C71.003 32.8169 71.1949 32.9284 71.1949 33.226C71.1949 33.4937 70.9292 33.6574 70.4644 33.6574C69.9404 33.6574 69.387 33.464 68.9516 33.1888L68.8262 34.0069C69.2173 34.2078 69.8297 34.3937 70.4275 34.3937C71.5048 34.3937 72.0878 33.9251 72.0878 33.1367Z" fill="white"/>
<path d="M68.3305 34.3096V30.2698H67.3522V33.0135C67.0349 33.3245 66.6927 33.5319 66.3459 33.5319C65.9474 33.5319 65.7869 33.2875 65.7869 32.932V30.2698H64.8086V33.1912C64.8086 33.9393 65.2218 34.3911 66.0114 34.3911C66.5648 34.3911 67.017 34.104 67.4081 33.7485L67.5478 34.3096H68.3305Z" fill="white"/>
<path d="M64.2298 34.3096V30.2698H63.2627V34.3096H64.2298Z" fill="white"/>
<path d="M63.7502 28.5029C64.0749 28.5029 64.3282 28.7399 64.3282 29.0658C64.3282 29.3917 64.0749 29.6287 63.7502 29.6287C63.4255 29.6287 63.1621 29.3917 63.1621 29.0658C63.1621 28.7399 63.4255 28.5029 63.7502 28.5029Z" fill="white"/>
<path d="M61.7183 32.9616C61.4305 33.3097 61.1206 33.5319 60.7221 33.5319C60.235 33.5319 59.8735 33.1541 59.8735 32.3617C59.8735 31.4729 60.2941 31.0433 60.8697 31.0433C61.2386 31.0433 61.4526 31.1026 61.7183 31.2211V32.9616ZM62.6849 34.3095V28.3059L61.7183 28.4742V30.4212C61.46 30.3323 61.1353 30.2657 60.7368 30.2657C59.7628 30.2657 58.8994 30.9322 58.8994 32.4209C58.8994 33.7689 59.6078 34.391 60.4859 34.391C61.0689 34.391 61.4748 34.0947 61.7773 33.754L61.8616 34.3095H62.6849Z" fill="white"/>
<path d="M57.5326 33.2061C57.2227 33.4875 56.8685 33.6579 56.4995 33.6579C56.1601 33.6579 55.9534 33.4727 55.9534 33.1839C55.9534 32.7988 56.256 32.4507 57.5326 32.3099V33.2061ZM58.4919 34.3096V31.5619C58.4919 30.6139 57.9753 30.2288 56.9127 30.2288C56.256 30.2288 55.7616 30.3621 55.2746 30.5546L55.3926 31.3249C55.8427 31.1397 56.3076 31.0064 56.7947 31.0064C57.2596 31.0064 57.5326 31.1694 57.5326 31.6063V31.7322C55.8206 31.8952 54.9941 32.3099 54.9941 33.2802C54.9941 33.9764 55.4738 34.3911 56.1896 34.3911C56.8094 34.3911 57.2448 34.1245 57.5916 33.7912L57.6802 34.3096H58.4919Z" fill="white"/>
<path d="M54.8359 34.1688L53.2936 32.0506C53.9947 31.8284 54.4522 31.3353 54.4522 30.5502C54.4522 29.5134 53.7069 28.9231 52.4746 28.9231H50.7773V34.3095H51.7809V32.2335H52.2679L53.7733 34.3614L54.8359 34.1688ZM53.4486 30.6063C53.4486 31.1692 53.028 31.476 52.3417 31.476H51.7735V29.7647H52.4008C53.087 29.7647 53.4486 30.0657 53.4486 30.6063Z" fill="white"/>
<path d="M50.2721 34.3095L50.154 33.5022C50.0581 33.5244 49.9326 33.5318 49.8072 33.5318C49.4087 33.5318 49.2537 33.3541 49.2537 33.0282V31.0552H50.2739L50.1062 30.2697H49.2537V28.8669L48.3018 29.0362V30.2697H47.6465V31.0552H48.3018V33.1911C48.3018 34.0947 48.8331 34.3761 49.6301 34.3761C49.9252 34.3761 50.1171 34.3465 50.2721 34.3095Z" fill="white"/>
<path d="M47.4423 33.1367C47.4423 32.378 47.0069 32.0954 45.9517 31.8276C45.3171 31.6714 45.1473 31.545 45.1473 31.3219C45.1473 31.0987 45.3466 30.95 45.7598 30.95C46.1804 30.95 46.6601 31.0913 47.0659 31.307L47.1988 30.4963C46.7929 30.3178 46.2985 30.2136 45.7672 30.2136C44.8153 30.2136 44.2545 30.7045 44.2545 31.3888C44.2545 32.1252 44.6677 32.4078 45.6639 32.6532C46.3575 32.8169 46.5494 32.9284 46.5494 33.226C46.5494 33.4937 46.2837 33.6574 45.8188 33.6574C45.2949 33.6574 44.7558 33.4626 44.3204 33.1874L44.1807 34.0069C44.5718 34.2078 45.1874 34.3937 45.7851 34.3937C46.8624 34.3937 47.4423 33.9251 47.4423 33.1367Z" fill="white"/>
<path d="M43.7328 34.3096V30.2698H42.7545V33.0135C42.4372 33.3245 42.0951 33.5319 41.7483 33.5319C41.3498 33.5319 41.1892 33.2875 41.1892 32.932V30.2698H40.2109V33.1912C40.2109 33.9393 40.6242 34.3911 41.4137 34.3911C41.9672 34.3911 42.4193 34.104 42.8104 33.7485L42.9502 34.3096H43.7328Z" fill="white"/>
<path d="M39.7642 31.1675L39.5406 30.2136C38.9256 30.3258 38.555 30.6508 38.2746 31.11L38.0871 30.2697H37.3604V34.3095L38.3107 34.3095V32.0091C38.6059 31.5721 39.1074 31.2045 39.7642 31.1675Z" fill="white"/>
<path d="M37.9754 29.8208L37.7518 28.9231H33V29.8208H34.7889V34.3095L35.7951 34.3095V29.8208H37.9754Z" fill="white"/>
</g>
</g>
<path d="M43.8232 88V87.244C44.3092 86.782 44.7382 86.365 45.1102 85.993C45.4882 85.615 45.7822 85.27 45.9922 84.958C46.2022 84.64 46.3072 84.346 46.3072 84.076C46.3072 83.794 46.2322 83.581 46.0822 83.437C45.9382 83.287 45.7432 83.212 45.4972 83.212C45.2932 83.212 45.1072 83.272 44.9392 83.392C44.7772 83.506 44.6242 83.641 44.4802 83.797L43.7602 83.086C44.0422 82.786 44.3302 82.561 44.6242 82.411C44.9182 82.255 45.2692 82.177 45.6772 82.177C46.0552 82.177 46.3852 82.252 46.6672 82.402C46.9492 82.552 47.1682 82.765 47.3242 83.041C47.4862 83.311 47.5672 83.629 47.5672 83.995C47.5672 84.313 47.4772 84.64 47.2972 84.976C47.1232 85.306 46.8982 85.639 46.6222 85.975C46.3462 86.305 46.0522 86.632 45.7402 86.956C45.8842 86.938 46.0462 86.923 46.2262 86.911C46.4062 86.893 46.5622 86.884 46.6942 86.884H47.8462V88H43.8232ZM50.6211 88.108C50.0091 88.108 49.5141 87.853 49.1361 87.343C48.7641 86.833 48.5781 86.092 48.5781 85.12C48.5781 84.148 48.7641 83.416 49.1361 82.924C49.5141 82.426 50.0091 82.177 50.6211 82.177C51.2331 82.177 51.7251 82.426 52.0971 82.924C52.4751 83.416 52.6641 84.148 52.6641 85.12C52.6641 86.092 52.4751 86.833 52.0971 87.343C51.7251 87.853 51.2331 88.108 50.6211 88.108ZM50.6211 87.082C50.7711 87.082 50.9061 87.028 51.0261 86.92C51.1461 86.806 51.2391 86.608 51.3051 86.326C51.3771 86.044 51.4131 85.642 51.4131 85.12C51.4131 84.598 51.3771 84.199 51.3051 83.923C51.2391 83.647 51.1461 83.458 51.0261 83.356C50.9061 83.254 50.7711 83.203 50.6211 83.203C50.4771 83.203 50.3451 83.254 50.2251 83.356C50.1051 83.458 50.0091 83.647 49.9371 83.923C49.8651 84.199 49.8291 84.598 49.8291 85.12C49.8291 85.642 49.8651 86.044 49.9371 86.326C50.0091 86.608 50.1051 86.806 50.2251 86.92C50.3451 87.028 50.4771 87.082 50.6211 87.082ZM53.333 88V87.244C53.819 86.782 54.248 86.365 54.62 85.993C54.998 85.615 55.292 85.27 55.502 84.958C55.712 84.64 55.817 84.346 55.817 84.076C55.817 83.794 55.742 83.581 55.592 83.437C55.448 83.287 55.253 83.212 55.007 83.212C54.803 83.212 54.617 83.272 54.449 83.392C54.287 83.506 54.134 83.641 53.99 83.797L53.27 83.086C53.552 82.786 53.84 82.561 54.134 82.411C54.428 82.255 54.779 82.177 55.187 82.177C55.565 82.177 55.895 82.252 56.177 82.402C56.459 82.552 56.678 82.765 56.834 83.041C56.996 83.311 57.077 83.629 57.077 83.995C57.077 84.313 56.987 84.64 56.807 84.976C56.633 85.306 56.408 85.639 56.132 85.975C55.856 86.305 55.562 86.632 55.25 86.956C55.394 86.938 55.556 86.923 55.736 86.911C55.916 86.893 56.072 86.884 56.204 86.884H57.356V88H53.333ZM59.9779 88.108C59.5099 88.108 59.1139 88.03 58.7899 87.874C58.4659 87.718 58.1899 87.529 57.9619 87.307L58.5559 86.47C58.7299 86.626 58.9189 86.761 59.1229 86.875C59.3269 86.983 59.5489 87.037 59.7889 87.037C60.0829 87.037 60.3169 86.962 60.4909 86.812C60.6649 86.662 60.7519 86.44 60.7519 86.146C60.7519 85.858 60.6679 85.639 60.4999 85.489C60.3319 85.339 60.1159 85.264 59.8519 85.264C59.6839 85.264 59.5429 85.285 59.4289 85.327C59.3209 85.369 59.1799 85.444 59.0059 85.552L58.4119 85.174L58.5739 82.285H61.8139V83.401H59.7169L59.6179 84.472C59.8159 84.382 60.0289 84.337 60.2569 84.337C60.5869 84.337 60.8869 84.4 61.1569 84.526C61.4329 84.652 61.6549 84.847 61.8229 85.111C61.9909 85.369 62.0749 85.702 62.0749 86.11C62.0749 86.53 61.9759 86.89 61.7779 87.19C61.5859 87.49 61.3309 87.718 61.0129 87.874C60.6949 88.03 60.3499 88.108 59.9779 88.108Z" fill="white"/>
<line x1="19" y1="84.5396" x2="37" y2="84.5396" stroke="white" stroke-width="0.920755"/>
<line x1="69" y1="84.5396" x2="87" y2="84.5396" stroke="white" stroke-width="0.920755"/>
<path d="M44.4631 96.3635L45.2356 98.741H47.7354L45.713 100.21L46.4855 102.588L44.4631 101.118L42.4407 102.588L43.2132 100.21L41.1909 98.741H43.6906L44.4631 96.3635Z" fill="white"/>
<path d="M53.4846 99.7278L54.2571 102.105H56.7568L54.7345 103.575L55.5069 105.952L53.4846 104.483L51.4622 105.952L52.2347 103.575L50.2123 102.105H52.7121L53.4846 99.7278Z" fill="white"/>
<path d="M35.4406 92.3877L36.2131 94.7651H38.7129L36.6905 96.2345L37.463 98.6119L35.4406 97.1425L33.4183 98.6119L34.1908 96.2345L32.1684 94.7651H34.6682L35.4406 92.3877Z" fill="white"/>
<path d="M62.507 96.3635L63.2795 98.741H65.7793L63.7569 100.21L64.5294 102.588L62.507 101.118L60.4847 102.588L61.2572 100.21L59.2348 98.741H61.7346L62.507 96.3635Z" fill="white"/>
<path d="M71.5295 92.3877L72.302 94.7651H74.8018L72.7794 96.2345L73.5519 98.6119L71.5295 97.1425L69.5072 98.6119L70.2796 96.2345L68.2573 94.7651H70.757L71.5295 92.3877Z" fill="white"/>
<path d="M24.6614 54.3547V42.6187H28.6754C29.4914 42.6187 30.2234 42.7087 30.8714 42.8887C31.5194 43.0567 32.0354 43.3507 32.4194 43.7707C32.8034 44.1907 32.9954 44.7787 32.9954 45.5347C32.9954 46.0507 32.8574 46.5607 32.5814 47.0647C32.3174 47.5567 31.9454 47.8927 31.4654 48.0727V48.1447C32.0654 48.3007 32.5634 48.6067 32.9594 49.0627C33.3674 49.5067 33.5714 50.1187 33.5714 50.8987C33.5714 51.7027 33.3674 52.3567 32.9594 52.8607C32.5514 53.3647 32.0054 53.7427 31.3214 53.9947C30.6374 54.2347 29.8694 54.3547 29.0174 54.3547H24.6614ZM27.3074 47.3167H28.5494C29.1974 47.3167 29.6654 47.1907 29.9534 46.9387C30.2534 46.6867 30.4034 46.3507 30.4034 45.9307C30.4034 45.4747 30.2534 45.1507 29.9534 44.9587C29.6534 44.7667 29.1914 44.6707 28.5674 44.6707H27.3074V47.3167ZM27.3074 52.3027H28.8014C30.2534 52.3027 30.9794 51.7747 30.9794 50.7187C30.9794 50.2027 30.7994 49.8367 30.4394 49.6207C30.0794 49.3927 29.5334 49.2787 28.8014 49.2787H27.3074V52.3027ZM38.0258 54.5707C37.0538 54.5707 36.3458 54.2527 35.9018 53.6167C35.4698 52.9687 35.2538 52.0867 35.2538 50.9707V45.4267H37.8998V50.6287C37.8998 51.2647 37.9898 51.7087 38.1698 51.9607C38.3498 52.2007 38.6318 52.3207 39.0158 52.3207C39.3518 52.3207 39.6338 52.2427 39.8618 52.0867C40.0898 51.9307 40.3358 51.6787 40.5998 51.3307V45.4267H43.2458V54.3547H41.0858L40.8878 53.1127H40.8338C40.4618 53.5567 40.0538 53.9107 39.6098 54.1747C39.1658 54.4387 38.6378 54.5707 38.0258 54.5707ZM46.5643 57.8467C46.3003 57.8467 46.0663 57.8287 45.8623 57.7927C45.6703 57.7567 45.4843 57.7147 45.3043 57.6667L45.7723 55.6507C45.8563 55.6627 45.9523 55.6807 46.0603 55.7047C46.1683 55.7407 46.2703 55.7587 46.3663 55.7587C46.8103 55.7587 47.1523 55.6507 47.3923 55.4347C47.6323 55.2187 47.8123 54.9367 47.9323 54.5887L48.0583 54.1207L44.6203 45.4267H47.2843L48.5623 49.2607C48.6943 49.6687 48.8143 50.0827 48.9223 50.5027C49.0303 50.9227 49.1443 51.3547 49.2643 51.7987H49.3363C49.4323 51.3787 49.5283 50.9587 49.6243 50.5387C49.7323 50.1067 49.8403 49.6807 49.9483 49.2607L51.0283 45.4267H53.5663L50.4703 54.4447C50.1943 55.1887 49.8883 55.8127 49.5523 56.3167C49.2163 56.8327 48.8083 57.2167 48.3283 57.4687C47.8603 57.7207 47.2723 57.8467 46.5643 57.8467ZM58.8164 54.5707C57.9644 54.5707 57.1964 54.3847 56.5124 54.0127C55.8284 53.6407 55.2884 53.1067 54.8924 52.4107C54.4964 51.7147 54.2984 50.8747 54.2984 49.8907C54.2984 48.9187 54.4964 48.0847 54.8924 47.3887C55.3004 46.6927 55.8284 46.1587 56.4764 45.7867C57.1244 45.4027 57.8024 45.2107 58.5104 45.2107C59.3624 45.2107 60.0644 45.4027 60.6164 45.7867C61.1804 46.1587 61.6004 46.6687 61.8764 47.3167C62.1644 47.9527 62.3084 48.6787 62.3084 49.4947C62.3084 49.7227 62.2964 49.9507 62.2724 50.1787C62.2484 50.3947 62.2244 50.5567 62.2004 50.6647H56.8544C56.9744 51.3127 57.2444 51.7927 57.6644 52.1047C58.0844 52.4047 58.5884 52.5547 59.1764 52.5547C59.8124 52.5547 60.4544 52.3567 61.1024 51.9607L61.9844 53.5627C61.5284 53.8747 61.0184 54.1207 60.4544 54.3007C59.8904 54.4807 59.3444 54.5707 58.8164 54.5707ZM56.8364 48.9187H60.0584C60.0584 48.4267 59.9384 48.0247 59.6984 47.7127C59.4704 47.3887 59.0924 47.2267 58.5644 47.2267C58.1564 47.2267 57.7904 47.3707 57.4664 47.6587C57.1424 47.9347 56.9324 48.3547 56.8364 48.9187ZM64.1368 54.3547V45.4267H66.2968L66.4768 46.9927H66.5488C66.8728 46.3927 67.2628 45.9487 67.7188 45.6607C68.1748 45.3607 68.6308 45.2107 69.0868 45.2107C69.3388 45.2107 69.5488 45.2287 69.7168 45.2647C69.8848 45.2887 70.0288 45.3307 70.1488 45.3907L69.7168 47.6767C69.5608 47.6287 69.4048 47.5927 69.2488 47.5687C69.1048 47.5447 68.9368 47.5327 68.7448 47.5327C68.4088 47.5327 68.0548 47.6587 67.6828 47.9107C67.3228 48.1507 67.0228 48.5707 66.7828 49.1707V54.3547H64.1368ZM71.8345 48.0187L71.2585 46.8667C71.7985 46.5907 72.2005 46.2727 72.4645 45.9127C72.7405 45.5527 72.8785 45.1087 72.8785 44.5807C72.8425 44.5927 72.7885 44.5987 72.7165 44.5987C72.3325 44.5987 72.0025 44.4847 71.7265 44.2567C71.4625 44.0167 71.3305 43.6927 71.3305 43.2847C71.3305 42.8287 71.4565 42.4687 71.7085 42.2047C71.9725 41.9407 72.3085 41.8087 72.7165 41.8087C73.2685 41.8087 73.6885 42.0187 73.9765 42.4387C74.2645 42.8467 74.4085 43.4227 74.4085 44.1667C74.4085 45.8947 73.5505 47.1787 71.8345 48.0187ZM78.5421 54.5707C77.9541 54.5707 77.3481 54.4567 76.7241 54.2287C76.1121 54.0007 75.5781 53.7007 75.1221 53.3287L76.3101 51.6727C76.7181 51.9727 77.1081 52.2067 77.4801 52.3747C77.8641 52.5307 78.2421 52.6087 78.6141 52.6087C79.0101 52.6087 79.2981 52.5427 79.4781 52.4107C79.6581 52.2667 79.7481 52.0807 79.7481 51.8527C79.7481 51.6487 79.6581 51.4807 79.4781 51.3487C79.3101 51.2167 79.0881 51.0967 78.8121 50.9887C78.5361 50.8687 78.2421 50.7487 77.9301 50.6287C77.5701 50.4847 77.2101 50.3047 76.8501 50.0887C76.5021 49.8727 76.2081 49.5967 75.9681 49.2607C75.7281 48.9127 75.6081 48.4927 75.6081 48.0007C75.6081 47.1727 75.9201 46.5007 76.5441 45.9847C77.1801 45.4687 78.0081 45.2107 79.0281 45.2107C79.7121 45.2107 80.3121 45.3307 80.8281 45.5707C81.3561 45.7987 81.8061 46.0567 82.1781 46.3447L80.9901 47.9287C80.6781 47.6887 80.3661 47.5027 80.0541 47.3707C79.7421 47.2387 79.4301 47.1727 79.1181 47.1727C78.4341 47.1727 78.0921 47.4067 78.0921 47.8747C78.0921 48.1627 78.2601 48.3847 78.5961 48.5407C78.9441 48.6847 79.3461 48.8407 79.8021 49.0087C80.1861 49.1407 80.5581 49.3147 80.9181 49.5307C81.2901 49.7347 81.5961 50.0107 81.8361 50.3587C82.0881 50.6947 82.2141 51.1387 82.2141 51.6907C82.2141 52.4947 81.9021 53.1787 81.2781 53.7427C80.6541 54.2947 79.7421 54.5707 78.5421 54.5707ZM32.8181 72.5707C31.8341 72.5707 30.9281 72.3427 30.1001 71.8867C29.2721 71.4307 28.6061 70.7587 28.1021 69.8707C27.6101 68.9707 27.3641 67.8667 27.3641 66.5587C27.3641 65.2627 27.6161 64.1587 28.1201 63.2467C28.6361 62.3227 29.3141 61.6207 30.1541 61.1407C31.0061 60.6487 31.9241 60.4027 32.9081 60.4027C33.6641 60.4027 34.3421 60.5587 34.9421 60.8707C35.5421 61.1707 36.0401 61.5247 36.4361 61.9327L35.0321 63.6247C34.7321 63.3487 34.4141 63.1267 34.0781 62.9587C33.7541 62.7787 33.3821 62.6887 32.9621 62.6887C32.4341 62.6887 31.9481 62.8387 31.5041 63.1387C31.0721 63.4387 30.7241 63.8707 30.4601 64.4347C30.2081 64.9987 30.0821 65.6767 30.0821 66.4687C30.0821 67.6687 30.3401 68.6047 30.8561 69.2767C31.3721 69.9487 32.0621 70.2847 32.9261 70.2847C33.4061 70.2847 33.8321 70.1767 34.2041 69.9607C34.5881 69.7447 34.9241 69.4867 35.2121 69.1867L36.6161 70.8427C35.6321 71.9947 34.3661 72.5707 32.8181 72.5707ZM38.1827 72.3547V59.7367H40.8287V62.8327L40.7027 64.4347C41.0387 64.1347 41.4287 63.8587 41.8727 63.6067C42.3287 63.3427 42.8567 63.2107 43.4567 63.2107C44.4287 63.2107 45.1307 63.5347 45.5627 64.1827C46.0067 64.8187 46.2287 65.6947 46.2287 66.8107V72.3547H43.5827V67.1527C43.5827 66.5047 43.4927 66.0607 43.3127 65.8207C43.1447 65.5807 42.8687 65.4607 42.4847 65.4607C42.1487 65.4607 41.8607 65.5387 41.6207 65.6947C41.3807 65.8387 41.1167 66.0487 40.8287 66.3247V72.3547H38.1827ZM52.2999 72.5707C51.5439 72.5707 50.8299 72.3907 50.1579 72.0307C49.4979 71.6587 48.9639 71.1247 48.5559 70.4287C48.1479 69.7207 47.9439 68.8747 47.9439 67.8907C47.9439 66.8947 48.1479 66.0487 48.5559 65.3527C48.9639 64.6567 49.4979 64.1287 50.1579 63.7687C50.8299 63.3967 51.5439 63.2107 52.2999 63.2107C53.0559 63.2107 53.7639 63.3967 54.4239 63.7687C55.0839 64.1287 55.6179 64.6567 56.0259 65.3527C56.4339 66.0487 56.6379 66.8947 56.6379 67.8907C56.6379 68.8747 56.4339 69.7207 56.0259 70.4287C55.6179 71.1247 55.0839 71.6587 54.4239 72.0307C53.7639 72.3907 53.0559 72.5707 52.2999 72.5707ZM52.2999 70.4287C52.8399 70.4287 53.2479 70.2007 53.5239 69.7447C53.7999 69.2767 53.9379 68.6587 53.9379 67.8907C53.9379 67.1107 53.7999 66.4927 53.5239 66.0367C53.2479 65.5807 52.8399 65.3527 52.2999 65.3527C51.7479 65.3527 51.3339 65.5807 51.0579 66.0367C50.7939 66.4927 50.6619 67.1107 50.6619 67.8907C50.6619 68.6587 50.7939 69.2767 51.0579 69.7447C51.3339 70.2007 51.7479 70.4287 52.2999 70.4287ZM58.4503 72.3547V63.4267H61.0963V72.3547H58.4503ZM59.7643 62.1127C59.3203 62.1127 58.9603 61.9867 58.6843 61.7347C58.4083 61.4827 58.2703 61.1467 58.2703 60.7267C58.2703 60.3067 58.4083 59.9707 58.6843 59.7187C58.9603 59.4667 59.3203 59.3407 59.7643 59.3407C60.2083 59.3407 60.5683 59.4667 60.8443 59.7187C61.1203 59.9707 61.2583 60.3067 61.2583 60.7267C61.2583 61.1467 61.1203 61.4827 60.8443 61.7347C60.5683 61.9867 60.2083 62.1127 59.7643 62.1127ZM67.3129 72.5707C66.4849 72.5707 65.7349 72.3907 65.0629 72.0307C64.4029 71.6587 63.8749 71.1247 63.4789 70.4287C63.0949 69.7207 62.9029 68.8747 62.9029 67.8907C62.9029 66.8947 63.1189 66.0487 63.5509 65.3527C63.9829 64.6567 64.5529 64.1287 65.2609 63.7687C65.9689 63.3967 66.7309 63.2107 67.5469 63.2107C68.0989 63.2107 68.5849 63.3007 69.0049 63.4807C69.4369 63.6607 69.8209 63.8887 70.1569 64.1647L68.9149 65.8747C68.4949 65.5267 68.0929 65.3527 67.7089 65.3527C67.0729 65.3527 66.5629 65.5807 66.1789 66.0367C65.8069 66.4927 65.6209 67.1107 65.6209 67.8907C65.6209 68.6587 65.8069 69.2767 66.1789 69.7447C66.5629 70.2007 67.0429 70.4287 67.6189 70.4287C67.9069 70.4287 68.1889 70.3687 68.4649 70.2487C68.7409 70.1167 68.9929 69.9607 69.2209 69.7807L70.2649 71.5087C69.8209 71.8927 69.3409 72.1687 68.8249 72.3367C68.3089 72.4927 67.8049 72.5707 67.3129 72.5707ZM75.3135 72.5707C74.4615 72.5707 73.6935 72.3847 73.0095 72.0127C72.3255 71.6407 71.7855 71.1067 71.3895 70.4107C70.9935 69.7147 70.7955 68.8747 70.7955 67.8907C70.7955 66.9187 70.9935 66.0847 71.3895 65.3887C71.7975 64.6927 72.3255 64.1587 72.9735 63.7867C73.6215 63.4027 74.2995 63.2107 75.0075 63.2107C75.8595 63.2107 76.5615 63.4027 77.1135 63.7867C77.6775 64.1587 78.0975 64.6687 78.3735 65.3167C78.6615 65.9527 78.8055 66.6787 78.8055 67.4947C78.8055 67.7227 78.7935 67.9507 78.7695 68.1787C78.7455 68.3947 78.7215 68.5567 78.6975 68.6647H73.3515C73.4715 69.3127 73.7415 69.7927 74.1615 70.1047C74.5815 70.4047 75.0855 70.5547 75.6735 70.5547C76.3095 70.5547 76.9515 70.3567 77.5995 69.9607L78.4815 71.5627C78.0255 71.8747 77.5155 72.1207 76.9515 72.3007C76.3875 72.4807 75.8415 72.5707 75.3135 72.5707ZM73.3335 66.9187H76.5555C76.5555 66.4267 76.4355 66.0247 76.1955 65.7127C75.9675 65.3887 75.5895 65.2267 75.0615 65.2267C74.6535 65.2267 74.2875 65.3707 73.9635 65.6587C73.6395 65.9347 73.4295 66.3547 73.3335 66.9187Z" fill="white"/>
</g>
<defs>
<clipPath id="clip0_7648_7622">
<rect width="106" height="122" fill="white"/>
</clipPath>
<clipPath id="clip1_7648_7622">
<rect width="39.1321" height="17.9547" fill="white" transform="translate(33 16.8037)"/>
</clipPath>
<clipPath id="clip2_7648_7622">
<rect width="14.7584" height="9.8751" fill="white" transform="translate(44.5156 16.3547)"/>
</clipPath>
<clipPath id="clip3_7648_7622">
<rect width="39.1321" height="7.18189" fill="white" transform="translate(33 28.0254)"/>
</clipPath>
</defs>
</svg>
