<svg width="50" height="50" viewBox="0 0 50 50" fill="none" xmlns="http://www.w3.org/2000/svg">
<g clip-path="url(#clip0)">
<path d="M1.10507 24.89L8.98507 25.43L7.52507 18.12C7.52507 18.12 0.335072 18.12 1.10507 24.89Z" fill="white"/>
<path d="M40.2451 24.61L48.0551 24.33C48.0551 24.33 50.4951 17.56 41.9151 17.42C41.5651 18.82 40.2451 24.61 40.2451 24.61Z" fill="white"/>
<path d="M30.1551 40.48C30.2651 38.98 24.6851 34.62 23.6051 39.23C22.8001 43.13 29.8451 42.92 30.1551 40.48Z" fill="#222525"/>
<path d="M8.98517 25.43C7.69517 21.65 1.64517 20.6 1.60517 26C1.56517 31.4 3.30517 35.83 5.67517 36.58C8.04517 37.33 10.8952 36.2 11.2852 35.32C11.6752 34.44 8.98517 25.43 8.98517 25.43Z" fill="#F15F48"/>
<path d="M40.6551 25.28C41.9251 21.68 47.9751 20.68 48.0151 25.83C48.0551 30.98 46.2351 35 43.8651 35.67C41.4951 36.34 38.6851 34.83 38.2851 34C37.8851 33.17 40.6551 25.28 40.6551 25.28Z" fill="#F15F48"/>
<path d="M48.9252 21.52C48.8048 20.8176 48.5646 20.1411 48.2152 19.52C47.8052 19.08 47.4352 18.61 47.0252 18.2C46.5352 18.03 46.3552 17.83 45.9452 17.72C45.8152 17.56 45.7452 17.36 45.5052 17.32C45.0069 17.1769 44.4989 17.07 43.9852 17C43.7272 16.9889 43.47 16.9622 43.2152 16.92C42.9789 16.955 42.7451 17.0051 42.5152 17.07C42.5032 16.8602 42.5032 16.6499 42.5152 16.44C42.5512 16.3057 42.5512 16.1643 42.5152 16.03C42.5534 15.8325 42.5361 15.6283 42.4652 15.44C42.5487 15.1471 42.5642 14.839 42.5104 14.5391C42.4567 14.2393 42.3352 13.9557 42.1552 13.71C41.9252 13.17 41.8752 12.46 41.6052 11.92C41.6052 11.66 41.1652 11.66 41.2952 11.37C41.4252 11.08 41.0952 10.81 41.0252 10.52C40.9552 10.23 40.8052 10.07 40.7952 9.80002C40.7852 9.53002 40.6652 9.54002 40.6152 9.39003C40.4152 8.92002 40.0352 8.60003 39.9152 8.10003C39.8052 7.87003 39.5352 7.76003 39.4052 7.55003C39.2752 7.34003 39.2652 7.15003 39.1052 7.01003C38.6752 6.79003 38.7452 6.65003 38.3752 6.44003C38.3891 6.35817 38.3807 6.27408 38.3508 6.19664C38.3208 6.11919 38.2705 6.05126 38.2052 6.00003C38.0352 5.89003 37.4852 5.45003 37.1152 5.18003C36.9384 4.93639 36.726 4.72065 36.4852 4.54003C36.4324 4.3859 36.3495 4.24379 36.2413 4.12192C36.1332 4.00004 36.002 3.90083 35.8552 3.83002C35.6588 3.61956 35.3989 3.47909 35.1152 3.43003C34.5252 3.14003 33.9552 2.58002 33.3352 2.35002C33.1652 2.35002 32.9952 2.45003 32.9252 2.24003C32.8552 2.03003 32.4152 1.95003 32.1752 1.77003C31.9352 1.59003 31.7252 1.55003 31.5252 1.38003C31.3252 1.21003 31.2452 1.29003 31.1152 1.20003C30.6139 1.09098 30.1272 0.923151 29.6652 0.700025C29.212 0.678831 28.7672 0.570168 28.3552 0.380025C27.8952 0.520025 27.8352 0.380025 27.4252 0.450025C27.2852 0.360025 27.2052 0.200025 26.9852 0.230025C26.5652 0.170025 26.1252 0.390025 25.7152 0.350025C25.3882 0.270372 25.0516 0.236714 24.7152 0.250025C24.5652 0.250025 24.4352 0.130025 24.2852 0.100025C23.8424 0.069708 23.3984 0.138016 22.9852 0.300025C22.3352 0.530025 21.5752 0.390025 20.9352 0.680025C20.8352 0.820025 20.7352 0.970025 20.5552 0.860025C20.1378 0.858024 19.7216 0.905012 19.3152 1.00003C18.7987 1.09018 18.2972 1.25172 17.8252 1.48003C17.6035 1.59295 17.3683 1.67697 17.1252 1.73003C16.7547 1.99197 16.3512 2.20381 15.9252 2.36002C15.6652 2.76003 15.5352 2.70003 15.2652 3.01003C15.1032 2.99417 14.94 3.02542 14.7952 3.10002C14.4652 3.38002 14.2652 3.80003 13.9252 4.03003C13.6231 4.17341 13.3515 4.37374 13.1252 4.62003C13.0052 4.71003 12.8352 4.71003 12.6952 4.78003C12.3652 5.09003 11.9552 5.36003 11.8452 5.78003C11.5152 6.27003 10.9452 6.69003 10.6352 7.22003C10.4852 7.35003 10.5852 7.56003 10.5052 7.70003C9.95522 7.93003 9.87522 8.47003 9.30522 9.05002C9.04942 9.33964 8.85848 9.68059 8.74522 10.05C8.46522 10.63 8.26522 10.69 8.16522 11.4C8.05057 11.5377 7.96563 11.6976 7.91573 11.8697C7.86582 12.0418 7.85203 12.2224 7.87522 12.4C7.81695 12.4872 7.77867 12.5862 7.76311 12.69C7.74755 12.7937 7.7551 12.8996 7.78522 13C7.67522 13.12 7.51522 13.19 7.51522 13.39V14.39C7.39247 14.7871 7.31202 15.196 7.27522 15.61C6.90522 16.2 7.01522 16.31 6.99522 17.05C7.06122 17.247 7.09828 17.4524 7.10522 17.66H5.86522C5.5202 17.6392 5.17567 17.7081 4.86522 17.86C4.72944 17.99 4.57425 18.0979 4.40522 18.18C3.98528 18.2439 3.59282 18.428 3.27522 18.71C2.88981 18.8121 2.54239 19.0241 2.27522 19.32C2.00522 19.69 1.53522 19.88 1.41522 20.32C1.03286 20.9693 0.765593 21.6797 0.625216 22.42C0.400447 24.3257 0.518987 26.2562 0.975216 28.12C1.15522 28.4 0.975216 28.75 1.17522 29.07C1.25522 29.22 1.40522 29.35 1.43522 29.53C1.41836 29.9242 1.49012 30.3172 1.64522 30.68C1.54522 31.24 1.84522 31.68 1.87522 32.27C2.21876 33.5881 2.76169 34.846 3.48522 36C4.11391 36.5687 4.8598 36.9924 5.67019 37.2412C6.48058 37.4901 7.33572 37.5579 8.17522 37.44C8.50522 37.28 8.86522 37.44 9.17522 37.28C9.34522 37.2 9.48522 37.04 9.67522 37.01C10.1528 37.008 10.6153 36.8421 10.9852 36.54C11.2447 36.4551 11.4728 36.2945 11.6404 36.0788C11.8079 35.8632 11.9071 35.6025 11.9252 35.33C12.0702 34.8201 12.0702 34.2799 11.9252 33.77C11.9125 33.2864 11.859 32.8047 11.7652 32.33C11.4965 30.3729 11.0479 28.4448 10.4252 26.57C10.2252 26.31 10.3652 25.95 10.1552 25.66C10.0315 25.5351 9.936 25.385 9.87522 25.22C9.87033 24.8334 9.7852 24.452 9.62522 24.1C9.66407 23.6634 9.5954 23.224 9.42522 22.82C9.44593 22.4352 9.34442 22.0537 9.13522 21.73C8.88039 20.6031 8.7 19.4606 8.59522 18.31C8.52904 17.1635 8.5894 16.0133 8.77522 14.88C8.68521 14.57 9.00522 14.33 8.95522 13.98C8.92011 13.8152 8.92011 13.6448 8.95522 13.48C9.13162 13.1667 9.26291 12.83 9.34522 12.48C9.56926 12.2211 9.73622 11.9178 9.83522 11.59C10.0052 11.18 10.3652 10.88 10.3752 10.39C10.5552 9.97003 10.9352 9.67002 11.0952 9.26003C12.1715 7.73522 13.4235 6.34232 14.8252 5.11003C14.9852 4.84003 15.3552 4.84003 15.5352 4.54003C15.6352 4.40003 15.6952 4.22003 15.8452 4.15003C16.2115 4.03916 16.5516 3.85549 16.8452 3.61002C17.1954 3.55985 17.5339 3.44812 17.8452 3.28003C19.2643 2.57499 20.7988 2.13125 22.3752 1.97003C23.117 1.76288 23.8852 1.66519 24.6552 1.68003C25.0652 1.55003 25.4652 1.81003 25.8552 1.68003C26.2452 1.55003 26.4352 1.80003 26.7652 1.68003C26.9252 1.68003 27.0952 1.56003 27.2552 1.60003C27.5996 1.74628 27.9711 1.81785 28.3452 1.81003C28.6235 2.01414 28.9452 2.15105 29.2852 2.21003C30.8233 2.61482 32.2763 3.29222 33.5752 4.21003C34.2659 4.54588 34.9083 4.97304 35.4852 5.48003C35.8552 5.68003 36.0152 6.12003 36.4052 6.25003C36.7952 6.38003 36.7452 6.74003 37.0552 6.89003C37.2052 6.96003 37.3952 7.00003 37.4952 7.14003C37.8852 7.66003 37.8252 7.76003 38.1652 8.02003C38.254 8.35289 38.4183 8.66085 38.6452 8.92002C38.8952 9.29002 38.9552 9.75002 39.3552 10.03C39.7552 10.31 39.6652 10.88 39.9152 11.24C40.6132 12.9719 41.1001 14.7817 41.3652 16.63C41.4823 16.954 41.5661 17.2891 41.6152 17.63C41.5152 17.82 41.4452 18.03 41.3452 18.23C41.3181 18.4636 41.2713 18.6944 41.2052 18.92C41.1052 19.23 41.0552 19.45 40.9352 19.73C40.8539 19.9789 40.7501 20.2199 40.6252 20.45C40.4687 21.1078 40.3617 21.7763 40.3052 22.45C40.1252 22.89 39.9952 23.56 39.8552 24.02C39.7552 24.22 39.9252 24.4 39.8552 24.58C39.3852 25.16 39.3852 26.04 38.9752 26.68C38.8493 27.333 38.6721 27.975 38.4452 28.6C38.3739 29.1216 38.2186 29.6282 37.9852 30.1C38.0152 30.4561 38.0152 30.814 37.9852 31.17C37.8752 31.33 37.7152 31.43 37.7352 31.65C37.6752 32.15 37.8152 32.65 37.7352 33.15C37.6752 33.5 37.6552 33.75 37.6252 34.08C37.6765 34.4275 37.6966 34.7789 37.6852 35.13C37.8457 35.4625 38.0951 35.744 38.4057 35.9434C38.7164 36.1429 39.0761 36.2524 39.4452 36.26C39.7819 36.313 40.1157 36.3831 40.4452 36.47C40.4452 36.47 39.8952 36.76 39.7952 37.04C39.7352 37.16 39.7252 37.35 39.6152 37.43C39.4686 37.4978 39.3281 37.5781 39.1952 37.67C39.0152 37.67 38.9652 37.85 38.8552 37.96C38.7452 38.07 38.2852 38.07 38.0752 38.29C37.8652 38.51 37.4152 38.45 37.0752 38.83C36.6449 39.007 36.204 39.1573 35.7552 39.28C34.9052 39.4 34.1052 39.74 33.2552 39.82C32.8352 39.82 32.4152 39.93 31.9952 39.95C31.8013 39.88 31.5891 39.88 31.3952 39.95C31.1885 40.0362 30.9688 40.0869 30.7452 40.1C30.7609 39.6434 30.6197 39.1953 30.3452 38.83C30.1472 38.3595 29.835 37.9458 29.437 37.6263C29.0389 37.3068 28.5674 37.0915 28.0652 37C26.8652 36.62 25.1552 36.06 24.2052 37.17C22.9852 37.53 22.4952 39.17 22.6752 40.31C23.0733 41.323 23.832 42.1529 24.8052 42.64C25.5346 42.9059 26.2882 43.1002 27.0552 43.22C27.5793 43.147 28.0951 43.0231 28.5952 42.85C28.8777 42.896 29.1673 42.843 29.4152 42.7C29.9811 42.3074 30.3943 41.7318 30.5852 41.07L30.9052 41.21C31.0848 41.193 31.2656 41.193 31.4452 41.21C32.1552 41.21 31.8552 41.34 32.2952 41.21C32.4143 41.2813 32.547 41.327 32.6847 41.3442C32.8224 41.3614 32.9622 41.3498 33.0952 41.31C33.3467 41.3309 33.5967 41.2558 33.7952 41.1C34.2652 40.94 34.8752 40.96 35.3652 40.79C35.6052 40.79 35.5952 40.38 35.8552 40.54C36.1152 40.7 36.5652 40.39 36.9152 40.35C37.2652 40.31 37.3452 40.35 37.6152 40.15C37.9657 39.903 38.3591 39.7233 38.7752 39.62C38.9652 39.53 39.0752 39.3 39.2652 39.2C39.4552 39.1 39.6452 39.12 39.7552 38.97C39.9552 38.53 40.0352 38.65 40.2452 38.31C40.3174 38.3226 40.3916 38.3173 40.4613 38.2946C40.5311 38.272 40.5942 38.2326 40.6452 38.18C40.8543 37.8598 41.0414 37.5257 41.2052 37.18L41.3052 37.07C41.3652 36.95 41.4852 36.88 41.5652 36.78C41.6191 36.6917 41.6532 36.5928 41.6652 36.49C41.9011 36.4693 42.1297 36.3976 42.3352 36.28C43.1789 36.3914 44.0371 36.2811 44.8252 35.96C45.5209 35.5483 46.1236 34.9967 46.5952 34.34C46.7884 33.8142 47.019 33.3029 47.2852 32.81C47.3151 32.4475 47.3652 32.087 47.4352 31.73C47.5552 31.59 47.7352 31.51 47.7452 31.28C47.7711 30.7903 47.8279 30.3026 47.9152 29.82C48.0352 29.51 48.0752 29.27 48.1952 28.99C48.218 28.7157 48.3225 28.4544 48.4952 28.24C48.6342 27.5559 48.6913 26.8576 48.6652 26.16C48.7662 25.611 48.8363 25.0568 48.8752 24.5C48.9352 24.27 48.7352 24.13 48.7152 23.94C48.8882 23.5546 48.9572 23.1305 48.9152 22.71C48.9602 22.4017 48.9602 22.0884 48.9152 21.78C48.9445 21.6963 48.948 21.6057 48.9252 21.52ZM8.63522 25.34C8.63522 25.49 8.49522 25.62 8.63522 25.79C8.73428 26.0673 8.85119 26.3379 8.98522 26.6C9.07446 26.9279 9.13799 27.2623 9.17522 27.6C9.32522 27.82 9.23522 28.04 9.17522 28.27C9.11522 28.5 9.33522 28.91 9.43522 29.22C9.60584 29.4028 9.71737 29.6328 9.75522 29.88C9.81288 30.3318 9.89973 30.7794 10.0152 31.22C10.0152 31.42 10.2352 31.48 10.2952 31.62C10.1052 32.15 10.3852 32.56 10.2952 33.33C10.2825 33.6649 10.306 34.0002 10.3652 34.33C10.4252 34.63 10.2052 35.04 10.3052 35.27C9.98522 35.2 10.0252 35.62 9.63522 35.68C9.46522 35.93 9.32522 35.59 9.09522 35.68C8.77339 35.8299 8.4387 35.9504 8.09522 36.04H7.74522C7.57663 35.9749 7.3941 35.9542 7.21522 35.98C7.08522 35.98 6.98522 35.83 6.86522 35.78C6.50029 35.6819 6.12291 35.6381 5.74522 35.65C5.42522 35.65 5.11522 35.31 4.91522 35.21C4.71522 35.11 4.52522 34.76 4.13522 34.66C4.09408 34.3494 3.99934 34.0483 3.85522 33.77C3.76433 33.5221 3.70716 33.2631 3.68522 33C3.51522 32.75 3.53522 32.4 3.35522 32.14C3.26734 31.9242 3.22315 31.6931 3.22522 31.46C3.01825 31.0901 2.90817 30.6739 2.90522 30.25C2.58522 29.89 2.71522 29.83 2.50522 29.47C2.50522 29.32 2.66522 29.2 2.57522 29.03C2.40579 28.5922 2.26221 28.1447 2.14522 27.69C2.13721 27.6336 2.13721 27.5764 2.14522 27.52C2.19522 27.3367 2.19522 27.1433 2.14522 26.96C2.24993 26.6726 2.24993 26.3575 2.14522 26.07C2.17339 25.8022 2.1061 25.5331 1.95522 25.31C1.88524 24.7328 1.86517 24.1507 1.89522 23.57C1.95522 23.34 1.58522 23.19 1.82522 23C2.06522 22.81 1.94522 22.27 2.14522 22C2.29533 21.8383 2.411 21.6478 2.48522 21.44C2.61132 21.0503 2.87892 20.7221 3.23522 20.52C3.56522 20.03 3.59522 20.09 4.06522 19.84C4.22522 19.54 4.42522 19.51 4.64522 19.3C4.78522 19.3 4.91522 19.42 5.05522 19.3C5.37522 19.15 6.14522 18.73 6.19522 18.72C6.3345 18.7 6.47593 18.7 6.61522 18.72C6.77522 18.64 6.94522 18.59 7.09522 18.51C7.07948 18.8508 7.13394 19.1912 7.25522 19.51C7.38522 19.62 7.52522 19.72 7.41522 19.9C7.40827 20.3128 7.44514 20.7251 7.52522 21.13C7.61522 21.45 7.52522 21.56 7.63522 21.93C7.76684 22.3848 7.86049 22.8497 7.91522 23.32C8.11531 23.7081 8.23118 24.1341 8.25522 24.57C8.52522 24.91 8.41522 25 8.63522 25.34ZM29.4852 40.42C29.4749 40.5297 29.442 40.636 29.3887 40.7324C29.3353 40.8287 29.2627 40.9131 29.1752 40.98C28.9552 41.2 28.8252 41.57 28.4952 41.69C28.0002 41.7788 27.4981 41.8223 26.9952 41.82C26.1866 41.6259 25.4315 41.2535 24.7852 40.73C24.596 40.6305 24.4324 40.4883 24.3075 40.3148C24.1826 40.1412 24.0996 39.9411 24.0652 39.73C24.0652 36.73 29.2052 38.15 29.4252 40.21C29.4195 40.2788 29.4411 40.347 29.4852 40.4V40.42ZM46.6752 29.62C46.6752 30 46.4052 30.29 46.4252 30.7C46.4602 30.8951 46.4602 31.0949 46.4252 31.29C46.2222 31.6811 46.0741 32.0984 45.9852 32.53C45.6866 32.9027 45.444 33.3171 45.2652 33.76C44.7352 34.2 44.3952 34.88 43.6052 34.92C42.7499 35.182 41.8434 35.2301 40.9652 35.06C40.3555 35.0861 39.7533 34.918 39.2452 34.58C38.8952 34.27 39.2452 33.66 39.0752 33.26C38.9052 32.86 39.2452 32.58 39.1752 32.18C39.1154 31.9895 39.095 31.7887 39.1152 31.59C39.287 31.173 39.3884 30.7303 39.4152 30.28C39.6241 29.9219 39.7664 29.5289 39.8352 29.12C40.0301 28.6098 40.1513 28.0744 40.1952 27.53C40.4952 26.43 40.8452 25.38 41.1952 24.29C41.5952 22.59 42.1152 20.86 42.3652 19.15C42.3422 18.717 42.3422 18.2831 42.3652 17.85C42.7252 18.05 43.4652 18.01 43.7752 18.19C44.0835 18.365 44.4234 18.4772 44.7752 18.52C44.9079 18.5008 45.0432 18.5115 45.1712 18.5513C45.2993 18.5911 45.4168 18.659 45.5152 18.75C45.6975 18.8542 45.8628 18.9857 46.0052 19.14C46.2052 19.25 46.4252 19.35 46.4852 19.6C46.6562 19.8903 46.8573 20.1618 47.0852 20.41C47.1812 20.7651 47.3331 21.1027 47.5352 21.41C47.638 24.1736 47.3485 26.9378 46.6752 29.62Z" fill="black"/>
<path d="M19.5451 40.64C19.5442 40.5318 19.5174 40.4254 19.467 40.3297C19.4165 40.234 19.3439 40.1518 19.2551 40.09C19.0851 40.01 19.1951 40.09 19.1651 40.09C19.1351 40.09 19.0151 40.15 18.9251 40.09H18.8451C18.7651 40.09 18.6851 40.03 18.6451 40.09C18.6051 40.15 18.5951 40.28 18.5451 40.29C18.4819 40.295 18.4183 40.295 18.3551 40.29C18.327 40.2846 18.2979 40.2874 18.2713 40.2981C18.2447 40.3087 18.2218 40.3267 18.2051 40.35C18.1551 40.41 17.9651 40.2 17.8651 40.35C17.7651 40.5 17.7751 40.35 17.7151 40.35C17.6242 40.3739 17.5436 40.4265 17.4851 40.5C17.4251 40.57 17.1551 40.5 17.0851 40.59C16.9369 40.5871 16.7889 40.6039 16.6451 40.64C16.5754 40.649 16.5048 40.649 16.4351 40.64C16.3051 40.64 16.2551 40.88 16.0751 40.83C15.8951 40.78 15.7751 40.94 15.6351 40.99C15.4951 41.04 15.4751 40.99 15.4351 41.07V41.13C15.4172 41.1702 15.3911 41.2061 15.3583 41.2354C15.3256 41.2647 15.287 41.2867 15.2451 41.3C15.2451 41.37 15.2451 41.36 15.1751 41.35C15.1424 41.4524 15.1317 41.5606 15.1437 41.6675C15.1558 41.7743 15.1903 41.8774 15.2451 41.97C15.3051 42.14 15.6151 42.42 15.6651 42.29C15.6712 42.2814 15.679 42.2742 15.688 42.2686C15.697 42.2631 15.7069 42.2594 15.7174 42.2577C15.7278 42.256 15.7384 42.2564 15.7486 42.2589C15.7589 42.2613 15.7686 42.2658 15.7771 42.272C15.7841 42.277 15.7901 42.283 15.7951 42.29H16.0851C16.1651 42.29 16.2051 42.39 16.2551 42.41C16.3051 42.43 16.3451 42.41 16.3851 42.36C16.4251 42.31 16.4951 42.36 16.5351 42.36C16.5751 42.36 16.5351 42.11 16.6851 42.15C16.8463 42.153 17.0041 42.1039 17.1351 42.01C17.1351 41.91 17.1351 41.77 17.2251 41.9C17.3151 42.03 17.4051 41.9 17.4951 41.9H17.6151C17.6792 41.894 17.7433 41.9118 17.7951 41.95C17.8451 42 17.7951 41.89 17.8651 41.95C18.0651 41.95 18.0451 41.78 18.2751 41.89C18.3551 41.89 18.3751 41.74 18.4451 41.74C18.5151 41.74 18.5951 41.83 18.6451 41.74C18.6951 41.65 18.6451 41.58 18.7151 41.56C18.7851 41.54 18.7751 41.56 18.8251 41.46C18.8751 41.36 18.9251 41.64 18.9951 41.58C19.1014 41.4717 19.1892 41.3467 19.2551 41.21C19.2828 41.1768 19.3222 41.1554 19.3651 41.15C19.4851 41.22 19.5851 40.81 19.5451 40.64Z" fill="black"/>
<path d="M21.8 44.29C21.8026 44.1827 21.7632 44.0786 21.69 44C21.58 43.85 21.38 43.63 21.19 43.63C21.19 43.63 21.19 43.7 21.11 43.63C21.03 43.56 21 43.75 20.9 43.75C20.8771 43.756 20.853 43.756 20.83 43.75C20.74 43.75 20.66 43.75 20.66 43.87V44.09C20.66 44.12 20.55 44.09 20.49 44.16C20.43 44.23 20.41 44.23 20.38 44.29C20.35 44.35 20.09 44.29 20.05 44.39C20.01 44.49 19.98 44.46 19.91 44.46C19.84 44.46 19.8 44.6 19.78 44.69C19.76 44.78 19.47 44.82 19.45 44.94C19.3173 45.0046 19.1931 45.0852 19.08 45.18C19.0291 45.2321 18.9677 45.273 18.9 45.3C18.8 45.39 18.85 45.59 18.66 45.63C18.47 45.67 18.44 45.86 18.33 45.97C18.22 46.08 18.17 45.97 18.18 46.13C18.1803 46.1732 18.1715 46.2159 18.1543 46.2556C18.1371 46.2952 18.1118 46.3307 18.08 46.36C18.08 46.42 18.08 46.42 18.03 46.44C18.0749 46.6497 18.1916 46.8372 18.36 46.97C18.4357 47.0441 18.5346 47.09 18.64 47.1C18.73 47.1 18.88 47.19 18.89 47.1C18.893 47.0898 18.898 47.0804 18.9046 47.0722C18.9113 47.064 18.9195 47.0572 18.9288 47.0521C18.9381 47.0471 18.9483 47.044 18.9588 47.0429C18.9693 47.0419 18.9799 47.0429 18.99 47.046H19.001C19.081 47.046 19.071 46.986 19.101 46.976C19.1319 46.975 19.1622 46.9673 19.1898 46.9535C19.2174 46.9397 19.2417 46.9201 19.261 46.896C19.321 46.816 19.401 46.896 19.461 46.896C19.521 46.896 19.521 46.816 19.551 46.786C19.581 46.756 19.661 46.786 19.661 46.676C19.661 46.566 19.601 46.436 19.711 46.416C19.8593 46.3551 19.9827 46.2459 20.061 46.106C20.061 46.006 19.941 45.886 20.061 45.966C20.181 46.046 20.141 45.966 20.431 45.836C20.431 45.766 20.561 45.836 20.611 45.836C20.661 45.836 20.611 45.766 20.661 45.766C20.711 45.766 20.741 45.536 21.001 45.526C21.071 45.526 21.001 45.356 21.091 45.316C21.1525 45.2944 21.2195 45.2944 21.281 45.316C21.301 45.316 21.281 45.156 21.281 45.126C21.2799 45.0996 21.2847 45.0734 21.2951 45.0492C21.3055 45.0249 21.3212 45.0033 21.341 44.986C21.401 44.926 21.511 45.106 21.541 44.986C21.571 44.866 21.541 44.646 21.661 44.586C21.781 44.526 21.591 44.466 21.661 44.446C21.731 44.426 21.805 44.39 21.8 44.29Z" fill="black"/>
<path d="M25.985 46.26C25.985 46.14 25.805 45.98 25.845 45.87C25.885 45.76 25.725 45.87 25.845 45.73C25.965 45.59 25.665 45.38 25.495 45.34C25.3953 45.2979 25.2882 45.2762 25.18 45.2762C25.0718 45.2762 24.9647 45.2979 24.865 45.34V45.41C24.8656 45.4518 24.857 45.4932 24.8397 45.5312C24.8224 45.5693 24.7969 45.603 24.765 45.63C24.771 45.653 24.771 45.6771 24.765 45.7C24.7451 45.704 24.7266 45.7131 24.7112 45.7263C24.6958 45.7395 24.684 45.7564 24.677 45.7755C24.67 45.7945 24.668 45.815 24.6711 45.8351C24.6743 45.8551 24.6825 45.874 24.695 45.89C24.755 45.97 24.845 46.02 24.815 46.07C24.785 46.12 24.745 46.17 24.715 46.23C24.685 46.29 24.715 46.33 24.715 46.39C24.715 46.45 24.465 46.53 24.505 46.66C24.545 46.79 24.505 46.77 24.425 46.8C24.345 46.83 24.425 46.98 24.425 47.07C24.4095 47.1769 24.3645 47.2773 24.295 47.36C24.295 47.53 24.165 47.68 24.135 47.87C24.1189 47.9404 24.0919 48.0079 24.055 48.07C24.055 48.2 24.185 48.34 24.055 48.48C23.925 48.62 24.055 48.79 23.975 48.94C23.895 49.09 23.865 49.06 23.975 49.16C24.085 49.26 24.105 49.33 24.085 49.42C24.065 49.51 24.085 49.48 24.085 49.51C24.2549 49.6332 24.4493 49.7185 24.655 49.76C24.845 49.78 25.225 49.66 25.145 49.55C25.138 49.5309 25.1387 49.5098 25.1469 49.4912C25.1551 49.4725 25.1702 49.4578 25.189 49.45C25.1971 49.446 25.206 49.444 25.215 49.444C25.275 49.444 25.215 49.354 25.215 49.334C25.215 49.314 25.305 49.284 25.295 49.174C25.285 49.064 25.435 49.174 25.485 49.094C25.5043 49.0481 25.5143 48.9988 25.5143 48.949C25.5143 48.8992 25.5043 48.8499 25.485 48.804C25.485 48.734 25.295 48.634 25.375 48.554C25.4602 48.4202 25.4988 48.262 25.485 48.104C25.405 48.044 25.265 47.984 25.485 47.964C25.705 47.944 25.565 47.814 25.635 47.744C25.705 47.674 25.705 47.744 25.705 47.654C25.705 47.564 25.805 47.554 25.845 47.524C25.885 47.494 25.845 47.464 25.845 47.444C25.8289 47.37 25.8345 47.2929 25.8611 47.2219C25.8877 47.151 25.9342 47.0892 25.995 47.044C25.995 46.984 25.915 46.894 25.945 46.824C25.975 46.754 26.095 46.744 26.065 46.674C26.035 46.604 25.945 46.564 25.945 46.524V46.374C25.945 46.304 26.045 46.364 25.985 46.264V46.26Z" fill="black"/>
</g>
<defs>
<clipPath id="clip0">
<rect width="50" height="50" fill="white"/>
</clipPath>
</defs>
</svg>
