<svg width="50" height="50" viewBox="0 0 50 50" fill="none" xmlns="http://www.w3.org/2000/svg">
<g clip-path="url(#clip0)">
<path d="M31.2751 36.1399L36.1651 31.1399L46.9851 41.8199C46.9851 41.8199 47.7151 46.3899 43.3151 46.4299C41.4251 45.0699 31.2751 36.1399 31.2751 36.1399Z" fill="white"/>
<path d="M18.845 35.31C27.6374 35.31 34.765 28.1823 34.765 19.39C34.765 10.5976 27.6374 3.46997 18.845 3.46997C10.0527 3.46997 2.92505 10.5976 2.92505 19.39C2.92505 28.1823 10.0527 35.31 18.845 35.31Z" fill="white"/>
<path d="M34.4052 33.1499C33.5252 32.2599 31.8252 35.2399 31.8952 36.0099C31.9952 37.1199 42.3652 45.8099 43.5552 46.0099C44.2052 46.0899 45.4552 45.9499 45.7952 45.2699C46.1352 44.5899 45.6452 44.1199 45.2052 43.7199C44.0652 42.6499 36.9002 35.6399 34.4052 33.1499Z" fill="#E8B23B"/>
<path d="M25.5251 19.3399C25.2751 14.0299 22.0651 8.40991 16.5251 8.40991C11.7151 9.08991 7.98509 13.7199 7.98509 19.3399C7.95541 21.2017 8.38298 23.0423 9.23032 24.7004C10.0777 26.3584 11.3189 27.7833 12.8451 28.8499C16.4351 31.2099 20.8451 29.8499 23.4051 26.6499C24.9848 24.5559 25.7394 21.9542 25.5251 19.3399Z" fill="#F5DCA7"/>
<path d="M30.4 18.2001C30.2958 18.0212 30.2151 17.8296 30.16 17.6301C30.195 17.1713 30.116 16.7109 29.93 16.2901C29.9561 15.8652 29.8699 15.441 29.68 15.0601C29.5219 14.4611 29.2391 13.9022 28.85 13.4201C28.6359 12.972 28.3672 12.5522 28.05 12.1701C26.6773 10.2233 24.6744 8.81034 22.38 8.17006C21.99 8.17006 21.69 7.88006 21.27 7.90006C21.0675 7.92506 20.8626 7.92506 20.66 7.90006C20.2367 7.72399 19.7756 7.65861 19.32 7.71006C18.923 7.55418 18.4918 7.50588 18.07 7.57006C16.3651 7.67693 14.6973 8.1151 13.16 8.86006C11.608 9.71593 10.2763 10.921 9.27004 12.3801C9.15004 12.7501 8.77004 12.9401 8.67004 13.3801C8.64209 13.6732 8.53493 13.9532 8.36004 14.1901C8.14509 14.489 7.9952 14.8296 7.92004 15.1901C7.65378 15.5204 7.47496 15.9124 7.40004 16.3301C7.17861 16.8574 7.0844 17.4295 7.12504 18.0001C6.95507 19.1371 6.95507 20.293 7.12504 21.4301C7.44204 23.1789 8.17613 24.8254 9.26504 26.2301C9.59504 26.4501 9.62504 26.8901 10.005 27.0901C10.1915 27.1765 10.3635 27.2912 10.515 27.4301C10.775 27.8133 11.1165 28.1343 11.515 28.3701C11.7499 28.7224 12.0652 29.0138 12.435 29.2201C12.935 29.5001 13.305 29.9201 13.915 29.9801C14.9325 30.485 16.0221 30.829 17.145 31.0001C18.9073 31.2369 20.7006 31.0483 22.375 30.4501C22.675 30.2001 23.115 30.3001 23.435 30.0201C23.585 29.8901 23.705 29.7001 23.895 29.6201C24.3393 29.5081 24.7506 29.2922 25.095 28.9901C25.5017 28.8692 25.8771 28.661 26.195 28.3801C27.5044 27.2866 28.5879 25.9483 29.385 24.4401C30.154 22.8382 30.531 21.0764 30.485 19.3001C30.335 19.0001 30.545 18.5901 30.4 18.2001ZM29.21 19.3401C29.14 19.4801 29.21 19.6401 29.21 19.7501C29.1321 19.9434 29.1079 20.1541 29.14 20.3601C28.9447 20.6264 28.8428 20.9498 28.85 21.2801C28.7439 21.5502 28.7162 21.8448 28.77 22.1301C28.5831 22.8187 28.332 23.4883 28.02 24.1301C28.02 24.3101 28.1 24.4801 27.88 24.5401C27.66 24.6001 27.54 25.0501 27.31 25.2601C27.08 25.4701 27 25.6701 26.77 25.8101C26.54 25.9501 26.59 26.0401 26.45 26.1301C26.1401 26.5137 25.7763 26.8505 25.37 27.1301C25.0765 27.4789 24.7071 27.7559 24.29 27.9401C24.06 28.2901 23.9 28.3101 23.61 28.5801C23.44 28.5801 23.28 28.5001 23.13 28.6301C22.7901 28.8974 22.4211 29.1255 22.03 29.3101C21.6909 29.3489 21.3561 29.4192 21.03 29.5201C20.7047 29.4171 20.3554 29.4171 20.03 29.5201C19.738 29.5063 19.4477 29.572 19.19 29.7101C18.4788 29.7501 17.7654 29.72 17.06 29.6201C16.91 29.6901 16.75 29.8001 16.63 29.6201C16.51 29.4401 16.05 29.4301 15.77 29.3001C15.4781 29.1761 15.1999 29.0219 14.94 28.8401C14.8473 28.84 14.7568 28.8121 14.68 28.7601C14.25 28.4801 13.75 28.4101 13.41 28.0101C12.9813 27.8559 12.6016 27.5901 12.31 27.2401C11.9 27.1401 11.83 26.9501 11.49 26.7901C11.42 26.6501 11.49 26.4501 11.29 26.3501C10.9299 26.1036 10.595 25.8222 10.29 25.5101C9.93004 24.9901 10.09 25.0201 9.77004 24.6201C9.68163 24.0149 9.42525 23.4467 9.03004 22.9801C8.76915 22.3184 8.57811 21.6314 8.46004 20.9301C8.34004 20.8101 8.20004 20.6901 8.32004 20.5101C8.46004 20.1101 8.32004 19.6501 8.42004 19.2301C8.42186 19.0361 8.46624 18.845 8.55004 18.6701C8.49004 18.3401 8.68004 18.0101 8.64004 17.6701C8.65319 17.4219 8.72887 17.1811 8.86004 16.9701C8.95004 16.7401 8.86004 16.4601 8.96004 16.2301C9.06004 16.0001 9.22004 15.8901 9.25004 15.6801C9.25004 15.1901 9.37004 15.1901 9.43004 14.7601C9.56004 14.6601 9.72004 14.6301 9.78004 14.4301C9.91103 14.0559 10.0612 13.6888 10.23 13.3301C10.36 13.1801 10.5 12.9801 10.55 12.9301C10.7201 12.8122 10.8661 12.6628 10.98 12.4901C11.5321 12.2161 11.9938 11.7891 12.31 11.2601C12.8652 10.7795 13.4684 10.3572 14.11 10.0001C14.18 9.85006 14.25 9.68006 14.46 9.75006C14.8829 9.66926 15.3004 9.56239 15.71 9.43006C15.8984 9.39506 16.0916 9.39506 16.28 9.43006C16.58 9.27006 16.95 9.34006 17.28 9.21006C17.5231 9.15008 17.777 9.15008 18.02 9.21006C18.27 9.21006 18.5 9.08006 18.75 9.08006C19 9.08006 19.16 9.23006 19.37 9.20006C19.84 9.00006 19.85 9.14006 20.3 9.08006C20.44 9.17006 20.52 9.33006 20.72 9.31006C21.0811 9.29387 21.443 9.31397 21.8 9.37006C22.1039 9.48294 22.4011 9.61315 22.69 9.76006C22.97 9.76006 23.1 10.0101 23.27 10.1801C23.558 10.3704 23.8626 10.5344 24.18 10.6701C24.4481 10.6723 24.7053 10.7759 24.9 10.9601C25.2834 11.2745 25.6506 11.6083 26 11.9601C26.12 12.1301 26.34 12.0701 26.47 12.1801C26.53 12.5601 26.84 12.7801 27.03 13.1201C27.2234 13.3711 27.3598 13.6611 27.43 13.9701C27.7869 14.4343 28.0485 14.9645 28.2 15.5301C28.26 15.7701 28.46 15.9501 28.54 16.1901C28.62 16.4301 28.54 16.6301 28.62 16.8101C28.93 17.1701 28.84 17.2701 29.02 17.6601C29.02 17.8101 28.84 17.9401 28.93 18.1301C29.0709 18.5393 29.1713 18.9613 29.23 19.3901L29.21 19.3401Z" fill="black"/>
<path d="M45.2651 39C44.4151 38.15 43.5951 37.19 42.6851 36.45C42.3251 36.27 42.2251 35.84 41.8451 35.65C41.6501 35.571 41.468 35.4631 41.3051 35.33C41.0279 34.9448 40.6902 34.6071 40.3051 34.33C39.5951 33.08 38.3051 32.33 37.4451 31.2C36.0451 29.57 35.0551 30.95 33.9751 32.05C33.8251 32.25 33.6551 32.44 33.4951 32.63H33.2151C33.1751 32.63 33.1451 32.51 33.1051 32.46C33.07 32.4128 33.0211 32.3779 32.9651 32.36C32.9051 32.34 32.9651 32.05 32.7951 32.03C32.6251 32.01 32.7051 31.96 32.6951 31.89C32.6851 31.82 32.5351 31.79 32.4351 31.77C32.3351 31.75 32.2351 31.47 32.1151 31.46C32.0281 31.3268 31.9239 31.2058 31.8051 31.1C31.7622 31.0703 31.7221 31.0368 31.6851 31C31.5851 30.91 31.3751 31 31.3051 30.78C31.2351 30.56 31.0651 30.59 30.9351 30.5C30.9954 30.4401 31.043 30.3687 31.0751 30.29C31.1189 30.1162 31.1971 29.953 31.3051 29.81C31.6198 29.5557 31.8786 29.2391 32.0651 28.88C32.3813 28.6728 32.634 28.382 32.7951 28.04C33.0251 27.61 33.4451 27.31 33.4751 26.76C33.9718 25.8803 34.3772 24.9521 34.6851 23.99C35.0961 22.4922 35.2881 20.9428 35.2551 19.39C35.1051 19.07 35.3251 18.73 35.1751 18.39C35.1151 18.22 34.9851 18.06 34.9951 17.88C35.041 17.476 35.0001 17.0669 34.8751 16.68C34.9522 16.3138 34.928 15.9335 34.8051 15.58C34.6451 15.11 34.7451 14.58 34.3751 14.18C34.0932 13.2123 33.7251 12.2719 33.2751 11.37C32.503 10.0213 31.5434 8.78901 30.4251 7.70998C30.0951 7.58998 30.0051 7.20998 29.6551 7.05998C29.4813 7.01615 29.3181 6.93795 29.1751 6.82998C28.9223 6.49518 28.6064 6.2132 28.2451 5.99998C28.0379 5.68374 27.7471 5.43107 27.4051 5.26998C26.9651 5.03998 26.6751 4.61998 26.1151 4.58998C25.5829 4.28443 25.0279 4.02031 24.4551 3.79998C22.6452 3.062 20.698 2.72099 18.7451 2.79998C18.4351 2.94998 18.0951 2.73998 17.7451 2.87998C17.5851 2.93998 17.4251 3.06998 17.2451 3.05998C16.8411 3.01301 16.4318 3.05395 16.0451 3.17998C15.6789 3.10235 15.2985 3.12656 14.9451 3.24998C14.4751 3.40998 13.9451 3.30998 13.5451 3.67998C12.5774 3.96187 11.637 4.33001 10.7351 4.77998C9.38452 5.56131 8.15214 6.53105 7.07509 7.65998C6.95509 7.98998 6.56509 8.07998 6.42509 8.42998C6.37905 8.60601 6.30109 8.77209 6.19509 8.91998C5.88094 9.17087 5.62217 9.48412 5.43509 9.83998C5.11885 10.0472 4.86618 10.3379 4.70509 10.68C4.47509 11.12 4.05509 11.42 4.02509 11.97C3.52671 12.8453 3.12117 13.7703 2.81509 14.73C2.40407 16.2312 2.21209 17.7839 2.24509 19.34C2.39509 19.65 2.17509 19.99 2.32509 20.34C2.41994 20.4956 2.48124 20.6693 2.50509 20.85C2.46464 21.2375 2.50551 21.6292 2.62509 22C2.54746 22.3662 2.57167 22.7466 2.69509 23.1C2.85509 23.57 2.75509 24.1 3.12509 24.5C3.40697 25.4677 3.77512 26.4081 4.22509 27.31C4.99211 28.671 5.95206 29.9139 7.07509 31C7.40509 31.12 7.49509 31.51 7.84509 31.65C8.00509 31.73 8.20509 31.75 8.32509 31.88C8.5819 32.1922 8.89797 32.4505 9.25509 32.64C9.4623 32.9562 9.75305 33.2089 10.0951 33.37C10.5351 33.6 10.8251 34.02 11.3851 34.05C11.9152 34.3595 12.4705 34.6238 13.0451 34.84C14.8517 35.577 16.7954 35.918 18.7451 35.84C19.0651 35.7 19.4051 35.91 19.7451 35.76C19.8998 35.671 20.0691 35.6101 20.2451 35.58C20.6491 35.6269 21.0584 35.586 21.4451 35.46C21.8111 35.5401 22.1922 35.5159 22.5451 35.39C23.0151 35.23 23.5451 35.33 23.9451 34.96C24.9124 34.6813 25.8529 34.3166 26.7551 33.87C27.9205 33.1852 29.0042 32.37 29.9851 31.44L30.0951 31.52C30.2051 31.6 30.0951 31.68 30.0951 31.74C30.0951 31.8 30.1851 31.79 30.2251 31.82C30.2651 31.85 30.2851 31.92 30.3551 31.92C30.4251 31.92 30.5951 31.84 30.6351 31.92C30.7302 32.0656 30.8658 32.1803 31.0251 32.25C31.1151 32.2 31.2251 32.11 31.1751 32.25C31.1251 32.39 31.2551 32.34 31.3751 32.61C31.4451 32.61 31.4251 32.75 31.4451 32.8C31.4651 32.85 31.5151 32.8 31.5151 32.8C31.5913 32.8228 31.6601 32.8653 31.7145 32.9233C31.7689 32.9812 31.8071 33.0525 31.8251 33.13C31.8751 33.2 32.0151 33.13 32.0651 33.21C32.1151 33.29 32.0651 33.39 32.1551 33.39H32.3451C32.4083 33.4878 32.4821 33.5783 32.5651 33.66C31.9468 34.2538 31.3844 34.9032 30.8851 35.6C30.7348 35.8635 30.6805 36.171 30.7316 36.4701C30.7827 36.7691 30.9359 37.0412 31.1651 37.24C31.4051 37.44 31.7451 37.47 31.9351 37.64C32.2305 38.0066 32.5854 38.321 32.9851 38.57C33.7951 39.75 35.1451 40.4 36.1151 41.42C37.9851 43.06 39.9851 44.73 41.9851 46.24C42.3851 46.41 42.5851 46.91 43.1651 46.98C43.7492 47.039 44.3388 47.012 44.9151 46.9C45.3551 46.9 45.5951 46.46 46.0251 46.37C46.4801 46.0889 46.8751 45.7207 47.1875 45.2865C47.4998 44.8524 47.7233 44.3608 47.8451 43.84C48.6651 41.83 46.6251 40.2 45.2651 39ZM30.5351 28.88C30.4051 28.95 30.2251 28.93 30.1351 29.09C29.9504 29.4365 29.7433 29.7705 29.5151 30.09C29.3313 30.2397 29.1376 30.3767 28.9351 30.5C28.8151 30.73 28.5851 30.75 28.3751 30.82C28.0971 30.978 27.8471 31.1807 27.6351 31.42C27.4051 31.64 27.4051 31.87 27.1551 31.95C26.7573 32.1535 26.3701 32.3771 25.9951 32.62C25.8151 32.62 25.8151 32.89 25.6951 32.98C25.0651 32.93 24.6951 33.41 23.8751 33.4C23.3937 33.6382 22.8707 33.7809 22.3351 33.82C22.1151 33.82 21.9351 34.05 21.7051 34.08C21.4751 34.11 21.3051 34.01 21.1251 34.08C20.7551 34.35 20.6951 34.23 20.3351 34.41C20.1951 34.41 20.0851 34.21 19.9051 34.28C19.5251 34.28 19.1451 34.55 18.7451 34.56C18.5116 34.5378 18.2806 34.4942 18.0551 34.43C17.8051 34.51 17.6251 34.36 17.4251 34.27C17.1179 34.1923 16.8019 34.1554 16.4851 34.16C16.2562 34.2512 16.0044 34.2687 15.7651 34.21C15.3951 34.07 14.8551 33.97 14.4751 33.85C14.3151 33.77 14.1551 33.94 14.0051 33.85C13.6051 33.37 12.8451 33.36 12.4251 32.85C11.9179 32.6727 11.4469 32.4051 11.0351 32.06C10.8551 31.92 10.5951 31.91 10.4051 31.78C10.2151 31.65 10.1751 31.45 10.0051 31.38C9.53509 31.31 9.59509 31.18 9.20509 31.05C9.13509 30.92 9.20509 30.74 8.99509 30.66C8.6511 30.471 8.31731 30.2641 7.99509 30.04H7.98509C7.83909 29.854 7.70209 29.66 7.57509 29.46C7.35509 29.35 7.32509 29.11 7.25509 28.9C7.09777 28.6244 6.89875 28.3747 6.66509 28.16C6.45509 27.93 6.20509 27.93 6.12509 27.69C6.04509 27.45 5.64509 26.87 5.45509 26.52C5.45509 26.34 5.18509 26.34 5.10509 26.22C5.10509 25.6 4.66509 25.22 4.67509 24.41C4.43933 23.9277 4.29683 23.4052 4.25509 22.87C4.25509 22.64 4.02509 22.46 3.99509 22.23C3.96509 22 4.06509 21.83 3.99509 21.66C3.71509 21.28 3.83509 21.22 3.65509 20.86C3.65509 20.72 3.85509 20.61 3.79509 20.43C3.6785 20.0519 3.5817 19.6681 3.50509 19.28C3.53595 19.0445 3.57934 18.8108 3.63509 18.58C3.55509 18.34 3.70509 18.16 3.80509 17.95C3.88336 17.6431 3.91704 17.3265 3.90509 17.01C3.83008 16.7758 3.83008 16.5241 3.90509 16.29C4.04509 15.92 4.15509 15.39 4.26509 15C4.34509 14.84 4.18509 14.68 4.26509 14.53C4.74509 14.13 4.75509 13.37 5.26509 12.95C5.42613 12.4682 5.66977 12.0182 5.98509 11.62C6.11509 11.44 6.12509 11.18 6.25509 11C6.38509 10.82 6.58509 10.76 6.65509 10.59C6.73509 10.12 6.85509 10.18 6.98509 9.78998C7.11509 9.71998 7.30509 9.78998 7.38509 9.57998C7.569 9.23306 7.77613 8.89897 8.00509 8.57998H7.98509C8.16922 8.43378 8.363 8.30014 8.56509 8.17998C8.68509 7.94998 8.91509 7.91998 9.12509 7.84998C9.40071 7.69266 9.65033 7.49364 9.86509 7.25998C10.0951 7.04998 10.0951 6.79998 10.3451 6.71998C10.7446 6.50137 11.1319 6.26101 11.5051 5.99998C11.6851 5.99998 11.6851 5.72998 11.8051 5.64998C12.4351 5.64998 12.8051 5.20998 13.6251 5.21998C14.1064 4.98171 14.6294 4.83908 15.1651 4.79998C15.3851 4.79998 15.5651 4.56998 15.7951 4.54998C16.0251 4.52998 16.1951 4.61998 16.3751 4.54998C16.7451 4.26998 16.8051 4.38998 17.1651 4.20998C17.3051 4.20998 17.4151 4.40998 17.5951 4.34998C17.9719 4.23176 18.3561 4.13823 18.7451 4.06998C18.9806 4.10084 19.2142 4.14423 19.4451 4.19998C19.6951 4.11998 19.8751 4.26998 20.0751 4.36998C20.3819 4.44876 20.6986 4.48245 21.0151 4.46998C21.2492 4.39497 21.5009 4.39497 21.7351 4.46998C22.1051 4.60998 22.6451 4.71998 23.0251 4.82998C23.1851 4.91998 23.3451 4.74998 23.4951 4.77998C23.8951 5.25998 24.6551 5.26998 25.0751 5.77998C25.5843 5.95294 26.0559 6.22102 26.4651 6.56998C26.6451 6.69998 26.9051 6.70998 27.0951 6.83998C27.2851 6.96998 27.3251 7.16998 27.4951 7.23998C27.9651 7.31998 27.9051 7.43998 28.2951 7.56998C28.3651 7.69998 28.2951 7.88998 28.5051 7.96998C28.8358 8.11583 29.148 8.30046 29.4351 8.51998C29.6142 8.72431 29.7779 8.94157 29.9251 9.16998C30.1451 9.28998 30.1751 9.51998 30.2451 9.72998C30.4045 10.0072 30.6032 10.2598 30.8351 10.48C31.0451 10.72 31.2951 10.7 31.3751 10.95C31.5786 11.3478 31.8022 11.7349 32.0451 12.11C32.0451 12.3 32.3151 12.29 32.3951 12.42C32.3951 13.04 32.8351 13.42 32.8251 14.23C33.0634 14.7113 33.206 15.2343 33.2451 15.77C33.2451 15.99 33.4751 16.17 33.5051 16.4C33.4801 16.5925 33.4801 16.7875 33.5051 16.98C33.7851 17.35 33.6651 17.41 33.8451 17.78C33.8451 17.91 33.6451 18.02 33.7051 18.2C33.8188 18.5747 33.9123 18.9552 33.9851 19.34C33.9537 19.5721 33.9103 19.8024 33.8551 20.03C33.9351 20.28 33.7851 20.46 33.6851 20.66C33.6063 20.9668 33.5726 21.2835 33.5851 21.6C33.6588 21.8343 33.6588 22.0856 33.5851 22.32C33.4451 22.69 33.3351 23.23 33.2251 23.61C33.1351 23.78 33.3051 23.93 33.2251 24.08C32.7451 24.49 32.7351 25.24 32.2251 25.66C32.0443 26.1677 31.7733 26.6386 31.4251 27.05C31.2951 27.23 31.2851 27.49 31.1551 27.68C31.0251 27.87 30.8251 27.91 30.7551 28.08C30.7851 28.55 30.6651 28.49 30.5351 28.88ZM41.8351 43.64C41.7151 43.64 41.6051 43.92 41.5751 43.95C40.8151 43.22 40.3951 43.23 39.9151 42.8C39.4351 42.37 38.9851 42 38.6451 41.7C38.4951 41.52 38.2651 41.59 38.1051 41.49C37.7651 40.8 36.9551 40.42 36.5451 39.76C35.9822 39.3658 35.4597 38.9169 34.9851 38.42C34.5293 38.1516 34.1177 37.8142 33.7651 37.42C33.4342 37.2779 33.1163 37.1072 32.8151 36.91C32.7351 36.74 32.7251 36.55 32.5251 36.45C32.3251 36.35 32.2651 36.27 32.2751 36.31C32.2851 36.35 32.0851 36.21 32.1151 36.1C32.1451 35.99 32.2051 36 32.2851 35.94C32.4895 35.821 32.6639 35.6568 32.7951 35.46C33.3071 35.18 33.7484 34.7867 34.0851 34.31C34.4251 33.44 35.4051 32.94 35.9051 32.17C35.9551 32.05 35.9051 31.91 35.9651 31.89C36.0251 31.87 36.0251 31.89 36.0451 31.89C36.0651 31.89 36.2651 31.89 36.3051 32.01C36.9251 33.01 37.7551 33.52 38.3051 34.29C38.7359 34.5971 39.1141 34.9719 39.4251 35.4C39.7428 35.572 40.0441 35.7728 40.3251 36C40.3951 36.17 40.3851 36.37 40.5751 36.48C40.9051 36.78 41.3251 36.97 41.6451 37.26C41.9229 37.6157 42.2271 37.95 42.5551 38.26C42.6913 38.6105 42.9235 38.9155 43.2251 39.14C43.4211 39.4117 43.6922 39.6203 44.0051 39.74C44.1361 39.8298 44.2568 39.9338 44.3651 40.05C44.3396 40.1599 44.2956 40.2647 44.2351 40.36C44.2351 40.36 44.0051 40.49 44.1051 40.68C44.2051 40.87 44.2351 40.84 44.2051 40.9C44.1548 40.9583 44.1112 41.022 44.0751 41.09C43.9651 41.09 44.0251 41.21 44.0251 41.29C44.0251 41.37 43.7251 41.42 43.7251 41.57C43.7251 41.72 43.7251 41.69 43.6051 41.72C43.4851 41.75 43.5251 41.91 43.5151 42.02C43.4981 42.0833 43.4653 42.1412 43.4199 42.1885C43.3744 42.2357 43.3177 42.2706 43.2551 42.29C43.1251 42.34 42.9451 42.58 42.8051 42.75C42.4251 42.99 42.5851 43.16 42.2751 43.28C41.9651 43.4 41.9851 43.54 41.8351 43.64ZM46.5451 43C46.5175 43.0222 46.4971 43.0521 46.4864 43.0859C46.4757 43.1197 46.4753 43.1559 46.4851 43.19C46.3255 43.6939 46.0595 44.1577 45.7051 44.55C45.6153 44.7425 45.4862 44.9141 45.326 45.0536C45.1658 45.1931 44.9781 45.2975 44.7751 45.36C44.5151 45.71 44.4951 45.64 44.1351 45.81C44.0251 45.81 43.9651 45.6 43.8151 45.63C43.4435 45.6361 43.0844 45.4961 42.8151 45.24C42.6894 45.0993 42.5558 44.9657 42.4151 44.84C42.5451 44.84 42.5651 44.84 42.6551 44.74C42.7451 44.64 42.8251 44.74 42.9051 44.74C42.9851 44.74 43.0151 44.63 43.0751 44.59C43.1351 44.55 43.2251 44.53 43.2651 44.45C43.3051 44.37 43.2651 44.15 43.4151 44.12C43.6295 44.0021 43.8089 43.8296 43.9351 43.62C43.9351 43.51 43.8251 43.39 43.9951 43.43C44.1651 43.47 44.1951 43.26 44.4551 43.1C44.4551 43.01 44.6151 43 44.6851 42.96C44.7551 42.92 44.6851 42.87 44.7351 42.84C44.7851 42.81 44.8951 42.43 45.1151 42.3C45.3351 42.17 45.1151 42.06 45.1851 41.96C45.2551 41.86 45.3651 41.84 45.3651 41.74C45.3651 41.64 45.2751 41.58 45.2851 41.51C45.2902 41.4367 45.2902 41.3632 45.2851 41.29C45.2851 41.18 45.4451 41.29 45.4751 41.19C45.6453 41.3493 45.851 41.4658 46.0751 41.53C46.1651 41.86 46.4451 42.09 46.5451 42.41C46.6451 42.73 46.6551 42.83 46.5451 43Z" fill="black"/>
</g>
<defs>
<clipPath id="clip0">
<rect width="50" height="50" fill="white"/>
</clipPath>
</defs>
</svg>
