<svg width="213" height="213" viewBox="0 0 213 213" fill="none" xmlns="http://www.w3.org/2000/svg">
<path d="M189.038 26.6032L170.462 81.3819L205.056 127.739C205.201 127.933 205.288 128.163 205.309 128.404C205.329 128.645 205.282 128.886 205.172 129.102C205.062 129.317 204.895 129.497 204.688 129.622C204.481 129.747 204.244 129.812 204.002 129.809L146.164 129.069L112.766 176.296C112.626 176.493 112.434 176.647 112.212 176.741C111.989 176.835 111.744 176.865 111.506 176.827C111.267 176.789 111.044 176.685 110.861 176.527C110.679 176.369 110.544 176.163 110.472 175.932L93.3022 120.697L38.0666 103.527C37.8359 103.455 37.6299 103.32 37.4718 103.138C37.3138 102.955 37.21 102.732 37.1722 102.493C37.1344 102.254 37.1641 102.01 37.258 101.787C37.3518 101.565 37.5061 101.373 37.7033 101.233L84.9296 67.8349L84.1903 9.99684C84.1873 9.75526 84.2519 9.51765 84.3768 9.31086C84.5018 9.10408 84.6821 8.93637 84.8973 8.82669C85.1126 8.71701 85.3542 8.66973 85.595 8.6902C85.8357 8.71067 86.0659 8.79808 86.2596 8.94253L132.617 43.5369L187.396 24.961C187.625 24.8835 187.87 24.8715 188.106 24.9265C188.341 24.9814 188.556 25.1011 188.727 25.2719C188.898 25.4427 189.017 25.6579 189.072 25.8932C189.127 26.1285 189.115 26.3744 189.038 26.6032V26.6032Z" fill="white"/>
<path d="M143.223 59.4355C148.46 66.8969 152.092 75.364 153.889 84.3012C155.685 93.2385 155.608 102.451 153.661 111.357C149.163 134.356 126.137 157.389 112.766 176.296C112.626 176.493 112.434 176.647 112.212 176.741C111.989 176.835 111.745 176.865 111.506 176.827C111.267 176.789 111.044 176.685 110.861 176.527C110.679 176.369 110.544 176.163 110.472 175.932L93.3022 120.697L38.0666 103.527C37.8359 103.455 37.6299 103.32 37.4718 103.138C37.3138 102.955 37.21 102.732 37.1722 102.493C37.1344 102.254 37.1641 102.01 37.258 101.787C37.3518 101.565 37.5061 101.373 37.7033 101.233L84.9296 67.8349L84.1903 9.99688C84.1873 9.7553 84.2519 9.51768 84.3768 9.31089C84.5017 9.1041 84.682 8.93639 84.8973 8.8267C85.1126 8.71702 85.3542 8.66973 85.595 8.6902C85.8357 8.71067 86.0659 8.79807 86.2596 8.94253C106.58 24.1035 129.614 39.2905 143.223 59.4355Z" fill="#E9B550"/>
<path d="M40.929 136.187C40.7296 136.392 40.4239 136.473 40.5027 136.826C39.9751 137.316 39.5795 137.931 39.3525 138.615L39.5229 138.785C39.4392 139.538 38.8345 139.83 38.2019 140.234C37.3654 141.318 36.4237 142.317 35.3907 143.216C34.1981 143.806 33.927 145.089 33.0903 145.942C31.8027 146.905 30.7885 148.235 29.4271 149.137C28.7881 149.417 28.5836 150.035 28.1491 150.458C27.3664 150.928 26.6501 151.501 26.0191 152.161C25.63 152.87 25.4476 153.717 24.6129 154.036C24.3805 154.067 24.1602 154.158 23.9735 154.3C23.7869 154.442 23.6402 154.63 23.5479 154.845C23.0642 155.729 21.9755 155.952 21.1619 156.336C20.9054 156.775 20.7915 157.309 20.1821 157.401C19.796 157.772 19.3493 158.075 18.8613 158.296C18.5212 158.594 18.5639 159.233 18.436 159.702C18.0032 161.055 17.0159 160.36 16.775 161.576L16.5192 161.32C15.9099 161.668 15.3627 162.114 14.8999 162.641C14.5614 162.56 14.4538 162.861 14.3039 163.067C14.0187 163.162 13.7174 163.2 13.4175 163.178C13.1177 163.156 12.8251 163.075 12.5566 162.939C11.7937 162.343 11.1643 161.214 11.5771 160.426C11.6697 158.994 11.9404 159.099 12.8125 158.253C12.8977 158.125 12.5565 157.572 12.6844 157.486L12.8974 157.699C13.9244 156.918 13.6952 154.863 15.07 154.462C16.3263 154.814 15.5121 153.945 16.4337 153.482C16.6467 153.184 16.5615 152.63 16.7311 152.247C16.987 151.778 17.6692 151.778 18.0946 151.437C18.5637 151.054 18.6063 150.202 19.117 149.861C19.6713 149.435 20.3098 149.392 20.651 148.753C20.9953 147.868 21.9694 147.609 22.3547 146.879C22.7494 146.674 23.382 146.659 23.6327 146.197C23.846 145.899 24.1019 145.857 24.4421 145.686C25.3318 145.057 25.5202 144.307 26.828 144.366C27.1013 144.076 26.5666 143.266 27.1266 142.96C27.9956 141.888 30.1469 140.513 30.4496 139.595C30.4726 139.217 30.59 138.852 30.791 138.532C30.9919 138.212 31.27 137.947 31.5998 137.762C32.3811 136.464 32.5064 136.938 33.6872 136.527C34.0851 136.001 34.2141 135.774 34.88 135.59C35.1347 135.462 35.2627 134.994 35.6891 134.951L35.3906 134.653C35.5184 134.567 35.9866 134.823 36.1145 134.738C36.4091 134.487 36.6548 134.183 36.8392 133.843C37.7181 133.607 38.9322 133.043 39.8212 133.63C40.6719 134.222 41.3529 134.868 40.929 136.187Z" fill="black"/>
<path d="M77.8624 136.57C77.9594 137.421 77.4399 137.568 77.0104 138.061C77.0019 138.546 75.78 139.428 75.306 140.617L75.4764 140.83C75.2103 141.767 74.4472 142.214 73.6872 142.747C72.4718 144.181 71.1627 145.533 69.7684 146.794C67.2924 149.651 64.6158 152.327 61.7588 154.803C60.247 156.226 58.718 157.57 57.1589 159.02C56.5892 159.88 56.1824 160.968 55.1996 161.449C54.5941 161.645 54.0798 162.054 53.7509 162.599C52.9332 163.576 51.8765 164.324 50.6837 164.771C50.3853 165.069 50.3427 165.538 50.0442 165.836C49.127 166.287 48.5545 167.043 47.6594 167.54C46.8007 168.776 46.7259 170.351 45.0174 170.948C44.2994 172.238 44.2202 172.816 42.7596 173.674C40.4863 176.352 37.6722 178.497 35.6887 181.342C32.4859 184.256 29.3817 187.064 26.2315 189.947C25.6818 191.226 24.6807 192.257 23.4191 192.844C22.4902 194.12 21.2208 195.109 19.756 195.698C19.3784 196.259 19.1835 196.942 18.4354 197.147C17.9094 197.639 17.3387 198.081 16.7309 198.467C16.2629 198.851 16.1776 199.617 15.9218 200.171C15.4382 201.459 14.0269 201.511 13.6214 202.685L13.3666 202.429C12.4145 202.795 11.8373 204.078 10.981 204.304C10.5045 204.716 10.3235 205.268 9.48932 205.155C8.60013 205.367 8.01579 204.728 7.65803 204.048C7.1899 203.153 7.57262 202.897 7.74323 202.258C7.94613 201.431 8.11321 200.436 8.97863 200.086C9.98063 199.257 9.44046 199.339 9.57456 198.595L9.78777 198.85C11.1193 197.727 11.2865 195.368 12.8976 194.59C14.3697 194.829 13.5497 193.892 14.6868 193.185C15.0278 192.801 14.9852 192.162 15.2837 191.736C15.6248 191.097 16.4765 190.969 17.0299 190.501C17.6695 189.947 17.8401 188.967 18.5213 188.456C20.1142 187.703 20.8224 186.119 22.2268 185.091C22.5869 184.953 22.6259 184.634 22.8666 184.366C24.2484 183.862 24.3756 183.227 25.5499 182.577C26.4454 182.066 26.8708 180.916 27.9784 180.746C28.871 180.782 28.7462 180.2 28.7875 179.51C29.9295 178.022 31.2616 176.69 32.7499 175.548C33.6196 175.043 33.777 174.075 34.1125 173.248C34.8724 172.35 35.6831 171.497 36.5407 170.692C37.01 170.437 37.6912 170.479 38.075 170.138C38.4558 169.55 39.0049 169.09 39.6508 168.818C41.0631 167.499 42.2313 165.942 43.1014 164.217C43.5851 163.211 44.8113 164.268 44.9332 162.982C45.5673 162.402 46.0125 161.645 46.2112 160.809C46.5516 160.17 47.4044 160.042 47.9578 159.574C48.5975 159.02 48.767 158.04 49.4493 157.529C51.0382 156.76 51.7441 155.168 53.1548 154.164C53.461 154.041 53.5833 153.697 53.7945 153.44C54.868 153.127 55.5031 152.171 56.4778 151.693C57.3307 151.139 57.7987 149.989 58.9063 149.818C59.7523 149.962 59.725 149.222 59.6727 148.583C61.1436 146.218 64.3037 145.104 65.0406 142.321C65.2962 141.767 65.8507 141.469 66.276 141.043C66.7024 140.617 66.9573 140.02 67.4688 139.765C67.9369 139.509 68.619 139.552 69.0019 139.211C69.3965 138.635 69.942 138.178 70.5787 137.89C70.8769 137.677 71.0902 137.124 71.6437 136.953L71.3452 136.697C71.473 136.569 72.0275 136.782 72.1554 136.655C72.6501 136.367 72.8182 135.848 73.2204 135.462C74.2486 135.021 75.5716 134.211 76.7555 134.695C77.4528 135.124 78.082 135.665 77.8624 136.57Z" fill="black"/>
<path d="M79.5241 173.632C79.2895 173.789 79.052 173.895 79.0551 174.228C78.5374 174.727 78.1436 175.34 77.9049 176.018L78.1179 176.188C77.9545 177.022 77.4867 177.195 76.7969 177.636C75.9229 178.715 74.9689 179.726 73.9431 180.661C72.1874 181.772 72.5338 182.949 70.2363 184.623C68.3441 186.39 66.4736 187.855 64.5715 189.565C63.9363 191.66 63.0597 191.012 62.1001 192.249C61.64 193.148 60.5313 193.368 59.7145 193.74C59.4416 194.158 59.3901 194.7 58.7773 194.805C58.377 195.17 57.9334 195.485 57.4564 195.742C57.0738 195.997 57.1591 196.636 56.9885 197.105C56.6703 198.275 55.543 197.925 55.3266 198.979L55.0707 198.724C54.2598 198.967 53.8462 200.027 53.2393 200.044C52.7716 200.421 52.988 200.707 52.0462 200.598C51.732 200.556 51.4301 200.448 51.1597 200.283C50.8894 200.117 50.6565 199.897 50.4761 199.637C50.2957 199.376 50.1717 199.081 50.112 198.769C50.0523 198.458 50.0583 198.138 50.1295 197.829C50.2696 197.182 50.232 196.353 50.9396 196.125C51.4831 195.76 51.4238 195.471 51.2371 194.932L51.493 195.145C52.4489 194.343 52.3507 192.329 53.623 191.865C53.8789 191.865 54.1764 192.036 54.3469 191.95C54.5861 191.222 54.3532 191.409 54.9867 190.885C55.2414 190.587 55.1145 190.033 55.284 189.692C55.5398 189.181 56.2647 189.181 56.6475 188.84C57.1592 188.457 57.1592 187.605 57.6699 187.264C58.2242 186.838 58.8627 186.796 59.2039 186.157C59.5036 185.298 60.5864 185.064 60.9077 184.282C61.8168 184.164 62.2325 183.469 62.9948 183.089C63.8979 182.491 64.1447 181.694 65.4235 181.769C65.6224 181.452 65.1887 180.683 65.6793 180.363C66.507 179.356 68.7451 177.909 69.045 177.04C69.0483 176.658 69.1523 176.283 69.3466 175.954C69.5408 175.625 69.8185 175.353 70.1516 175.166C70.8635 173.932 71.2208 174.326 72.2816 173.93C72.7033 173.325 72.7687 173.207 73.4744 172.993C73.6874 172.865 73.8152 172.397 74.2408 172.354L73.986 172.099C74.0712 171.971 74.5819 172.226 74.6672 172.141C75.0703 171.927 75.1294 171.508 75.4347 171.247C75.8909 171.01 76.3908 170.868 76.9036 170.832C77.4165 170.795 77.9314 170.864 78.4167 171.034C79.3161 171.706 79.9453 172.416 79.5241 173.632Z" fill="black"/>
<path d="M185.769 179.486C185.201 177.824 185.773 175.897 184.376 174.44C183.739 173.751 182.879 173.338 182.31 172.655C181.773 171.782 181.045 171.042 180.181 170.491C179.316 169.941 178.337 169.594 177.319 169.478C175.989 168.876 174.532 168.611 173.075 168.707C171.619 168.803 170.209 169.257 168.97 170.029C167.518 171.089 166.305 172.443 165.409 174.002C164.513 175.56 163.955 177.29 163.769 179.078C163.467 185.133 168.912 191.914 175.363 190.494C177.493 190.47 179.565 189.793 181.299 188.555C183.033 187.317 184.345 185.576 185.059 183.569C185.448 182.972 185.711 182.302 185.833 181.6C185.955 180.898 185.933 180.179 185.769 179.486V179.486ZM180.315 179.486C179.876 180.74 180.549 179.993 179.582 181.316C179.673 182.157 178.851 182.247 178.266 182.393C177.779 182.991 177.154 183.463 176.445 183.768C176.092 184.3 175.53 184.997 174.785 184.727C173.409 184.486 172.114 183.908 171.016 183.044C170.711 183.016 170.232 183.161 170.072 182.908C170.294 181.183 169.722 181.325 169.746 180.035C170.071 179.154 169.772 178.564 170.637 177.969C170.596 177.206 171.521 176.798 171.78 176.065C172.132 175.479 172.752 175.586 173.297 175.486C173.782 175.405 174.19 174.736 174.801 174.797C175.31 174.863 175.655 175.4 176.096 175.347C176.419 175.314 176.868 174.998 177.226 175.125C177.876 175.856 178.684 175.063 178.297 176.309C178.569 177.469 180.428 177.906 180.335 179.486L180.315 179.486Z" fill="black"/>
<path d="M48.8294 34.966C48.3999 34.1855 47.4512 33.2801 46.5371 33.5056C46.4021 33.681 46.3287 33.906 46.0368 33.7974C45.6528 34.1756 45.1936 34.4689 44.689 34.6582L44.4685 34.4036C44.3187 34.4837 44.4311 34.8667 44.2553 34.9105C43.7313 35.0413 43.2693 35.1716 43.1154 35.7537C43.0145 36.1341 43.0926 36.7165 42.792 36.9039C42.1931 37.0616 41.8659 37.494 41.2527 37.6077C41.0728 37.756 41.103 38.1146 40.9272 38.2633C40.4621 38.2563 40.0032 38.3707 39.5957 38.5951C39.1883 38.8196 38.8464 39.1463 38.6037 39.5432C38.2773 39.6841 37.8049 39.6405 37.5604 39.966C37.2708 39.643 37.0186 39.2883 36.8085 38.9088C36.2484 38.2681 35.2257 38.2364 34.9189 37.2024C34.4451 36.2998 33.5312 35.767 32.8905 35.0373C32.6361 34.475 32.5749 34.0852 31.9161 34.0328L31.3233 34.5453V34.5451L31.7091 34.2112C31.1996 34.0666 30.743 33.7773 30.3947 33.3782C30.0983 33.4522 30.0657 33.2291 29.9651 33.0437C28.7555 32.5971 26.8489 34.3882 27.0665 35.5086C27.0416 36.0369 26.8123 36.7437 27.4023 36.8889C27.9567 37.2824 27.5178 37.4863 27.5064 37.8446L28.1377 37.2994V37.2996L27.7903 37.5994C27.7623 37.959 28.1231 38.0282 28.2043 38.2138C28.2724 38.8837 28.2831 38.7706 28.7806 39.143C28.901 39.985 28.4033 40.2711 29.3932 40.8432C29.5033 41.1118 29.7001 41.3359 29.9522 41.4797C30.2044 41.6236 30.4974 41.6789 30.7847 41.637C31.4095 41.7114 32.0097 43.2794 32.8636 44.0214C32.2411 44.4195 31.7318 44.9563 31.0736 45.3048C30.4122 45.89 30.2702 46.9951 29.2409 47.3033C28.3907 47.9314 27.6151 48.6546 26.9292 49.4588C26.3488 49.7328 25.9277 49.8141 25.8547 50.494L26.1407 50.8243L26.1397 50.8245L26.0326 50.7005C25.8598 51.2334 25.5464 51.7098 25.1255 52.0795C25.1925 52.3853 24.9569 52.4229 24.7647 52.532C24.2527 53.7706 26.0687 55.7023 27.2276 55.4323C27.7787 55.4416 28.5052 55.6496 28.6712 55.0414C29.0975 54.4636 29.2786 54.8946 29.6665 54.9035L29.421 54.6199C29.7933 54.636 29.8776 54.2631 30.0721 54.1745C30.7596 54.0886 30.6657 54.0608 31.0548 53.5513C31.9579 53.4034 32.2122 53.897 32.8398 52.8662C33.1207 52.7473 33.3565 52.5419 33.5126 52.2798C33.6688 52.0177 33.7373 51.7126 33.7081 51.4089C33.8998 50.6689 35.6973 49.9511 36.4748 48.98C36.9314 49.3419 37.239 49.859 37.3389 50.433C37.5543 50.8344 38.2605 50.7964 38.5039 51.1747C38.7098 51.4938 38.5746 52.0944 38.9512 52.2568C39.8564 52.4263 39.6428 52.1048 40.2865 52.8068C40.9069 52.7666 40.7007 53.0496 40.5166 53.4969C40.5755 54.555 42.4464 54.2781 42.9025 55.0509L43.72 54.3448V54.345L42.6529 55.2672C43.0294 55.2828 43.3418 54.8157 43.6492 55.4452C43.7078 56.0516 44.4405 55.9239 44.9669 55.9777C46.0438 56.3533 48.0916 54.727 47.825 53.4657C47.6539 53.3406 47.4416 53.2727 47.5557 52.9922C47.0327 52.3927 47.1523 52.2738 46.8505 51.6386L47.0138 51.4974C46.969 51.4122 46.8348 51.4066 46.7113 51.3919C46.2792 51.0401 46.4269 50.35 45.74 50.2335C45.1355 50.1596 44.5322 50.2345 44.4931 49.5166C44.2401 49.2249 44.0677 48.8722 43.9929 48.4934C43.4301 48.2047 43.2094 48.3205 43.2753 47.5077C43.2336 46.7306 42.6729 46.4149 42.1893 45.9975C42.0623 45.7026 42.1245 45.2638 41.8295 45.0372C42.1051 44.5984 42.6054 44.6303 43.0494 44.3848C43.4728 44.1508 43.4561 43.4254 43.8576 43.1628C44.1945 42.9413 44.8134 43.0605 44.9943 42.6677C45.1932 41.7299 44.8754 41.9444 45.6081 41.2773C45.5875 40.6503 45.8659 40.837 46.3319 41.0183C47.4361 40.9199 47.2031 39.01 48.0219 38.5144L48.2382 38.7647C48.337 38.7101 48.0021 38.1545 48.0864 38.0806C48.2707 37.721 48.5842 37.7793 48.8207 37.5633C49.0087 37.1564 49.1067 36.7138 49.1082 36.2656C49.1097 35.8174 49.0146 35.3741 48.8294 34.966V34.966Z" fill="black"/>
<path d="M208.006 127.624C207.84 126.348 207.183 125.186 206.175 124.387C205.663 124.046 204.896 123.875 204.555 123.322C204.19 122.369 203.549 121.622 203.192 120.68C202.937 120.34 202.468 120.212 202.212 119.871C201.675 117.095 200.309 116.932 199.486 114.802C199.168 113.773 198.139 113.184 197.356 112.501C196.575 111.488 195.89 110.404 195.311 109.264C193.405 106.903 191.805 104.181 190.029 101.638C189.052 100.373 187.491 99.516 186.877 97.9316C185.781 96.3497 184.601 94.8281 183.341 93.3736C182.751 92.4088 182.344 91.0852 181.067 90.7513C181.023 90.4956 180.921 90.2535 180.768 90.0435C180.616 89.8334 180.418 89.6611 180.188 89.5396C179.521 89.2772 179.377 89.4123 178.953 88.9858C178.791 88.5225 178.577 88.0793 178.314 87.6652C178.305 87.5033 178.253 87.3468 178.163 87.2119C178.073 87.077 177.948 86.9688 177.802 86.8984C177.197 86.507 177.463 85.5571 177.036 84.9814C176.778 84.3908 176.337 84.3747 176.014 83.746C175.983 83.4212 175.896 83.1042 175.758 82.8088C175.466 82.408 175.068 82.0978 174.607 81.9142C174.309 81.6337 174.064 81.3018 173.884 80.9344C174.191 80.8291 174.427 80.0922 174.565 79.7842C174.922 78.7544 175.334 77.7447 175.8 76.7596C176.042 76.285 175.678 75.2843 176.099 74.5018C176.811 73.1552 177.299 71.7022 177.546 70.1992C177.979 69.4696 178.244 69.4447 178.058 68.4952C177.863 67.2956 179.182 66.5125 179.038 65.1724C178.875 64.5454 178.861 63.8891 178.995 63.2554C179.514 62.4087 179.803 61.4273 180.402 60.6142C180.356 60.2101 180.409 59.8008 180.558 59.4221C180.706 59.0434 180.945 58.7068 181.254 58.4416C181.941 57.4375 182.379 56.2837 182.532 55.0762C183.862 53.732 183.533 52.2514 184.022 50.6458C185.576 46.7903 187.015 42.9298 188.58 39.016C188.79 37.3891 189.22 35.7982 189.859 34.2874C190.553 32.4932 191.136 30.6579 191.605 28.792C192.173 27.9653 192.47 26.9831 192.457 25.9804C192.308 25.2658 192.007 24.5917 191.573 24.0046C191.139 23.4175 190.584 22.9312 189.944 22.5791C189.305 22.227 188.597 22.0174 187.869 21.9648C187.141 21.9122 186.41 22.0177 185.727 22.2742C184.581 22.3905 184.065 23.703 183.043 24.0634C182.071 24.0842 181.074 24.5804 180.103 24.5318C179.677 24.7022 179.422 25.0856 179.038 25.2134C177.745 25.1035 176.444 25.3081 175.247 25.8098C174.696 26.1789 174.028 26.3305 173.372 26.2355C172.308 26.4 171.315 26.8741 170.518 27.5987C169.309 28.0064 168.07 28.3198 166.813 28.5359C163.003 29.4911 159.282 30.7738 155.693 32.3695C153.089 33.1021 150.529 33.9841 148.025 35.0112C146.785 35.1226 145.601 35.5813 144.61 36.3348C144.103 36.4043 143.866 36.317 143.383 36.8002C142.859 37.4728 143.052 37.4767 142.487 37.8226C141.999 37.817 141.513 37.8742 141.039 37.993C140.69 38.026 140.814 37.9041 140.315 38.0782C140.015 38.3273 140.253 38.3318 139.42 38.5042C139.067 38.3634 138.686 38.3093 138.308 38.3463C137.93 38.3834 137.566 38.5106 137.247 38.7172C136.887 39.0892 136.153 38.9191 135.629 38.9302C135.463 39.0082 135.207 39.0454 135.076 39.1858C134.792 39.3621 134.533 39.5772 134.308 39.8248C133.973 39.9558 133.632 40.0695 133.286 40.1656C133.21 39.8362 132.655 39.3798 132.391 39.1432C131.511 38.4845 130.672 37.7732 129.877 37.0132C129.708 36.8719 129.501 36.7831 129.282 36.7576C129.088 36.6849 128.889 36.6279 128.686 36.5872C128.433 36.4815 128.19 36.3532 127.961 36.2038C126.917 35.0672 125.675 34.129 124.297 33.4348C123.912 33.1304 123.768 32.653 123.275 32.4124C123.087 32.421 122.898 32.392 122.721 32.3272C122.508 32.1142 122.04 32.2422 121.869 31.9866C120.885 30.3268 119.493 30.5097 118.035 29.8143C117.549 29.2774 117.022 28.7789 116.458 28.3233C116.121 27.5968 115.425 27.4908 114.796 27.1731C114.024 26.1894 113.366 24.9373 112.113 24.4041C111.529 24.1414 111.05 23.6918 110.75 23.1261C109.987 21.9852 108.542 21.9635 107.555 21.1665C103.885 17.7533 99.9062 14.6871 95.6707 12.0072C93.586 10.2863 91.4097 8.67954 89.1512 7.19411C88.5338 6.39283 87.6872 5.79836 86.724 5.48968C83.4768 4.73183 81.22 8.04896 81.1008 10.7721C80.949 11.905 81.9447 12.8036 81.9951 13.8393C81.7268 14.8256 81.8801 15.8494 81.5269 16.8213C82.3605 18.8042 80.7339 19.6794 81.2713 21.8481C81.4581 23.8176 80.5007 24.6204 81.4848 26.8749C81.3506 29.0362 81.3166 31.1083 81.2715 33.2223C80.9742 35.4705 81.2098 37.7023 81.0154 39.9531C81.3648 41.5467 81.4938 43.1808 81.3988 44.8095C81.3241 46.7281 81.3812 48.6497 81.5697 50.5605C81.3056 51.4435 81.3503 52.3901 81.6966 53.2443H81.8348L81.8681 53.3696C81.5947 53.4188 81.825 53.431 81.9523 53.8408C81.8385 54.1007 81.7528 54.372 81.6965 54.6502C81.6287 54.9467 81.661 54.8759 81.7817 55.417C81.8567 55.4885 81.9149 55.5758 81.9521 55.6726C82.1138 55.8412 82.2568 56.0269 82.3785 56.2264C82.7288 56.9411 82.3534 56.5547 82.2933 58.1434C81.8588 58.7738 82.3772 58.7834 82.2507 59.8048C81.9671 60.16 81.79 60.5884 81.74 61.0402C81.5573 61.8964 82.1302 62.1832 81.6122 63.1702C81.2618 63.8242 81.6542 64.4226 81.867 65.002C82.0236 65.249 81.9237 65.816 81.9096 66.1522C81.4617 66.2417 81.0397 66.4309 80.6751 66.706C79.708 67.3684 78.7313 67.9392 77.7349 68.5804C77.2901 68.8651 77.3271 69.4281 76.5003 69.9862C75.6117 70.3845 74.7806 70.9003 74.0292 71.5198C73.4039 71.9926 72.8732 72.739 72.0696 72.9256C71.8587 73.0321 71.4967 73.1567 71.3874 73.4794C70.8637 74.8726 69.292 74.6219 68.4906 75.9076C67.6737 77.6938 66.9108 77.6837 64.6998 78.8044C63.7561 80.3553 61.6 79.9916 60.3961 81.403C59.9768 81.8878 59.4069 82.2178 58.7777 82.3402C57.6819 82.6509 57.115 83.6532 56.3495 84.4276C55.3222 85.1629 54.2398 85.818 53.1119 86.3872C50.7072 88.2283 47.8998 89.7566 45.3596 91.4566C44.0317 92.4364 43.2089 93.924 41.5247 94.5235C39.9346 95.5808 38.3993 96.7184 36.9248 97.9318C35.9853 98.3068 35.1621 98.9241 34.5389 99.721C34.2402 100.39 34.0905 101.115 34.1 101.847C34.1096 102.579 34.2783 103.301 34.5944 103.961C34.9105 104.622 35.3664 105.206 35.9306 105.673C36.4947 106.139 37.1537 106.478 37.8617 106.665C38.8305 107.249 40.0776 106.523 41.0567 106.835C41.9738 107.228 42.8694 107.669 43.74 108.156C44.1432 108.107 44.5521 108.151 44.9359 108.284C45.3197 108.417 45.6682 108.635 45.9552 108.923C46.9506 109.62 48.1106 110.046 49.3209 110.157C50.9898 111.552 52.0043 111.041 53.7942 111.521C58.4035 113.49 63.1791 115.044 68.0643 116.165C70.6042 117.098 73.1925 117.894 75.818 118.55C76.5848 119.062 77.4955 119.316 78.417 119.274L78.4367 119.208C78.4906 119.213 78.5336 119.245 78.5875 119.226C78.5549 119.34 78.7199 119.213 79.0555 119.189C79.2491 119.412 79.4928 119.587 79.7666 119.698C80.0405 119.809 80.3368 119.854 80.6312 119.828C80.9073 119.707 81.1924 119.607 81.484 119.53C82.0762 119.417 81.9329 119.681 83.2303 120.211C83.7576 120.842 83.8632 120.314 84.8496 120.765C85.1032 121.15 85.4565 121.46 85.872 121.66C86.4681 121.942 86.7623 121.769 87.4476 122.043C87.6183 122.228 87.8037 122.399 88.002 122.554C88.2286 122.705 88.4969 122.779 88.7685 122.767C88.9077 122.808 89.0556 122.808 89.1949 122.767C89.352 122.772 89.5091 122.757 89.6629 122.725C90.0534 122.752 90.4324 122.868 90.7705 123.066C90.729 123.51 90.7724 123.958 90.8983 124.386C91.2012 125.524 91.5458 126.613 91.75 127.794C92.1752 128.252 92.508 128.787 92.7298 129.37C92.9322 130.9 93.3933 132.384 94.0934 133.758C94.2714 134.258 94.0475 134.698 94.3064 135.207C94.7037 135.512 95.0245 135.906 95.2436 136.357C94.9817 138.313 96.3057 138.932 97.0328 140.361C97.1049 141.097 97.2476 141.825 97.4591 142.534C97.2735 143.319 97.7883 143.817 98.0977 144.408C97.9263 146.011 98.2379 147.628 98.9922 149.052C98.8889 150.475 99.3478 151.882 100.27 152.971C101.334 157.229 102.419 161.339 103.55 165.623C104.035 167.223 105.201 168.447 105.296 170.224C105.703 172.623 107.093 174.696 107.341 177.083C108.527 181.003 113.826 180.254 115.692 177.466C116.565 176.745 116.225 175.32 116.799 174.484C117.609 173.838 118.109 172.971 118.887 172.354C119.195 171.567 119.453 170.826 120.334 170.48C121.278 169.724 122.035 168.762 122.55 167.668C124.356 166.501 124.237 165.37 125.234 163.791C126.025 162.518 127.361 161.579 127.96 160.213C129.773 158.251 131.212 155.973 132.945 153.951C133.585 152.44 134.446 151.033 135.501 149.776C136.679 148.265 137.747 146.67 138.695 145.005C139.447 144.466 139.989 143.683 140.229 142.79L140.095 142.695C140.117 142.653 140.146 142.615 140.165 142.571L140.271 142.619C140.28 142.46 140.308 142.302 140.356 142.15C140.891 141.768 141.156 141.724 141.38 140.958C141.427 140.618 141.427 140.274 141.38 139.935C141.533 139.303 141.722 139.54 142.614 138.487C143.349 138.141 142.858 137.866 143.637 137.166C144.066 137.007 144.458 136.76 144.787 136.442C145.056 136.154 145.247 135.802 145.341 135.42C145.43 135.297 145.53 135.183 145.64 135.079C145.75 135.026 146.001 134.887 146.108 134.823C146.367 134.629 146.578 134.379 146.725 134.091C146.873 133.803 146.953 133.485 146.959 133.162C147.123 132.795 147.355 132.463 147.642 132.182C148.046 132.401 148.503 132.504 148.962 132.48C150.063 132.568 151.126 132.565 152.242 132.736C152.375 132.742 152.508 132.713 152.626 132.651C152.833 132.606 153.033 132.535 153.221 132.438C153.369 132.414 153.512 132.371 153.648 132.31C153.777 132.318 153.907 132.304 154.032 132.267C155.058 132.453 156.099 132.538 157.142 132.523C158.022 132.281 158.953 132.296 159.825 132.565C160.214 132.66 160.327 132.5 160.762 132.31C161.06 132.352 161.359 131.969 161.657 132.054C163.542 132.891 164.417 131.85 166.044 131.585C166.997 131.81 168.021 131.785 168.985 132.097C169.41 132.097 169.794 131.799 170.22 131.841C171.693 132.481 173.319 132.688 174.905 132.437C176.236 132.943 177.707 132.943 179.038 132.437C182.482 132.568 185.905 132.959 189.39 133.034C191.119 133.269 192.876 133.212 194.586 132.864C196.647 132.725 198.733 133.285 200.849 132.991C202.517 132.626 204.031 133.506 205.663 132.864C206.615 132.414 207.374 131.639 207.804 130.678C208.234 129.717 208.305 128.634 208.006 127.624V127.624ZM200.252 126.389C198.713 126.502 197.152 126.01 195.78 126.943C193.593 127.025 191.404 126.997 189.22 126.858C188.245 126.612 187.836 128.242 187.005 127.284C186.11 126.602 184.917 127.071 183.895 126.815C182.809 126.702 181.738 126.473 180.7 126.133C179.578 126.344 178.363 125.843 177.206 126.219C176.328 126.231 175.453 126.116 174.607 125.878C173.755 125.75 172.904 126.304 172.052 126.219C171.327 126.176 170.646 125.665 169.922 125.835C169.163 126.282 168.287 126.49 167.408 126.432C166.887 126.85 166.499 126.669 166.13 126.133C164.418 125.561 162.547 127.019 160.816 126.857L160.822 126.479L160.816 126.857L160.805 126.858V126.988C160.751 126.982 160.709 126.959 160.652 126.957C160.644 126.672 160.529 126.732 160.337 126.73C159.905 126.754 159.475 126.651 159.101 126.432C158.928 126.531 158.725 126.564 158.529 126.525C158.333 126.485 158.158 126.377 158.036 126.219C157.824 126.001 157.561 125.84 157.27 125.75C156.743 125.905 156.185 125.92 155.651 125.793C154.956 125.709 154.398 126.844 153.563 126.559C153.444 126.56 153.327 126.531 153.222 126.474C153.131 126.457 152.929 126.415 152.839 126.389C152.219 126.4 150.787 126.366 150.155 126.346C149.671 126.287 149.654 126.749 149.005 127.071C147.827 125.74 145.755 126.149 144.277 126.687C143.265 127.307 142.697 128.534 141.848 129.286C141.716 129.443 141.601 129.614 141.507 129.797C141.367 129.967 141.278 130.174 141.252 130.393C141.216 130.624 140.656 131.144 140.357 131.288C140.064 131.502 139.841 131.799 139.718 132.14C139.692 132.504 139.574 132.855 139.377 133.162C139.129 133.365 138.858 133.537 138.568 133.674C138.422 133.836 138.307 134.024 138.227 134.227C138.218 134.452 138.293 134.768 138.27 134.994C138.287 135.174 138.111 135.388 137.844 135.804C137.814 136.008 137.943 135.977 137.674 136.357C137.42 136.397 137.023 136.244 136.736 136.613C136.474 137.116 136.315 137.666 136.268 138.232C136.216 138.663 136.086 139.082 135.885 139.467C135.472 139.83 135.126 140.263 134.862 140.745C134.564 141.043 134.137 141.129 133.925 141.555C133.692 142.51 132.789 142.737 132.05 143.173C131.051 144.648 129.887 145.855 129.835 147.306C129.528 148.695 128.117 149.419 127.535 150.671C127.246 151.163 125.79 152.808 125.745 153.397C125.839 153.99 126.013 154.647 125.192 154.761C124.084 155.101 123.829 156.337 123.019 157.061C122.011 157.816 121.866 158.665 120.633 159.276C120.559 159.598 120.397 159.893 120.165 160.128C118.878 161.402 118.488 163.156 116.97 164.133C116.416 164.772 116.374 165.794 115.82 166.476C115.351 167.03 114.542 167.328 114.286 168.01C114.224 168.887 113.914 169.729 113.391 170.438C113.377 170.962 113.218 171.304 112.582 171.29C112.158 170.254 111.981 169.076 111.475 168.095C110.885 167.421 110.085 166.77 110.069 165.794C109.71 163.904 109.139 162.061 108.365 160.299C107.779 159.951 107.155 159.718 107.64 158.978C107.981 157.913 107.172 156.976 107.13 155.911C107.226 154.933 106.584 154.193 106.746 153.27C106.809 153.097 106.823 152.909 106.785 152.728C106.748 152.548 106.66 152.381 106.533 152.248C105.932 150.47 105.476 148.646 105.17 146.795C105 145.943 104.191 145.304 104.02 144.452C103.85 143.728 104.105 142.918 103.722 142.279C103.02 141.743 102.536 140.972 102.359 140.107C101.802 139.64 101.876 139.379 102.231 138.786C102.361 136.948 100.265 135.681 99.9309 133.972L99.8716 133.978C99.8435 133.913 99.8119 133.849 99.777 133.788C100.177 133.651 99.7713 133.504 99.7604 132.822C99.9989 131.951 99.3287 131.99 99.5897 131.246C99.7957 130.946 99.9 130.587 99.8872 130.223C99.8286 130.147 99.7855 130.06 99.7603 129.968C99.5914 129.725 99.4752 129.449 99.4192 129.158C99.4158 128.965 99.3724 128.774 99.2917 128.598C99.2109 128.422 99.0946 128.265 98.9501 128.136C98.5838 127.864 98.071 127.598 97.9703 127.113C97.8275 125.933 97.5415 124.774 97.1186 123.663C96.9898 123.194 96.6326 123.307 96.0536 122.768C96.5671 121.36 96.5367 119.81 95.9684 118.423C95.9297 118.273 95.7711 118.208 95.6272 118.167C94.1388 117.808 92.7058 117.249 91.3672 116.506C90.8534 116.335 90.6338 116.538 89.9194 116.25C89.3589 115.884 89.443 115.72 88.5986 115.526C88.1745 115.583 87.7447 115.583 87.3206 115.526C87.2171 115.44 87.1027 115.369 86.9805 115.313C86.6537 115.02 86.5646 114.777 85.9571 114.759C85.7092 114.842 85.4674 114.941 85.2332 115.057C84.9296 115.034 84.6296 114.977 84.3389 114.887C84.1213 114.942 84.2308 114.982 83.7429 114.887C83.5764 113.418 81.7412 114.183 80.7609 114.205C80.1061 114.234 79.8042 113.757 78.7151 113.566C78.1666 113.092 77.4791 112.808 76.7555 112.757C76.2876 112.544 75.9891 111.948 75.5627 111.649C74.4194 111.253 73.2531 110.925 72.0703 110.669C71.1845 110.939 70.2306 110.879 69.3859 110.499C68.0446 109.836 66.0311 109.397 64.6152 108.88C63.997 108.46 63.353 109.246 62.8254 109.136C61.9092 107.875 60.9054 107.959 59.5449 107.347C58.8012 106.719 57.8891 106.809 57.1602 106.154C56.818 105.56 56.1971 105.878 55.7115 105.557C54.1103 104.781 52.3535 104.869 50.9409 103.768C50.1306 103.427 49.1509 103.726 48.3844 103.385C47.7021 103.129 47.149 102.448 46.4248 102.405C45.5825 102.651 44.682 102.606 43.8684 102.277C43.3317 102.499 42.9349 102.374 42.7608 101.809C43.953 100.785 45.4652 100.284 46.041 98.7421C47.7576 97.3784 49.5497 96.1124 51.4086 94.9503C52.3123 94.5584 51.7143 92.9957 52.9419 93.2894C54.0506 93.3317 54.7318 92.2244 55.7115 91.841C56.8471 91.4777 57.5026 90.6937 58.7361 90.5206C59.4433 89.6255 60.8134 89.3871 61.5056 88.3903C62.1869 87.6661 62.9534 87.6235 63.8052 87.1549C64.5301 86.7289 64.9128 85.7917 65.6377 85.3657C66.2763 84.9823 67.1281 84.9823 67.5973 84.4285C67.9454 83.6255 68.5234 82.9437 69.2585 82.4689C69.5476 81.7989 69.8182 81.7487 70.4939 81.9151C72.2592 81.5163 72.849 79.1275 74.3274 78.2089C74.3237 78.148 74.2995 78.0902 74.2588 78.0448C74.3035 78.0292 74.3628 78.0331 74.4054 78.0149C74.7277 78.4378 74.7093 77.97 75.3924 77.7404C76.1888 77.6382 75.9387 77.3399 76.6704 77.0585C77.1101 77.05 77.6109 77.3415 77.9913 76.931C78.2003 76.8159 78.3256 76.5249 78.5457 76.4197C78.9602 76.1269 79.1908 76.1265 79.5255 75.6955C79.555 75.5639 79.5975 75.4354 79.6524 75.3121C79.711 75.0223 79.827 74.7471 79.9935 74.5028C80.1913 74.2636 80.2457 74.3564 80.3773 74.2045C83.0694 72.7957 85.4577 70.8704 87.406 68.5387C88.2963 67.1915 87.8338 65.474 88.0029 63.9379C88.0871 63.3841 88.5988 62.3617 88.3856 61.7653C88.3562 61.6272 88.2985 61.4966 88.2161 61.3819L88.0871 60.9559C87.7816 60.3269 88.4933 59.8893 88.343 59.1241C88.2824 58.843 87.9476 58.6562 87.8323 58.3999C87.7288 58.329 87.7209 57.9211 87.7045 57.5053C87.5871 57.289 87.5774 57.4443 87.4913 56.9515C87.7888 56.6856 87.8026 56.8519 88.1309 56.3551C88.1397 56.2537 88.1248 56.1516 88.0872 56.0569C88.0926 55.7995 88.0185 55.5466 87.875 55.3327C87.4881 54.677 87.2278 53.9545 87.1075 53.2027H87.1512C87.4308 52.4621 87.0236 52.612 87.4914 50.5615C87.0887 49.6333 87.7073 48.9486 88.0458 48.1759C88.0756 46.9675 88.0329 45.7583 87.918 44.5549C87.5631 43.6847 86.9622 42.9004 87.2355 41.9135C87.4593 40.463 87.2611 38.3755 87.3207 36.8867C87.4737 36.1552 86.5428 35.8445 86.5113 35.2679C87.4242 33.9783 87.0722 33.0712 87.1925 31.6043C87.604 30.7324 87.1558 29.8441 87.619 28.9631C87.7117 28.811 87.7676 28.6394 87.7824 28.462C87.7972 28.2845 87.7704 28.106 87.7042 27.9407C87.838 26.9216 87.8237 25.8885 87.6616 24.8735C87.406 23.8937 87.8323 23.2549 87.9176 22.3175C88.0028 21.4655 87.4485 20.6135 87.4912 19.7615C87.5338 19.0373 88.0029 18.3131 87.8323 17.5889C87.3565 16.855 87.1187 15.9921 87.1514 15.1181C86.8631 14.706 86.7558 14.2784 87.278 13.9253C88.2445 14.5398 89.0811 15.3317 90.0475 15.8849C90.9802 15.9154 91.8713 16.278 92.5603 16.9073C93.8035 18.0215 95.1124 19.0599 96.4802 20.0171C96.9736 20.6564 97.7958 20.0858 98.2694 20.4002C98.715 21.8883 99.7275 22.1737 100.741 23.1691C101.506 24.1273 102.378 24.5223 102.955 25.5977C104.002 26.1096 104.654 27.206 105.852 27.5995C106.747 28.0258 107.003 28.7497 107.684 29.389C108.322 29.9852 109.346 30.028 109.984 30.6244C110.537 31.093 110.836 31.9024 111.476 32.2006C112.367 32.2645 113.217 32.6073 113.903 33.1804C114.638 33.1463 114.714 33.4934 114.756 34.1602C115.835 35.6779 118.205 35.6677 119.653 36.8414C119.508 37.1035 119.924 37.0691 120.25 37.5255C120.502 38.2444 121.016 37.9889 121.273 38.5479C121.37 38.7641 121.363 39.0947 121.443 39.3147C121.516 39.3687 121.662 39.7312 121.827 39.7833C122.832 40.1351 122.805 40.6144 123.445 40.8059C123.733 40.8944 124.179 40.7215 124.468 40.8483C124.607 40.8391 124.745 40.885 124.851 40.9761C124.935 40.9932 125.01 41.0383 125.064 41.1039C125.22 41.2533 125.332 41.5092 125.532 41.6151C125.766 41.9516 126.164 42.0914 126.47 42.3819C126.973 42.6423 127.776 43.7451 128.473 43.4895C129.361 43.1768 129.191 43.6812 129.452 44.4267C129.835 45.0657 130.645 45.4491 131.071 46.0455C131.367 46.5619 131.706 47.0018 132.349 46.9827C133.858 47.0384 135.129 45.897 136.609 45.7902C137.146 45.6237 137.323 45.2693 137.973 45.1509C138.516 45.1013 139.067 45.3114 139.634 44.8104C139.889 44.5544 140.193 44.3516 140.528 44.214C140.826 44.0992 141.723 44.4952 142.062 44.001C142.347 43.6197 142.31 43.418 142.829 43.149C142.989 43.1036 143.146 43.0466 143.298 42.9786C143.443 42.8035 143.335 42.7946 143.766 42.6378C144.038 42.7646 144.16 43.0957 144.661 42.9786C145.426 42.6511 146.077 41.7685 146.748 41.3172C146.893 41.2243 147.051 41.1526 147.217 41.1042C147.742 41.1964 148.228 40.8151 148.623 40.7634C149.339 40.7907 150.048 40.6133 150.668 40.252C151.178 40.1242 151.733 40.465 152.286 40.4224C152.876 40.3186 153.44 40.1016 153.948 39.7834C154.562 39.6946 155.154 39.4923 155.694 39.187C156.352 38.6053 156.996 37.7746 157.952 37.696C159.584 37.3098 161.192 36.8262 162.766 36.2476C163.508 36.1686 163.586 35.1906 164.086 34.9696C165.373 35.4765 166.54 34.7535 167.793 34.5006C169.094 34.4436 169.577 33.941 171.03 34.0753C171.289 33.8694 171.598 33.7368 171.925 33.6916C173.675 33.4236 175.047 32.2244 176.824 32.3284C177.676 32.1151 178.315 31.3484 179.124 31.1356C179.848 30.9226 180.658 31.1782 181.297 30.7948C181.832 30.095 182.579 29.587 183.427 29.3468C183.797 28.9267 184.092 28.7066 184.619 29.1334C184.285 30.5866 183.272 31.989 183.767 33.5212C183.179 35.6339 182.468 37.7106 181.638 39.7408C181.214 40.417 182.015 40.9814 181.851 41.5726C180.553 42.4861 180.637 43.4462 179.975 44.8102C179.346 45.7027 179.16 46.8532 178.357 47.6213C178.212 48.7951 177.333 49.7631 177.335 50.9867C177.207 51.9665 176.61 52.4777 176.227 53.3297C175.843 54.0965 176.099 55.0763 175.758 55.8857C175.461 56.5247 174.778 57.0359 174.736 57.8027C174.962 58.6538 174.887 59.557 174.522 60.3587C174.804 61.0194 174.449 61.2776 173.841 61.5089C172.717 62.9328 173.579 65.1526 172.904 66.7487L173.075 66.8339C173.059 66.8836 173.061 66.9366 173.05 66.987C172.42 66.8416 172.772 67.1776 172.351 67.7709C171.747 68.2383 172.142 68.7445 171.711 69.0491C171.395 69.3222 170.936 69.3631 170.774 69.8159C170.629 70.186 170.686 70.6136 170.475 70.9661C170.322 71.225 170.235 71.5176 170.221 71.8181C170.355 72.4461 170.708 72.9036 170.39 73.5647C169.856 74.5687 169.428 75.6251 169.112 76.7171C168.951 77.1409 169.294 77.3425 169.453 78.0803C168.819 78.3863 168.267 78.8401 167.845 79.4034C167.423 79.9667 167.142 80.6232 167.025 81.3177C167.143 82.8962 168.778 83.8907 169.24 85.3647C169.416 85.6639 169.616 85.9488 169.837 86.2167C170.104 86.4332 170.548 86.6819 170.646 87.1539C170.817 87.6296 170.819 88.0605 171.413 88.4319C171.758 88.7219 172.299 88.8917 172.392 89.4543C172.505 90.2171 172.748 90.618 173.671 90.6897C173.92 90.8797 174.136 91.1101 174.31 91.3713C174.512 91.4561 174.454 91.3628 174.778 91.7121C174.729 92.0067 174.471 92.2382 174.736 92.6919C175.244 93.1666 175.836 93.5422 176.482 93.7995C176.796 93.9871 177.071 94.2329 177.292 94.5237C177.377 95.0775 177.888 95.3757 178.059 95.7165C178.215 96.4212 178.605 97.052 179.166 97.5057C179.547 98.9528 179.359 99.3976 180.615 100.53C181.066 101.444 181.84 102.158 182.788 102.532C184.007 103.294 184.246 104.799 185.258 105.77C185.831 106.692 186.503 107.549 187.261 108.326C187.601 108.454 188.113 108.369 188.326 108.624C188.337 110.205 189.209 110.766 189.902 112.032C190.478 112.957 190.949 113.943 191.308 114.972C192.213 115.738 192.492 117.038 193.522 117.741C194.247 118.38 194.332 119.146 194.8 119.956C195.227 120.723 196.206 121.063 196.633 121.788C197.058 122.384 197.058 123.279 197.655 123.747C198.479 124.035 199.184 124.59 199.657 125.323C199.775 125.338 199.888 125.38 199.986 125.447C200.085 125.513 200.166 125.602 200.224 125.705C200.282 125.809 200.315 125.925 200.32 126.044C200.325 126.162 200.302 126.281 200.252 126.389V126.389Z" fill="black"/>
</svg>
