<svg width="16" height="16" viewBox="0 0 16 16" fill="none" xmlns="http://www.w3.org/2000/svg">
<path d="M13.9968 3.74831C13.198 3.57743 12.4746 3.15587 11.9322 2.54507C11.3897 1.93427 11.0565 1.16618 10.9812 0.352754V0H8.22557V10.9362C8.22387 11.4203 8.07051 11.8918 7.78704 12.2843C7.50357 12.6768 7.10424 12.9706 6.64518 13.1244C6.18611 13.2783 5.69038 13.2844 5.22764 13.142C4.7649 12.9996 4.35842 12.7157 4.06532 12.3304C3.76766 11.9386 3.60254 11.4621 3.59391 10.9702C3.58528 10.4782 3.73357 9.99628 4.0173 9.59427C4.30102 9.19226 4.70542 8.89108 5.17185 8.73439C5.63828 8.57771 6.1425 8.57367 6.61138 8.72286V5.92322C5.5658 5.77868 4.50119 5.96457 3.56646 6.45489C2.63173 6.94521 1.87363 7.71543 1.39821 8.65782C0.922782 9.60021 0.753806 10.6676 0.914915 11.7108C1.07602 12.7539 1.55916 13.7207 2.29675 14.4757C3.00014 15.1954 3.90205 15.6892 4.88733 15.894C5.87262 16.0988 6.89659 16.0054 7.82854 15.6257C8.76049 15.2459 9.55815 14.5971 10.1197 13.7619C10.6812 12.9268 10.9812 11.9433 10.9812 10.937V5.3489C12.0949 6.14507 13.4301 6.57197 14.7991 6.56954V3.8315C14.5295 3.83183 14.2606 3.80395 13.9968 3.74831Z" fill="#6C6C72"/>
</svg>
