<svg width="125" height="31" viewBox="0 0 125 31" fill="none" xmlns="http://www.w3.org/2000/svg">
<g clip-path="url(#clip0_962_79279)">
<path d="M81.0162 27.5938C80.2898 26.7008 79.8943 25.5857 79.8943 24.4355V16.1289C79.8943 10.2338 77.1161 6.8584 72.2014 6.8584C65.6578 6.8584 64.3907 10.423 62.6493 13.4551C62.5647 13.602 62.3784 13.6536 62.2293 13.574L61.8652 13.3791C61.7097 13.296 61.6531 13.1004 61.7413 12.947L62.238 12.0784C62.5518 11.5395 62.7202 10.9275 62.7202 10.3033V9.04988C62.7202 8.24084 62.0645 7.5858 61.2561 7.5858H54.1306C53.057 7.5858 52.4794 8.84564 53.1788 9.659L54.2173 10.8666C55.2636 12.0842 55.8398 13.6364 55.8398 15.2417V23.8643C55.8398 24.821 55.6355 25.7663 55.2399 26.6377L54.4144 28.4566C54.0374 29.2879 54.6451 30.2302 55.5574 30.2302H64.4588C65.5187 30.2302 66.1013 28.9976 65.4292 28.1785L64.709 27.3006C63.9737 26.4048 63.5716 25.2818 63.5716 24.1238V19.366C63.5716 17.7048 63.9693 16.0572 64.802 14.6196C65.8126 12.8754 67.1326 11.9838 68.7844 11.9838C71.0075 11.9838 72.2028 13.5676 72.2028 16.4277V24.156C72.2028 25.0897 72.0079 26.0129 71.631 26.867L70.9244 28.468C70.5582 29.2979 71.1659 30.2302 72.0724 30.2302H80.5225C81.5791 30.2302 82.1624 29.0033 81.4965 28.1835L81.0178 27.5952L81.0162 27.5938Z" fill="white"/>
<path d="M96.885 26.9162C96.6004 26.9729 96.3213 27.0123 96.076 27.018C93.7796 27.018 92.6751 25.5725 92.6751 22.5992V10.7839H96.8567C97.3402 10.7839 97.7332 10.3919 97.7332 9.90744V8.47631C97.7332 7.99258 97.3402 7.59987 96.8567 7.59987H91.5052C91.3551 7.59987 91.234 7.47804 91.234 7.32827V6.92766C91.234 6.7786 91.3543 6.65677 91.5037 6.65605H92.0469C92.3936 6.65677 92.6751 6.37585 92.6751 6.02899V2.903C92.6751 2.30675 92.1924 1.82373 91.5957 1.82373H88.5186C87.9581 1.82373 87.462 2.18707 87.2953 2.7224C86.9408 3.89483 86.0854 7.59987 83.304 7.59987H82.4777C81.9958 7.59987 81.6035 7.99188 81.6035 8.47631V9.90744C81.6035 10.3919 81.9958 10.7839 82.4777 10.7839H85.0273V22.898C85.0273 27.8264 87.5351 30.546 92.0807 30.546C94.3488 30.546 96.4062 29.7176 97.6515 28.2241C98.1357 27.6408 97.6318 26.77 96.885 26.9162Z" fill="white"/>
<path d="M52.2041 26.0243C50.8489 26.2686 49.933 25.2073 49.933 23.5418V15.5248C49.933 9.8074 46.309 6.73584 39.2701 6.73584C32.9665 6.73584 28.6609 9.15953 28.6495 12.8194C28.6466 13.4766 28.8932 14.1201 29.2565 14.7407C29.8406 15.6373 30.8962 16.2385 32.1051 16.2385C33.9455 16.2385 35.4375 14.8504 35.4375 13.1383C35.4318 11.3826 33.9491 10.4925 33.4997 10.3255C33.8194 10.0532 35.1996 8.98972 37.2378 8.98972C40.4777 8.98972 42.2127 11.4449 42.2127 15.2689V16.7889C39.7811 16.7889 37.0528 17.0333 35.1344 17.5005C30.4396 18.526 27.9658 21.1977 27.9658 24.5258C27.9658 28.2788 30.9528 30.6237 35.6869 30.6237C38.9727 30.6237 41.7032 29.4741 42.9823 27.5521C43.7907 29.1753 45.583 30.198 47.8885 30.198C50.8697 30.198 52.4312 28.6429 52.9243 26.794C53.0519 26.2679 52.6541 25.9376 52.2055 26.025L52.2041 26.0243ZM42.212 24.2262C41.9583 26.0157 40.7213 27.0835 38.929 27.0835C36.9647 27.0835 35.6432 25.762 35.6432 23.6708C35.6432 22.0505 36.3677 20.633 37.9486 19.9507C39.0135 19.4799 40.6762 19.2241 42.212 19.1818V24.2262Z" fill="white"/>
<path d="M123.516 26.0243C122.16 26.2686 121.244 25.2073 121.244 23.5418V15.5248C121.244 9.8074 117.621 6.73584 110.582 6.73584C104.278 6.73584 99.9723 9.15953 99.9613 12.8194C99.9582 13.4766 100.205 14.1201 100.568 14.7407C101.152 15.6373 102.208 16.2385 103.417 16.2385C105.257 16.2385 106.749 14.8504 106.749 13.1383C106.744 11.3826 105.261 10.4925 104.811 10.3255C105.131 10.0532 106.512 8.98972 108.549 8.98972C111.789 8.98972 113.524 11.4449 113.524 15.2689V16.7889C111.093 16.7889 108.365 17.0333 106.446 17.5005C101.751 18.526 99.2773 21.1977 99.2773 24.5258C99.2773 28.2788 102.265 30.6237 106.998 30.6237C110.284 30.6237 113.015 29.4741 114.294 27.5521C115.102 29.1753 116.894 30.198 119.2 30.198C122.181 30.198 123.743 28.6429 124.236 26.794C124.364 26.2679 123.966 25.9376 123.517 26.025L123.516 26.0243ZM113.523 24.2262C113.27 26.0157 112.033 27.0835 110.24 27.0835C108.277 27.0835 106.955 25.762 106.955 23.6708C106.955 22.0505 107.679 20.633 109.26 19.9507C110.325 19.4799 111.988 19.2241 113.523 19.1818V24.2262Z" fill="white"/>
<path d="M29.1778 0.0378267H25.3086C24.4759 0.0378267 23.977 0.963011 24.435 1.65887L25.0979 2.66575C25.6641 3.52644 25.7752 4.60928 25.3946 5.56672L18.4532 23.0249C18.1336 23.8654 17.8104 24.4416 17.6627 24.5835C17.5839 24.6588 17.4528 24.6817 17.3503 24.6058L16.9841 24.3141C16.868 24.2267 16.8744 24.0998 16.9812 23.9808C17.1847 23.7106 17.3108 23.3846 17.3825 23.0879C17.4678 22.7317 17.4392 22.3577 17.3087 22.0151L11.4308 6.47686C11.0424 5.45134 11.0582 4.31689 11.4731 3.30213L12.1009 1.7678C12.4392 0.942225 11.8314 0.0371094 10.9392 0.0371094H1.46734C0.191006 0.0371094 -0.474041 1.55568 0.39023 2.49376L0.992925 3.14805C2.10014 4.34914 2.97516 5.74517 3.57499 7.26517L12.0149 29.3213C12.2356 29.8809 12.7759 30.2486 13.3772 30.2486H18.0505C18.651 30.2486 19.1906 29.8824 19.4113 29.3242L30.3437 1.75634C30.6705 0.932193 30.0635 0.038544 29.177 0.038544L29.1778 0.0378267Z" fill="white"/>
</g>
<defs>
<clipPath id="clip0_962_79279">
<rect width="125" height="30.6604" fill="white"/>
</clipPath>
</defs>
</svg>
