<svg width="159" height="38" viewBox="0 0 159 38" fill="none" xmlns="http://www.w3.org/2000/svg">
<g clip-path="url(#clip0_962_79303)">
<mask id="mask0_962_79303" style="mask-type:luminance" maskUnits="userSpaceOnUse" x="0" y="0" width="159" height="37">
<path d="M158.333 0.180908L0 0.180908L0 36.8221L158.333 36.8221V0.180908Z" fill="white"/>
</mask>
<g mask="url(#mask0_962_79303)">
<path fill-rule="evenodd" clip-rule="evenodd" d="M41.9879 16.9404L43.7407 17.8951C44.5388 18.3228 44.9663 19.2205 44.8096 20.0898L43.2277 29.0111C43.0567 29.9517 42.3014 30.65 41.3608 30.7355L38.8382 30.9777C38.6104 31.2342 38.368 31.4766 38.1257 31.7045C36.0593 33.6713 33.323 35.0394 30.1877 35.8517C27.7935 36.4644 25.1714 36.7637 22.4208 36.7637C22.0645 36.7637 21.694 36.7637 21.3378 36.7494C17.7322 36.6497 14.3831 36.0084 11.5329 34.797C9.40943 33.8993 7.57099 32.6736 6.11737 31.106L3.43813 30.7782C2.52605 30.6642 1.78499 29.9801 1.62822 29.0681L0.0320802 20.1042C-0.124684 19.2205 0.302854 18.3228 1.10092 17.8951L2.85383 16.9404C3.78018 12.4797 6.18862 8.56064 9.53773 5.71036C10.6208 4.7983 11.7894 4.00023 13.0435 3.33042V2.21882C13.0435 1.2925 15.9222 0.494434 19.8556 0.252165C20.6821 0.209411 21.5373 0.180908 22.4208 0.180908C24.9291 0.180908 27.2093 0.394677 28.8909 0.750956C30.6866 1.12149 31.7981 1.64878 31.7981 2.23307V3.34467C33.6651 4.34225 35.3468 5.61063 36.8003 7.12122C39.3799 9.78624 41.2183 13.1637 41.9879 16.9404ZM11.1339 29.0253C13.7561 30.8922 17.6611 31.8755 22.4209 31.8755C27.1808 31.8755 31.0857 30.8922 33.7364 29.0253C36.2875 27.2011 37.5274 24.579 37.5274 20.9733C37.5274 12.6507 30.758 5.88133 22.4352 5.88133C14.1125 5.88133 7.34314 12.6507 7.34314 20.9733C7.34314 24.579 8.58296 27.2154 11.1339 29.0253Z" fill="white"/>
<path d="M22.4219 28.3966C19.4575 28.3966 16.707 26.6579 15.4102 23.9786L17.8044 22.8386C18.6738 24.6343 20.4408 25.76 22.4219 25.76C24.4028 25.76 26.1842 24.6485 27.0392 22.8386L29.4333 23.9786C28.1366 26.6579 25.386 28.3966 22.4219 28.3966Z" fill="white"/>
<path d="M62.9048 28.8305C61.5338 28.8305 60.2654 28.5645 59.0993 28.0323C57.9532 27.48 57.0121 26.7128 56.2754 25.7306L58.5468 22.9992C59.7336 24.6361 61.1552 25.4545 62.8125 25.4545C65.0426 25.4545 66.1579 24.1348 66.1579 21.4954V10.3855V7.04028L70.1478 7.04028V21.2805C70.1478 23.7972 69.5336 25.6898 68.3063 26.9583C67.0785 28.2065 65.2781 28.8305 62.9048 28.8305Z" fill="white"/>
<path d="M80.4839 11.9514C82.8978 11.9514 84.7393 12.5345 86.008 13.7008C87.2967 14.8465 87.9419 16.5856 87.9419 18.9181V28.5242H84.3203V26.5292C83.8496 27.2454 83.1746 27.7978 82.2948 28.1865C81.435 28.5548 80.3919 28.7389 79.1642 28.7389C77.9363 28.7389 76.8622 28.5344 75.9416 28.1252C75.0211 27.6955 74.3049 27.1124 73.7932 26.3758C73.3022 25.6188 73.0566 24.7697 73.0566 23.8285C73.0566 22.3554 73.5989 21.1788 74.6832 20.2991C75.788 19.3988 77.517 18.9489 79.8702 18.9489H84.105V18.7033C84.105 17.5576 83.7578 16.6777 83.0617 16.0639C82.3867 15.4501 81.3737 15.1431 80.0233 15.1431C79.1029 15.1431 78.1923 15.2863 77.2921 15.5728C76.4122 15.8593 75.6655 16.2581 75.0518 16.7697L73.5478 13.9769C74.4071 13.3222 75.4405 12.821 76.6476 12.4732C77.8545 12.1253 79.1335 11.9514 80.4839 11.9514ZM79.962 25.9462C80.9237 25.9462 81.7729 25.7314 82.5091 25.3017C83.2664 24.8515 83.7986 24.2172 84.105 23.3988V21.4961H80.1463C77.9363 21.4961 76.8315 22.2224 76.8315 23.675C76.8315 24.3707 77.1078 24.9231 77.6602 25.3324C78.2124 25.7417 78.9799 25.9462 79.962 25.9462Z" fill="white"/>
<path d="M97.9283 28.7389C96.5986 28.7389 95.299 28.5651 94.0304 28.2172C92.7617 27.8694 91.7493 27.4295 90.9922 26.8975L92.4655 23.982C93.2016 24.473 94.0813 24.872 95.1046 25.179C96.1478 25.4654 97.1711 25.6085 98.1736 25.6085C100.466 25.6085 101.612 25.005 101.612 23.7978C101.612 23.225 101.314 22.826 100.721 22.6008C100.148 22.3758 99.217 22.161 97.9283 21.9564C96.5777 21.7518 95.4727 21.5166 94.6137 21.2506C93.7751 20.9846 93.038 20.5243 92.4037 19.8696C91.7902 19.1943 91.483 18.2634 91.483 17.0767C91.483 15.5217 92.1274 14.2838 93.4169 13.3631C94.7265 12.4219 96.4859 11.9514 98.6953 11.9514C99.8212 11.9514 100.946 12.0844 102.071 12.3504C103.197 12.5959 104.118 12.9335 104.833 13.3631L103.36 16.2787C101.97 15.4603 100.404 15.0511 98.6652 15.0511C97.5393 15.0511 96.6805 15.225 96.087 15.5728C95.5136 15.9002 95.2273 16.3402 95.2273 16.8924C95.2273 17.5063 95.5345 17.9461 96.1478 18.2123C96.7823 18.4577 97.7546 18.693 99.0634 18.9181C100.373 19.1227 101.447 19.358 102.286 19.624C103.126 19.89 103.842 20.3401 104.434 20.9743C105.048 21.6085 105.356 22.5088 105.356 23.675C105.356 25.2095 104.69 26.4372 103.36 27.3579C102.031 28.2787 100.219 28.7389 97.9283 28.7389Z" fill="white"/>
<path d="M117.743 11.9514C119.338 11.9514 120.761 12.2992 122.009 12.9948C123.277 13.6905 124.27 14.6725 124.986 15.9412C125.702 17.2096 126.06 18.6726 126.06 20.3298C126.06 21.9871 125.702 23.4603 124.986 24.7492C124.27 26.0178 123.277 26.9998 122.009 27.6955C120.761 28.3911 119.338 28.7389 117.743 28.7389C115.533 28.7389 113.784 28.0024 112.495 26.5292V34.478H108.658V12.1355H112.311V14.2838C112.945 13.5064 113.722 12.9232 114.644 12.5345C115.584 12.1457 116.617 11.9514 117.743 11.9514ZM117.313 25.4551C118.725 25.4551 119.881 24.9845 120.781 24.0434C121.702 23.1023 122.162 21.8643 122.162 20.3298C122.162 18.7953 121.702 17.5576 120.781 16.6163C119.881 15.6751 118.725 15.2045 117.313 15.2045C116.392 15.2045 115.564 15.4194 114.827 15.849C114.09 16.2581 113.508 16.8516 113.078 17.6292C112.648 18.4066 112.433 19.3069 112.433 20.3298C112.433 21.3528 112.648 22.2531 113.078 23.0305C113.508 23.8081 114.09 24.4117 114.827 24.8412C115.564 25.2505 116.392 25.4551 117.313 25.4551Z" fill="white"/>
<path d="M145.107 20.4221C145.107 20.6881 145.087 21.0667 145.045 21.5576L132.186 21.5576C132.411 22.7648 132.994 23.7265 133.936 24.4425C134.897 25.1382 136.084 25.4861 137.496 25.4861C139.296 25.4861 140.779 24.8926 141.946 23.7061L144.002 26.069C143.266 26.9489 142.334 27.6139 141.209 28.064C140.084 28.5142 138.815 28.7392 137.404 28.7392C135.603 28.7392 134.018 28.3812 132.646 27.665C131.275 26.9489 130.212 25.9566 129.455 24.6881C128.718 23.3991 128.35 21.9465 128.35 20.3301C128.35 18.7342 128.708 17.302 129.424 16.0334C130.161 14.7444 131.173 13.7419 132.462 13.0258C133.751 12.3097 135.204 11.9517 136.82 11.9517C138.416 11.9517 139.839 12.3097 141.086 13.0258C142.355 13.7214 143.337 14.7138 144.033 16.0027C144.749 17.2712 145.107 18.7444 145.107 20.4221ZM136.82 15.0207C135.593 15.0207 134.549 15.3889 133.69 16.1255C132.851 16.8417 132.339 17.8032 132.156 19.0104H141.455C141.291 17.8237 140.79 16.8621 139.95 16.1255C139.112 15.3889 138.068 15.0207 136.82 15.0207Z" fill="white"/>
<path d="M152.441 14.5296C153.546 12.8109 155.49 11.9517 158.272 11.9517V15.6038C157.945 15.5424 157.648 15.5117 157.383 15.5117C155.889 15.5117 154.723 15.9517 153.884 16.8314C153.045 17.6907 152.625 18.9388 152.625 20.5757V28.5245H148.789V12.1358H152.441V14.5296Z" fill="white"/>
</g>
</g>
<defs>
<clipPath id="clip0_962_79303">
<rect width="158.333" height="38" fill="white"/>
</clipPath>
</defs>
</svg>
