<svg width="120" height="16" viewBox="0 0 120 16" fill="none" xmlns="http://www.w3.org/2000/svg">
<g clip-path="url(#clip0_11250_1694)">
<path d="M88.891 12.3262C89.5432 12.3262 90.065 11.8044 90.065 11.087C90.065 10.4349 89.5432 9.8479 88.891 9.8479C88.2389 9.8479 87.7171 10.3696 87.7171 11.087C87.6519 11.8044 88.2389 12.3262 88.891 12.3262Z" fill="white"/>
<path d="M20.4129 12.0001C19.8911 11.8044 19.4346 11.4783 19.0433 11.0218C18.652 10.6305 18.3911 10.1088 18.1955 9.58704C17.9998 9.0653 17.8694 8.41313 17.8694 7.82617C17.8694 7.23922 17.9346 6.58704 18.1303 6.0653C18.3259 5.54356 18.5868 5.02182 18.9781 4.63052C19.3694 4.23922 19.7607 3.91313 20.2824 3.65226C20.8042 3.45661 21.3911 3.32617 22.0433 3.32617C22.6303 3.32617 23.0868 3.39139 23.5433 3.52182C23.9998 3.65226 24.3259 3.91313 24.7172 4.174C25.0433 4.43487 25.3042 4.76095 25.4998 5.15226C25.6955 5.54356 25.8259 6.00008 25.8911 6.45661H23.6737C23.6085 6.0653 23.4129 5.73922 23.152 5.47835C22.8911 5.21748 22.4998 5.08704 22.1085 5.08704C21.3911 5.08704 20.9346 5.34791 20.5433 5.80443C20.2172 6.26095 20.0216 6.97835 20.0216 7.76095C20.0216 8.54356 20.152 9.19574 20.5433 9.71748C20.8694 10.2392 21.3911 10.4349 22.1085 10.4349C22.565 10.4349 22.9563 10.3044 23.2172 10.1088C23.4781 9.84791 23.6737 9.52182 23.8042 9.00009H26.0216C26.0216 9.45661 25.8911 9.91313 25.6955 10.3044C25.4998 10.6957 25.239 11.0218 24.9129 11.3479C24.5868 11.6088 24.1955 11.8697 23.739 12.0653C23.2824 12.1957 22.7607 12.3262 22.1737 12.3262C21.5216 12.3914 20.9346 12.261 20.4129 12.0001Z" fill="white"/>
<path d="M29.5435 4.63065C29.8696 4.17413 30.1957 3.84804 30.587 3.58717C30.913 3.39152 31.3696 3.26108 31.9565 3.26108C32.413 3.26108 32.8043 3.3263 33.1304 3.52195C33.4565 3.65239 33.7826 3.91326 34.0435 4.17413C34.3043 4.435 34.5 4.8263 34.6304 5.2176C34.7609 5.60891 34.8261 6.06543 34.8261 6.52195V12.1306H32.5435V6.84804C32.5435 6.39152 32.413 6.00021 32.1522 5.67413C31.8913 5.41326 31.5 5.2176 31.0435 5.2176C30.5217 5.2176 30.1304 5.41326 29.8043 5.73934C29.4783 6.06543 29.2826 6.58717 29.2826 7.17413V12.0654H27V0.0654297H29.2826L29.5435 4.63065Z" fill="white"/>
<path d="M38.6089 12.0001C38.0871 11.8045 37.6306 11.4784 37.2393 11.0219C36.848 10.6306 36.5871 10.1088 36.3915 9.58707C36.1958 9.00012 36.1306 8.41316 36.1306 7.8262C36.1306 7.23925 36.1958 6.58707 36.4567 6.06533C36.6524 5.5436 36.9784 5.02186 37.3045 4.63055C37.6958 4.23925 38.0871 3.91316 38.6089 3.65229C39.0654 3.39142 39.6524 3.26099 40.2393 3.26099C40.9567 3.26099 41.5437 3.39142 42.0002 3.65229C42.5219 3.91316 42.9132 4.23925 43.3045 4.69577C43.6306 5.15229 43.9567 5.73925 44.0871 6.3262C44.2828 6.97838 44.348 7.69577 44.348 8.41316H38.2176C38.2828 9.06533 38.5437 9.65229 38.8697 9.97838C39.1958 10.3697 39.7176 10.5653 40.3697 10.5653C40.8263 10.5653 41.1524 10.5001 41.4132 10.3045C41.6741 10.1088 41.8697 9.84794 42.0002 9.52186H44.348C44.2828 9.91316 44.1524 10.2392 43.9567 10.6306C43.761 10.9566 43.5002 11.2827 43.1741 11.5436C42.848 11.8045 42.4567 12.0001 42.0002 12.1306C41.5437 12.261 41.0871 12.3262 40.5002 12.3262C39.7828 12.3914 39.1306 12.261 38.6089 12.0001ZM38.935 5.5436C38.6089 5.86968 38.4132 6.3262 38.2828 6.91316H42.0654C42.0654 6.39142 41.8697 5.9349 41.5437 5.5436C41.2176 5.21751 40.761 5.02186 40.3045 5.02186C39.7176 5.02186 39.261 5.21751 38.935 5.5436Z" fill="white"/>
<path d="M47.8042 12.0001C47.2825 11.8044 46.826 11.4783 46.4347 11.0218C46.0433 10.6305 45.7825 10.1088 45.5868 9.58704C45.3912 9.0653 45.2607 8.41313 45.2607 7.82617C45.2607 7.23922 45.326 6.58704 45.5216 6.0653C45.7173 5.54356 45.9781 5.02182 46.3694 4.63052C46.7607 4.23922 47.152 3.91313 47.6738 3.65226C48.1955 3.45661 48.7825 3.32617 49.4347 3.32617C50.0216 3.32617 50.4781 3.39139 50.9347 3.52182C51.3912 3.65226 51.7173 3.91313 52.1086 4.174C52.4347 4.43487 52.6955 4.76095 52.8912 5.15226C53.0868 5.54356 53.2173 6.00008 53.2825 6.45661H51.0651C50.9999 6.0653 50.8042 5.73922 50.5434 5.47835C50.2825 5.21748 49.8912 5.08704 49.4999 5.08704C48.7825 5.08704 48.326 5.34791 47.9347 5.80443C47.6086 6.26095 47.4129 6.97835 47.4129 7.76095C47.4129 8.54356 47.5433 9.19574 47.9347 9.71748C48.2607 10.2392 48.7825 10.4349 49.4999 10.4349C49.9564 10.4349 50.3477 10.3044 50.6086 10.1088C50.8694 9.84791 51.0651 9.52182 51.1955 9.00009H53.3477C53.3477 9.45661 53.2173 9.91313 53.0216 10.3044C52.826 10.6957 52.5651 11.0218 52.239 11.3479C51.9129 11.6088 51.5216 11.8697 51.0651 12.0653C50.6086 12.1957 50.0868 12.3262 49.4999 12.3262C48.9129 12.3914 48.326 12.261 47.8042 12.0001Z" fill="white"/>
<path d="M56.8695 9.19586V12.0654H54.6521V0.0654297H56.8695V6.7176L59.8695 3.45673H62.5434L59.413 6.7176L62.9347 12.0654H60.1956L57.7825 8.15239L56.8695 9.19586Z" fill="white"/>
<path d="M65.4129 12.0001C64.8912 11.8044 64.4347 11.4783 63.9781 11.0218C63.5868 10.6305 63.2608 10.1088 63.0651 9.58704C62.8694 9.0653 62.739 8.41313 62.739 7.82617C62.739 7.23922 62.8042 6.58704 63.0651 6.0653C63.2608 5.54356 63.5868 5.02182 63.9781 4.63052C64.3694 4.23922 64.826 3.91313 65.4129 3.65226C65.9347 3.45661 66.5216 3.32617 67.1738 3.32617C67.826 3.32617 68.4129 3.45661 68.9347 3.65226C69.4564 3.84791 69.9129 4.174 70.3695 4.63052C70.7608 5.02182 71.0868 5.54356 71.2825 6.0653C71.4781 6.58704 71.6086 7.23922 71.6086 7.82617C71.6086 8.41313 71.5434 9.0653 71.2825 9.58704C71.0868 10.1088 70.7608 10.6305 70.3695 11.0218C69.9781 11.4131 69.5216 11.7392 68.9347 12.0001C68.4781 12.261 67.826 12.3914 67.1738 12.3914C66.5216 12.3914 65.9347 12.261 65.4129 12.0001ZM68.8042 9.84791C69.1955 9.32617 69.3912 8.674 69.3912 7.82617C69.3912 6.97835 69.1955 6.32617 68.8042 5.80443C68.4129 5.28269 67.8912 5.02182 67.239 5.02182C66.5868 5.02182 65.9999 5.28269 65.6738 5.80443C65.2825 6.32617 65.0868 7.04356 65.0868 7.82617C65.0868 8.60878 65.2825 9.32617 65.6738 9.84791C66.0651 10.3696 66.5868 10.6305 67.239 10.6305C67.8912 10.6305 68.4129 10.3696 68.8042 9.84791Z" fill="white"/>
<path d="M78.1958 11.0869C77.8697 11.4783 77.4784 11.8043 77.1523 12C76.761 12.1956 76.3045 12.3261 75.7175 12.3261C74.8045 12.3261 74.0871 12.0652 73.5001 11.4783C72.9784 10.8913 72.7175 10.1739 72.7175 9.19564V3.52173H74.9349V8.86956C74.9349 9.39129 75.0654 9.7826 75.261 10.0435C75.4567 10.3043 75.848 10.4348 76.3045 10.4348C76.8262 10.4348 77.2175 10.2391 77.5436 9.91303C77.8697 9.58695 78.0001 9.06521 78.0001 8.47825V3.52173H80.2827V12.1304H78.1306L78.1958 11.0869Z" fill="white"/>
<path d="M82.5652 3.52185V0.782715H84.7826V3.52185H86.2174V5.02185H84.7826V9.58706C84.7826 9.91315 84.8478 10.1088 84.9783 10.2392C85.1087 10.3697 85.3044 10.4349 85.6305 10.4349H86.087C86.1522 10.4349 86.2174 10.4349 86.2826 10.4349V12.1305C86.1522 12.1305 86.087 12.1305 85.8913 12.1305C85.7609 12.1305 85.6305 12.1305 85.4348 12.1305H84.8479C84.587 12.1305 84.3261 12.1305 84.0652 12.0653C83.8044 12.0001 83.5435 11.9349 83.3478 11.7392C83.1522 11.6088 82.9565 11.3479 82.8261 11.0871C82.6957 10.8262 82.6305 10.5001 82.6305 10.0436V5.02185H81.4565V3.52185H82.5652Z" fill="white"/>
<path d="M93.3261 11.9999C92.8695 11.8043 92.4782 11.4782 92.0869 11.0216C91.7608 10.6303 91.5 10.1086 91.3043 9.58686C91.1739 9.06512 91.0435 8.41295 91.0435 7.76077C91.0435 7.1086 91.1087 6.52164 91.3043 5.93469C91.5 5.41295 91.7608 4.89121 92.0869 4.4999C92.413 4.1086 92.8695 3.78251 93.3261 3.52164C93.7826 3.32599 94.3695 3.19556 94.9565 3.19556C95.8695 3.19556 96.6521 3.45643 97.3043 3.91295C97.8913 4.36947 98.2826 5.08686 98.413 5.9999H97.4348C97.3043 5.34773 97.0435 4.82599 96.6521 4.56512C96.2608 4.23903 95.7391 4.1086 95.0869 4.1086C94.5652 4.1086 94.1739 4.17382 93.7826 4.36947C93.4565 4.56512 93.1304 4.82599 92.9348 5.15208C92.7391 5.47817 92.5435 5.86947 92.413 6.32599C92.2826 6.78251 92.2826 7.23903 92.2826 7.76077C92.2826 8.28251 92.3478 8.73904 92.4782 9.19556C92.6087 9.65208 92.7391 10.0434 93 10.3695C93.1956 10.6956 93.5217 10.9564 93.8478 11.1521C94.1739 11.3477 94.6304 11.4129 95.0869 11.4129C95.8043 11.4129 96.3913 11.2173 96.8478 10.7608C97.3043 10.3695 97.5652 9.78251 97.6304 9.06512H98.6087C98.5435 10.0434 98.1522 10.826 97.5652 11.4129C96.9782 11.9999 96.1304 12.2608 95.1521 12.2608C94.3695 12.326 93.7826 12.1956 93.3261 11.9999Z" fill="white"/>
<path d="M101.674 11.9999C101.152 11.8043 100.761 11.4782 100.435 11.0216C100.109 10.6303 99.8479 10.1086 99.6522 9.58686C99.4566 9.06512 99.3914 8.41295 99.3914 7.76077C99.3914 7.1086 99.4566 6.52164 99.6522 5.93469C99.8479 5.41295 100.109 4.89121 100.435 4.4999C100.761 4.1086 101.217 3.78251 101.674 3.52164C102.196 3.32599 102.717 3.19556 103.304 3.19556C103.957 3.19556 104.478 3.32599 104.935 3.52164C105.391 3.7173 105.848 4.04338 106.174 4.4999C106.5 4.89121 106.761 5.41295 106.957 5.93469C107.152 6.45643 107.217 7.1086 107.217 7.76077C107.217 8.41295 107.152 8.9999 106.957 9.58686C106.761 10.1086 106.5 10.6303 106.174 11.0216C105.848 11.4129 105.391 11.739 104.935 11.9999C104.478 12.1956 103.891 12.326 103.304 12.326C102.717 12.326 102.196 12.1956 101.674 11.9999ZM104.609 11.2173C105 11.0216 105.261 10.7608 105.522 10.4347C105.783 10.1086 105.978 9.7173 106.044 9.26077C106.174 8.80425 106.239 8.34773 106.239 7.82599C106.239 7.30425 106.174 6.84773 106.044 6.39121C105.913 5.93469 105.717 5.54338 105.522 5.2173C105.261 4.89121 105 4.63034 104.609 4.43469C104.217 4.23903 103.826 4.17382 103.37 4.17382C102.913 4.17382 102.457 4.23903 102.13 4.43469C101.804 4.63034 101.478 4.89121 101.217 5.2173C100.957 5.54338 100.761 5.93469 100.63 6.39121C100.5 6.84773 100.435 7.30425 100.435 7.82599C100.435 8.34773 100.5 8.80425 100.63 9.26077C100.761 9.7173 100.957 10.1086 101.217 10.4347C101.478 10.7608 101.804 11.0216 102.13 11.2173C102.457 11.4129 102.913 11.4782 103.37 11.4782C103.826 11.4782 104.283 11.4129 104.609 11.2173Z" fill="white"/>
<path d="M109.761 3.39121V4.69556C110.022 4.23903 110.413 3.91295 110.804 3.58686C111.196 3.32599 111.717 3.19556 112.369 3.19556C112.891 3.19556 113.348 3.32599 113.804 3.58686C114.196 3.84773 114.522 4.23903 114.652 4.76077C114.913 4.23903 115.304 3.84773 115.761 3.58686C116.217 3.32599 116.739 3.19556 117.326 3.19556C117.717 3.19556 118.043 3.26077 118.304 3.39121C118.565 3.52164 118.891 3.65208 119.087 3.91295C119.283 4.1086 119.478 4.43469 119.609 4.76077C119.739 5.08686 120 5.47817 120 5.86947V12.0651H119.022V5.9999C119.022 5.34773 118.891 4.89121 118.5 4.56512C118.109 4.23903 117.717 4.1086 117.196 4.1086C116.869 4.1086 116.543 4.17382 116.348 4.23903C116.087 4.36947 115.826 4.4999 115.63 4.69556C115.435 4.89121 115.239 5.15208 115.109 5.47816C114.978 5.80425 114.913 6.13034 114.913 6.52164V12.0651H113.869V5.9999C113.869 5.34773 113.739 4.89121 113.348 4.56512C113.022 4.23903 112.63 4.1086 112.109 4.1086C111.783 4.1086 111.522 4.17382 111.261 4.30425C111 4.43469 110.739 4.56512 110.478 4.82599C110.283 5.02164 110.087 5.28251 109.956 5.6086C109.826 5.86947 109.761 6.26077 109.761 6.58686V12.0651H108.717V3.39121H109.761Z" fill="white"/>
<path d="M9.39136 7.82633L13.3696 0.717635C13.4348 0.587201 13.4348 0.391549 13.3696 0.261114C13.3044 0.0654615 13.174 0.000244141 12.9783 0.000244141H4.76092C4.56527 0.000244141 4.43484 0.0654615 4.3044 0.195896L0.0652705 7.56546C5.3063e-05 7.6959 5.3063e-05 7.89155 0.0652705 8.02198L4.3044 15.3915C4.43484 15.5872 4.56527 15.6524 4.76092 15.6524H13.0435C13.174 15.6524 13.3696 15.5872 13.4348 15.4568C13.5001 15.3263 13.5001 15.1307 13.4348 15.0002L9.39136 7.82633ZM8.86962 6.91329L5.54353 0.978505H12.1957L8.86962 6.91329ZM4.69571 1.43503L8.28266 7.82633L4.69571 14.2176L0.978314 7.82633L4.69571 1.43503ZM5.54353 14.6742L8.86962 8.73937L12.1957 14.6742H5.54353Z" fill="white"/>
</g>
<defs>
<clipPath id="clip0_11250_1694">
<rect width="120" height="16" fill="white"/>
</clipPath>
</defs>
</svg>
