<svg width="80" height="25" viewBox="0 0 80 25" fill="none" xmlns="http://www.w3.org/2000/svg">
<g clip-path="url(#clip0_23_2409)">
<g clip-path="url(#clip1_23_2409)">
<path d="M48.7219 14.1666C48.7219 14.1666 48.5615 13.5444 48.5615 13.0833V5.86848H51.2959V19.7651L42.5415 12.1048C42.0731 11.6842 41.7959 11.2146 41.7959 11.2146C41.7959 11.2146 41.9347 11.7324 41.9347 12.1804L41.9323 19.4514H39.1963V5.60938L47.8703 13.1158C48.3355 13.5322 48.7219 14.1666 48.7219 14.1666Z" fill="white"/>
<path d="M73.4808 5.86963C77.814 5.86963 78.9236 7.67533 78.9236 10.2706C78.9236 12.1516 77.6128 13.9945 74.9692 14.2126L74.6796 14.2274C74.6796 14.2274 74.9352 14.2751 75.2024 14.5469L80 19.4509H76.2928L69.5952 12.2648H72.93C75.9172 12.2648 76.004 10.6016 76.0244 10.1823C76.0804 9.10274 75.7536 8.23962 73.4756 8.23962H69.6624V19.4509H66.8208V5.86963H73.4808Z" fill="white"/>
<path d="M52.5261 12.8542C52.5261 7.16447 57.0329 5.66943 60.8213 5.66943C62.3381 5.66943 63.6813 5.81315 65.0949 6.12974L65.0989 9.01498C64.2861 8.7508 62.6537 8.17088 60.8217 8.17088C57.2301 8.17088 55.4861 9.6452 55.4861 12.8538C55.4861 15.482 57.3661 17.1563 60.8217 17.1563C62.6537 17.1563 64.4881 16.6956 65.3765 16.3494L65.3713 19.1484C63.9593 19.4633 62.3385 19.6577 60.8217 19.6577C56.7753 19.6582 52.5261 17.5798 52.5261 12.8542Z" fill="white"/>
<path d="M21.7549 6.21875L24.4217 8.87278C24.3489 8.90702 24.2649 8.94929 24.1661 9.0017C24.0117 9.08666 23.8277 9.20036 23.6073 9.36183C23.1677 9.68095 22.5949 10.1907 21.8621 11.0264L16.6501 16.8547C15.7569 17.8523 14.8493 18.6427 14.0053 19.0607L11.3369 16.4059C11.4097 16.3699 11.4937 16.3302 11.5909 16.2752C11.7453 16.192 11.9293 16.0766 12.1497 15.9177C12.5881 15.5956 13.1625 15.0888 13.8961 14.2519L19.1069 8.43319C20.0005 7.43692 20.9097 6.63678 21.7549 6.21875Z" fill="white"/>
<path d="M11.4316 20.3078C12.6104 20.3078 13.694 20.061 14.4292 19.6582C14.7652 19.473 15.2448 19.1543 15.6572 18.8145C16.068 18.4759 16.6504 17.9484 17.1428 17.3951L22.36 11.5832C23.676 10.1186 24.4668 9.66634 24.9468 9.48839L27.6228 12.1669C27.0644 12.798 20.404 20.2939 20.404 20.2939C19.95 20.8121 19.4716 21.3121 19.1464 21.627C18.834 21.9314 18.2996 22.3849 18.0236 22.5984C16.4572 23.811 14.3648 24.7946 11.5472 24.7946C5.1628 24.7946 0 19.3035 0 12.9806C0 5.13686 5.7996 0.585402 11.0816 0.585402C12.7008 0.53468 14 0.822528 15.0272 1.19111C15.9764 1.53221 16.6932 1.94475 17.2132 2.22542C16.5984 2.64176 16.0036 3.20942 15.0232 4.31601L13.952 5.53123C13.7056 5.43105 12.6128 5.02823 11.21 5.07346C7.8208 5.17913 4.114 8.08212 4.2476 12.8445C4.372 17.2975 7.8456 20.3078 11.4316 20.3078Z" fill="white"/>
<path d="M21.2961 5.66136C20.9589 5.84776 20.4805 6.16562 20.0657 6.50545C19.6561 6.84402 19.0741 7.37153 18.5801 7.92356L13.3641 13.7367C12.0481 15.2013 11.2569 15.6519 10.7773 15.8303L8.10132 13.1543C8.66132 12.5215 15.3205 5.02691 15.3205 5.02691C15.7757 4.5087 16.2529 4.00866 16.5781 3.69249C16.8905 3.38816 17.4249 2.93631 17.7033 2.72117C19.2669 1.50849 21.3621 0.524902 24.1797 0.524902C30.5637 0.524902 35.7241 6.01641 35.7241 12.3376C35.7241 20.1839 29.9257 24.7328 24.6425 24.7328C23.0245 24.7848 21.7241 24.497 20.6985 24.1254C19.7469 23.7856 19.0273 23.3705 18.5085 23.0911C19.1581 22.6279 19.7141 22.1198 20.7021 21.0044L21.7717 19.7891C22.0181 19.8876 23.1113 20.2909 24.5153 20.2469C27.9033 20.14 31.6113 17.234 31.4777 12.4729C31.3521 8.02204 27.8761 5.01042 24.2921 5.01042C23.1113 5.01042 22.0325 5.25854 21.2961 5.66136Z" fill="white"/>
</g>
</g>
<defs>
<clipPath id="clip0_23_2409">
<rect width="80" height="24.2697" fill="white" transform="translate(0 0.524902)"/>
</clipPath>
<clipPath id="clip1_23_2409">
<rect width="80" height="24.2697" fill="white" transform="translate(0 0.524902)"/>
</clipPath>
</defs>
</svg>
