<svg width="81" height="80" viewBox="0 0 81 80" fill="none" xmlns="http://www.w3.org/2000/svg">
<g clip-path="url(#clip0_3476_83594)">
<rect width="80" height="80" transform="translate(0.25)" fill="#E8F1FF"/>
<g clip-path="url(#clip1_3476_83594)">
<path fill-rule="evenodd" clip-rule="evenodd" d="M37.9294 40.4397H40.9928V44.958H43.8553V33.6622H40.9928V37.9267H37.9294V33.6622H35.0669V44.958H37.9294V40.4397ZM45.9395 44.958H48.8271V33.6368H45.9395V44.958ZM63.9533 36.8098L64.9408 40.3381H62.9549L63.9533 36.8098ZM61.6115 44.958L62.296 42.6988H65.5877L66.2626 44.958H69.3172L65.8425 33.6368H62.6152L59.0687 44.958H61.6115ZM74.6343 36.8098L75.6218 40.3381H73.6361L74.6343 36.8098ZM72.9772 42.6988H76.2687L76.9439 44.958H79.9982L76.5238 33.6368H73.2961L69.7499 44.958H72.2925L72.9772 42.6988ZM56.7267 38.181C56.4994 38.4427 56.0931 38.574 55.5083 38.574H54.0133V35.9848H55.5003C56.0374 35.9848 56.4329 36.1019 56.687 36.3356C56.9408 36.5697 57.0679 36.8842 57.0679 37.2794C57.0679 37.6185 56.9539 37.9188 56.7267 38.181ZM59.9711 37.1862C59.9711 36.3793 59.7604 35.697 59.3396 35.1393C58.9182 34.5814 58.4389 34.1935 57.9013 33.976C57.3637 33.7584 56.6036 33.6495 55.6213 33.6495H51.1508V44.9707H54.0886V40.8839H55.72C56.5155 40.8839 57.1061 40.8331 57.4915 40.7316C57.8769 40.6298 58.2747 40.4237 58.685 40.1135C59.0953 39.8028 59.4124 39.3781 59.6356 38.8392C59.8591 38.3003 59.9711 37.7495 59.9711 37.1862ZM24.4921 51.3996H25.1766L25.133 53.7339L25.0403 58.6769L25.0671 58.7083C25.1761 58.8688 25.2479 59.1399 25.2479 59.4478C25.2479 59.7554 25.1761 60.0265 25.0671 60.1869L25.0108 60.2534L25.0092 60.339L24.838 60.8776L24.6596 60.339L24.6578 60.2445L24.6089 60.1869C24.4999 60.0265 24.4282 59.7554 24.4282 59.4478C24.4282 59.1399 24.4999 58.8688 24.6089 58.7083L24.6286 58.6852L24.5612 55.0889H24.5659L24.5401 53.741H24.5359L24.4921 51.3996ZM22.5694 50.7769L22.6107 50.797C22.8005 50.9135 23.0582 51.0838 23.3244 51.1706C23.391 51.1922 23.4763 51.2366 23.5676 51.2849L23.5785 51.2904L23.5184 51.3166C23.4762 51.3366 23.378 51.3861 23.3512 51.4034L23.3319 51.4184L23.3301 51.4212C23.279 51.5141 23.1436 51.6044 23.0848 51.8169C23.0261 52.0294 22.9673 52.2979 22.9776 52.6959C22.9878 53.094 23.0758 53.7786 23.1216 54.2365C23.1674 54.6944 23.1984 55.0483 23.2524 55.4437C23.3064 55.8395 23.3591 56.2771 23.4456 56.6101C23.5322 56.9431 23.6144 57.2297 23.7715 57.4419C23.9285 57.6541 24.3853 57.8316 24.3879 57.8829C24.3904 57.9341 23.996 57.9318 23.836 57.8829C23.6761 57.8339 23.5588 57.7341 23.4281 57.5889C23.2975 57.4435 23.1507 57.2038 23.0521 57.0107C22.9534 56.8172 22.9101 56.6893 22.8364 56.4291C22.7626 56.1692 22.7281 56.0009 22.6096 55.4506C22.4911 54.9005 22.2216 53.7126 22.1255 53.128C22.0294 52.5434 22.0273 52.2342 22.0331 51.9428C22.039 51.6517 22.135 51.4879 22.1608 51.3803C22.1866 51.2727 22.1805 51.3212 22.1878 51.2973L22.2042 51.2501C22.2233 51.1755 22.2302 51.1986 22.2945 51.1163C22.3426 51.0546 22.4185 50.9442 22.503 50.8467L22.5694 50.7769ZM27.2572 50.5343L27.2633 50.5376C27.2776 50.5487 27.2585 50.5498 27.2572 50.5343ZM23.1598 46.6848L23.1771 46.6858C23.192 46.6891 23.1936 46.6932 23.1632 46.6856L23.1598 46.6848ZM24.403 46.646H25.2658L25.21 49.626H24.4588L24.403 46.646Z" fill="#222222"/>
<path fill-rule="evenodd" clip-rule="evenodd" d="M21.7366 46.257C21.8774 46.2745 22.0427 46.39 22.2324 46.4393L23.1215 46.6738L23.1598 46.6847L23.1352 46.6829C23.119 46.6847 23.1024 46.6903 23.0909 46.703C23.0449 46.7543 22.9427 46.8472 22.8456 46.9815C22.7485 47.1157 22.5824 47.3576 22.5083 47.5089C22.4342 47.6605 22.4215 47.7336 22.401 47.8899C22.3806 48.0463 22.3372 48.2514 22.3857 48.4466C22.4342 48.6421 22.5211 48.8715 22.6923 49.0622C22.8635 49.2525 23.1266 49.4503 23.4128 49.5896C23.699 49.7287 24.0694 49.8191 24.4092 49.8973C24.749 49.9755 25.094 49.9777 25.4518 50.0585C25.8093 50.1389 26.2372 50.1999 26.5553 50.3808L26.6703 50.4588L26.6713 50.4578C26.7341 50.4499 26.9636 50.6458 27.0811 50.7555C27.1986 50.8654 27.3121 51.034 27.3764 51.1162C27.4407 51.1985 27.4475 51.1748 27.4666 51.2495C27.4666 51.2495 27.4668 51.2497 27.4668 51.25L27.4831 51.2972C27.4904 51.3211 27.4844 51.2726 27.51 51.3802C27.5359 51.4878 27.6318 51.6516 27.6378 51.9427C27.6436 52.2341 27.6416 52.5433 27.5454 53.1279C27.4492 53.7125 27.1798 54.9004 27.0613 55.4505C26.9428 56.0008 26.9084 56.1691 26.8346 56.429C26.7607 56.6892 26.7175 56.8171 26.6189 57.0106C26.5202 57.2037 26.3733 57.4434 26.2427 57.5888C26.1121 57.734 25.9949 57.8338 25.8349 57.8827C25.675 57.9317 25.2805 57.934 25.283 57.8827C25.2855 57.8315 25.7423 57.654 25.8995 57.4418C26.0564 57.2296 26.1388 56.943 26.2254 56.61C26.3118 56.277 26.3645 55.8394 26.4185 55.4436C26.4725 55.0481 26.5036 54.6943 26.5493 54.2364C26.5953 53.7785 26.6831 53.0939 26.6934 52.6958C26.7035 52.2978 26.6447 52.0293 26.586 51.8168C26.5272 51.6043 26.3919 51.514 26.3409 51.4211L26.3389 51.4183L26.3198 51.4033C26.2929 51.386 26.1948 51.3365 26.1526 51.3165C25.9838 51.236 25.737 51.1497 25.4977 51.0987C25.2582 51.0479 24.7158 51.0109 24.7158 51.0109C24.491 50.9865 24.3479 50.9814 24.1486 50.9522C23.9493 50.923 23.7577 50.9035 23.5201 50.835C23.2825 50.7667 22.9938 50.6788 22.7229 50.542C22.4521 50.4052 22.1225 50.2123 21.8951 50.0146C21.6678 49.8168 21.494 49.5749 21.3586 49.3551C21.2232 49.1353 21.144 48.9474 21.0827 48.6959C21.0213 48.4443 20.9652 48.1341 20.9907 47.846C21.0162 47.5577 21.1363 47.2208 21.236 46.9667C21.3356 46.7129 21.4378 46.3662 21.6039 46.2781C21.6454 46.2562 21.6896 46.2512 21.7366 46.257ZM24.3111 41.7506H25.3576L25.3036 44.6241H24.365L24.3111 41.7506Z" fill="#222222"/>
<path fill-rule="evenodd" clip-rule="evenodd" d="M22.6003 41.824C22.5467 41.863 22.3678 41.9705 22.2784 42.0291C22.189 42.0877 22.1353 42.1097 22.0638 42.1756C21.9922 42.2416 21.9131 42.3295 21.8492 42.4247C21.7853 42.52 21.7265 42.6152 21.6805 42.7471C21.6346 42.879 21.5962 43.0694 21.5732 43.2159C21.5502 43.3624 21.5273 43.4847 21.5426 43.6264C21.5579 43.7677 21.5707 43.9266 21.6652 44.0657C21.7597 44.2048 21.9054 44.3442 22.1098 44.4615C22.3142 44.5785 22.5467 44.6861 22.8916 44.7691C23.2365 44.8521 23.8037 44.9255 24.1793 44.9595C24.5549 44.9938 24.7925 44.945 25.1452 44.9742C25.4977 45.0034 25.9499 45.045 26.2947 45.1354C26.6397 45.2258 26.936 45.3649 27.2145 45.5164C27.4932 45.6677 27.7817 45.868 27.9658 46.0439C28.1498 46.2198 28.1958 46.3589 28.3183 46.5714C28.4411 46.7838 28.6249 47.1136 28.7015 47.3187C28.7399 47.4212 28.7643 47.5129 28.7763 47.5933L28.7811 47.6517L28.8022 47.7289C28.8057 47.7576 28.8064 47.7888 28.809 47.8314C28.814 47.917 28.814 48.0413 28.809 48.1538C28.8037 48.266 28.8037 48.381 28.7783 48.5054C28.7527 48.63 28.7271 48.7374 28.6555 48.9011C28.584 49.0646 28.4742 49.3039 28.3489 49.4872C28.2239 49.6702 28.0783 49.8362 27.9045 49.9999C27.7307 50.1637 27.4164 50.381 27.3066 50.4688C27.279 50.4909 27.266 50.5074 27.2604 50.5196L27.2572 50.5343L27.2454 50.5274C27.1763 50.4957 26.9975 50.3492 26.8926 50.2784C26.7879 50.2076 26.7469 50.1586 26.6166 50.1025C26.4865 50.0464 26.254 49.9852 26.1109 49.9413C25.9678 49.8974 25.84 49.8608 25.7584 49.8388C25.6765 49.8169 25.5999 49.8192 25.6203 49.8096C25.6408 49.7997 25.7762 49.8096 25.8809 49.7801C25.9856 49.7509 26.1084 49.7019 26.2488 49.6337C26.3894 49.5654 26.5835 49.4578 26.7241 49.3699C26.8645 49.2821 26.9923 49.1991 27.0919 49.1062C27.1916 49.0133 27.2607 48.928 27.322 48.813C27.3832 48.6983 27.437 48.5444 27.4598 48.4175C27.4829 48.2906 27.4804 48.1855 27.4598 48.0512C27.4498 47.984 27.4317 47.9124 27.4101 47.8383L27.3747 47.7279L27.3739 47.7268C27.3114 47.5877 27.2665 47.4009 27.1838 47.2748C27.0741 47.1062 26.9616 46.9597 26.7854 46.8351C26.6091 46.7105 26.3638 46.6056 26.1262 46.5275C25.8887 46.4493 25.6228 46.3881 25.3596 46.3663C25.0965 46.3442 24.8921 46.3955 24.5472 46.3955C24.2023 46.3955 23.6734 46.4076 23.2902 46.3663C22.9069 46.3246 22.5748 46.2416 22.2478 46.1464C21.9207 46.0513 21.6141 45.9535 21.328 45.7946C21.0418 45.636 20.7301 45.3821 20.5308 45.1941C20.3315 45.006 20.2395 44.8496 20.1322 44.6666C20.0249 44.4833 19.9355 44.3221 19.887 44.0952C19.8384 43.868 19.8282 43.5748 19.841 43.304C19.8537 43.0328 19.8384 42.8203 19.9636 42.4687C20.0888 42.117 20.3571 41.382 20.5921 41.1939C20.6509 41.1469 20.7147 41.1286 20.7811 41.1286C20.9802 41.1285 21.2015 41.2928 21.374 41.3404C21.6039 41.404 21.7521 41.5065 21.9718 41.5749C22.1915 41.6433 22.5876 41.7141 22.6923 41.7507M24.2008 35.8621H25.4678L25.4041 39.2676H24.2646L24.2008 35.8621Z" fill="#222222"/>
<path fill-rule="evenodd" clip-rule="evenodd" d="M19.6188 35.107L19.6302 35.1114C19.8696 35.2374 20.5001 35.439 20.9482 35.565C21.3404 35.6752 21.7931 35.7726 22.165 35.8402L22.2616 35.8572L22.0437 35.9296C21.6069 36.0945 21.1934 36.3143 20.9462 36.5731C20.6165 36.9182 20.4567 37.2259 20.4258 37.5518C20.3951 37.8776 20.54 38.2623 20.7614 38.5284C20.9828 38.7945 21.4302 38.9904 21.7542 39.1485C22.0783 39.3064 22.5791 39.4215 22.7055 39.4764L22.7088 39.478L22.705 39.4842L22.7192 39.4878L22.7406 39.4931L22.7088 39.478L22.7092 39.4772C22.7095 39.4751 22.7098 39.4733 22.7151 39.4704C22.7225 39.4664 22.7638 39.4854 22.8 39.5048L22.8093 39.51L22.9303 39.5399C23.003 39.5564 23.0776 39.5712 23.1523 39.5822C23.4512 39.6261 23.7987 39.6432 24.1641 39.6701L25.3444 39.7433C25.3444 39.7433 25.9857 39.7409 26.3563 39.8019C26.7267 39.863 27.248 40.0046 27.5674 40.1096C27.8868 40.2146 28.0527 40.2977 28.2725 40.432C28.4922 40.5663 28.6966 40.7299 28.8856 40.9155C29.0747 41.1011 29.2638 41.316 29.4069 41.5455C29.55 41.7751 29.6547 42.0267 29.7441 42.2928C29.8335 42.559 29.9154 42.8716 29.9435 43.1427C29.9714 43.4139 29.9741 43.6311 29.9126 43.9192C29.8514 44.2073 29.7492 44.6127 29.5754 44.8716C29.4016 45.1306 29.0516 45.3258 28.8703 45.4725C28.689 45.6189 28.5587 45.6971 28.4871 45.7507C28.4156 45.8045 28.51 45.8337 28.4412 45.7946C28.4412 45.7946 28.2443 45.6385 28.0731 45.5164C27.9021 45.3943 27.6311 45.1745 27.4139 45.062C27.1967 44.9498 26.8826 44.8813 26.7701 44.8424C26.7701 44.8424 26.7036 44.8424 26.7395 44.8277C26.7395 44.8277 26.8033 44.8277 26.9848 44.7544C27.1661 44.6813 27.6183 44.5371 27.828 44.3881C28.0374 44.2391 28.1625 44.0193 28.2418 43.8606C28.3209 43.702 28.3056 43.6042 28.3031 43.4357C28.3006 43.2672 28.2928 43.0279 28.2265 42.8496C28.16 42.6714 28.0603 42.5346 27.9046 42.3661C27.7487 42.1976 27.5674 41.9778 27.2914 41.8386C27.0155 41.6994 26.6067 41.592 26.2488 41.5309C25.8913 41.4699 25.5053 41.482 25.1453 41.4723C24.7849 41.4625 24.5499 41.5089 24.0874 41.4723C23.625 41.4356 22.8508 41.3429 22.3705 41.2525C21.8902 41.1622 21.5427 41.0449 21.2054 40.9302C20.9525 40.8441 20.6349 40.7649 20.4628 40.6678L20.3961 40.622L20.3732 40.6309C20.2989 40.6559 20.3411 40.6054 20.1997 40.5198C20.0112 40.4056 19.6001 40.1182 19.3663 39.8945C19.1325 39.6707 18.9452 39.4346 18.7968 39.1772C18.6485 38.9198 18.519 38.7024 18.4763 38.35C18.4336 37.9977 18.4816 37.4207 18.5404 37.0633C18.5992 36.7059 18.6686 36.5118 18.8289 36.2055C18.9891 35.8991 19.2349 35.511 19.502 35.2251L19.6188 35.107ZM24.354 28.4336H25.3148L25.5877 29.4767L25.5219 32.9886H24.147L24.0812 29.4767L24.354 28.4336ZM25.7873 27.1071L25.7913 27.1131C25.7911 27.114 25.7898 27.1135 25.7881 27.1118L25.7873 27.1071ZM23.8922 27.1039L23.888 27.1118C23.8847 27.1153 23.8822 27.1138 23.8894 27.1062L23.8922 27.1039Z" fill="#222222"/>
<path fill-rule="evenodd" clip-rule="evenodd" d="M22.773 27.184C22.9194 27.184 23.0378 27.2504 23.0378 27.3323C23.0378 27.4141 22.9194 27.4805 22.773 27.4805C22.6267 27.4805 22.5081 27.4141 22.5081 27.3323C22.5081 27.2504 22.6267 27.184 22.773 27.184ZM31.2519 37.0632C31.1931 36.7059 31.1238 36.5118 30.9634 36.2054C30.8032 35.8992 30.5573 35.5111 30.2902 35.2251C30.023 34.9392 29.7614 34.7145 29.3606 34.4899C28.9601 34.2652 28.4792 34.0354 27.8861 33.8771C27.2933 33.7187 26.5774 33.6321 25.8028 33.5401C25.0283 33.4482 23.9757 33.4125 23.2386 33.3257C22.5014 33.2388 21.9323 33.1845 21.3795 33.0192C20.8268 32.854 20.2798 32.5692 19.9218 32.3343C19.5638 32.0994 19.3387 31.9675 19.232 31.61C19.1251 31.2219 19.0375 30.9132 19.117 30.3845C19.1964 29.8559 19.2781 29.7419 19.3922 29.4961C19.5063 29.2503 19.666 29.0672 19.8015 28.9102C19.9368 28.7532 20.0541 28.6294 20.2049 28.5535C20.3557 28.4776 20.4811 28.4403 20.7065 28.4544C20.9316 28.4686 21.3112 28.5667 21.5569 28.6382C21.8025 28.7098 21.9176 28.8616 22.1807 28.8833C22.4441 28.9049 22.8322 28.8452 23.1368 28.7679C23.4412 28.6906 23.8077 28.5426 24.0079 28.42C24.2081 28.2976 24.3163 28.1698 24.3377 28.0327C24.3591 27.8953 24.2537 27.74 24.136 27.5966C24.0185 27.4529 23.8302 27.3041 23.6325 27.1714C23.4348 27.0386 23.2187 26.8874 22.9501 26.8C22.6814 26.7125 22.309 26.6519 22.0205 26.6468C21.7321 26.6418 21.2464 26.7074 20.8832 26.7737C20.5199 26.8401 20.2149 26.9482 19.841 27.0452C19.467 27.1421 19.2212 27.2391 18.9754 27.3516C18.7298 27.4639 18.6229 27.5098 18.3666 27.7192C18.11 27.9284 17.6667 28.3064 17.437 28.6076C17.2073 28.9089 17.0896 29.1438 16.9882 29.5267C16.8868 29.9096 16.8226 30.4918 16.8279 30.9054C16.8332 31.3189 16.8654 31.5843 17.0202 32.0082C17.1751 32.4321 17.4052 33.0397 17.7575 33.4482C18.1098 33.8566 18.6371 34.1885 19.134 34.4591C19.6308 34.7298 20.0917 34.9086 20.7384 35.0719C21.3851 35.2353 22.2449 35.3579 23.0142 35.4395C23.7835 35.5212 24.6383 35.5048 25.3541 35.5621C26.07 35.6195 26.7273 35.6151 27.3094 35.7836C27.8914 35.9521 28.5164 36.228 28.8461 36.573C29.1758 36.9182 29.3357 37.2258 29.3664 37.5517C29.3973 37.8776 29.4108 38.2076 29.0309 38.5283C28.651 38.8491 27.3724 39.3408 27.3724 39.3408L27.0836 39.478L27.0884 39.4862C27.0984 39.4948 27.2338 39.5489 27.3202 39.5832C27.4922 39.6518 27.7639 39.7094 28.1106 39.8817C28.4576 40.0543 29.0746 40.4242 29.2948 40.5793C29.4055 40.6573 29.3109 40.6988 29.5926 40.5198C29.7787 40.4014 30.1922 40.1182 30.426 39.8944C30.6598 39.6706 30.8471 39.4346 30.9955 39.1771C31.1436 38.9199 31.2732 38.7024 31.3159 38.3501C31.3586 37.9978 31.3106 37.4207 31.2519 37.0632Z" fill="#222222"/>
<path fill-rule="evenodd" clip-rule="evenodd" d="M26.9029 27.4805C26.7567 27.4805 26.638 27.4141 26.638 27.3323C26.638 27.2504 26.7567 27.184 26.9029 27.184C27.0493 27.184 27.1678 27.2504 27.1678 27.3323C27.1678 27.4141 27.0493 27.4805 26.9029 27.4805ZM32.8039 29.5267C32.7025 29.1438 32.585 28.9089 32.3552 28.6077C32.1255 28.3064 31.682 27.9285 31.4257 27.7192C31.1693 27.5098 31.0623 27.4639 30.8167 27.3516C30.5709 27.2391 30.3253 27.1422 29.9512 27.0452C29.5773 26.9482 28.9363 26.8357 28.5729 26.7694C28.2098 26.703 28.0602 26.6418 27.7717 26.6468C27.4832 26.6519 27.1108 26.7126 26.8421 26.8C26.5734 26.8874 26.3572 27.0387 26.1599 27.1714C25.962 27.3042 25.7737 27.453 25.6562 27.5966C25.5387 27.74 25.4332 27.8954 25.4545 28.0327C25.4759 28.1698 25.5841 28.2974 25.7845 28.42C25.9846 28.5426 26.351 28.6907 26.6555 28.7679C26.9599 28.8452 27.3481 28.9049 27.6112 28.8833C27.8746 28.8616 27.9896 28.7098 28.2352 28.6382C28.481 28.5667 28.8604 28.4686 29.0857 28.4544C29.3112 28.4403 29.4365 28.4776 29.5874 28.5535C29.7383 28.6295 29.8553 28.7532 29.9909 28.9102C30.1262 29.0673 30.2859 29.2503 30.3999 29.4961C30.5142 29.7419 30.5958 29.8559 30.6754 30.3845C30.7547 30.9132 30.6671 31.2219 30.5604 31.61C30.4534 31.9675 30.2282 32.0994 29.8704 32.3343C29.5125 32.5692 28.9654 32.854 28.4127 33.0192C28.24 33.0709 28.0657 33.1116 27.8852 33.1461C27.7044 33.1803 27.5178 33.2082 27.3202 33.234L27.2705 33.2738C27.5206 33.328 27.6521 33.3901 27.9075 33.4737C28.2483 33.585 28.6809 33.7487 29.0149 33.8893C29.3486 34.0301 29.676 34.1875 29.911 34.3178C29.911 34.3178 30.1483 34.4465 30.3058 34.5632L30.3628 34.6087L30.6583 34.4591C31.1552 34.1885 31.6825 33.8566 32.0348 33.4483C32.3871 33.0397 32.6169 32.4321 32.7718 32.0082C32.9267 31.5844 32.9591 31.3189 32.9644 30.9054C32.9697 30.4918 32.9054 29.9096 32.8039 29.5267ZM32.1182 24.5069C32.1215 24.5071 32.1272 24.5091 32.1363 24.5137L32.1538 24.5244L32.1428 24.5248C32.1227 24.5209 32.1086 24.5062 32.1182 24.5069ZM24.0521 22.5051H25.6165C25.7752 22.5051 25.9037 22.6279 25.9037 22.7795V22.8996C25.9037 23.0512 25.7752 23.174 25.6165 23.174H25.2341L25.3536 25.2783H24.3151L24.4346 23.174H24.0521C23.8935 23.174 23.7649 23.0512 23.7649 22.8996V22.7795C23.7649 22.6279 23.8935 22.5051 24.0521 22.5051ZM38.2495 22.4734C38.255 22.477 38.2568 22.4854 38.2475 22.5002L38.2467 22.5023L38.2302 22.4952C38.2123 22.4778 38.2385 22.4661 38.2495 22.4734ZM11.4293 22.5023L11.4284 22.5002L11.4293 22.5023ZM18.1019 24.4518C18.1804 24.4476 18.3856 24.5612 18.5042 24.5908C18.6939 24.6381 18.8736 24.7298 19.1045 24.8481C19.3354 24.9663 19.6159 25.1477 19.7973 25.2738C19.9788 25.3999 20.1932 25.6049 20.1932 25.6049L20.119 25.6522C19.9375 25.7547 19.5581 25.9833 19.1045 26.2198C18.6509 26.4563 17.8921 26.8346 17.3973 27.0711C16.9024 27.3076 16.5436 27.4653 16.1354 27.6387C15.7271 27.8121 15.3106 27.9974 14.9477 28.1117C14.5848 28.226 14.5099 28.2793 14.1759 28.3345C13.8419 28.3897 13.6409 28.4169 13.2015 28.4588C12.8272 28.4946 12.0325 28.5016 11.5912 28.4425C11.15 28.3834 10.5798 28.2559 10.2499 28.1337C9.91999 28.0115 9.39382 27.7732 9.75171 27.7333C10.3634 27.6651 11.5002 27.4377 12.2755 27.213C13.0508 26.9884 13.6672 26.7989 14.4219 26.4718C15.1765 26.1446 16.2688 25.5777 16.8626 25.2742C17.4564 24.9707 17.5627 24.863 17.8157 24.641C17.8981 24.5687 18.0548 24.4542 18.1019 24.4518Z" fill="#222222"/>
<path fill-rule="evenodd" clip-rule="evenodd" d="M17.1749 24.5856C16.9847 24.7491 16.7203 24.8307 16.2856 25.0924C15.7297 25.4272 14.8488 25.8531 14.0076 26.1724C13.1663 26.4916 12.1148 26.8871 11.2364 27.0711C10.266 27.2742 9.58173 27.3904 8.73633 27.4259C7.89095 27.4614 6.77603 27.4046 6.1641 27.2839C5.36882 27.1271 5.43139 27.1509 5.07541 27.0238C4.76593 26.9132 4.0387 26.6334 4.19544 26.527C4.35212 26.4205 5.44174 26.5321 6.06856 26.4218C6.69537 26.3114 7.22848 26.2962 8.2728 26.0392C8.2728 26.0392 8.96337 25.9244 9.91888 25.5993C10.4904 25.4048 11.2143 25.1382 11.9369 24.8997C11.9369 24.8997 12.8611 24.5484 13.3148 24.375C13.7684 24.2016 14.0431 24.0526 14.3071 23.9343C14.571 23.8161 14.7169 23.7365 14.8983 23.6656C15.0798 23.5946 15.1375 23.4724 15.3932 23.4527C15.4571 23.4478 15.5362 23.4461 15.6234 23.4475L15.8849 23.452C16.1465 23.4564 16.219 23.4852 16.4324 23.5473C16.7169 23.6301 16.9733 23.7923 17.1465 23.9066C17.3197 24.0209 17.5091 24.1918 17.5627 24.2509" fill="#222222"/>
<path fill-rule="evenodd" clip-rule="evenodd" d="M11.4104 22.2251L11.4144 22.2346C11.4366 22.2867 11.5286 22.5014 11.5827 22.6014C11.6446 22.7157 11.8337 22.9423 11.9945 23.0527C12.1553 23.163 12.3753 23.2574 12.6434 23.352C12.9114 23.4466 13.1621 23.437 13.389 23.4764C13.6158 23.5159 13.7312 23.504 13.9086 23.5001C14.0859 23.4961 14.3333 23.4607 14.4529 23.4528C14.5725 23.4449 14.7993 23.37 14.6261 23.4528C14.4529 23.5356 13.991 23.7366 13.4137 23.9494C12.8364 24.1623 11.925 24.4894 11.1621 24.7298C10.3992 24.9703 9.661 25.2368 8.84036 25.4418C8.01972 25.6467 7.15863 25.7641 6.30502 25.8863C5.45138 26.0085 4.52458 26.0624 3.83589 26.0584C3.1472 26.0545 2.51875 25.9618 2.08576 25.8672C1.65274 25.7726 1.38869 25.6876 1.11652 25.5576C0.844354 25.4275 0.630569 25.226 0.449125 25.0447C0.267681 24.8634 0.159784 24.722 0.027832 24.4697L2.22994 24.2095C2.22994 24.2095 3.45058 24.048 4.03617 23.9494C4.62176 23.8509 4.93515 23.7839 5.74344 23.6183C6.5517 23.4528 8.094 23.1493 8.88576 22.9561C9.67752 22.763 10.0817 22.5778 10.494 22.4595C10.9064 22.3413 11.2075 22.2861 11.36 22.2467L11.4104 22.2251Z" fill="#222222"/>
<path fill-rule="evenodd" clip-rule="evenodd" d="M23.8303 26.9414C23.719 26.8665 23.6133 26.7403 23.2009 26.5472C22.7885 26.354 22.0282 26.1058 21.356 25.7826C20.6838 25.4594 20.0612 25.0101 19.2281 24.5765C18.3951 24.1429 17.1704 23.4335 16.358 23.1812C15.5456 22.9289 14.9159 23.1873 14.384 23.144C13.852 23.1006 13.2871 23.0792 12.9365 22.9846C12.586 22.89 12.4172 22.7209 12.1986 22.5829C11.9801 22.445 11.9284 22.1815 12.0851 21.9804C12.2418 21.7794 12.7043 21.5455 13.1909 21.2892C13.6775 21.033 14.1765 20.7926 14.8239 20.5088C15.4714 20.225 16.4446 19.7875 17.0755 19.5865C17.7065 19.3855 18.1931 19.3303 18.6096 19.3027C18.6616 19.2993 18.7115 19.2975 18.7593 19.297C18.8053 19.2967 18.8513 19.2978 18.8972 19.3001C19.1624 19.3138 19.3673 19.3707 19.5746 19.4209C19.8508 19.488 20.0488 19.5628 20.2673 19.7048C20.4859 19.8467 20.7498 20.0516 20.8859 20.2723C21.022 20.4931 21.0385 20.6941 21.0839 21.0291C21.1292 21.3641 21.0632 21.8568 21.1581 22.2825C21.2529 22.7082 21.389 23.2364 21.653 23.5832C21.9169 23.9301 22.1502 24.2541 22.4819 24.4861C22.8238 24.7252 23.2352 24.9713 23.4891 25.137C23.746 25.3047 24.192 25.5179 24.3929 25.6521C24.6135 25.7995 24.6303 25.7511 24.7211 25.9009C24.8118 26.0506 24.6762 26.2309 24.5443 26.4083C24.4123 26.5857 24.2066 26.7859 24.2066 26.7859C24.189 26.7962 23.9874 26.9269 23.8893 26.9909M31.6704 24.4517C31.5918 24.4476 31.3867 24.5612 31.2681 24.5907C31.0783 24.6381 30.8988 24.7298 30.6678 24.8481C30.4368 24.9663 30.1565 25.1476 29.975 25.2738C29.7934 25.3999 29.579 25.6048 29.579 25.6048L29.6533 25.6521C29.8349 25.7546 30.2143 25.9832 30.6678 26.2197C31.1215 26.4562 31.8801 26.8346 32.375 27.0711C32.8699 27.3076 33.2287 27.4653 33.637 27.6387C34.0453 27.8121 34.4616 27.9974 34.8247 28.1117C35.1875 28.226 35.2624 28.2793 35.5963 28.3345C35.9305 28.3897 36.1314 28.4169 36.5708 28.4588C36.9452 28.4946 37.7397 28.5016 38.1811 28.4425C38.6223 28.3833 39.1926 28.2558 39.5225 28.1337C39.8522 28.0115 40.3785 27.7732 40.0207 27.7333C39.4088 27.6651 38.272 27.4377 37.4969 27.213C36.7215 26.9883 36.1051 26.7989 35.3505 26.4718C34.5957 26.1446 33.5034 25.5777 32.9096 25.2742C32.316 24.9707 32.2098 24.863 31.9567 24.641C31.8743 24.5687 31.7176 24.4542 31.6704 24.4517Z" fill="#222222"/>
<path fill-rule="evenodd" clip-rule="evenodd" d="M32.5977 24.5856C32.7877 24.7491 33.0524 24.8307 33.487 25.0924C34.043 25.4272 34.9238 25.8531 35.765 26.1724C36.6062 26.4916 37.6578 26.8871 38.5361 27.0711C39.5066 27.2742 40.1909 27.3904 41.0363 27.4259C41.8815 27.4614 42.9967 27.4046 43.6086 27.2839C44.4038 27.1271 44.3413 27.1509 44.6971 27.0238C45.0067 26.9132 45.7339 26.6334 45.5772 26.527C45.4205 26.4205 44.3307 26.5321 43.704 26.4218C43.0773 26.3114 42.5442 26.2962 41.4999 26.0392C41.4999 26.0392 40.8091 25.9244 39.8537 25.5993C39.2822 25.4048 38.5582 25.1382 37.8356 24.8997C37.8356 24.8997 36.9115 24.5484 36.4578 24.375C36.0041 24.2016 35.7294 24.0526 35.4655 23.9343C35.2015 23.8161 35.0557 23.7365 34.8744 23.6656C34.6928 23.5946 34.6351 23.4724 34.3795 23.4527C34.3154 23.4478 34.2363 23.4461 34.1492 23.4475L33.8875 23.452C33.6262 23.4564 33.5536 23.4852 33.3402 23.5473C33.0557 23.6301 32.7993 23.7923 32.626 23.9066C32.4528 24.0209 32.2634 24.1918 32.21 24.2509" fill="#222222"/>
<path fill-rule="evenodd" clip-rule="evenodd" d="M38.362 22.2251L38.358 22.2346C38.3359 22.2867 38.2437 22.5014 38.1897 22.6014C38.1277 22.7157 37.9386 22.9423 37.7779 23.0527C37.617 23.163 37.397 23.2574 37.1291 23.352C36.8609 23.4466 36.6103 23.437 36.3833 23.4764C36.1566 23.5159 36.0411 23.504 35.8638 23.5001C35.6865 23.4961 35.4392 23.4607 35.3194 23.4528C35.1999 23.4449 34.9732 23.37 35.1464 23.4528C35.3194 23.5356 35.7815 23.7366 36.3587 23.9494C36.936 24.1623 37.8475 24.4894 38.6103 24.7298C39.3732 24.9703 40.1114 25.2368 40.932 25.4418C41.7526 25.6467 42.6139 25.7641 43.4673 25.8863C44.3211 26.0085 45.2479 26.0624 45.9364 26.0584C46.6252 26.0545 47.2537 25.9618 47.6865 25.8672C48.1197 25.7726 48.3836 25.6876 48.6558 25.5576C48.928 25.4275 49.1419 25.226 49.3232 25.0447C49.5048 24.8634 49.6127 24.722 49.7445 24.4697L47.5424 24.2095C47.5424 24.2095 46.3218 24.048 45.7363 23.9494C45.1507 23.8509 44.8373 23.7839 44.029 23.6183C43.2208 23.4528 41.6785 23.1493 40.8865 22.9561C40.0948 22.763 39.6908 22.5778 39.2783 22.4595C38.866 22.3413 38.5649 22.2861 38.4125 22.2467L38.362 22.2251Z" fill="#222222"/>
<path fill-rule="evenodd" clip-rule="evenodd" d="M25.9421 26.9414C26.0535 26.8665 26.1593 26.7403 26.5716 26.5472C26.9839 26.354 27.7442 26.1058 28.4164 25.7826C29.0886 25.4594 29.7113 25.0101 30.5442 24.5765C31.3773 24.1429 32.6019 23.4335 33.4145 23.1812C34.2268 22.929 34.8566 23.1873 35.3884 23.144C35.9205 23.1006 36.4854 23.0792 36.836 22.9846C37.1865 22.89 37.3552 22.7209 37.5737 22.5829C37.7924 22.445 37.8441 22.1815 37.6874 21.9804C37.5305 21.7794 37.0682 21.5455 36.5816 21.2892C36.095 21.033 35.596 20.7926 34.9485 20.5088C34.3011 20.225 33.3279 19.7875 32.6969 19.5865C32.0658 19.3855 31.5795 19.3303 31.1629 19.3027C31.1109 19.2993 31.061 19.2975 31.0132 19.297C30.9653 19.2968 30.9193 19.2978 30.8751 19.3001C30.61 19.3138 30.4051 19.3707 30.1979 19.4209C29.9217 19.488 29.7236 19.5628 29.5051 19.7048C29.2864 19.8467 29.0225 20.0516 28.8864 20.2723C28.7503 20.4931 28.734 20.6941 28.6886 21.0291C28.6431 21.3641 28.7092 21.8568 28.6142 22.2825C28.5196 22.7082 28.3835 23.2364 28.1196 23.5832C27.8557 23.9301 27.6222 24.2541 27.2905 24.4861C26.9487 24.7252 26.5372 24.9713 26.2833 25.137C26.0264 25.3047 25.5805 25.5179 25.3796 25.6521C25.1589 25.7995 25.1421 25.7511 25.0514 25.9009C24.9606 26.0506 25.0962 26.2309 25.2282 26.4083C25.3603 26.5857 25.5659 26.7859 25.5659 26.7859C25.5835 26.7962 25.7849 26.9269 25.883 26.9909M26.9786 20.0577C26.9786 21.2547 26.0186 22.2251 24.8345 22.2251C23.6504 22.2251 22.6904 21.2547 22.6904 20.0577C22.6904 18.8607 23.6504 17.8903 24.8345 17.8903C26.0186 17.8903 26.9786 18.8607 26.9786 20.0577Z" fill="#222222"/>
</g>
</g>
<defs>
<clipPath id="clip0_3476_83594">
<rect width="80" height="80" fill="white" transform="translate(0.25)"/>
</clipPath>
<clipPath id="clip1_3476_83594">
<rect width="80" height="43" fill="white" transform="translate(0.25 18)"/>
</clipPath>
</defs>
</svg>
