<svg width="81" height="80" viewBox="0 0 81 80" fill="none" xmlns="http://www.w3.org/2000/svg">
<g clip-path="url(#clip0_3476_83642)">
<rect width="80" height="80" transform="translate(0.25)" fill="#E8F1FF"/>
<path d="M80.25 47.3269L18.3021 66.7676L0.25 17.6259L65.2837 14L80.25 47.3269Z" fill="#222222"/>
<path d="M33.4215 37.4519C33.4215 38.6863 33.1128 39.7663 32.5728 40.7692C32.0328 41.6949 31.2614 42.5435 30.2586 43.1607C29.2556 43.7779 28.0212 44.2407 26.6327 44.5493C25.244 44.8579 23.7011 45.0121 21.9268 45.0121H20.6924V51.3381H12.6693V30.2773H22.0811C25.6298 30.2773 28.407 30.8945 30.4128 32.0517C32.4186 33.2089 33.4215 35.0604 33.4215 37.4519ZM25.707 37.5291C25.707 35.6776 24.3183 34.7519 21.6182 34.7519H20.6152V40.3835H21.5411C22.8526 40.3835 23.9326 40.152 24.6268 39.6891C25.3212 39.3033 25.707 38.532 25.707 37.5291Z" fill="#E8F1FF"/>
<path d="M53.3255 51.3381C52.0912 51.5694 50.7026 51.7238 49.0826 51.7238C46.8454 51.7238 44.8395 51.4924 43.1423 50.9524C41.3679 50.4124 39.9022 49.718 38.6679 48.7922C37.4335 47.8665 36.5078 46.7093 35.8906 45.3978C35.2735 44.0092 34.9648 42.5434 34.9648 40.9234C34.9648 39.3033 35.2735 37.8376 35.9678 36.4489C36.662 35.1374 37.5878 33.9804 38.8222 32.9774C40.0564 32.0517 41.5223 31.2802 43.2195 30.7402C44.9167 30.2002 46.7682 29.9688 48.7739 29.9688C50.3168 29.9688 51.7826 30.0458 53.094 30.2773C54.4056 30.5858 54.4056 30.5858 55.4084 30.9716V36.6033C54.637 36.1404 53.7112 35.7546 52.7084 35.5232C51.7055 35.2146 50.6255 35.0604 49.5454 35.0604C47.6939 35.0604 46.2282 35.6004 45.071 36.5261C43.9138 37.529 43.3738 38.9176 43.3738 40.8462C43.3738 41.772 43.528 42.6206 43.9138 43.3921C44.2995 44.0864 44.7624 44.7036 45.3795 45.1664C45.9967 45.6293 46.691 46.015 47.5396 46.2465C48.3882 46.4778 49.2368 46.6322 50.1626 46.6322C51.0883 46.6322 52.0912 46.555 53.017 46.3236C53.9427 46.0921 54.9456 45.8608 55.9484 45.3978V50.7209C54.7142 51.0294 54.5599 51.1066 53.3255 51.3381Z" fill="#E8F1FF"/>
<path d="M67.3656 30.2773H59.2654V51.4152H67.3656V30.2773Z" fill="#E8F1FF"/>
<path d="M68.2153 23.6431C68.2153 25.0317 67.7523 26.1889 66.8266 26.9604C65.9009 27.7317 64.7437 28.1947 63.355 28.1947C61.9665 28.1947 60.8093 27.8089 59.8835 26.9604C58.9578 26.1889 58.4949 25.0317 58.4949 23.6431C58.4949 22.1773 58.9578 21.0973 59.8835 20.2487C60.8093 19.4001 61.9665 19.0144 63.355 19.0144C64.7437 19.0144 65.9009 19.4001 66.8266 20.2487C67.7523 21.0201 68.2153 22.1773 68.2153 23.6431Z" fill="#E8F1FF"/>
</g>
<defs>
<clipPath id="clip0_3476_83642">
<rect width="80" height="80" fill="white" transform="translate(0.25)"/>
</clipPath>
</defs>
</svg>
