<svg width="81" height="80" viewBox="0 0 81 80" fill="none" xmlns="http://www.w3.org/2000/svg">
<rect width="80" height="80" transform="translate(0.75)" fill="#E8F1FF"/>
<path d="M41.051 4.37573L42.3521 8.38017H46.5626L43.1561 10.855L44.4573 14.8594L41.051 12.3846L37.6446 14.8594L38.9456 10.855L35.5393 8.38017H39.7498L41.051 4.37573Z" fill="#222222"/>
<path d="M41.051 65.9514L42.3521 69.9559H46.5626L43.1561 72.4307L44.4573 76.4351L41.051 73.9603L37.6446 76.4351L38.9456 72.4307L35.5393 69.9559H39.7498L41.051 65.9514Z" fill="#222222"/>
<path d="M25.8349 61.9664L27.136 65.9709H31.3465L27.9401 68.4459L29.2412 72.4503L25.8349 69.9753L22.4284 72.4503L23.7296 68.4459L20.3232 65.9709H24.5338L25.8349 61.9664Z" fill="#222222"/>
<path d="M13.8833 50.3749L15.1844 54.3793H19.3949L15.9885 56.8543L17.2896 60.8587L13.8833 58.3838L10.4768 60.8587L11.778 56.8543L8.37158 54.3793H12.5822L13.8833 50.3749Z" fill="#222222"/>
<path d="M71.8373 35.1635L73.1385 39.1679H77.349L73.9425 41.6429L75.2437 45.6473L71.8373 43.1723L68.4309 45.6473L69.732 41.6429L66.3257 39.1679H70.5362L71.8373 35.1635Z" fill="#222222"/>
<path d="M67.8539 50.3749L69.1551 54.3793H73.3656L69.9591 56.8543L71.2603 60.8587L67.8539 58.3838L64.4475 60.8587L65.7486 56.8543L62.3423 54.3793H66.5528L67.8539 50.3749Z" fill="#222222"/>
<path d="M56.2626 61.9664L57.5638 65.9709H61.7743L58.3678 68.4459L59.6689 72.4503L56.2626 69.9753L52.8562 72.4503L54.1573 68.4459L50.751 65.9709H54.9615L56.2626 61.9664Z" fill="#222222"/>
<path d="M67.4892 19.5889L68.7903 23.5933H73.0008L69.5945 26.0681L70.8957 30.0726L67.4892 27.5977L64.0829 30.0726L65.384 26.0681L61.9775 23.5933H66.1881L67.4892 19.5889Z" fill="#222222"/>
<path d="M56.2626 8.3606L57.5638 12.3651H61.7743L58.3678 14.8399L59.6689 18.8444L56.2626 16.3695L52.8562 18.8444L54.1573 14.8399L50.751 12.3651H54.9615L56.2626 8.3606Z" fill="#222222"/>
<path d="M10.2617 35.1635L11.5628 39.1679H15.7733L12.3669 41.6429L13.668 45.6473L10.2617 43.1723L6.85526 45.6473L8.15639 41.6429L4.75 39.1679H8.96053L10.2617 35.1635Z" fill="#222222"/>
<path d="M14.2451 19.5889L15.5462 23.5933H19.7568L16.3503 26.0681L17.6514 30.0726L14.2451 27.5977L10.8386 30.0726L12.1398 26.0681L8.7334 23.5933H12.944L14.2451 19.5889Z" fill="#222222"/>
<path d="M25.4746 8.3606L26.7758 12.3651H30.9863L27.58 14.8399L28.8811 18.8444L25.4746 16.3695L22.0683 18.8444L23.3695 14.8399L19.9631 12.3651H24.1735L25.4746 8.3606Z" fill="#222222"/>
</svg>
