<svg width="81" height="80" viewBox="0 0 81 80" fill="none" xmlns="http://www.w3.org/2000/svg">
<rect width="80" height="80" transform="translate(0.75)" fill="#E8F1FF"/>
<path d="M74.6837 33.4651C74.0174 31.7127 72.6492 30.1482 70.9838 29.0201C66.1762 25.9617 58.8495 25.7439 53.8958 28.5088C51.1941 29.8888 49.4185 32.6196 48.8658 35.4319C47.8635 40.0523 48.1224 45.5497 51.6754 49.0129C55.8184 52.6515 61.8482 53.4554 67.2101 51.9607C67.4648 51.9117 68.2722 51.708 68.829 51.412L68.9858 51.3447C70.6511 50.6514 72.2393 49.5225 73.425 47.9937C76.1615 43.9852 76.3491 37.979 74.6837 33.4651ZM65.9539 43.8405C65.7647 44.7167 65.1764 45.6245 64.2487 45.9537C62.7717 46.6046 60.7737 46.4242 59.4054 45.6628C58.2579 44.8589 58.1102 43.513 57.9625 42.2395C57.8504 39.7289 57.6696 37.0704 58.3715 34.7752C58.9217 33.3537 60.4393 32.9879 61.8117 32.8807C63.253 32.8807 64.6561 33.101 65.5464 34.2656C66.1007 35.1011 66.0667 36.1942 66.1762 37.1785C66.1372 39.2526 66.3231 41.7265 65.9539 43.8405ZM22.1203 46.1017C20.8989 46.0269 19.5306 46.1341 18.3482 45.9886L18.3847 33.2049L18.4594 33.0985L22.1203 33.0627C22.1584 30.9878 22.195 28.7624 22.0821 26.8712L8.1397 26.8321L5.84376 26.872C5.80725 28.8006 5.80725 31.0559 5.84376 33.0245C7.1025 33.0635 8.28408 33.0245 9.50548 33.1384V45.5189L9.4698 46.0277L5.80725 46.1025C5.73092 48.1047 5.73092 50.109 5.80725 52.1112H22.1194L22.1203 46.1017ZM63.1767 54.8395C61.625 57.0632 59.6643 59.2113 57.5235 60.8822C57.4455 60.9961 57.224 60.9529 57.1535 60.8482C56.2258 60.2671 55.2276 59.7916 54.3381 59.2113C55.523 57.7923 56.6705 56.3724 57.5584 54.8004H56.4075C55.4881 56.153 54.524 57.572 53.3042 58.7699C51.6754 58.1157 50.1968 57.5338 48.5323 57.0932L48.3472 56.9543C48.6061 56.2186 49.0857 55.5278 49.2326 54.7988H48.2344L47.2362 56.7665C45.0564 56.2935 42.651 56.0358 40.4314 55.8919C40.3193 55.5652 40.4662 55.0914 40.3193 54.7988H39.3577C39.2813 55.2369 39.4688 55.5669 39.2465 55.9302C36.953 56.0358 34.7342 56.2935 32.591 56.7349L31.5886 54.7988C31.2227 54.7988 30.8112 54.7289 30.5556 54.8378L31.4783 56.9868L31.3679 57.0932C29.7101 57.5737 28.0802 58.146 26.4856 58.8073L26.3388 58.7325C25.3007 57.6036 24.3017 56.3708 23.4869 55.1321C23.3035 54.5095 22.5634 54.8736 22.156 54.8004C23.0405 56.4048 24.2279 57.823 25.4094 59.282C24.4112 59.8664 23.4164 60.5181 22.3758 60.9961C20.1133 59.2697 18.1409 57.1918 16.5335 54.8412C16.0888 54.7697 15.7959 54.8021 15.3486 54.8412C18.0122 58.9927 22.156 62.633 26.484 64.7819C26.484 64.7819 26.484 64.7495 26.5238 64.7495C26.5553 64.7495 26.6292 64.8168 26.5553 64.855C29.4794 66.2757 32.5885 67.2949 35.8776 67.7338C47.2345 69.2252 58.0737 64.3845 64.3582 54.8412C63.9654 54.8006 63.5696 54.8001 63.1767 54.8395ZM47.7556 58.1165L47.8643 58.0433C49.4591 58.4075 50.9726 58.9179 52.379 59.6079C51.1941 60.9521 49.6773 62.1201 48.2734 63.1026C47.4237 63.6106 46.5699 64.1626 45.6812 64.5965L44.0939 63.9049L44.2026 63.653C45.5369 61.8698 46.7209 60.0468 47.7556 58.1165ZM40.4662 57.0233C42.5763 57.0632 44.6855 57.281 46.6429 57.7524L46.6819 57.863C45.648 59.8273 44.3503 61.7252 42.9472 63.5058C42.3149 63.5807 41.7258 63.3288 41.0977 63.2897L40.4654 63.2149C40.3932 61.066 40.3542 59.1723 40.4662 57.0233ZM33.3303 57.6784C35.2537 57.3143 37.2501 57.0233 39.3203 57.0233L39.3585 63.1841C38.5802 63.3604 37.7297 63.3604 36.9895 63.5474C35.4727 61.7584 34.2165 59.8273 33.1453 57.8231L33.3303 57.6784ZM27.3718 59.6469C28.8181 58.9528 30.3324 58.4399 31.884 58.0425L32.0342 58.0808C33.1038 60.0842 34.4372 61.9762 35.7681 63.8699C35.2545 64.1634 34.6222 64.3388 34.1061 64.6347C31.6047 63.3967 29.3285 61.7467 27.3726 59.7533V59.6469H27.3718ZM32.1454 65.8734C29.038 65.0695 26.1504 63.6862 23.4877 61.7958V61.6828C24.3756 61.1416 25.2667 60.5572 26.2251 60.1524C28.3352 62.2339 30.5158 63.8001 32.8831 65.2898C32.6989 65.5084 32.4035 65.7279 32.1454 65.8734ZM45.8671 66.3439C41.9473 67.1868 37.5803 67.2193 33.6614 66.2741C33.5867 66.0928 33.8464 66.0538 33.9568 65.9474C37.3969 63.7236 42.758 63.7236 46.1276 66.1244C46.2372 66.3439 45.9418 66.2741 45.8671 66.3439ZM49.4193 65.328L47.6809 65.8726C47.3839 65.7271 47.1267 65.5084 46.8653 65.289L46.94 65.1776C49.3081 63.7993 51.4522 62.1192 53.4876 60.1166C54.4866 60.5165 55.4491 61.066 56.3395 61.682C54.2659 63.3288 51.8604 64.4161 49.4193 65.328ZM16.4613 24.0655C17.3763 22.797 18.3771 21.5929 19.4568 20.4618C20.4151 19.5516 21.3063 18.6779 22.3435 18.0195C23.306 18.638 24.3772 19.1534 25.3016 19.7336C24.1557 21.1468 22.9716 22.5733 22.1211 24.0988C22.3783 24.2127 22.8613 24.1769 23.2322 24.0988C24.1557 22.7537 25.1514 21.407 26.3396 20.2041C27.9261 20.7885 29.4819 21.4054 31.1115 21.8443L31.2551 21.9889L30.334 24.0988C30.7423 24.1769 31.0012 24.1387 31.4053 24.0988C31.7372 23.4836 31.9944 22.7936 32.3645 22.171C34.5127 22.6465 36.7696 22.9 39.0631 22.9707C39.3568 23.2292 39.1361 23.7729 39.2473 24.0988H40.2455C40.3542 23.7413 40.2082 23.3356 40.3542 23.0114C42.5016 22.8984 44.7569 22.6797 46.8354 22.1693L47.0155 22.2076L48.0145 24.0971C48.3481 24.0971 48.7912 24.1753 49.05 24.0223L48.1232 21.9158L48.2004 21.8426C49.8989 21.4054 51.492 20.7503 53.1192 20.0961C54.2692 21.2973 55.3388 22.7172 56.3038 24.0963C56.7087 24.0963 57.1161 24.1362 57.4123 24.0215C56.9555 23.2085 56.4226 22.4408 55.8209 21.7287C55.3323 21.0313 54.7873 20.3754 54.1912 19.7677V19.579L56.7809 18.0885L57.1543 17.943C59.4064 19.6508 61.3772 21.7019 62.9949 24.0215C63.4389 24.0215 63.8098 24.1744 64.1807 23.9907C59.2187 16.568 51.0456 11.7922 42.2095 11.1047L42.1705 11.1754L42.095 11.1047C41.0977 10.9975 39.8721 10.9551 38.8009 11.0623C38.3951 11.0307 37.9155 11.0623 37.4334 11.1047C28.5575 11.7922 20.3836 16.3469 15.2764 24.1004C15.6465 24.0655 16.0904 24.2135 16.4613 24.0655ZM31.8143 20.8658L31.6666 20.8974C30.1482 20.5009 28.6671 20.0229 27.2615 19.4061L27.3328 19.1874C29.3674 17.258 31.5123 15.6544 33.8796 14.4191C34.4372 14.6377 34.9915 14.8181 35.5457 15.0767L35.437 15.361C34.029 17.1133 32.9221 19.0029 31.8143 20.8658ZM39.1726 21.8459C38.1396 21.9914 37.2144 21.8135 36.1747 21.7329C35.1807 21.5866 33.9203 21.481 32.9221 21.1485C33.9949 19.155 35.2545 17.2214 36.7696 15.4416L39.1378 15.765C39.2473 17.6554 39.1726 19.8417 39.1726 21.8459ZM40.3185 21.885C40.2455 19.9489 40.2837 17.8033 40.3185 15.7999C41.0611 15.6935 41.871 15.5804 42.6128 15.4732C44.0549 17.2912 45.4638 19.155 46.4264 21.1485C44.4263 21.6333 42.3763 21.8805 40.3185 21.885ZM52.1218 19.3321C50.6764 19.9481 49.1953 20.5317 47.6071 20.8658C46.4612 18.9356 45.2041 17.0061 43.7944 15.1415C44.313 14.8564 44.9452 14.6377 45.4987 14.3476C47.9075 15.548 50.2349 17.258 52.1932 19.2182L52.1218 19.3321ZM47.3839 13.1056C50.4913 13.9087 53.4137 15.2903 56.0773 17.184L56.0034 17.3295L53.4536 18.7477H53.2652C51.3078 16.7883 49.0152 15.0767 46.6819 13.7258C46.7558 13.4706 47.1275 13.2869 47.3839 13.1056ZM45.9061 12.7399V12.8172C42.6858 15.1415 37.4716 15.361 34.0704 13.212C33.8796 13.0666 33.5145 12.9959 33.4747 12.7407C37.3978 11.8346 42.0187 11.7614 45.9061 12.7399ZM23.3409 17.258C25.6733 15.548 28.2613 14.2736 30.9995 13.3991C31.1115 13.2852 31.1829 13.178 31.3289 13.178V13.2528C31.6243 13.3243 31.8475 12.9942 32.1056 13.2104C32.3288 13.3991 32.5902 13.5429 32.7727 13.7241C30.4809 15.1415 28.2231 16.8199 26.1512 18.8549C25.1522 18.4975 24.2312 17.948 23.34 17.3295L23.3409 17.258ZM39.2108 46.386C35.7341 47.3345 31.9587 46.6113 29.4445 43.9852C29.15 43.6211 28.9633 43.1871 28.6662 42.8247L23.6744 42.8596C23.5956 45.8082 23.5607 49.1958 23.6744 52.1103L29.2205 52.0746L29.2944 50.3255C29.9258 50.6165 30.5556 50.9798 31.1829 51.3065C35.0296 52.9109 39.9816 53.275 43.7927 51.3065C46.5691 49.781 48.0494 46.8324 47.6411 43.6577C47.2362 40.566 44.2756 37.7604 41.2819 36.9981L32.3279 34.4103L31.6658 34.0811C31.3696 33.8283 31.1837 33.5025 31.2559 33.0985C31.9587 31.8997 33.5884 32.2638 34.8089 32.2962C37.3978 32.6612 40.0605 33.5349 41.5781 35.9033C43.2036 35.9033 45.0896 35.9349 46.8636 35.865C46.9391 32.8798 46.8346 30.2596 46.7906 27.2361C45.1261 27.1979 43.0907 27.1979 41.4287 27.2744C41.354 27.7075 41.5001 28.3243 41.315 28.7632L39.6149 27.8521C35.5441 26.1413 29.847 25.9626 26.1496 28.6211C23.7441 30.366 23.0065 33.5008 23.6354 36.2674C24.1142 38.8852 26.6292 40.8171 29.0346 41.7249C32.3263 42.8887 35.7648 43.7316 39.0996 44.8589C39.4298 45.0069 39.8729 45.3369 39.8016 45.7367C39.8032 46.0601 39.468 46.2472 39.2108 46.386Z" fill="#222222"/>
</svg>
