<svg width="90" height="90" viewBox="0 0 90 90" fill="none" xmlns="http://www.w3.org/2000/svg">
<g filter="url(#filter0_d_5808_10271)">
<path d="M17.1618 5.17157L6.17157 16.1618C5.42143 16.9119 5 17.9293 5 18.9902V80C5 82.2091 6.79086 84 9 84H81C83.2091 84 85 82.2091 85 80V8C85 5.79086 83.2091 4 81 4H19.9902C18.9293 4 17.9119 4.42143 17.1618 5.17157Z" fill="white"/>
<path d="M17.1618 5.17157L6.17157 16.1618C5.42143 16.9119 5 17.9293 5 18.9902V80C5 82.2091 6.79086 84 9 84H81C83.2091 84 85 82.2091 85 80V8C85 5.79086 83.2091 4 81 4H19.9902C18.9293 4 17.9119 4.42143 17.1618 5.17157Z" stroke="#D0D3D9"/>
</g>
<defs>
<filter id="filter0_d_5808_10271" x="0.5" y="0.5" width="89" height="89" filterUnits="userSpaceOnUse" color-interpolation-filters="sRGB">
<feFlood flood-opacity="0" result="BackgroundImageFix"/>
<feColorMatrix in="SourceAlpha" type="matrix" values="0 0 0 0 0 0 0 0 0 0 0 0 0 0 0 0 0 0 127 0" result="hardAlpha"/>
<feOffset dy="1"/>
<feGaussianBlur stdDeviation="2"/>
<feComposite in2="hardAlpha" operator="out"/>
<feColorMatrix type="matrix" values="0 0 0 0 0 0 0 0 0 0 0 0 0 0 0 0 0 0 0.08 0"/>
<feBlend mode="normal" in2="BackgroundImageFix" result="effect1_dropShadow_5808_10271"/>
<feBlend mode="normal" in="SourceGraphic" in2="effect1_dropShadow_5808_10271" result="shape"/>
</filter>
</defs>
</svg>
