<svg width="164" height="28" viewBox="0 0 164 28" fill="none" xmlns="http://www.w3.org/2000/svg">
<path d="M19.4285 11.2161C19.3221 11.2161 19.2326 11.2188 19.1822 11.2244C19.1234 11.3309 19.0366 11.4736 18.9078 11.6724C20.9123 11.6724 22.7321 11.8376 24.745 12.1987L24.1767 12.7475C22.3597 12.4255 20.8507 12.2968 18.9274 12.2968C18.6475 12.2968 18.5887 12.2968 18.5215 12.2995C18.4543 12.4003 18.3031 12.5963 18.1519 12.7783C18.3227 12.7671 18.6531 12.7615 19.1093 12.7615C20.6912 12.7615 22.1693 12.879 23.7736 13.1367L23.2052 13.6882C21.9846 13.4978 20.4924 13.3886 19.1541 13.3886C18.6782 13.3886 18.1379 13.4054 17.6536 13.4334C17.5444 13.5594 17.2588 13.8673 17.1721 13.9625C17.8131 13.8953 18.5187 13.8645 19.3585 13.8645C20.554 13.8645 21.6963 13.9429 22.7769 14.1025L22.2085 14.6484C21.4387 14.5533 20.5036 14.4973 19.6777 14.4973C17.5472 14.4973 15.8674 14.9592 14.1316 16.0202C15.7862 17.7952 18.4963 18.9178 21.1223 18.9178H21.3687L20.4504 19.8055C16.6625 19.0943 12.6758 17.4285 9.30789 15.1467C6.06871 12.9602 4.93487 12.3136 2.40682 11.1965L2.39003 10.547L4.10059 11.2805L4.68292 10.8185L10.2681 13.3774L9.90418 13.6685L7.03739 12.4228L6.75462 12.6439L8.24406 13.4754C9.5011 14.1753 10.4585 14.4889 11.3432 14.4889C13.2778 14.4889 15.0136 13.117 16.1334 10.7066C16.9761 10.5973 17.8748 10.547 18.9554 10.547C21.1727 10.547 23.3256 10.7597 25.7641 11.2161L25.1705 11.79C23.6532 11.4736 21.0747 11.2161 19.4285 11.2161ZM14 27.1599C6.73407 27.1599 0.840071 21.2659 0.840071 14C0.840071 6.73401 6.73407 0.839941 14 0.839941C21.266 0.839941 27.16 6.73401 27.16 14C27.16 21.2659 21.266 27.1599 14 27.1599ZM14 0C6.2581 0 0 6.25797 0 14C0 21.742 6.2581 28 14 28C21.742 28 28.0001 21.742 28.0001 14C28.0001 6.25797 21.742 0 14 0ZM50.9866 19.5733H59.0133V23.3333H46.6667V4.66659H50.9866V19.5733ZM68.72 9.89331H72.7466V23.3333H68.96V21.7867C68.4 22.8267 67.2534 23.7333 65.1466 23.7333C61.7068 23.7333 59.9201 22.1866 59.9201 17.76V9.89331H63.9467V17.5732C63.9467 19.36 64.7202 20.1599 66.3468 20.1599C67.8134 20.1599 68.72 19.36 68.72 17.5732V9.89331ZM75.84 9.38672C75.84 6.13344 77.8935 4.39996 81.1201 4.39996C82.1602 4.39996 82.8268 4.55998 82.8268 4.55998V7.81325C82.8268 7.81325 82.2668 7.76011 81.7867 7.76011C80.5334 7.76011 79.8666 8.18677 79.8666 9.36005V9.89331H82.8268V13.1733H79.8666V23.3333H75.84V13.1733H73.8134V9.89331H75.84V9.38672ZM89.9196 9.89331H92.9863V13.1733H89.9196V18.4C89.9196 19.84 90.6664 20.2134 91.8399 20.2134C92.3199 20.2134 92.9863 20.1334 92.9863 20.1334V23.36C92.9863 23.36 92.0532 23.5732 91.0668 23.5732C87.84 23.5732 85.8934 22.1067 85.8934 18.8534V13.1733H83.8665V9.89331H85.8934V5.97335H89.9196V9.89331ZM101.901 9.49333C105.315 9.49333 107.102 11.0399 107.102 15.4666V23.3333H103.075V15.6532C103.075 13.8667 102.302 13.0668 100.622 13.0668C99.1013 13.0668 98.1952 13.8667 98.1952 15.6532V23.3333H94.1684V4.69333H98.2216V11.1999C98.915 10.2132 100.008 9.49333 101.901 9.49333ZM117.368 18.1066C117.368 19.5733 115.981 20.6667 113.848 20.6667C112.808 20.6667 112.195 20.1867 112.195 19.28C112.195 18.5867 112.621 18.0001 113.982 17.8135L116.302 17.4933C116.702 17.4399 117.128 17.3601 117.368 17.28V18.1066ZM115.128 9.4934C111.155 9.4934 109.235 11.0135 109.075 13.8667H112.995C113.048 13.12 113.475 12.56 115.128 12.56C116.595 12.56 117.288 13.0401 117.288 13.7599C117.288 14.4001 116.888 14.64 115.901 14.7467L113.342 15.0133C109.875 15.3865 108.301 16.8267 108.301 19.4401C108.301 21.8667 109.795 23.7333 112.968 23.7333C115.128 23.7333 116.409 23.04 117.528 21.6532V23.3333H121.208V14.5067C121.208 10.8 119.049 9.4934 115.128 9.4934ZM130.519 9.49333C134.013 9.49333 135.799 11.0399 135.799 15.4666V23.3333H131.772V15.6532C131.772 13.8667 130.999 13.0668 129.319 13.0668C127.799 13.0668 126.893 13.8667 126.893 15.6532V23.3333H122.866V9.89338H126.652V11.4401C127.213 10.4 128.359 9.49333 130.519 9.49333ZM144.293 14.9066C147.707 15.3601 149.413 16.4267 149.413 19.2267C149.413 22.0534 147.414 23.7333 143.173 23.7333C138.56 23.7333 136.933 21.8935 136.854 19.1999H140.827C140.934 20.1867 141.626 20.6667 143.173 20.6667C144.747 20.6667 145.387 20.2933 145.387 19.5467C145.387 18.8534 144.853 18.5335 143.467 18.3468L142.053 18.16C139.093 17.76 137.387 16.6134 137.387 13.9467C137.387 11.3867 139.28 9.49333 143.254 9.49333C146.933 9.49333 148.907 10.96 149.093 13.8667H145.173C145.04 13.0935 144.614 12.6134 143.254 12.6134C141.92 12.6134 141.414 13.0668 141.414 13.6535C141.414 14.24 141.734 14.56 142.88 14.7201L144.293 14.9066ZM159.493 18.1069C159.493 19.5734 158.107 20.6667 155.974 20.6667C154.933 20.6667 154.32 20.1867 154.32 19.28C154.32 18.5867 154.747 18.0001 156.107 17.8135L158.427 17.4933C158.827 17.4402 159.253 17.3601 159.493 17.28V18.1069ZM157.253 9.4934C153.28 9.4934 151.36 11.0135 151.2 13.8667H155.12C155.174 13.12 155.6 12.5602 157.253 12.5602C158.72 12.5602 159.414 13.0401 159.414 13.7601C159.414 14.4001 159.013 14.64 158.027 14.7467L155.467 15.0133C152 15.3867 150.427 16.8267 150.427 19.4401C150.427 21.8667 151.92 23.7333 155.093 23.7333C157.253 23.7333 158.533 23.04 159.653 21.6532V23.3333H163.333V14.5067C163.333 10.8002 161.173 9.4934 157.253 9.4934Z" fill="#05164D"/>
</svg>
