<svg width="126" height="28" viewBox="0 0 126 28" fill="none" xmlns="http://www.w3.org/2000/svg">
<path d="M8.64564 18.6983C12.8608 18.6983 14.5049 16.1244 14.5049 11.7205C14.5049 7.31767 12.5821 4.24772 8.76915 4.24772H4.49573V18.6983H8.64564ZM0 0.403134H9.3274C15.2479 0.403134 19.0609 5.17849 19.0609 11.7205C19.0609 15.3171 17.8515 18.4809 15.5266 20.4343C13.8834 21.7979 11.7442 22.5735 8.9549 22.5735H0V0.403134ZM31.9009 14.6363C31.9009 11.5348 30.4445 9.42621 27.8716 9.42621C25.267 9.42621 23.8402 11.5348 23.8402 14.6363C23.8402 17.7369 25.267 19.8138 27.8716 19.8138C30.4445 19.8138 31.9009 17.7369 31.9009 14.6363ZM19.5628 14.6363C19.5628 9.89159 22.9421 6.23276 27.8716 6.23276C32.8001 6.23276 36.1793 9.89159 36.1793 14.6363C36.1793 19.3791 32.8001 23.0389 27.8716 23.0389C22.9411 23.0389 19.5619 19.3801 19.5619 14.6363H19.5628ZM36.8759 14.6363C36.8759 9.89159 39.9764 6.23276 44.8121 6.23276C48.9363 6.23276 51.4776 8.62093 52.0359 12.0624H47.9126C47.634 10.6672 46.5491 9.61197 44.9988 9.61197C42.4565 9.61197 41.1552 11.5664 41.1552 14.6363C41.1552 17.644 42.3636 19.6597 44.9366 19.6597C46.642 19.6597 47.8514 18.7605 48.13 16.9622H52.191C51.9123 20.3414 49.2762 23.0389 45.0294 23.0389C40.0081 23.0389 36.8759 19.3801 36.8759 14.6363ZM63.1685 22.5745V20.714H63.0756C61.9907 22.1714 60.7507 23.0083 58.5186 23.0083C54.9843 23.0083 53.0002 20.7456 53.0002 17.2715V6.66653H57.1847V16.5581C57.1847 18.4187 58.0226 19.4423 59.8199 19.4423C61.8039 19.4423 63.0133 17.9543 63.0133 15.8457V6.66653H67.2295V22.5745H63.1685ZM87.7705 22.5745H91.9856V6.66653H87.7705V22.5745ZM87.7705 4.44336H91.9856V0.500953H87.7705V4.44336ZM104.864 13.9219C104.864 11.597 103.624 9.61296 101.082 9.61296C98.9426 9.61296 97.5168 11.2868 97.5168 13.9536C97.5168 16.651 98.9426 18.2329 101.113 18.2329C103.779 18.2329 104.864 16.2795 104.864 13.9229V13.9219ZM93.7345 23.0389H97.918C98.2599 24.0309 99.158 24.8066 101.111 24.8066C103.499 24.8066 104.646 23.6594 104.646 21.4886V19.7516H104.553C103.622 20.8058 102.414 21.6121 100.398 21.6121C96.8647 21.6121 93.3926 18.8218 93.3926 14.0158C93.3926 9.27109 96.2442 6.23276 100.275 6.23276C102.259 6.23276 103.715 7.00741 104.676 8.34131H104.739V6.66653H108.8V21.3641C108.8 23.5971 108.086 25.1158 106.908 26.2017C105.575 27.4417 103.529 28 101.174 28C96.8331 28 94.1673 26.1395 93.7335 23.0389H93.7345ZM114.732 8.83732H114.825C115.91 7.13191 117.367 6.23276 119.537 6.23276C122.823 6.23276 125.024 8.71282 125.024 12.1859V22.5735H120.808V12.8064C120.808 11.101 119.816 9.89159 118.049 9.89159C116.188 9.89159 114.825 11.3796 114.825 13.5504V22.5735H110.609V6.66653H114.732V8.83732ZM78.1625 9.20884C74.8761 8.49742 73.3259 7.96979 73.3259 6.17051C73.3259 4.5896 74.9068 3.56595 77.3256 3.56595C79.5319 3.56595 81.2186 4.60145 81.5644 6.66653H85.8882C85.4485 2.36149 82.2541 0 77.3562 0C72.4277 0 68.8617 2.26367 68.8617 6.6359C68.8617 11.2561 72.489 12.3104 76.4571 13.2095C79.8363 13.9852 81.9448 14.4189 81.9448 16.5888C81.9448 18.636 79.9291 19.4423 77.6358 19.4423C74.474 19.4423 72.9543 18.388 72.6441 15.7212H68.2422C68.3974 20.4037 71.8072 23.0695 77.8216 23.0695C82.8123 23.0695 86.4396 20.5588 86.4396 16.0621C86.4396 11.2868 82.7195 10.2018 78.1625 9.20884Z" fill="#222222"/>
</svg>
