<svg width="123" height="28" viewBox="0 0 123 28" fill="none" xmlns="http://www.w3.org/2000/svg">
<path fill-rule="evenodd" clip-rule="evenodd" d="M75.9691 8.76143L75.9656 8.75922C75.9656 8.75922 75.9636 8.75801 75.9612 8.75801C75.8779 8.72139 75.7866 8.70248 75.6986 8.70248C75.5562 8.70348 75.4196 8.74594 75.3004 8.82039C75.1791 8.89725 75.0765 9.00952 75.0175 9.14976V9.15318L72.2382 16.7595L70.0964 11.6613L70.093 11.6588C70.0328 11.5164 69.9249 11.4063 69.8026 11.3297C69.6789 11.2528 69.5364 11.2105 69.3863 11.2105C69.2406 11.2105 69.1048 11.256 68.9847 11.3307C68.8666 11.4073 68.7599 11.5164 68.6998 11.6588L68.6986 11.6613L66.5523 16.7629L63.7581 9.15983H63.7561C63.7072 9.01294 63.608 8.89825 63.4901 8.8226C63.37 8.74594 63.2297 8.70348 63.0851 8.70248C62.9927 8.70248 62.8993 8.72139 62.8112 8.75801H62.807L62.8036 8.76143C62.5432 8.88276 62.384 9.14312 62.383 9.42683C62.383 9.51596 62.4008 9.6049 62.4352 9.69283H62.4341L65.8712 18.9215V18.9249C65.898 18.9937 65.9358 19.0617 65.9915 19.1285C66.0314 19.1764 66.0905 19.2164 66.1517 19.2498C66.1629 19.2609 66.1807 19.2764 66.2072 19.2931C66.2362 19.311 66.273 19.3233 66.3108 19.3299C66.372 19.35 66.4533 19.3798 66.5623 19.3798C66.7012 19.3798 66.8304 19.3299 66.9461 19.2553C67.0541 19.183 67.1509 19.075 67.2042 18.9349L67.2131 18.9281L69.3863 13.7329L71.5628 18.907H71.565C71.6151 19.045 71.703 19.1531 71.8054 19.2297C71.9133 19.311 72.0344 19.3611 72.1626 19.3798H72.2537C72.3407 19.3798 72.4252 19.3633 72.4962 19.3356C72.5708 19.3066 72.631 19.2688 72.6809 19.2309C72.7978 19.1418 72.8879 19.0195 72.9437 18.8836V18.8804L76.3586 9.69283C76.392 9.6049 76.4097 9.51697 76.4097 9.42804C76.4087 9.14655 76.2427 8.87833 75.9691 8.76143ZM60.2577 14.0301C60.2577 12.9464 59.8416 11.9649 59.1796 11.256C58.5142 10.5462 57.6128 10.1121 56.6337 10.1121C55.6544 10.1121 54.751 10.5462 54.0866 11.256C53.4234 11.9649 53.0073 12.9464 53.0073 14.0301C53.0073 15.1128 53.4234 16.0852 54.0866 16.7895C54.751 17.4961 55.6544 17.9235 56.6337 17.9235C57.6128 17.9235 58.5174 17.4961 59.1796 16.7895C59.8416 16.0852 60.2577 15.1128 60.2577 14.0301ZM60.2388 10.2681C61.1579 11.2427 61.7164 12.5802 61.7187 14.0301C61.7164 15.48 61.1579 16.8162 60.2388 17.7911C59.3265 18.7647 58.0524 19.38 56.6359 19.38C55.2305 19.38 53.9542 18.7647 53.0385 17.7911C52.1216 16.8162 51.5542 15.48 51.5542 14.0301C51.5542 12.5802 52.1216 11.2427 53.0385 10.2681C53.9542 9.29544 55.2305 8.68014 56.6359 8.68014C58.0524 8.68014 59.3265 9.29544 60.2388 10.2681ZM45.768 8.69906C44.6286 8.69906 43.5883 9.14312 42.8117 9.85178V9.42804C42.8105 9.23327 42.7382 9.05178 42.6113 8.91838C42.4879 8.78699 42.3052 8.69906 42.105 8.69906C41.898 8.69906 41.7111 8.78256 41.5811 8.91717C41.4531 9.04956 41.3763 9.23327 41.3763 9.42804V18.8716L41.4062 18.9015L41.4074 18.906C41.4153 18.9372 41.4352 18.9716 41.4563 19.005C41.5553 19.1796 41.7177 19.3122 41.9191 19.371L41.9481 19.38H42.105C42.2097 19.38 42.3153 19.3577 42.4155 19.311C42.499 19.271 42.5769 19.2064 42.6392 19.1241L42.6415 19.1251C42.6491 19.1174 42.6515 19.1074 42.6604 19.0995C42.6636 19.0985 42.667 19.0951 42.6692 19.0917C42.708 19.0418 42.7404 18.9905 42.7606 18.9428C42.7817 18.8859 42.795 18.8325 42.805 18.7913L42.8117 18.7647V13.0943C42.8328 12.2832 43.1666 11.5498 43.7018 11.0168C44.2336 10.484 44.9624 10.1546 45.768 10.1546C46.5872 10.1546 47.3179 10.484 47.8477 11.0168C48.3795 11.5478 48.7023 12.2798 48.7023 13.0866V18.6545C48.7023 18.8581 48.789 19.0462 48.9204 19.1752C49.055 19.3042 49.2385 19.38 49.43 19.38C49.6246 19.38 49.8073 19.3042 49.9407 19.1752C50.0765 19.0462 50.1588 18.8581 50.1588 18.6545V13.0866C50.1588 10.6832 48.196 8.70248 45.768 8.69906ZM117.496 12.9975C117.082 11.3184 115.608 10.1222 113.926 10.1256C112.201 10.1256 110.747 11.2963 110.296 12.9975H117.496ZM119.091 13.6852V13.7574C119.091 13.9589 119.001 14.1401 118.864 14.2593C118.728 14.3794 118.551 14.4418 118.361 14.444H110.195C110.403 16.4367 111.994 17.908 113.893 17.9235H114.375C115.004 17.9257 115.616 17.7088 116.154 17.3492C116.694 16.9933 117.16 16.4959 117.488 15.9484C117.556 15.8315 117.653 15.7426 117.759 15.688C117.867 15.6291 117.983 15.6023 118.099 15.6023C118.228 15.6023 118.356 15.6357 118.469 15.7035L118.477 15.707L118.485 15.7136C118.69 15.8639 118.818 16.0931 118.818 16.3446C118.818 16.4726 118.785 16.6027 118.715 16.7206L118.713 16.7251L118.71 16.7273C118.254 17.4528 117.632 18.1148 116.893 18.5945C116.153 19.0752 115.295 19.38 114.375 19.38H113.885C112.452 19.37 111.157 18.7647 110.224 17.7965C109.292 16.8319 108.718 15.5066 108.718 14.0502C108.718 12.5691 109.297 11.225 110.236 10.2524C111.175 9.28115 112.48 8.68014 113.926 8.68014C115.305 8.68014 116.545 9.22884 117.463 10.1268C118.381 11.0246 118.981 12.2719 119.087 13.6751L119.091 13.6852ZM85.5951 4.28494C85.3961 4.28494 85.2134 4.36844 85.0822 4.49983C84.9508 4.63001 84.8675 4.81352 84.8675 5.01271V18.6545C84.8675 18.8537 84.9508 19.0362 85.0822 19.1653C85.2134 19.2943 85.3961 19.38 85.5951 19.38C86.008 19.38 86.3418 19.0551 86.344 18.6545V5.01271C86.3418 4.6111 86.008 4.28494 85.5951 4.28494ZM38.0092 13.7697C37.4217 13.4927 36.7551 13.288 36.0899 13.0675C35.4778 12.8607 34.8569 12.6848 34.414 12.4534C34.1915 12.3343 34.0178 12.2085 33.9056 12.0673C33.7909 11.926 33.7354 11.7824 33.7319 11.5866C33.7331 11.3184 33.811 11.1025 33.9422 10.9111C34.1414 10.6252 34.4752 10.4027 34.8402 10.259C35.2008 10.1146 35.5913 10.0466 35.8706 10.0466C36.6961 10.0478 37.2181 10.3226 37.6187 10.6073C37.8167 10.751 37.9837 10.8967 38.1416 11.0168C38.2229 11.0792 38.2986 11.1359 38.3865 11.1781C38.4698 11.2194 38.5678 11.2528 38.6746 11.2528C38.7424 11.2528 38.8104 11.2405 38.8726 11.2138C38.9382 11.1872 38.9951 11.1494 39.0497 11.1025C39.103 11.0526 39.1487 10.9924 39.1809 10.9256C39.2098 10.8566 39.2231 10.7854 39.2231 10.7154C39.2231 10.5862 39.1819 10.4651 39.1229 10.3514C39.0129 10.1512 38.8436 9.95983 38.6279 9.76848C38.3074 9.48357 37.8847 9.21214 37.4295 9.00731C36.9732 8.80268 36.4837 8.66344 36.0175 8.66344C34.937 8.66344 34.0345 8.90831 33.3792 9.35902C33.0376 9.59484 32.7372 9.85299 32.5247 10.2091C32.3088 10.5663 32.1887 11.0069 32.173 11.58C32.172 11.6055 32.172 11.6311 32.172 11.6566C32.1697 12.213 32.3488 12.6715 32.6303 13.0309C33.0577 13.5717 33.6919 13.8955 34.314 14.1246C34.935 14.3538 35.5557 14.4908 35.9474 14.622C36.4992 14.8057 37.0857 15.0047 37.5128 15.2685C37.7255 15.4031 37.898 15.5478 38.0149 15.707C38.1283 15.8705 38.1927 16.0396 38.1951 16.2532V16.2689C38.1939 16.5782 38.1028 16.8208 37.9525 17.0289C37.7255 17.3382 37.3483 17.5651 36.9476 17.7088C36.5482 17.8488 36.1332 17.908 35.8661 17.908C34.9237 17.908 34.2929 17.6808 33.8356 17.4528C33.6062 17.3382 33.4205 17.2247 33.2525 17.1289C33.1689 17.0832 33.0911 17.041 33.0088 17.0076C32.9285 16.9744 32.843 16.953 32.7462 16.953C32.6873 16.953 32.6227 16.9631 32.5635 16.9864C32.5036 17.0122 32.449 17.0478 32.4034 17.0911C32.34 17.1524 32.2844 17.2213 32.2454 17.3003C32.2076 17.3794 32.1887 17.4627 32.1887 17.5496C32.1887 17.6921 32.242 17.8223 32.3178 17.9402C32.4367 18.1104 32.6116 18.2629 32.8295 18.4152C33.0543 18.5655 33.3225 18.7134 33.6317 18.8593C34.3172 19.183 35.1963 19.3523 35.8639 19.3633H35.8661C36.9044 19.3633 37.8012 19.1241 38.5567 18.5677V18.5665H38.5577C39.2966 18.0102 39.7561 17.1834 39.7561 16.25C39.7561 15.7369 39.636 15.3019 39.4257 14.9458C39.1086 14.4061 38.5933 14.0502 38.0092 13.7697ZM96.5686 14.0301C96.5686 12.9363 96.1557 11.956 95.496 11.2484C94.837 10.5429 93.9326 10.1146 92.9432 10.1123C91.9619 10.1123 91.0607 10.5429 90.3951 11.2484C89.7343 11.956 89.316 12.9363 89.316 14.0301C89.316 15.1228 89.7343 16.0965 90.3951 16.7985C91.0573 17.5007 91.9619 17.9235 92.9432 17.9235C93.9348 17.9235 94.8394 17.5007 95.4982 16.8007C96.1557 16.0965 96.5686 15.1239 96.5686 14.0301ZM97.8058 8.88276C97.9404 9.01294 98.0239 9.20107 98.0239 9.40449V18.6545C98.0239 18.8537 97.9384 19.0362 97.8105 19.1653C97.6789 19.2943 97.4976 19.38 97.2974 19.38C97.0972 19.38 96.9135 19.2943 96.7843 19.1653C96.6531 19.0362 96.5686 18.8537 96.5686 18.6545V17.752C95.6527 18.7414 94.3666 19.38 92.9432 19.38C91.5269 19.38 90.2517 18.7714 89.3382 17.7965C88.4215 16.8263 87.8607 15.4899 87.8607 14.0301C87.8607 12.5703 88.4215 11.2327 89.3382 10.2614C90.2517 9.28779 91.5269 8.68014 92.9432 8.68014C94.3656 8.68014 95.6527 9.30007 96.5686 10.2848V9.40449C96.5686 9.20107 96.6521 9.01294 96.7867 8.88276C96.9213 8.75479 97.1026 8.68014 97.2974 8.68014C97.4899 8.68014 97.6734 8.75479 97.8058 8.88276ZM108.08 9.8208C108.224 9.67713 108.303 9.48679 108.303 9.29785C108.303 9.11194 108.224 8.92602 108.078 8.79141H108.08C108.078 8.78699 108.075 8.78699 108.075 8.78699C108.074 8.78377 108.072 8.78256 108.072 8.78256H108.069C107.929 8.64453 107.749 8.56887 107.563 8.56887C107.375 8.56887 107.192 8.64694 107.051 8.78699L101.362 14.3317V5.01271C101.362 4.6111 101.026 4.28494 100.613 4.28494C100.414 4.28494 100.232 4.36844 100.101 4.49983C99.9723 4.63001 99.8855 4.81352 99.8855 5.01271V18.6545C99.8855 18.8537 99.9723 19.0362 100.101 19.1653C100.232 19.2943 100.414 19.38 100.613 19.38C101.026 19.38 101.362 19.0551 101.362 18.6545V16.4035L103.215 14.553L106.991 19.1096C107.062 19.2142 107.159 19.2865 107.255 19.3243C107.364 19.3655 107.47 19.38 107.564 19.38C107.694 19.38 107.878 19.3523 108.04 19.2253L108.048 19.2199L108.058 19.2098C108.21 19.0607 108.295 18.8625 108.295 18.6601C108.295 18.4899 108.232 18.3162 108.115 18.1772V18.175L104.271 13.5015L108.076 9.8208H108.08ZM82.593 4.31733H82.4305C82.4093 4.31733 82.3882 4.31955 82.3661 4.32055C82.346 4.31955 82.3248 4.31733 82.3037 4.31733C81.8842 4.31733 81.4769 4.36502 81.0963 4.49198C80.7214 4.61653 80.3753 4.82237 80.1071 5.13525L80.1061 5.13404L80.1051 5.13525V5.13625C79.828 5.44451 79.6453 5.81272 79.5343 6.23123C79.423 6.65176 79.3771 7.12581 79.3729 7.66424V8.7071H78.2234C77.824 8.70932 77.5069 9.02864 77.5069 9.41476C77.5047 9.62281 77.5858 9.81416 77.7172 9.95218C77.8496 10.088 78.0308 10.1769 78.2322 10.188H79.3729V18.6724L79.3717 18.6923C79.3717 18.8915 79.4552 19.075 79.5898 19.2064C79.7232 19.3356 79.9103 19.4122 80.114 19.4122C80.5011 19.41 80.8192 19.0941 80.8204 18.6923V10.188H82.0566C82.2558 10.1769 82.4393 10.0934 82.5709 9.95883C82.7053 9.82422 82.7878 9.63508 82.7878 9.43025V9.40248C82.7832 9.02079 82.4639 8.7071 82.0645 8.7071H80.8204V7.66867C80.8282 7.20931 80.8761 6.86544 80.9449 6.61514C81.0117 6.36363 81.1031 6.20548 81.1854 6.10769C81.2655 6.02077 81.3701 5.94853 81.5403 5.89059C81.7118 5.83505 81.9488 5.79944 82.2693 5.79944H82.3071C82.326 5.79944 82.346 5.79602 82.3637 5.79602C82.3862 5.79602 82.4071 5.79944 82.4305 5.79944H82.524H82.593C83.0035 5.79944 83.3341 5.46785 83.3341 5.05839C83.3341 4.64893 83.0035 4.31733 82.593 4.31733ZM9.30701 14.5118C9.36596 14.3259 9.39051 14.1345 9.38608 13.9454C9.37924 13.8085 9.36153 13.6717 9.3227 13.5349C9.2058 13.1098 8.92873 12.7303 8.51364 12.491L2.60957 9.08176C1.77617 8.60207 0.713583 8.88719 0.235109 9.71939C-0.247792 10.5506 0.0371199 11.612 0.870526 12.0928L4.16975 14.0011L0.870526 15.9037C0.0371199 16.3856 -0.246786 17.447 0.235109 18.2816C0.713583 19.1116 1.77617 19.3955 2.60957 18.9158L8.51364 15.5043C8.91203 15.2752 9.18246 14.9156 9.30701 14.5118ZM10.9092 17.7064C10.57 17.6774 10.2173 17.7486 9.90017 17.9333L3.99168 21.3404C3.16048 21.8211 2.87658 22.8881 3.35626 23.7205C3.83815 24.5507 4.89973 24.8366 5.72972 24.3537L9.04 22.4442V26.2597C9.04 27.2211 9.81767 28 10.7803 28C11.7382 28 12.5183 27.2211 12.5183 26.2597V19.4388C12.5183 18.5231 11.8084 17.7708 10.9092 17.7064ZM16.9602 10.2934C17.2984 10.3212 17.6501 10.249 17.9672 10.0665L23.8745 6.65619C24.7069 6.1753 24.9894 5.11271 24.5109 4.2783C24.0315 3.44711 22.9689 3.1622 22.1375 3.64288L18.8296 5.55457V1.73784C18.8296 0.778879 18.0517 0 17.0894 0C16.1268 0 15.3511 0.778879 15.3511 1.73784V8.55881C15.3511 9.47351 16.059 10.2268 16.9602 10.2934ZM3.99168 6.65619L9.90017 10.0665C10.2173 10.249 10.57 10.3212 10.9092 10.2934C11.8084 10.2268 12.5183 9.47351 12.5183 8.55881V1.73784C12.5183 0.778879 11.7382 0 10.7803 0C9.81767 0 9.04 0.778879 9.04 1.73784V5.55457L5.72972 3.64288C4.89973 3.1622 3.83815 3.44711 3.35626 4.2783C2.87658 5.11271 3.16048 6.1753 3.99168 6.65619ZM15.0952 13.9866C15.0952 13.8876 15.0352 13.7496 14.9652 13.6762L14.2541 12.9685C14.1841 12.8985 14.0461 12.8405 13.9469 12.8405H13.9191C13.8201 12.8405 13.6823 12.8985 13.6133 12.9685L12.9022 13.6762C12.831 13.7496 12.7764 13.8876 12.7764 13.9866V14.0144C12.7764 14.1124 12.831 14.2492 12.9022 14.3204L13.6133 15.0303C13.6833 15.1003 13.8201 15.1583 13.9191 15.1583H13.9469C14.0461 15.1583 14.1841 15.1003 14.2541 15.0303L14.9652 14.3204C15.0352 14.2492 15.0952 14.1124 15.0952 14.0144V13.9866ZM17.0582 14.6675L14.6024 17.12C14.5322 17.1923 14.3966 17.2512 14.2942 17.2512H14.1161H13.7533H13.572C13.4728 17.2512 13.335 17.1923 13.2638 17.12L10.8092 14.6675C10.739 14.5985 10.6823 14.4595 10.6823 14.3617V14.1802V13.8174V13.6383C10.6823 13.5381 10.739 13.3991 10.8092 13.3291L13.2638 10.8765C13.335 10.8043 13.4728 10.7476 13.572 10.7476H13.7533H14.1161H14.2942C14.3944 10.7476 14.5322 10.8043 14.6024 10.8765L17.0582 13.3291C17.1282 13.3991 17.1849 13.5381 17.1849 13.6383V13.8174V14.1802V14.3617C17.1849 14.4595 17.1282 14.5985 17.0582 14.6675ZM23.8745 21.3404L17.9672 17.9333C17.6501 17.7486 17.2984 17.6774 16.9602 17.7064C16.059 17.7708 15.3511 18.5231 15.3511 19.4388V26.2597C15.3511 27.2211 16.1268 28 17.0894 28C18.0517 28 18.8296 27.2211 18.8296 26.2597V22.4442L22.1375 24.3537C22.9687 24.8366 24.0315 24.5507 24.5109 23.7205C24.9894 22.8881 24.7069 21.8211 23.8745 21.3404ZM26.9979 12.0928L23.6987 14.0011L26.9979 15.9037C27.8313 16.3856 28.1162 17.447 27.6343 18.2816C27.1536 19.1116 26.09 19.3955 25.2598 18.9158L19.3513 15.5043C18.9574 15.2752 18.6837 14.9156 18.5624 14.5118C18.5047 14.3259 18.4779 14.1345 18.4845 13.9454C18.488 13.8085 18.5079 13.6717 18.5457 13.5349C18.6638 13.1098 18.9409 12.7305 19.3513 12.491L25.2598 9.08176C26.09 8.60207 27.1536 8.88719 27.6343 9.71939C28.1162 10.5506 27.8313 11.612 26.9979 12.0928ZM122.811 8.68967C122.811 9.64616 122.171 10.4445 121.102 10.4445C120.04 10.4445 119.407 9.63863 119.407 8.68967C119.407 7.73318 120.04 6.93485 121.102 6.93485C122.171 6.93485 122.811 7.73318 122.811 8.68967ZM122.472 8.68967C122.472 7.87628 121.93 7.2587 121.102 7.2587C120.288 7.2587 119.746 7.84615 119.746 8.68967C119.746 9.49553 120.288 10.1206 121.102 10.1206C121.93 10.1206 122.472 9.50307 122.472 8.68967ZM120.431 7.89887H121.162C121.561 7.89887 121.825 8.11728 121.825 8.4562C121.825 8.66708 121.719 8.82524 121.561 8.92315L121.847 9.33737V9.42022H121.433L121.154 9.02106H120.83V9.42022H120.431V7.89887ZM121.154 8.26791H120.83V8.66708H121.154C121.305 8.66708 121.403 8.59929 121.403 8.47126C121.403 8.33569 121.312 8.26791 121.154 8.26791Z" fill="#29B5E8"/>
</svg>
