<svg width="184" height="23" viewBox="0 0 184 23" fill="none" xmlns="http://www.w3.org/2000/svg">
<g clip-path="url(#clip0_5416_228681)">
<path d="M181.426 7.86585L181.428 7.86311C181.428 7.86311 180.769 6.33965 179.808 5.45405C179.008 4.71901 173.038 3.84846 169.624 9.043C169.573 8.87601 168.105 5.41983 164.283 6.19867H157.899L155.224 10.843C155.404 8.92118 154.649 4.54928 149.931 4.36587C148.594 4.31385 147.277 4.91612 147.277 4.91612L149.235 1.50784L148.38 0.134949L131.818 1.50647L127.204 6.69006L128.055 8.06159H133.904L125.441 14.2266C125.523 14.0268 125.601 13.8214 125.676 13.6161C126.532 11.2687 126.469 9.2579 125.682 7.81247C125.682 7.81247 125.066 6.35471 124.104 5.46637C123.306 4.73407 117.922 5.8332 116.359 6.76261L116.688 6.18909H116.683L115.26 5.91533L114.606 5.05847L115.148 4.11401L114.294 2.74249L107.222 4.11401L106.048 6.16034H94.0314C94.0667 5.44987 93.8981 4.74413 93.5455 4.12633L93.5428 4.11264C93.5428 4.11264 92.8036 2.58644 92.1425 2.00745C91.4814 1.43256 88.878 1.43803 87.2286 1.43803C85.7051 1.43803 82.3708 1.73917 80.0288 4.11127L81.5235 1.51332L80.6721 0.140424L0.850016 1.51332L0 20.7475L0.851385 22.1218H85.4026L86.7167 19.8414C86.8467 20.0261 86.9863 20.2027 87.1218 20.3683C87.7296 21.2184 89.2434 22.594 92.7366 22.594C94.2532 22.594 97.8627 22.2436 99.9405 19.2624C100.206 19.8126 100.686 20.3916 101.019 20.7584C101.115 20.872 101.219 20.9774 101.33 21.087L101.382 21.1376H101.385C102.082 21.7882 103.005 22.143 103.959 22.1272H107.833L109.574 19.0885C109.944 20.0056 111.062 21.0705 111.121 21.1239C112.031 22.0615 113.36 22.4982 114.744 22.5735C116.421 22.6799 118.095 22.3148 119.576 21.5195L119.952 22.1272H137.399L138.788 19.7141C139.282 20.4669 140.006 21.165 140.006 21.165C140.671 21.9192 141.754 22.516 143.627 22.6515C145.265 22.7706 146.995 22.3777 148.431 21.644L148.729 22.13H163.339L165.269 18.7641C165.642 19.8359 166.966 21.1349 166.966 21.1349H166.969C167.732 21.9712 168.907 22.5611 170.551 22.6542C175.555 22.9348 178.755 19.1912 180.154 16.2524C182.159 12.0215 182.191 9.43995 181.427 7.86585M180.563 4.23583C181.35 4.23583 182.028 3.62261 182.028 2.78081C182.028 1.94996 181.35 1.33948 180.563 1.33948C179.761 1.33948 179.086 1.94996 179.086 2.78081C179.086 3.62261 179.761 4.23583 180.563 4.23583ZM179.386 2.78081C179.386 2.09505 179.893 1.57902 180.563 1.57902C181.211 1.57902 181.732 2.09505 181.732 2.78081C181.732 3.48026 181.212 3.98945 180.563 3.98945C179.893 3.98945 179.386 3.48026 179.386 2.78081ZM180.25 2.89305H180.543L180.985 3.62261H181.27L180.791 2.8821C181.037 2.85883 181.229 2.72195 181.229 2.42766C181.229 2.09505 181.031 1.94859 180.634 1.94859H180.005V3.62261H180.251L180.25 2.89305ZM180.25 2.685V2.16623H180.598C180.777 2.16623 180.962 2.20182 180.962 2.41261C180.962 2.6672 180.769 2.685 180.551 2.685H180.25Z" fill="#211E1E"/>
<path d="M0 0.140442V20.7489H68.8362L80.6721 0.140442H0Z" fill="white"/>
<path d="M120.464 4.06341C118.67 4.01276 117.089 4.45077 115.506 5.39113L115.835 4.81761H113.103L114.294 2.74253H106.371L105.198 4.78613H93.18C93.3005 1.92947 90.5136 0.0651855 86.3772 0.0651855C84.5225 0.0651855 79.9849 0.508672 77.8209 4.59723L68.5405 20.7475H84.5526L85.9214 18.3741C86.0596 18.7122 87.1656 21.2184 91.8852 21.2184C93.4346 21.2184 97.1824 20.8625 99.2314 17.691C99.3847 18.1948 100.336 20.7557 103.109 20.7557H106.979L109.103 17.0573C109.369 19.9331 111.557 21.0747 113.893 21.202C118.928 21.4798 122.751 17.9224 124.826 12.2419C126.543 7.53875 124.561 4.17291 120.465 4.06204" fill="white"/>
<path d="M176.419 4.10856C173.554 3.95799 170.868 5.26655 168.773 7.67151C168.723 7.50315 167.787 3.97852 163.433 4.82717H157.045L154.372 9.47009C154.554 7.54832 153.679 4.10719 149.211 4.10719C147.874 4.10719 146.936 4.2865 145.698 4.80801L148.38 0.133606H130.965L127.201 6.69146H133.053L123.002 14.009L119.101 20.753H136.546L138.188 17.8991C138.621 19.3664 139.47 21.0391 142.771 21.2772C144.754 21.421 146.882 20.8228 148.441 19.7716L147.877 20.753L162.486 20.7585L165.051 16.2784C164.781 18.6191 166.179 21.0829 169.695 21.2827C174.702 21.5633 177.904 17.8183 179.299 14.8768C183.706 5.59369 178.6 4.22354 176.419 4.10856Z" fill="white"/>
<path d="M49.008 1.23819L38.43 19.6483H45.8009L56.3857 1.23682L49.008 1.23819ZM39.1801 1.23819L28.5898 19.6483H37.5444L48.1251 1.23819H39.1801ZM57.4589 1.23819L46.8809 19.6483H52.4491L63.0353 1.23682L57.4589 1.23819ZM1.06079 1.23819V19.6483H27.8726L38.4478 1.23682L1.06079 1.23819ZM74.1786 1.23819L63.6006 19.6483H64.8941L75.4721 1.23682L74.1786 1.23819ZM78.0016 1.23819L67.4236 19.6483H68.0478L78.623 1.23682L78.0016 1.23819ZM71.8694 1.23819H69.6712L59.0905 19.6483H61.2832L65.0981 13.0316L71.8694 1.23819ZM64.3274 1.23819L53.7426 19.6483H57.2878L67.8808 1.23682L64.3274 1.23819Z" fill="#F58226"/>
<path d="M99.6886 5.91536L94.5556 15.0397C94.1382 15.7953 93.7015 16.0088 93.0363 15.8787C92.2054 15.7145 92.5531 15.0807 92.7926 14.6427L97.8517 5.91536H92.8214L87.1067 15.8664C86.087 17.7376 87.4243 19.6101 90.7381 20.0234C92.6188 20.2575 96.5691 20.0316 98.4279 16.8479L98.4389 16.841L104.694 5.91536H99.6886ZM108.939 9.85883H111.683L113.943 5.91536H111.206L112.398 3.84028H107.005L100.544 15.0944C99.9528 16.1717 100.008 17.3803 100.867 18.4699C101.482 19.2624 102.124 19.6593 103.284 19.6593H106.344L108.461 15.9664H106.155C105.977 15.9664 105.776 15.9937 105.7 15.8267C105.659 15.7227 105.64 15.6159 105.687 15.5201L108.939 9.85883ZM87.6789 1.24096C85.4847 0.965829 80.8254 1.24096 78.7804 5.12831L70.4363 19.6511H75.8745L78.2041 15.5954H80.8486L78.519 19.6498H83.9174L91.6032 6.31094C92.883 3.95799 91.6525 1.73509 87.6789 1.24096ZM85.5545 7.4087L83.3781 11.2016H80.7309L83.1153 7.04324C83.4274 6.49299 84.0352 6.00707 84.9933 6.09741C85.7927 6.17543 86.05 6.58333 85.5545 7.4087ZM120.568 5.16526C116.434 4.94626 112.557 8.21766 110.777 13.2575C109.501 16.8656 110.038 19.8961 113.949 20.1069C117.899 20.3191 121.679 17.8525 123.79 11.8764C125.066 8.26693 124.154 5.35553 120.568 5.16526ZM118.706 12.0913C117.477 14.4607 116.64 15.642 115.605 15.4394C114.852 15.2915 115.133 14.2239 115.873 12.7908C116.909 10.7937 118.022 9.33869 118.947 9.49747C119.812 9.64804 119.448 10.6609 118.706 12.0913ZM165.753 5.92631C163.334 5.33636 161.745 6.85708 161.745 6.85708L162.275 5.92357H157.681L149.772 19.6593H154.823L159.573 11.3878C159.904 10.7992 160.359 10.1285 161.036 10.2736C161.641 10.4009 161.82 10.9566 161.621 11.3275L156.839 19.6621H161.849L167.584 9.6453C168.378 8.19302 167.077 6.24797 165.753 5.92631ZM143.572 6.31094L146.487 1.23274H131.603L129.097 5.59369H136.421L123.835 14.7618L121.002 19.6566H135.912L138.403 15.323H131.406L143.572 6.31094ZM176.357 5.20222C172.227 4.98322 168.596 8.26419 166.817 13.3205C165.539 16.9382 165.828 19.9769 169.736 20.1849C173.027 20.3629 175.95 18.6752 178.138 14.6414H173.097C172.407 15.6994 171.759 16.351 171.131 16.2292C170.549 16.1142 170.744 15.0137 171.206 13.8557H178.537C178.821 13.2603 179.086 12.6197 179.33 11.9312C180.606 8.31347 179.943 5.39659 176.357 5.20222ZM174.312 11.8764H171.988C172.821 10.3954 173.678 9.41671 174.411 9.54948C175.183 9.69184 174.928 10.5898 174.312 11.8764Z" fill="#E32123"/>
<path d="M149.523 5.20223C145.39 4.98322 141.512 8.2642 139.73 13.3205C138.457 16.9382 138.995 19.9769 142.901 20.185C146.851 20.3971 150.632 17.9265 152.744 11.9312C154.021 8.31348 153.11 5.39659 149.523 5.20223ZM147.659 12.1488C146.433 14.525 145.592 15.7077 144.56 15.5064C143.805 15.3586 144.088 14.2882 144.83 12.851C145.866 10.8485 146.976 9.38797 147.903 9.54949C148.768 9.70006 148.401 10.7157 147.659 12.1488Z" fill="#E32123"/>
</g>
<defs>
<clipPath id="clip0_5416_228681">
<rect width="183.706" height="23" fill="white"/>
</clipPath>
</defs>
</svg>
