<svg width="191" height="24" viewBox="0 0 191 24" fill="none" xmlns="http://www.w3.org/2000/svg">
<path d="M99.0631 2.96731L98.6559 1.92002L99.0631 0.0872738L98.8595 0L93.2598 4.0146V4.10187L99.0631 2.96731Z" fill="black"/>
<path d="M13.5411 21.9927C13.0378 22.4352 12.4361 22.7868 11.7716 23.0266C11.1071 23.2665 10.3932 23.3897 9.67221 23.3891C5.19245 23.3891 4.07251 19.9854 4.07251 15.9708C4.07251 11.9562 5.09064 8.55255 9.5704 8.55255C10.2638 8.53811 10.9524 8.65589 11.5862 8.89738C12.2201 9.13887 12.7835 9.49803 13.2357 9.94893L15.781 13.2653H15.9846V8.29073H15.781L13.4393 9.33802C12.3582 8.55222 10.9878 8.11943 9.5704 8.11618C5.19245 8.11618 0 10.9962 0 16.0581C0 21.12 5.09064 24 9.67221 24C11.1678 23.991 12.611 23.5271 13.7447 22.6909L15.9846 23.8255H16.1882V18.589H15.9846L13.5411 21.9927Z" fill="black"/>
<path d="M30.2386 8.02917C25.9624 8.02917 20.8718 11.171 20.8718 15.9711C20.8718 20.7712 25.9624 23.913 30.2386 23.913C34.5147 23.913 39.6053 20.7712 39.6053 15.9711C39.6053 11.171 34.6165 8.02917 30.2386 8.02917ZM30.2386 23.3894C25.9624 23.3894 24.8425 20.1602 24.8425 15.9711C24.8425 11.7819 25.9624 8.55282 30.2386 8.55282C34.5147 8.55282 35.6346 11.7819 35.6346 15.9711C35.6346 20.1602 34.6165 23.3894 30.2386 23.3894Z" fill="black"/>
<path d="M55.7928 8.72751H58.0327V18.3276H57.9309L49.9895 8.29114H42.8626V8.72751H45.0006V23.215H42.8626V23.6513H47.9532V23.215H45.7133V8.72751L58.5417 23.9132H58.7454V8.72751H60.8834V8.29114H55.7928V8.72751Z" fill="black"/>
<path d="M72.7958 8.29117H64.7526V8.72754H67.0943V23.215H64.7526V23.6514H72.7958C76.7665 23.6514 83.3843 22.1677 83.3843 15.884C83.3843 9.60028 76.7665 8.29117 72.7958 8.29117ZM72.5921 23.215H70.6577V8.72754H72.5921C77.2755 8.72754 79.4136 11.6076 79.4136 15.9713C79.4136 20.335 77.2755 23.215 72.5921 23.215Z" fill="black"/>
<path d="M99.3695 23.215H92.6498V15.6221H96.0096C96.9686 16.4987 97.759 17.5003 98.3513 18.5894H98.555V12.2185H98.3513C97.759 13.3076 96.9686 14.3092 96.0096 15.1858H92.6498V8.72751H98.6568C100.388 9.68752 101.915 12.393 101.915 12.393H102.118V8.29114H86.7447V8.72751H89.0864V23.215H86.7447V23.6513H102.627V18.5022H102.424C101.688 20.1958 100.658 21.7846 99.3695 23.215Z" fill="black"/>
<path d="M126.858 8.72751H129.098V18.3276H128.997L121.055 8.29114H113.826V8.72751H116.066V23.215H113.826V23.6513H118.917V23.215H116.779V8.72751L129.607 23.9132H129.709V8.72751H131.949V8.29114H126.858V8.72751Z" fill="black"/>
<path d="M143.453 7.76788H143.25L135.614 23.1281H133.476V23.5644H138.261V23.1281H136.225L138.974 17.6298H144.777L147.729 23.1281H145.388V23.5644H153.736V23.1281H151.598L143.453 7.76788ZM139.279 17.2807L141.926 11.957L144.675 17.2807H139.279V17.2807Z" fill="black"/>
<path d="M166.362 14.6621L162.799 13.6148C161.068 13.0912 159.643 12.393 159.643 10.9093C159.643 9.42568 161.17 8.46567 163.511 8.46567C164.096 8.42382 164.683 8.49635 165.23 8.67778C165.777 8.85921 166.269 9.1448 166.668 9.51295L169.213 12.8294H169.417V7.94203H169.213L166.871 8.98931C165.941 8.29641 164.744 7.92334 163.511 7.94203C162.786 7.90668 162.06 7.99727 161.376 8.20838C160.693 8.41948 160.066 8.74674 159.533 9.17054C159.001 9.59433 158.574 10.1059 158.278 10.6747C157.982 11.2434 157.823 11.8575 157.81 12.4803C157.81 14.6621 159.643 15.7967 161.577 16.4076L165.141 17.5421C167.075 18.1531 168.297 18.8513 168.297 20.4222C168.297 21.9931 167.075 23.3022 164.021 23.3022C162.537 23.2403 161.113 22.7826 159.948 21.9931L157.301 18.2403H156.995V23.564H157.301L159.541 22.5168C160.775 23.3197 162.268 23.7768 163.817 23.8259C167.686 23.8259 170.231 21.4695 170.231 18.8513C170.231 16.233 168.602 15.273 166.362 14.6621Z" fill="black"/>
<path d="M174.405 8.29114V13.0912H174.608C175.479 11.5457 176.536 10.083 177.764 8.72751H180.921V23.215H178.07V23.6513H187.335V23.215H184.484V8.72751H187.64C188.868 10.083 189.926 11.5457 190.796 13.0912H191V8.37841H174.405V8.29114Z" fill="black"/>
</svg>
