<svg width="53" height="28" viewBox="0 0 53 28" fill="none" xmlns="http://www.w3.org/2000/svg">
<g clip-path="url(#clip0_4220_14148)">
<path fill-rule="evenodd" clip-rule="evenodd" d="M22.3404 14.4308C17.9473 23.1 13.2328 26.7615 8.62543 26.7615C3.48232 26.7615 0.64289 23.4231 0.64289 18.9538C0.64289 13.2462 6.0003 7.80768 11.6256 7.16152C12.4292 9.15384 14.84 10.9308 18.2152 11.3615C18.2688 11.7385 18.3223 12.0615 18.3223 12.4923C18.3223 17.1769 13.5543 20.7846 10.9827 21.9154L11.2505 22.4538C13.6614 21.5385 19.0188 17.7692 19.0188 12.5462C19.0188 12.1692 18.9652 11.8462 18.9652 11.4692C19.2866 11.4692 19.6081 11.5231 19.9296 11.5231C21.3225 11.5231 22.769 11.3615 24.2155 11.0385C23.6262 12.0615 22.9833 13.1923 22.3404 14.4308ZM12.6971 7.10768C15.6436 7.10768 17.4651 8.50768 18.108 10.6615C15.2151 10.2308 13.1792 8.83076 12.3756 7.16152C12.4827 7.10768 12.5899 7.10768 12.6971 7.10768ZM35.7339 0.646152C36.484 0.646152 36.9125 1.13077 36.9125 1.61538C36.9125 4.09231 32.573 7.43076 27.4835 9.3154C31.2337 3.01538 33.9124 0.646152 35.7339 0.646152ZM37.5554 1.61538C37.5554 0.86154 36.9125 0 35.5732 0C32.8409 0 29.0371 2.85385 24.6441 10.2308C23.0904 10.6077 21.5904 10.8231 20.1438 10.8231C19.6617 10.8231 19.2331 10.8231 18.8045 10.7692C18.2152 8.23848 16.1794 6.46152 12.6435 6.46152C12.4827 6.46152 12.322 6.46152 12.1613 6.46152C12.1077 6.19232 12.0541 5.92308 12.0541 5.65384C12.0541 3.01538 14.5186 1.13077 18.3759 1.13077C21.6439 1.13077 23.8405 2.8 24.4833 3.23077L24.8048 2.74615C24.1083 2.20769 21.8046 0.430769 18.3759 0.430769C13.9829 0.430769 11.3577 2.63846 11.3577 5.76152C11.3577 6.03076 11.4113 6.24616 11.4113 6.5154C5.6253 7.2154 0 12.8692 0 19.0615C0 24.3385 3.53589 27.5692 9.00043 27.5692C13.8221 27.5692 19.8224 24.0692 24.4833 14.8077C25.3405 13.0846 26.1441 11.5769 26.9477 10.2308C32.6802 8.29232 37.5554 4.46923 37.5554 1.61538Z" fill="black"/>
<path fill-rule="evenodd" clip-rule="evenodd" d="M40.3414 17.0154C41.1985 15.2923 42.645 13.623 44.0379 13.623C44.6273 13.623 44.9487 14 44.9487 14.4307C44.9487 15.8307 43.1272 16.8538 40.3414 17.0154ZM28.3407 22.0769C27.6979 22.0769 27.2693 21.7 27.2693 20.7307C27.2693 18.3076 30.4301 13.1384 32.6803 13.1384C33.4839 13.1384 33.8589 13.623 33.8589 14.2692C33.9125 16.8 30.5373 22.0769 28.3407 22.0769ZM52.556 12.7076C52.556 12.3846 52.3418 12.1154 51.9135 12.1154C51.324 12.1154 50.6274 12.7615 50.5739 13.6769C49.6631 14.6999 48.3239 16.2615 47.1988 17.7692C45.2701 20.3 44.4129 21.8615 43.2879 21.8615C43.02 21.8615 42.8057 21.7538 42.8057 21.323C42.8057 20.7846 43.1807 20.2461 43.1807 19.2769C43.1807 17.9307 42.1629 17.6076 41.2521 17.5538L41.3057 17.4461C43.7701 17.1769 46.5559 16.2615 46.5559 14C46.5559 13.3 46.1809 12.3846 44.788 12.3846C43.5022 12.3846 42.4307 13.623 41.895 14.1615L41.8414 14.1076C42.5915 12.6 46.0737 5.76152 46.0737 5.76152H43.9843C43.9843 5.76152 39.0556 15.4 37.8769 17.7692C36.859 19.7615 35.0375 21.9692 33.8053 21.9692C33.3767 21.9692 33.1624 21.7538 33.1624 21.323C33.1624 20.623 33.7517 19.5999 33.966 19.1692C34.4482 18.2538 37.234 12.7076 37.234 12.7076H35.1982C35.1982 12.7076 34.5553 13.9461 34.5018 14.0538L34.3946 14C34.3946 13.5692 34.3946 12.3307 32.3052 12.3307C29.1979 12.3307 25.3942 16.5846 25.3942 20.3C25.3942 21.9154 26.4121 22.8307 27.8586 22.8307C29.9479 22.8307 30.9659 21.1615 31.4481 20.5154L31.5552 20.5692C31.5016 20.6769 31.3945 21.1076 31.3945 21.4307C31.3945 22.1846 31.8767 22.7769 33.0553 22.7769C34.9304 22.7769 36.3233 20.9461 36.7519 20.4076L36.8054 20.4615L35.8411 22.4H37.609C37.609 22.4 39.6449 18.3615 40.0735 17.6076C40.9306 17.6076 41.52 18.0384 41.52 18.8461C41.52 19.5461 41.0914 20.1384 41.0914 21.2692C41.0914 22.2923 41.7343 22.7769 42.8057 22.7769C44.3594 22.7769 45.1094 21.5384 47.5739 18.2538C48.8596 16.5845 49.8773 15.2384 50.7345 14.2692C50.7881 14.8615 50.8956 15.6154 50.8956 16.7461C50.8956 17.9307 50.6274 19.2769 50.1455 20.4615C49.7167 21.4846 49.0739 22.1307 48.2703 22.1307C47.8417 22.1307 47.5739 21.9154 47.5739 21.5923C47.5739 21.2154 47.9489 21.1615 47.9489 20.6769C47.9489 20.4076 47.7881 20.0846 47.2524 20.0846C46.6631 20.0846 46.2881 20.623 46.2881 21.2692C46.2881 22.1307 47.0381 22.7769 48.5917 22.7769C51.0563 22.7769 52.3418 21.1615 52.3418 19.223C52.3418 17.0154 51.4846 15.8846 51.324 13.9461C52.0205 13.7846 52.556 13.3538 52.556 12.7076Z" fill="black"/>
</g>
<defs>
<clipPath id="clip0_4220_14148">
<rect width="52.5614" height="28" fill="white"/>
</clipPath>
</defs>
</svg>
