<svg width="167" height="51" viewBox="0 0 167 51" fill="none" xmlns="http://www.w3.org/2000/svg">
<g clip-path="url(#clip0_34_632)">
<path d="M40.6077 22.9731C32.6701 18.2593 19.5774 17.8259 12 20.1256C10.7831 20.4946 9.49643 19.8077 9.12773 18.591C8.75902 17.3736 9.44521 16.0877 10.6629 15.7178C19.3612 13.0773 33.8207 13.5874 42.9586 19.0118C44.0533 19.6613 44.4124 21.0748 43.7634 22.1677C43.1141 23.262 41.6995 23.6228 40.6077 22.9731ZM40.3477 29.955C39.7911 30.8587 38.6096 31.1418 37.7072 30.5873C31.0896 26.5195 20.9987 25.3412 13.1696 27.7176C12.1544 28.0244 11.082 27.452 10.7737 26.4386C10.4677 25.4233 11.0404 24.3529 12.0539 24.0441C20.9975 21.3303 32.1156 22.6448 39.7161 27.3156C40.6186 27.8714 40.9026 29.0535 40.3477 29.955ZM37.3346 36.6602C36.8924 37.3857 35.9473 37.6132 35.2245 37.171C29.4419 33.6369 22.1636 32.8385 13.5921 34.7965C12.766 34.986 11.9429 34.4681 11.7544 33.6424C11.5652 32.8164 12.0809 31.9934 12.9088 31.8049C22.2888 29.6606 30.3351 30.5835 36.8256 34.5496C37.5493 34.9915 37.7772 35.9369 37.3346 36.6602ZM26.0416 1.14301C12.4421 1.14301 1.41699 12.1675 1.41699 25.7671C1.41699 39.3678 12.4421 50.392 26.0416 50.392C39.6417 50.392 50.6662 39.3678 50.6662 25.7671C50.6662 12.1675 39.6417 1.14301 26.0416 1.14301Z" fill="#1ED760"/>
<path d="M68.4118 23.8756C64.1602 22.8616 63.403 22.15 63.403 20.6551C63.403 19.2422 64.7333 18.2918 66.711 18.2918C68.6282 18.2918 70.529 19.0137 72.5223 20.4999C72.5826 20.5448 72.6582 20.5628 72.7326 20.551C72.807 20.5398 72.8725 20.4993 72.9163 20.4375L74.9923 17.5111C75.0776 17.3909 75.0544 17.2244 74.9394 17.1324C72.5673 15.229 69.8962 14.3037 66.774 14.3037C62.1833 14.3037 58.9767 17.0583 58.9767 21.0003C58.9767 25.2274 61.7428 26.7239 66.5228 27.8792C70.5913 28.8164 71.2779 29.6014 71.2779 31.0051C71.2779 32.5602 69.8894 33.5271 67.6549 33.5271C65.1735 33.5271 63.1489 32.6912 60.8845 30.7301C60.8283 30.6819 60.7513 30.6596 60.6801 30.6636C60.6054 30.6698 60.5369 30.7045 60.4893 30.7618L58.1616 33.532C58.064 33.6471 58.0763 33.8187 58.1889 33.9181C60.8239 36.2703 64.064 37.5128 67.5608 37.5128C72.5076 37.5128 75.7042 34.8097 75.7042 30.6263C75.7042 27.0907 73.5918 25.1354 68.4118 23.8756Z" fill="#1ED760"/>
<path d="M90.4881 28.6143C90.4881 31.5998 88.6491 33.6831 86.0159 33.6831C83.4127 33.6831 81.4491 31.5052 81.4491 28.6143C81.4491 25.7239 83.4127 23.5456 86.0159 23.5456C88.6068 23.5456 90.4881 25.6768 90.4881 28.6143ZM86.8972 19.6826C84.753 19.6826 82.9943 20.5271 81.544 22.2576V20.3098C81.544 20.156 81.4194 20.0308 81.2656 20.0308H77.4588C77.305 20.0308 77.1807 20.156 77.1807 20.3098V41.9524C77.1807 42.1062 77.305 42.2314 77.4588 42.2314H81.2656C81.4194 42.2314 81.544 42.1062 81.544 41.9524V35.1211C82.9946 36.7489 84.7536 37.544 86.8972 37.544C90.8813 37.544 94.9144 34.477 94.9144 28.6143C94.9144 22.7503 90.8813 19.6826 86.8972 19.6826Z" fill="#1ED760"/>
<path d="M105.252 33.7141C102.523 33.7141 100.466 31.5214 100.466 28.6141C100.466 25.6946 102.452 23.576 105.189 23.576C107.936 23.576 110.007 25.7686 110.007 28.6778C110.007 31.597 108.007 33.7141 105.252 33.7141ZM105.252 19.6824C100.121 19.6824 96.1016 23.6333 96.1016 28.6778C96.1016 33.6676 100.094 37.5771 105.189 37.5771C110.338 37.5771 114.37 33.6395 114.37 28.6141C114.37 23.6056 110.366 19.6824 105.252 19.6824Z" fill="#1ED760"/>
<path d="M125.327 20.0307H121.137V15.7476C121.137 15.5938 121.013 15.4689 120.86 15.4689H117.053C116.899 15.4689 116.774 15.5938 116.774 15.7476V20.0307H114.943C114.79 20.0307 114.666 20.156 114.666 20.3098V23.5816C114.666 23.7353 114.79 23.8605 114.943 23.8605H116.774V32.3266C116.774 35.7479 118.477 37.4825 121.835 37.4825C123.2 37.4825 124.333 37.2005 125.401 36.5951C125.488 36.5466 125.542 36.4531 125.542 36.3536V33.238C125.542 33.1417 125.492 33.0512 125.41 33.0007C125.327 32.9486 125.224 32.946 125.139 32.988C124.405 33.357 123.696 33.5273 122.904 33.5273C121.683 33.5273 121.137 32.973 121.137 31.73V23.8605H125.327C125.481 23.8605 125.604 23.7353 125.604 23.5816V20.3098C125.604 20.156 125.481 20.0307 125.327 20.0307Z" fill="#1ED760"/>
<path d="M139.922 20.0476V19.5215C139.922 17.9739 140.516 17.2838 141.847 17.2838C142.64 17.2838 143.278 17.4414 143.992 17.6796C144.08 17.7072 144.171 17.6934 144.243 17.6408C144.316 17.5881 144.358 17.5038 144.358 17.4144V14.2063C144.358 14.0837 144.279 13.9752 144.161 13.9393C143.407 13.7149 142.442 13.4844 140.997 13.4844C137.48 13.4844 135.622 15.4645 135.622 19.2086V20.0143H133.793C133.64 20.0143 133.514 20.1393 133.514 20.2931V23.5816C133.514 23.7353 133.64 23.8605 133.793 23.8605H135.622V36.9192C135.622 37.073 135.746 37.1979 135.9 37.1979H139.706C139.86 37.1979 139.985 37.073 139.985 36.9192V23.8605H143.54L148.985 36.9157C148.367 38.2874 147.759 38.5603 146.929 38.5603C146.258 38.5603 145.552 38.36 144.83 37.9649C144.762 37.9274 144.682 37.9213 144.608 37.944C144.535 37.9698 144.474 38.0237 144.443 38.0946L143.153 40.9253C143.092 41.059 143.144 41.2162 143.273 41.2855C144.62 42.015 145.836 42.3264 147.339 42.3264C150.15 42.3264 151.704 41.0168 153.073 37.4941L159.678 20.4275C159.711 20.3416 159.701 20.2449 159.649 20.1684C159.596 20.0931 159.512 20.0476 159.42 20.0476H155.456C155.338 20.0476 155.232 20.1228 155.193 20.2343L151.133 31.831L146.686 20.2266C146.645 20.1187 146.541 20.0476 146.426 20.0476H139.922Z" fill="#1ED760"/>
<path d="M131.461 20.0306H127.654C127.5 20.0306 127.375 20.1559 127.375 20.3097V36.919C127.375 37.0728 127.5 37.1978 127.654 37.1978H131.461C131.614 37.1978 131.74 37.0728 131.74 36.919V20.3097C131.74 20.1559 131.614 20.0306 131.461 20.0306Z" fill="#1ED760"/>
<path d="M129.577 12.468C128.069 12.468 126.845 13.6892 126.845 15.197C126.845 16.7061 128.069 17.9285 129.577 17.9285C131.084 17.9285 132.307 16.7061 132.307 15.197C132.307 13.6892 131.084 12.468 129.577 12.468Z" fill="#1ED760"/>
<path d="M163.084 21.6831H162.386V22.5726H163.084C163.432 22.5726 163.64 22.4022 163.64 22.1276C163.64 21.8382 163.432 21.6831 163.084 21.6831ZM163.536 22.952L164.294 24.0131H163.655L162.973 23.0398H162.386V24.0131H161.852V21.2006H163.106C163.759 21.2006 164.189 21.535 164.189 22.0977C164.189 22.5587 163.922 22.8404 163.536 22.952ZM162.942 20.265C161.57 20.265 160.531 21.3556 160.531 22.6917C160.531 24.0269 161.563 25.1031 162.928 25.1031C164.3 25.1031 165.34 24.0131 165.34 22.6764C165.34 21.3412 164.308 20.265 162.942 20.265ZM162.928 25.3711C161.421 25.3711 160.249 24.161 160.249 22.6917C160.249 21.2221 161.437 19.9983 162.942 19.9983C164.449 19.9983 165.621 21.2083 165.621 22.6764C165.621 24.146 164.435 25.3711 162.928 25.3711Z" fill="#1ED760"/>
</g>
<defs>
<clipPath id="clip0_34_632">
<rect width="166.705" height="50" fill="white" transform="translate(0.166992 0.767334)"/>
</clipPath>
</defs>
</svg>
