<svg width="210" height="138" viewBox="0 0 210 138" fill="none" xmlns="http://www.w3.org/2000/svg">
<g clip-path="url(#clip0_2939_35134)">
<path d="M53.9774 88.9998L36.1276 99.5171C34.7234 100.344 34.7232 102.376 36.1274 103.203L93.4648 136.998C94.8107 137.791 96.482 137.788 97.8246 136.989L118.647 124.603L53.9774 88.9998Z" fill="#1E0C09"/>
<path d="M50.2805 84.3273V89.7532C50.2805 90.6267 50.7017 91.5132 51.557 92.0086L110.226 126.595C111.005 127.051 111.86 127.286 112.728 127.299C112.753 127.299 112.779 127.273 112.779 127.247V75.491" fill="#001525"/>
<path d="M50.2805 84.3273V89.7532C50.2805 90.6267 50.7017 91.5132 51.557 92.0086L110.226 126.595C111.005 127.051 111.86 127.286 112.728 127.299C112.753 127.299 112.779 127.273 112.779 127.247V75.491" stroke="#001525" stroke-width="0.545302"/>
<path d="M175.303 84.4677V89.7399C175.303 90.6138 174.882 91.5006 174.026 91.9962L115.333 126.597C114.554 127.054 113.698 127.289 112.83 127.302C112.804 127.302 112.779 127.276 112.779 127.249V75.4717" fill="#85B4FF"/>
<path d="M175.303 84.4677V89.7399C175.303 90.6138 174.882 91.5006 174.026 91.9962L115.333 126.597C114.554 127.054 113.698 127.289 112.83 127.302C112.804 127.302 112.779 127.276 112.779 127.249V75.4717" stroke="#001525" stroke-width="0.545302"/>
<path d="M51.5251 86.8012C49.8266 85.7969 49.8266 83.2926 51.5251 82.2883L110.222 47.6855C111.805 46.7595 113.746 46.7595 115.33 47.6855L174.026 82.2883C175.725 83.2926 175.725 85.7969 174.026 86.8012L115.33 121.404C113.746 122.33 111.805 122.33 110.222 121.404L51.5251 86.8012Z" fill="#CCDDFF" stroke="#001525" stroke-width="0.545302"/>
<path d="M75.5678 44.1951V55.8378C75.5678 57.6918 74.9213 59.489 73.7536 60.9026L70.737 64.5396C69.5623 65.9532 68.9228 67.7504 68.9228 69.6044V79.8193" stroke="#306BEA" stroke-width="0.545302" stroke-miterlimit="10"/>
<path d="M95.8113 24.4751V63.8784" stroke="#306BEA" stroke-width="0.545302" stroke-miterlimit="10"/>
<path d="M89.1163 43.812V83.3716" stroke="#306BEA" stroke-width="0.545302" stroke-miterlimit="10"/>
<path d="M129.487 44.1619V83.7215" stroke="#306BEA" stroke-width="0.545302" stroke-miterlimit="10"/>
<path d="M109.261 55.6228V64.9924C109.261 67.4431 108.309 69.7873 106.613 71.5205L98.4595 79.8317C96.7636 81.5578 95.8113 83.9091 95.8113 86.3598V95.5731" stroke="#306BEA" stroke-width="0.545302" stroke-miterlimit="10"/>
<path d="M122.719 87.5614V78.1207C122.719 75.4569 121.871 72.8712 120.307 70.7473L118.402 68.1545C116.838 66.0305 115.99 63.4377 115.99 60.781V51.6885" stroke="#306BEA" stroke-width="0.545302" stroke-miterlimit="10"/>
<path d="M149.636 48.7615V57.8327C149.636 59.8359 150.297 61.7823 151.52 63.3521L154.495 67.1881C155.711 68.7579 156.379 70.7043 156.379 72.7075V83.6967" stroke="#306BEA" stroke-width="0.545302" stroke-miterlimit="10"/>
<path d="M136.201 95.4323V87.2277C136.201 84.6989 135.526 82.2268 134.247 80.0603L124.669 63.8429C123.39 61.6834 122.716 59.2043 122.716 56.6754V47.9949" stroke="#306BEA" stroke-width="0.545302" stroke-miterlimit="10"/>
<path d="M102.538 51.6821V91.2418" stroke="#306BEA" stroke-width="0.545302" stroke-miterlimit="10"/>
<path d="M62.219 84.3554C62.6758 84.3554 63.0461 83.977 63.0461 83.5101C63.0461 83.0433 62.6758 82.6648 62.219 82.6648C61.7622 82.6648 61.3918 83.0433 61.3918 83.5101C61.3918 83.977 61.7622 84.3554 62.219 84.3554Z" fill="#85B4FF"/>
<path d="M68.9192 88.289C69.376 88.289 69.7463 87.9106 69.7463 87.4437C69.7463 86.9769 69.376 86.5984 68.9192 86.5984C68.4624 86.5984 68.092 86.9769 68.092 87.4437C68.092 87.9106 68.4624 88.289 68.9192 88.289Z" fill="#85B4FF"/>
<path d="M75.5657 92.2324C76.0225 92.2324 76.3928 91.8539 76.3928 91.3871C76.3928 90.9202 76.0225 90.5417 75.5657 90.5417C75.1089 90.5417 74.7385 90.9202 74.7385 91.3871C74.7385 91.8539 75.1089 92.2324 75.5657 92.2324Z" fill="#85B4FF"/>
<path d="M82.3367 96.1667C82.7935 96.1667 83.1639 95.7883 83.1639 95.3214C83.1639 94.8545 82.7935 94.4761 82.3367 94.4761C81.8799 94.4761 81.5096 94.8545 81.5096 95.3214C81.5096 95.7883 81.8799 96.1667 82.3367 96.1667Z" fill="#85B4FF"/>
<path d="M89.1079 100.103C89.5647 100.103 89.935 99.724 89.935 99.2572C89.935 98.7903 89.5647 98.4119 89.1079 98.4119C88.6511 98.4119 88.2808 98.7903 88.2808 99.2572C88.2808 99.724 88.6511 100.103 89.1079 100.103Z" fill="#85B4FF"/>
<path d="M95.8093 104.038C96.2661 104.038 96.6364 103.66 96.6364 103.193C96.6364 102.726 96.2661 102.347 95.8093 102.347C95.3525 102.347 94.9822 102.726 94.9822 103.193C94.9822 103.66 95.3525 104.038 95.8093 104.038Z" fill="#85B4FF"/>
<path d="M102.535 107.974C102.992 107.974 103.362 107.595 103.362 107.128C103.362 106.661 102.992 106.283 102.535 106.283C102.078 106.283 101.708 106.661 101.708 107.128C101.708 107.595 102.078 107.974 102.535 107.974Z" fill="#85B4FF"/>
<path d="M109.261 111.91C109.718 111.91 110.088 111.532 110.088 111.065C110.088 110.598 109.718 110.22 109.261 110.22C108.804 110.22 108.434 110.598 108.434 111.065C108.434 111.532 108.804 111.91 109.261 111.91Z" fill="#85B4FF"/>
<path d="M68.9192 80.6584C69.376 80.6584 69.7463 80.28 69.7463 79.8131C69.7463 79.3462 69.376 78.9678 68.9192 78.9678C68.4623 78.9678 68.092 79.3462 68.092 79.8131C68.092 80.28 68.4623 80.6584 68.9192 80.6584Z" fill="#85B4FF"/>
<path d="M75.5656 84.5964C76.0225 84.5964 76.3928 84.2179 76.3928 83.7511C76.3928 83.2842 76.0225 82.9058 75.5656 82.9058C75.1088 82.9058 74.7385 83.2842 74.7385 83.7511C74.7385 84.2179 75.1088 84.5964 75.5656 84.5964Z" fill="#85B4FF"/>
<path d="M82.3367 88.5312C82.7935 88.5312 83.1639 88.1528 83.1639 87.6859C83.1639 87.219 82.7935 86.8406 82.3367 86.8406C81.8799 86.8406 81.5096 87.219 81.5096 87.6859C81.5096 88.1528 81.8799 88.5312 82.3367 88.5312Z" fill="#85B4FF"/>
<path d="M89.1078 92.4729C89.5646 92.4729 89.935 92.0944 89.935 91.6275C89.935 91.1607 89.5646 90.7822 89.1078 90.7822C88.651 90.7822 88.2807 91.1607 88.2807 91.6275C88.2807 92.0944 88.651 92.4729 89.1078 92.4729Z" fill="#85B4FF"/>
<path d="M95.8094 96.4092C96.2662 96.4092 96.6365 96.0307 96.6365 95.5638C96.6365 95.097 96.2662 94.7185 95.8094 94.7185C95.3525 94.7185 94.9822 95.097 94.9822 95.5638C94.9822 96.0307 95.3525 96.4092 95.8094 96.4092Z" fill="#85B4FF"/>
<path d="M102.535 100.344C102.992 100.344 103.362 99.966 103.362 99.4991C103.362 99.0323 102.992 98.6538 102.535 98.6538C102.078 98.6538 101.708 99.0323 101.708 99.4991C101.708 99.966 102.078 100.344 102.535 100.344Z" fill="#85B4FF"/>
<path d="M109.261 104.279C109.718 104.279 110.088 103.901 110.088 103.434C110.088 102.967 109.718 102.589 109.261 102.589C108.804 102.589 108.434 102.967 108.434 103.434C108.434 103.901 108.804 104.279 109.261 104.279Z" fill="#85B4FF"/>
<path d="M115.983 108.216C116.44 108.216 116.81 107.837 116.81 107.37C116.81 106.904 116.44 106.525 115.983 106.525C115.526 106.525 115.156 106.904 115.156 107.37C115.156 107.837 115.526 108.216 115.983 108.216Z" fill="#85B4FF"/>
<path d="M75.5657 76.3418C76.0225 76.3418 76.3928 75.9633 76.3928 75.4964C76.3928 75.0296 76.0225 74.6511 75.5657 74.6511C75.1089 74.6511 74.7385 75.0296 74.7385 75.4964C74.7385 75.9633 75.1089 76.3418 75.5657 76.3418Z" fill="#85B4FF"/>
<path d="M95.8093 88.1455C96.2661 88.1455 96.6364 87.767 96.6364 87.3002C96.6364 86.8333 96.2661 86.4548 95.8093 86.4548C95.3525 86.4548 94.9822 86.8333 94.9822 87.3002C94.9822 87.767 95.3525 88.1455 95.8093 88.1455Z" fill="#85B4FF"/>
<path d="M82.3367 80.2751C82.7935 80.2751 83.1639 79.8967 83.1639 79.4298C83.1639 78.9629 82.7935 78.5845 82.3367 78.5845C81.8799 78.5845 81.5096 78.9629 81.5096 79.4298C81.5096 79.8967 81.8799 80.2751 82.3367 80.2751Z" fill="#85B4FF"/>
<path d="M89.1079 84.2119C89.5647 84.2119 89.935 83.8334 89.935 83.3666C89.935 82.8997 89.5647 82.5212 89.1079 82.5212C88.6511 82.5212 88.2808 82.8997 88.2808 83.3666C88.2808 83.8334 88.6511 84.2119 89.1079 84.2119Z" fill="#85B4FF"/>
<path d="M102.535 92.083C102.992 92.083 103.362 91.7045 103.362 91.2377C103.362 90.7708 102.992 90.3923 102.535 90.3923C102.078 90.3923 101.708 90.7708 101.708 91.2377C101.708 91.7045 102.078 92.083 102.535 92.083Z" fill="#85B4FF"/>
<path d="M109.261 96.0188C109.718 96.0188 110.088 95.6403 110.088 95.1734C110.088 94.7066 109.718 94.3281 109.261 94.3281C108.804 94.3281 108.434 94.7066 108.434 95.1734C108.434 95.6403 108.804 96.0188 109.261 96.0188Z" fill="#85B4FF"/>
<path d="M115.983 99.9609C116.439 99.9609 116.81 99.5824 116.81 99.1156C116.81 98.6487 116.439 98.2703 115.983 98.2703C115.526 98.2703 115.156 98.6487 115.156 99.1156C115.156 99.5824 115.526 99.9609 115.983 99.9609Z" fill="#85B4FF"/>
<path d="M122.714 103.895C123.171 103.895 123.541 103.516 123.541 103.049C123.541 102.582 123.171 102.204 122.714 102.204C122.257 102.204 121.887 102.582 121.887 103.049C121.887 103.516 122.257 103.895 122.714 103.895Z" fill="#85B4FF"/>
<path d="M82.3367 72.4052C82.7935 72.4052 83.1638 72.0268 83.1638 71.5599C83.1638 71.0931 82.7935 70.7146 82.3367 70.7146C81.8798 70.7146 81.5095 71.0931 81.5095 71.5599C81.5095 72.0268 81.8798 72.4052 82.3367 72.4052Z" fill="#85B4FF"/>
<path d="M89.1079 76.3418C89.5647 76.3418 89.935 75.9633 89.935 75.4964C89.935 75.0296 89.5647 74.6511 89.1079 74.6511C88.6511 74.6511 88.2808 75.0296 88.2808 75.4964C88.2808 75.9633 88.6511 76.3418 89.1079 76.3418Z" fill="#85B4FF"/>
<path d="M95.8094 80.2751C96.2662 80.2751 96.6365 79.8967 96.6365 79.4298C96.6365 78.9629 96.2662 78.5845 95.8094 78.5845C95.3525 78.5845 94.9822 78.9629 94.9822 79.4298C94.9822 79.8967 95.3525 80.2751 95.8094 80.2751Z" fill="#85B4FF"/>
<path d="M102.535 84.2119C102.992 84.2119 103.362 83.8334 103.362 83.3666C103.362 82.8997 102.992 82.5212 102.535 82.5212C102.078 82.5212 101.708 82.8997 101.708 83.3666C101.708 83.8334 102.078 84.2119 102.535 84.2119Z" fill="#85B4FF"/>
<path d="M109.261 88.1455C109.718 88.1455 110.088 87.767 110.088 87.3002C110.088 86.8333 109.718 86.4548 109.261 86.4548C108.804 86.4548 108.434 86.8333 108.434 87.3002C108.434 87.767 108.804 88.1455 109.261 88.1455Z" fill="#85B4FF"/>
<path d="M115.983 92.083C116.439 92.083 116.81 91.7045 116.81 91.2377C116.81 90.7708 116.439 90.3923 115.983 90.3923C115.526 90.3923 115.156 90.7708 115.156 91.2377C115.156 91.7045 115.526 92.083 115.983 92.083Z" fill="#85B4FF"/>
<path d="M122.714 96.0188C123.171 96.0188 123.541 95.6403 123.541 95.1734C123.541 94.7066 123.171 94.3281 122.714 94.3281C122.257 94.3281 121.887 94.7066 121.887 95.1734C121.887 95.6403 122.257 96.0188 122.714 96.0188Z" fill="#85B4FF"/>
<path d="M129.48 99.9609C129.937 99.9609 130.307 99.5824 130.307 99.1156C130.307 98.6487 129.937 98.2703 129.48 98.2703C129.023 98.2703 128.653 98.6487 128.653 99.1156C128.653 99.5824 129.023 99.9609 129.48 99.9609Z" fill="#85B4FF"/>
<path d="M89.1079 68.7187C89.5647 68.7187 89.935 68.3403 89.935 67.8734C89.935 67.4065 89.5647 67.0281 89.1079 67.0281C88.6511 67.0281 88.2808 67.4065 88.2808 67.8734C88.2808 68.3403 88.6511 68.7187 89.1079 68.7187Z" fill="#85B4FF"/>
<path d="M95.8094 72.664C96.2662 72.664 96.6365 72.2856 96.6365 71.8187C96.6365 71.3519 96.2662 70.9734 95.8094 70.9734C95.3525 70.9734 94.9822 71.3519 94.9822 71.8187C94.9822 72.2856 95.3525 72.664 95.8094 72.664Z" fill="#85B4FF"/>
<path d="M102.535 76.5986C102.992 76.5986 103.362 76.2201 103.362 75.7533C103.362 75.2864 102.992 74.908 102.535 74.908C102.078 74.908 101.708 75.2864 101.708 75.7533C101.708 76.2201 102.078 76.5986 102.535 76.5986Z" fill="#85B4FF"/>
<path d="M109.261 80.5322C109.718 80.5322 110.088 80.1537 110.088 79.6869C110.088 79.22 109.718 78.8416 109.261 78.8416C108.804 78.8416 108.434 79.22 108.434 79.6869C108.434 80.1537 108.804 80.5322 109.261 80.5322Z" fill="#85B4FF"/>
<path d="M115.983 84.4658C116.439 84.4658 116.81 84.0873 116.81 83.6205C116.81 83.1536 116.439 82.7751 115.983 82.7751C115.526 82.7751 115.156 83.1536 115.156 83.6205C115.156 84.0873 115.526 84.4658 115.983 84.4658Z" fill="#85B4FF"/>
<path d="M122.714 88.4035C123.171 88.4035 123.541 88.0251 123.541 87.5582C123.541 87.0914 123.171 86.7129 122.714 86.7129C122.257 86.7129 121.887 87.0914 121.887 87.5582C121.887 88.0251 122.257 88.4035 122.714 88.4035Z" fill="#85B4FF"/>
<path d="M129.48 92.3371C129.937 92.3371 130.307 91.9587 130.307 91.4918C130.307 91.0249 129.937 90.6465 129.48 90.6465C129.023 90.6465 128.653 91.0249 128.653 91.4918C128.653 91.9587 129.023 92.3371 129.48 92.3371Z" fill="#85B4FF"/>
<path d="M136.196 96.2754C136.653 96.2754 137.023 95.8969 137.023 95.43C137.023 94.9632 136.653 94.5847 136.196 94.5847C135.739 94.5847 135.369 94.9632 135.369 95.43C135.369 95.8969 135.739 96.2754 136.196 96.2754Z" fill="#85B4FF"/>
<path d="M95.8094 64.8769C96.2662 64.8769 96.6365 64.4985 96.6365 64.0316C96.6365 63.5647 96.2662 63.1863 95.8094 63.1863C95.3525 63.1863 94.9822 63.5647 94.9822 64.0316C94.9822 64.4985 95.3525 64.8769 95.8094 64.8769Z" fill="#85B4FF"/>
<path d="M102.535 68.8117C102.992 68.8117 103.362 68.4333 103.362 67.9664C103.362 67.4996 102.992 67.1211 102.535 67.1211C102.078 67.1211 101.708 67.4996 101.708 67.9664C101.708 68.4333 102.078 68.8117 102.535 68.8117Z" fill="#85B4FF"/>
<path d="M109.261 72.7461C109.718 72.7461 110.088 72.3676 110.088 71.9007C110.088 71.4339 109.718 71.0554 109.261 71.0554C108.804 71.0554 108.434 71.4339 108.434 71.9007C108.434 72.3676 108.804 72.7461 109.261 72.7461Z" fill="#85B4FF"/>
<path d="M115.983 76.6855C116.439 76.6855 116.81 76.3071 116.81 75.8402C116.81 75.3733 116.439 74.9949 115.983 74.9949C115.526 74.9949 115.156 75.3733 115.156 75.8402C115.156 76.3071 115.526 76.6855 115.983 76.6855Z" fill="#85B4FF"/>
<path d="M122.714 80.624C123.171 80.624 123.541 80.2455 123.541 79.7787C123.541 79.3118 123.171 78.9333 122.714 78.9333C122.257 78.9333 121.887 79.3118 121.887 79.7787C121.887 80.2455 122.257 80.624 122.714 80.624Z" fill="#85B4FF"/>
<path d="M129.48 84.5598C129.937 84.5598 130.307 84.1813 130.307 83.7145C130.307 83.2476 129.937 82.8691 129.48 82.8691C129.023 82.8691 128.653 83.2476 128.653 83.7145C128.653 84.1813 129.023 84.5598 129.48 84.5598Z" fill="#85B4FF"/>
<path d="M136.196 88.4941C136.653 88.4941 137.023 88.1156 137.023 87.6488C137.023 87.1819 136.653 86.8035 136.196 86.8035C135.739 86.8035 135.369 87.1819 135.369 87.6488C135.369 88.1156 135.739 88.4941 136.196 88.4941Z" fill="#85B4FF"/>
<path d="M142.857 92.4316C143.314 92.4316 143.684 92.0531 143.684 91.5863C143.684 91.1194 143.314 90.741 142.857 90.741C142.4 90.741 142.03 91.1194 142.03 91.5863C142.03 92.0531 142.4 92.4316 142.857 92.4316Z" fill="#85B4FF"/>
<path d="M102.535 60.7646C102.992 60.7646 103.362 60.3862 103.362 59.9193C103.362 59.4524 102.992 59.074 102.535 59.074C102.078 59.074 101.708 59.4524 101.708 59.9193C101.708 60.3862 102.078 60.7646 102.535 60.7646Z" fill="#85B4FF"/>
<path d="M109.261 64.6992C109.718 64.6992 110.088 64.3207 110.088 63.8539C110.088 63.387 109.718 63.0085 109.261 63.0085C108.804 63.0085 108.434 63.387 108.434 63.8539C108.434 64.3207 108.804 64.6992 109.261 64.6992Z" fill="#85B4FF"/>
<path d="M115.983 68.6406C116.439 68.6406 116.81 68.2621 116.81 67.7953C116.81 67.3284 116.439 66.95 115.983 66.95C115.526 66.95 115.156 67.3284 115.156 67.7953C115.156 68.2621 115.526 68.6406 115.983 68.6406Z" fill="#85B4FF"/>
<path d="M122.714 72.5771C123.171 72.5771 123.541 72.1987 123.541 71.7318C123.541 71.2649 123.171 70.8865 122.714 70.8865C122.257 70.8865 121.887 71.2649 121.887 71.7318C121.887 72.1987 122.257 72.5771 122.714 72.5771Z" fill="#85B4FF"/>
<path d="M129.48 76.5127C129.937 76.5127 130.307 76.1342 130.307 75.6673C130.307 75.2005 129.937 74.822 129.48 74.822C129.023 74.822 128.653 75.2005 128.653 75.6673C128.653 76.1342 129.023 76.5127 129.48 76.5127Z" fill="#85B4FF"/>
<path d="M136.196 80.4463C136.653 80.4463 137.023 80.0678 137.023 79.6009C137.023 79.1341 136.653 78.7556 136.196 78.7556C135.739 78.7556 135.369 79.1341 135.369 79.6009C135.369 80.0678 135.739 80.4463 136.196 80.4463Z" fill="#85B4FF"/>
<path d="M142.857 84.3808C143.314 84.3808 143.684 84.0024 143.684 83.5355C143.684 83.0687 143.314 82.6902 142.857 82.6902C142.4 82.6902 142.03 83.0687 142.03 83.5355C142.03 84.0024 142.4 84.3808 142.857 84.3808Z" fill="#85B4FF"/>
<path d="M149.633 88.3176C150.09 88.3176 150.46 87.9391 150.46 87.4723C150.46 87.0054 150.09 86.627 149.633 86.627C149.176 86.627 148.806 87.0054 148.806 87.4723C148.806 87.9391 149.176 88.3176 149.633 88.3176Z" fill="#85B4FF"/>
<path d="M109.261 56.9909C109.718 56.9909 110.088 56.6125 110.088 56.1456C110.088 55.6788 109.718 55.3003 109.261 55.3003C108.804 55.3003 108.434 55.6788 108.434 56.1456C108.434 56.6125 108.804 56.9909 109.261 56.9909Z" fill="#85B4FF"/>
<path d="M115.983 60.9338C116.44 60.9338 116.81 60.5553 116.81 60.0885C116.81 59.6216 116.44 59.2432 115.983 59.2432C115.526 59.2432 115.156 59.6216 115.156 60.0885C115.156 60.5553 115.526 60.9338 115.983 60.9338Z" fill="#85B4FF"/>
<path d="M122.714 64.8701C123.171 64.8701 123.541 64.4916 123.541 64.0248C123.541 63.5579 123.171 63.1794 122.714 63.1794C122.257 63.1794 121.887 63.5579 121.887 64.0248C121.887 64.4916 122.257 64.8701 122.714 64.8701Z" fill="#85B4FF"/>
<path d="M129.48 68.8054C129.937 68.8054 130.307 68.4269 130.307 67.9601C130.307 67.4932 129.937 67.1147 129.48 67.1147C129.023 67.1147 128.653 67.4932 128.653 67.9601C128.653 68.4269 129.023 68.8054 129.48 68.8054Z" fill="#85B4FF"/>
<path d="M136.196 72.7402C136.653 72.7402 137.023 72.3617 137.023 71.8949C137.023 71.428 136.653 71.0496 136.196 71.0496C135.739 71.0496 135.369 71.428 135.369 71.8949C135.369 72.3617 135.739 72.7402 136.196 72.7402Z" fill="#85B4FF"/>
<path d="M142.857 76.6755C143.314 76.6755 143.684 76.297 143.684 75.8302C143.684 75.3633 143.314 74.9849 142.857 74.9849C142.4 74.9849 142.03 75.3633 142.03 75.8302C142.03 76.297 142.4 76.6755 142.857 76.6755Z" fill="#85B4FF"/>
<path d="M149.633 80.6103C150.09 80.6103 150.46 80.2319 150.46 79.765C150.46 79.2981 150.09 78.9197 149.633 78.9197C149.176 78.9197 148.806 79.2981 148.806 79.765C148.806 80.2319 149.176 80.6103 149.633 80.6103Z" fill="#85B4FF"/>
<path d="M156.369 84.5451C156.826 84.5451 157.197 84.1667 157.197 83.6998C157.197 83.233 156.826 82.8545 156.369 82.8545C155.913 82.8545 155.542 83.233 155.542 83.6998C155.542 84.1667 155.913 84.5451 156.369 84.5451Z" fill="#85B4FF"/>
<g opacity="0.55">
<path d="M62.219 45.1963C62.6758 45.1963 63.0461 44.8178 63.0461 44.3509C63.0461 43.8841 62.6758 43.5056 62.219 43.5056C61.7622 43.5056 61.3918 43.8841 61.3918 44.3509C61.3918 44.8178 61.7622 45.1963 62.219 45.1963Z" fill="#85B4FF"/>
<path d="M68.9192 49.1308C69.376 49.1308 69.7463 48.7524 69.7463 48.2855C69.7463 47.8186 69.376 47.4402 68.9192 47.4402C68.4624 47.4402 68.092 47.8186 68.092 48.2855C68.092 48.7524 68.4624 49.1308 68.9192 49.1308Z" fill="#85B4FF"/>
<path d="M75.5657 53.0742C76.0225 53.0742 76.3928 52.6957 76.3928 52.2289C76.3928 51.762 76.0225 51.3835 75.5657 51.3835C75.1089 51.3835 74.7385 51.762 74.7385 52.2289C74.7385 52.6957 75.1089 53.0742 75.5657 53.0742Z" fill="#85B4FF"/>
<path d="M82.3367 57.0085C82.7935 57.0085 83.1639 56.63 83.1639 56.1632C83.1639 55.6963 82.7935 55.3179 82.3367 55.3179C81.8799 55.3179 81.5096 55.6963 81.5096 56.1632C81.5096 56.63 81.8799 57.0085 82.3367 57.0085Z" fill="#85B4FF"/>
<path d="M89.1079 60.9443C89.5647 60.9443 89.935 60.5658 89.935 60.099C89.935 59.6321 89.5647 59.2537 89.1079 59.2537C88.6511 59.2537 88.2808 59.6321 88.2808 60.099C88.2808 60.5658 88.6511 60.9443 89.1079 60.9443Z" fill="#85B4FF"/>
<path d="M95.8093 64.8799C96.2661 64.8799 96.6364 64.5014 96.6364 64.0345C96.6364 63.5677 96.2661 63.1892 95.8093 63.1892C95.3525 63.1892 94.9822 63.5677 94.9822 64.0345C94.9822 64.5014 95.3525 64.8799 95.8093 64.8799Z" fill="#85B4FF"/>
<path d="M102.535 68.8154C102.992 68.8154 103.362 68.4369 103.362 67.9701C103.362 67.5032 102.992 67.1248 102.535 67.1248C102.078 67.1248 101.708 67.5032 101.708 67.9701C101.708 68.4369 102.078 68.8154 102.535 68.8154Z" fill="#85B4FF"/>
<path d="M109.261 72.7522C109.718 72.7522 110.088 72.3737 110.088 71.9068C110.088 71.44 109.718 71.0615 109.261 71.0615C108.804 71.0615 108.434 71.44 108.434 71.9068C108.434 72.3737 108.804 72.7522 109.261 72.7522Z" fill="#85B4FF"/>
<path d="M68.9192 41.5019C69.376 41.5019 69.7463 41.1235 69.7463 40.6566C69.7463 40.1897 69.376 39.8113 68.9192 39.8113C68.4623 39.8113 68.092 40.1897 68.092 40.6566C68.092 41.1235 68.4623 41.5019 68.9192 41.5019Z" fill="#85B4FF"/>
<path d="M75.5656 45.4365C76.0225 45.4365 76.3928 45.058 76.3928 44.5912C76.3928 44.1243 76.0225 43.7458 75.5656 43.7458C75.1088 43.7458 74.7385 44.1243 74.7385 44.5912C74.7385 45.058 75.1088 45.4365 75.5656 45.4365Z" fill="#85B4FF"/>
<path d="M82.3367 49.3718C82.7935 49.3718 83.1639 48.9933 83.1639 48.5265C83.1639 48.0596 82.7935 47.6812 82.3367 47.6812C81.8799 47.6812 81.5096 48.0596 81.5096 48.5265C81.5096 48.9933 81.8799 49.3718 82.3367 49.3718Z" fill="#85B4FF"/>
<path d="M89.1079 53.3125C89.5647 53.3125 89.935 52.934 89.935 52.4671C89.935 52.0003 89.5647 51.6218 89.1079 51.6218C88.6511 51.6218 88.2808 52.0003 88.2808 52.4671C88.2808 52.934 88.6511 53.3125 89.1079 53.3125Z" fill="#85B4FF"/>
<path d="M95.8093 57.249C96.2661 57.249 96.6364 56.8705 96.6364 56.4037C96.6364 55.9368 96.2661 55.5583 95.8093 55.5583C95.3525 55.5583 94.9822 55.9368 94.9822 56.4037C94.9822 56.8705 95.3525 57.249 95.8093 57.249Z" fill="#85B4FF"/>
<path d="M102.535 60.7663C102.992 60.7663 103.362 60.3879 103.362 59.921C103.362 59.4541 102.992 59.0757 102.535 59.0757C102.078 59.0757 101.708 59.4541 101.708 59.921C101.708 60.3879 102.078 60.7663 102.535 60.7663Z" fill="#85B4FF"/>
<path d="M109.261 64.7031C109.718 64.7031 110.088 64.3246 110.088 63.8578C110.088 63.3909 109.718 63.0125 109.261 63.0125C108.804 63.0125 108.434 63.3909 108.434 63.8578C108.434 64.3246 108.804 64.7031 109.261 64.7031Z" fill="#85B4FF"/>
<path d="M115.983 68.6445C116.44 68.6445 116.81 68.266 116.81 67.7992C116.81 67.3323 116.44 66.9539 115.983 66.9539C115.526 66.9539 115.156 67.3323 115.156 67.7992C115.156 68.266 115.526 68.6445 115.983 68.6445Z" fill="#85B4FF"/>
<path d="M75.5656 37.1855C76.0225 37.1855 76.3928 36.8071 76.3928 36.3402C76.3928 35.8733 76.0225 35.4949 75.5656 35.4949C75.1088 35.4949 74.7385 35.8733 74.7385 36.3402C74.7385 36.8071 75.1088 37.1855 75.5656 37.1855Z" fill="#85B4FF"/>
<path d="M82.3367 41.1172C82.7935 41.1172 83.1638 40.7387 83.1638 40.2718C83.1638 39.805 82.7935 39.4265 82.3367 39.4265C81.8798 39.4265 81.5095 39.805 81.5095 40.2718C81.5095 40.7387 81.8798 41.1172 82.3367 41.1172Z" fill="#85B4FF"/>
<path d="M89.1079 45.0537C89.5647 45.0537 89.935 44.6752 89.935 44.2084C89.935 43.7415 89.5647 43.363 89.1079 43.363C88.6511 43.363 88.2808 43.7415 88.2808 44.2084C88.2808 44.6752 88.6511 45.0537 89.1079 45.0537Z" fill="#85B4FF"/>
<path d="M95.8093 48.9882C96.2661 48.9882 96.6364 48.6098 96.6364 48.1429C96.6364 47.6761 96.2661 47.2976 95.8093 47.2976C95.3525 47.2976 94.9822 47.6761 94.9822 48.1429C94.9822 48.6098 95.3525 48.9882 95.8093 48.9882Z" fill="#85B4FF"/>
<path d="M102.535 52.9248C102.992 52.9248 103.362 52.5463 103.362 52.0795C103.362 51.6126 102.992 51.2341 102.535 51.2341C102.078 51.2341 101.708 51.6126 101.708 52.0795C101.708 52.5463 102.078 52.9248 102.535 52.9248Z" fill="#85B4FF"/>
<path d="M109.261 56.8606C109.718 56.8606 110.088 56.4821 110.088 56.0152C110.088 55.5484 109.718 55.1699 109.261 55.1699C108.804 55.1699 108.434 55.5484 108.434 56.0152C108.434 56.4821 108.804 56.8606 109.261 56.8606Z" fill="#85B4FF"/>
<path d="M115.983 60.9375C116.439 60.9375 116.81 60.559 116.81 60.0921C116.81 59.6253 116.439 59.2468 115.983 59.2468C115.526 59.2468 115.156 59.6253 115.156 60.0921C115.156 60.559 115.526 60.9375 115.983 60.9375Z" fill="#85B4FF"/>
<path d="M122.714 64.874C123.171 64.874 123.541 64.4955 123.541 64.0287C123.541 63.5618 123.171 63.1833 122.714 63.1833C122.257 63.1833 121.887 63.5618 121.887 64.0287C121.887 64.4955 122.257 64.874 122.714 64.874Z" fill="#85B4FF"/>
<path d="M82.3367 33.2392C82.7935 33.2392 83.1638 32.8608 83.1638 32.3939C83.1638 31.927 82.7935 31.5486 82.3367 31.5486C81.8798 31.5486 81.5095 31.927 81.5095 32.3939C81.5095 32.8608 81.8798 33.2392 82.3367 33.2392Z" fill="#85B4FF"/>
<path d="M89.1078 37.1855C89.5646 37.1855 89.935 36.8071 89.935 36.3402C89.935 35.8733 89.5646 35.4949 89.1078 35.4949C88.651 35.4949 88.2807 35.8733 88.2807 36.3402C88.2807 36.8071 88.651 37.1855 89.1078 37.1855Z" fill="#85B4FF"/>
<path d="M95.8093 41.1172C96.2661 41.1172 96.6364 40.7387 96.6364 40.2718C96.6364 39.805 96.2661 39.4265 95.8093 39.4265C95.3525 39.4265 94.9822 39.805 94.9822 40.2718C94.9822 40.7387 95.3525 41.1172 95.8093 41.1172Z" fill="#85B4FF"/>
<path d="M102.535 45.0537C102.992 45.0537 103.362 44.6752 103.362 44.2084C103.362 43.7415 102.992 43.363 102.535 43.363C102.078 43.363 101.708 43.7415 101.708 44.2084C101.708 44.6752 102.078 45.0537 102.535 45.0537Z" fill="#85B4FF"/>
<path d="M109.261 48.9882C109.718 48.9882 110.088 48.6098 110.088 48.1429C110.088 47.6761 109.718 47.2976 109.261 47.2976C108.804 47.2976 108.434 47.6761 108.434 48.1429C108.434 48.6098 108.804 48.9882 109.261 48.9882Z" fill="#85B4FF"/>
<path d="M115.983 52.9248C116.439 52.9248 116.81 52.5463 116.81 52.0795C116.81 51.6126 116.439 51.2341 115.983 51.2341C115.526 51.2341 115.156 51.6126 115.156 52.0795C115.156 52.5463 115.526 52.9248 115.983 52.9248Z" fill="#85B4FF"/>
<path d="M122.714 56.8606C123.171 56.8606 123.541 56.4821 123.541 56.0152C123.541 55.5484 123.171 55.1699 122.714 55.1699C122.257 55.1699 121.887 55.5484 121.887 56.0152C121.887 56.4821 122.257 56.8606 122.714 56.8606Z" fill="#85B4FF"/>
<path d="M129.48 60.8027C129.937 60.8027 130.307 60.4242 130.307 59.9574C130.307 59.4905 129.937 59.1121 129.48 59.1121C129.023 59.1121 128.653 59.4905 128.653 59.9574C128.653 60.4242 129.023 60.8027 129.48 60.8027Z" fill="#85B4FF"/>
<path d="M89.1078 29.5595C89.5646 29.5595 89.935 29.1811 89.935 28.7142C89.935 28.2474 89.5646 27.8689 89.1078 27.8689C88.651 27.8689 88.2807 28.2474 88.2807 28.7142C88.2807 29.1811 88.651 29.5595 89.1078 29.5595Z" fill="#85B4FF"/>
<path d="M95.8094 33.4961C96.2662 33.4961 96.6365 33.1176 96.6365 32.6507C96.6365 32.1839 96.2662 31.8054 95.8094 31.8054C95.3525 31.8054 94.9822 32.1839 94.9822 32.6507C94.9822 33.1176 95.3525 33.4961 95.8094 33.4961Z" fill="#85B4FF"/>
<path d="M102.535 37.4377C102.992 37.4377 103.362 37.0593 103.362 36.5924C103.362 36.1255 102.992 35.7471 102.535 35.7471C102.078 35.7471 101.708 36.1255 101.708 36.5924C101.708 37.0593 102.078 37.4377 102.535 37.4377Z" fill="#85B4FF"/>
<path d="M109.261 41.3757C109.718 41.3757 110.088 40.9972 110.088 40.5304C110.088 40.0635 109.718 39.6851 109.261 39.6851C108.804 39.6851 108.434 40.0635 108.434 40.5304C108.434 40.9972 108.804 41.3757 109.261 41.3757Z" fill="#85B4FF"/>
<path d="M115.983 45.3086C116.439 45.3086 116.81 44.9301 116.81 44.4632C116.81 43.9964 116.439 43.6179 115.983 43.6179C115.526 43.6179 115.156 43.9964 115.156 44.4632C115.156 44.9301 115.526 45.3086 115.983 45.3086Z" fill="#85B4FF"/>
<path d="M122.714 49.2458C123.171 49.2458 123.541 48.8674 123.541 48.4005C123.541 47.9336 123.171 47.5552 122.714 47.5552C122.257 47.5552 121.887 47.9336 121.887 48.4005C121.887 48.8674 122.257 49.2458 122.714 49.2458Z" fill="#85B4FF"/>
<path d="M129.48 53.1789C129.937 53.1789 130.307 52.8005 130.307 52.3336C130.307 51.8667 129.937 51.4883 129.48 51.4883C129.023 51.4883 128.653 51.8667 128.653 52.3336C128.653 52.8005 129.023 53.1789 129.48 53.1789Z" fill="#85B4FF"/>
<path d="M136.196 57.1172C136.653 57.1172 137.023 56.7387 137.023 56.2718C137.023 55.805 136.653 55.4265 136.196 55.4265C135.739 55.4265 135.369 55.805 135.369 56.2718C135.369 56.7387 135.739 57.1172 136.196 57.1172Z" fill="#85B4FF"/>
<path d="M95.8093 25.7168C96.2661 25.7168 96.6364 25.3383 96.6364 24.8714C96.6364 24.4046 96.2661 24.0261 95.8093 24.0261C95.3525 24.0261 94.9822 24.4046 94.9822 24.8714C94.9822 25.3383 95.3525 25.7168 95.8093 25.7168Z" fill="#85B4FF"/>
<path d="M102.535 29.6513C102.992 29.6513 103.362 29.2729 103.362 28.806C103.362 28.3392 102.992 27.9607 102.535 27.9607C102.078 27.9607 101.708 28.3392 101.708 28.806C101.708 29.2729 102.078 29.6513 102.535 29.6513Z" fill="#85B4FF"/>
<path d="M109.261 33.5888C109.718 33.5888 110.088 33.2104 110.088 32.7435C110.088 32.2767 109.718 31.8982 109.261 31.8982C108.804 31.8982 108.434 32.2767 108.434 32.7435C108.434 33.2104 108.804 33.5888 109.261 33.5888Z" fill="#85B4FF"/>
<path d="M115.983 37.5273C116.439 37.5273 116.81 37.1489 116.81 36.682C116.81 36.2151 116.439 35.8367 115.983 35.8367C115.526 35.8367 115.156 36.2151 115.156 36.682C115.156 37.1489 115.526 37.5273 115.983 37.5273Z" fill="#85B4FF"/>
<path d="M122.714 41.468C123.171 41.468 123.541 41.0895 123.541 40.6227C123.541 40.1558 123.171 39.7773 122.714 39.7773C122.257 39.7773 121.887 40.1558 121.887 40.6227C121.887 41.0895 122.257 41.468 122.714 41.468Z" fill="#85B4FF"/>
<path d="M129.48 45.4016C129.937 45.4016 130.307 45.0231 130.307 44.5563C130.307 44.0894 129.937 43.7109 129.48 43.7109C129.023 43.7109 128.653 44.0894 128.653 44.5563C128.653 45.0231 129.023 45.4016 129.48 45.4016Z" fill="#85B4FF"/>
<path d="M136.196 49.3359C136.653 49.3359 137.023 48.9574 137.023 48.4906C137.023 48.0237 136.653 47.6453 136.196 47.6453C135.739 47.6453 135.369 48.0237 135.369 48.4906C135.369 48.9574 135.739 49.3359 136.196 49.3359Z" fill="#85B4FF"/>
<path d="M142.857 53.2717C143.314 53.2717 143.684 52.8932 143.684 52.4264C143.684 51.9595 143.314 51.5811 142.857 51.5811C142.4 51.5811 142.03 51.9595 142.03 52.4264C142.03 52.8932 142.4 53.2717 142.857 53.2717Z" fill="#85B4FF"/>
<path d="M102.535 21.6045C102.992 21.6045 103.362 21.226 103.362 20.7591C103.362 20.2923 102.992 19.9138 102.535 19.9138C102.078 19.9138 101.708 20.2923 101.708 20.7591C101.708 21.226 102.078 21.6045 102.535 21.6045Z" fill="#85B4FF"/>
<path d="M109.261 25.54C109.718 25.54 110.088 25.1615 110.088 24.6947C110.088 24.2278 109.718 23.8494 109.261 23.8494C108.804 23.8494 108.434 24.2278 108.434 24.6947C108.434 25.1615 108.804 25.54 109.261 25.54Z" fill="#85B4FF"/>
<path d="M115.983 29.4765C116.44 29.4765 116.81 29.0981 116.81 28.6312C116.81 28.1644 116.44 27.7859 115.983 27.7859C115.526 27.7859 115.156 28.1644 115.156 28.6312C115.156 29.0981 115.526 29.4765 115.983 29.4765Z" fill="#85B4FF"/>
<path d="M122.714 33.4182C123.171 33.4182 123.541 33.0397 123.541 32.5729C123.541 32.106 123.171 31.7275 122.714 31.7275C122.257 31.7275 121.887 32.106 121.887 32.5729C121.887 33.0397 122.257 33.4182 122.714 33.4182Z" fill="#85B4FF"/>
<path d="M129.48 37.3515C129.937 37.3515 130.307 36.9731 130.307 36.5062C130.307 36.0394 129.937 35.6609 129.48 35.6609C129.023 35.6609 128.653 36.0394 128.653 36.5062C128.653 36.9731 129.023 37.3515 129.48 37.3515Z" fill="#85B4FF"/>
<path d="M136.196 41.289C136.653 41.289 137.023 40.9106 137.023 40.4437C137.023 39.9769 136.653 39.5984 136.196 39.5984C135.739 39.5984 135.369 39.9769 135.369 40.4437C135.369 40.9106 135.739 41.289 136.196 41.289Z" fill="#85B4FF"/>
<path d="M142.857 45.2246C143.314 45.2246 143.684 44.8461 143.684 44.3793C143.684 43.9124 143.314 43.5339 142.857 43.5339C142.4 43.5339 142.03 43.9124 142.03 44.3793C142.03 44.8461 142.4 45.2246 142.857 45.2246Z" fill="#85B4FF"/>
<path d="M149.633 49.1594C150.09 49.1594 150.46 48.7809 150.46 48.3141C150.46 47.8472 150.09 47.4688 149.633 47.4688C149.176 47.4688 148.806 47.8472 148.806 48.3141C148.806 48.7809 149.176 49.1594 149.633 49.1594Z" fill="#85B4FF"/>
<path d="M109.261 17.8327C109.718 17.8327 110.088 17.4543 110.088 16.9874C110.088 16.5206 109.718 16.1421 109.261 16.1421C108.804 16.1421 108.434 16.5206 108.434 16.9874C108.434 17.4543 108.804 17.8327 109.261 17.8327Z" fill="#85B4FF"/>
<path d="M115.983 21.7675C116.44 21.7675 116.81 21.3891 116.81 20.9222C116.81 20.4554 116.44 20.0769 115.983 20.0769C115.526 20.0769 115.156 20.4554 115.156 20.9222C115.156 21.3891 115.526 21.7675 115.983 21.7675Z" fill="#85B4FF"/>
<path d="M122.714 25.7109C123.171 25.7109 123.541 25.3324 123.541 24.8656C123.541 24.3987 123.171 24.0203 122.714 24.0203C122.257 24.0203 121.887 24.3987 121.887 24.8656C121.887 25.3324 122.257 25.7109 122.714 25.7109Z" fill="#85B4FF"/>
<path d="M129.48 29.6455C129.937 29.6455 130.307 29.267 130.307 28.8002C130.307 28.3333 129.937 27.9548 129.48 27.9548C129.023 27.9548 128.653 28.3333 128.653 28.8002C128.653 29.267 129.023 29.6455 129.48 29.6455Z" fill="#85B4FF"/>
<path d="M136.196 33.5808C136.653 33.5808 137.023 33.2023 137.023 32.7355C137.023 32.2686 136.653 31.8901 136.196 31.8901C135.739 31.8901 135.369 32.2686 135.369 32.7355C135.369 33.2023 135.739 33.5808 136.196 33.5808Z" fill="#85B4FF"/>
<path d="M142.857 37.5173C143.314 37.5173 143.684 37.1388 143.684 36.672C143.684 36.2051 143.314 35.8267 142.857 35.8267C142.4 35.8267 142.03 36.2051 142.03 36.672C142.03 37.1388 142.4 37.5173 142.857 37.5173Z" fill="#85B4FF"/>
<path d="M149.633 41.4504C150.09 41.4504 150.46 41.0719 150.46 40.6051C150.46 40.1382 150.09 39.7598 149.633 39.7598C149.176 39.7598 148.806 40.1382 148.806 40.6051C148.806 41.0719 149.176 41.4504 149.633 41.4504Z" fill="#85B4FF"/>
<path d="M156.369 45.3877C156.826 45.3877 157.197 45.0092 157.197 44.5423C157.197 44.0755 156.826 43.697 156.369 43.697C155.913 43.697 155.542 44.0755 155.542 44.5423C155.542 45.0092 155.913 45.3877 156.369 45.3877Z" fill="#85B4FF"/>
</g>
<path opacity="0.45" d="M48.3318 45.8744C46.6332 44.8701 46.6332 42.3659 48.3318 41.3616L107.028 6.75874C108.612 5.8327 110.553 5.8327 112.137 6.75874L170.833 41.3616C172.532 42.3659 172.532 44.8701 170.833 45.8744L112.137 80.4773C110.553 81.4033 108.612 81.4033 107.028 80.4773L48.3318 45.8744Z" fill="#E8F1FF" stroke="#001525" stroke-width="0.545302"/>
<path d="M83.758 44.5667C83.0419 44.1433 83.0419 43.0875 83.758 42.664L108.505 28.0751C109.173 27.6846 109.991 27.6846 110.659 28.0751L135.406 42.664C136.122 43.0875 136.122 44.1433 135.406 44.5667L110.659 59.1557C109.991 59.5461 109.173 59.5461 108.505 59.1557L83.758 44.5667Z" fill="#306BEA" stroke="#001525" stroke-width="0.545302"/>
<path d="M111.806 41.7637L113.609 40.7231C113.653 40.6986 113.686 40.6681 113.705 40.6341C113.724 40.6002 113.727 40.564 113.715 40.5289C113.703 40.4938 113.676 40.4609 113.636 40.4332C113.597 40.4055 113.546 40.3839 113.488 40.3704L101.843 37.2279C101.774 37.209 101.696 37.2028 101.621 37.2101C101.546 37.2175 101.477 37.238 101.424 37.269L99.6143 38.3135C99.5798 38.3331 99.5525 38.3566 99.5339 38.3824C99.5153 38.4083 99.5058 38.4361 99.5059 38.4642C99.506 38.4923 99.5157 38.5202 99.5344 38.5463C99.5532 38.5724 99.5806 38.5962 99.6152 38.6162C99.6465 38.6346 99.6834 38.6494 99.724 38.6601L111.379 41.8083C111.45 41.8277 111.529 41.8339 111.606 41.8259C111.683 41.8179 111.753 41.7961 111.806 41.7637Z" fill="white"/>
<path d="M120.566 47.1969L122.365 46.158C122.435 46.1182 122.473 46.064 122.473 46.0072C122.473 45.9505 122.434 45.8958 122.364 45.8552C122.333 45.8367 122.296 45.8217 122.255 45.811L98.2236 39.3188C98.1542 39.2998 98.0765 39.2936 98.0013 39.3011C97.9261 39.3085 97.857 39.3292 97.8034 39.3603L96.0031 40.3996C95.9352 40.4395 95.8976 40.4935 95.8985 40.5497C95.8993 40.606 95.9386 40.6601 96.0077 40.7002C96.0394 40.7183 96.0763 40.7331 96.1166 40.7441L120.149 47.2354C120.218 47.2541 120.294 47.2605 120.369 47.2536C120.443 47.2467 120.512 47.2269 120.566 47.1969Z" fill="white"/>
<path d="M117.018 49.2457L118.821 48.2051C118.893 48.167 118.936 48.1138 118.939 48.0572C118.943 48.0005 118.908 47.945 118.842 47.9028C118.807 47.8816 118.766 47.8645 118.72 47.8524L107.054 44.7107C106.985 44.6918 106.908 44.6855 106.833 44.6927C106.758 44.6999 106.689 44.7203 106.636 44.751L104.824 45.7968C104.784 45.8216 104.755 45.8516 104.739 45.8844C104.723 45.9172 104.721 45.9518 104.733 45.9854C104.744 46.0189 104.77 46.0505 104.807 46.0774C104.844 46.1044 104.891 46.1259 104.945 46.1403L116.601 49.2881C116.67 49.3065 116.747 49.3122 116.822 49.3047C116.896 49.2971 116.965 49.2765 117.018 49.2457Z" fill="white"/>
<path d="M103.298 36.6016L108.753 38.0732C108.823 38.0921 108.9 38.0982 108.975 38.0908C109.051 38.0833 109.12 38.0627 109.173 38.0317L110.975 36.9919C111.009 36.9723 111.036 36.9488 111.055 36.923C111.073 36.8971 111.083 36.8693 111.083 36.8412C111.083 36.813 111.073 36.7851 111.054 36.7591C111.036 36.733 111.008 36.7092 110.974 36.6891C110.942 36.671 110.905 36.6562 110.865 36.6453L105.408 35.172C105.338 35.1531 105.261 35.1469 105.186 35.1543C105.111 35.1616 105.042 35.1822 104.988 35.2131L103.186 36.2537C103.117 36.2934 103.078 36.3474 103.079 36.4039C103.079 36.4604 103.118 36.5148 103.187 36.5552C103.219 36.5745 103.256 36.5903 103.298 36.6016Z" fill="white"/>
<path d="M113.69 51.1669L115.492 50.1263C115.562 50.0865 115.601 50.0323 115.6 49.9755C115.6 49.9188 115.561 49.8641 115.492 49.8235C115.46 49.8051 115.423 49.79 115.383 49.7788L109.907 48.3071C109.838 48.2882 109.761 48.2819 109.686 48.2893C109.611 48.2966 109.542 48.3172 109.488 48.3483L107.69 49.3863C107.655 49.4058 107.628 49.4292 107.609 49.455C107.591 49.4807 107.581 49.5085 107.581 49.5365C107.581 49.5646 107.59 49.5925 107.609 49.6186C107.627 49.6447 107.654 49.6685 107.689 49.6886C107.721 49.7076 107.759 49.7229 107.801 49.7337L113.267 51.211C113.337 51.2299 113.415 51.2359 113.491 51.228C113.567 51.2201 113.636 51.1987 113.69 51.1669Z" fill="white"/>
<path opacity="0.45" d="M48.3318 45.8744C46.6332 44.8701 46.6332 42.3659 48.3318 41.3616L107.028 6.75874C108.612 5.8327 110.553 5.8327 112.137 6.75874L170.833 41.3616C172.532 42.3659 172.532 44.8701 170.833 45.8744L112.137 80.4773C110.553 81.4033 108.612 81.4033 107.028 80.4773L48.3318 45.8744Z" stroke="#001525" stroke-width="0.545302"/>
</g>
<defs>
<clipPath id="clip0_2939_35134">
<rect width="210" height="138" fill="white"/>
</clipPath>
</defs>
</svg>
