<svg width="43" height="44" viewBox="0 0 43 44" fill="none" xmlns="http://www.w3.org/2000/svg">
<rect y="0.5" width="43" height="43" rx="4" fill="#C6DDFF"/>
<path d="M21.4811 15.3649L16.1523 18.022V24.6808C16.1523 27.6208 18.5382 30.0124 21.4811 30.0124C24.424 30.0124 26.8069 27.6237 26.8069 24.6808V18.022L21.4811 15.3649Z" fill="#85B4FF" stroke="#001525" stroke-width="0.57" stroke-linecap="round" stroke-linejoin="round"/>
<path d="M18.4009 22.6333L20.5184 24.7391L24.5988 20.682" stroke="#001525" stroke-width="0.57" stroke-linecap="round" stroke-linejoin="round"/>
<path d="M25.8385 10.4766C30.7356 12.2149 34.3027 16.8233 34.4544 22.3299C34.6527 29.4845 29.0119 35.4433 21.8573 35.6416C14.7027 35.8399 8.74393 30.202 8.5456 23.0474C8.34727 15.8929 13.9881 9.93411 21.1398 9.73578" stroke="#001525" stroke-width="0.57" stroke-linecap="round" stroke-linejoin="round"/>
<path d="M20.0693 8.35327L21.3964 9.68035C21.4256 9.70952 21.4256 9.75618 21.3964 9.78243L20.0693 11.1095" stroke="#001525" stroke-width="0.57" stroke-linecap="round" stroke-linejoin="round"/>
</svg>
