<svg width="43" height="44" viewBox="0 0 43 44" fill="none" xmlns="http://www.w3.org/2000/svg">
<rect y="0.5" width="43" height="43" rx="4" fill="#C6DDFF"/>
<path d="M25.84 10.4766C30.7371 12.2149 34.3013 16.8233 34.4529 22.3299C34.6513 29.4845 29.0133 35.4433 21.8587 35.6416C14.7042 35.8399 8.7454 30.202 8.54707 23.0474C8.34874 15.8929 13.9867 9.93411 21.1413 9.73578" stroke="#001525" stroke-width="0.57" stroke-linecap="round" stroke-linejoin="round"/>
<path d="M20.0679 8.35327L21.3979 9.68035C21.4241 9.70952 21.4241 9.75618 21.3979 9.78243L20.0679 11.1095" stroke="#001525" stroke-width="0.57" stroke-linecap="round" stroke-linejoin="round"/>
<path d="M19.2832 18.9349V16.5432C19.2832 15.3241 20.3128 14.3353 21.5815 14.3353C22.8503 14.3353 23.8828 15.3241 23.8828 16.5432V18.9349" stroke="#001525" stroke-width="0.57" stroke-linecap="round" stroke-linejoin="round"/>
<path d="M26.3124 18.9349H16.8565C16.5036 18.9349 16.2178 19.2208 16.2178 19.5737V29.0295C16.2178 29.3824 16.5036 29.6683 16.8565 29.6683H26.3124C26.6653 29.6683 26.9511 29.3824 26.9511 29.0295V19.5737C26.9511 19.2208 26.6653 18.9349 26.3124 18.9349Z" fill="#85B4FF" stroke="#001525" stroke-width="0.57" stroke-linecap="round" stroke-linejoin="round"/>
<path d="M21.5815 25.7978V23.4966" stroke="#001525" stroke-width="0.57" stroke-linecap="round" stroke-linejoin="round"/>
<path d="M21.9373 23.4966C21.9373 23.692 21.7769 23.8524 21.5815 23.8524C21.386 23.8524 21.2285 23.6949 21.2285 23.4966C21.2285 23.2982 21.386 23.1407 21.5815 23.1407C21.7769 23.1407 21.9373 23.2982 21.9373 23.4966Z" fill="#001525" stroke="#001525" stroke-width="0.57" stroke-linecap="round" stroke-linejoin="round"/>
</svg>
