<svg width="43" height="44" viewBox="0 0 43 44" fill="none" xmlns="http://www.w3.org/2000/svg">
<rect y="0.5" width="43" height="43" rx="4" fill="#C6DDFF"/>
<g clip-path="url(#clip0_2953_4411)">
<path d="M16.6163 16.1989L11.904 16.6482C11.4748 16.6885 11.0889 16.9218 10.8498 17.279L8.27475 21.1502C7.91758 21.6888 8.2373 22.4176 8.87386 22.5184L13.1426 23.1953C13.1426 23.1953 14.5712 18.604 16.6163 16.2017V16.1989Z" stroke="#001525" stroke-width="0.57" stroke-linecap="round" stroke-linejoin="round"/>
<path d="M27.3971 26.692L26.9766 31.5166C26.9449 31.9457 26.7202 32.3374 26.3659 32.5823L22.5437 35.2265C22.0137 35.5952 21.2792 35.287 21.1669 34.6504L20.4468 30.2924C20.4468 30.2924 23.7707 29.6789 27.4 26.692H27.3971Z" stroke="#001525" stroke-width="0.57" stroke-linecap="round" stroke-linejoin="round"/>
<path d="M21.4581 27.8673L23.0365 29.4169C21.2593 30.2003 19.8163 30.4567 19.0011 30.5431C18.5633 30.5892 18.1284 30.4279 17.8202 30.1111L13.2519 25.4478C12.8948 25.082 12.7507 24.552 12.8861 24.0623C13.226 22.8209 13.6667 21.6457 14.1016 20.6404L18.9925 25.4449" fill="#85B4FF"/>
<path d="M21.4581 27.8673L23.0365 29.4169C21.2593 30.2003 19.8163 30.4567 19.0011 30.5431C18.5633 30.5892 18.1284 30.4279 17.8202 30.1111L13.2519 25.4478C12.8948 25.082 12.7507 24.552 12.8861 24.0623C13.226 22.8209 13.6667 21.6457 14.1016 20.6404L18.9925 25.4449" stroke="#001525" stroke-width="0.57" stroke-linecap="round" stroke-linejoin="round"/>
<path d="M18.9895 25.4448L14.0986 20.6404C14.9512 18.6673 15.7836 17.3251 15.7836 17.3251C21.4464 8.40172 31.1187 8.41325 34.1027 8.65232C34.6241 8.69265 35.0331 9.11896 35.0504 9.64318C35.4219 20.9803 27.1582 26.8764 27.1582 26.8764C25.6892 28.0631 24.2807 28.8696 23.0306 29.4197L21.4522 27.8701L18.9866 25.4477L18.9895 25.4448Z" stroke="#001525" stroke-width="0.57" stroke-linecap="round" stroke-linejoin="round"/>
<path d="M26.7549 20.1335C28.6447 20.1335 30.1767 18.6015 30.1767 16.7116C30.1767 14.8218 28.6447 13.2897 26.7549 13.2897C24.865 13.2897 23.333 14.8218 23.333 16.7116C23.333 18.6015 24.865 20.1335 26.7549 20.1335Z" fill="#85B4FF" stroke="#001525" stroke-width="0.57" stroke-linecap="round" stroke-linejoin="round"/>
<path d="M15.8468 32.4095L12.9434 35.3129" stroke="#001525" stroke-width="0.57" stroke-linecap="round" stroke-linejoin="round"/>
<path d="M11.0279 27.4006L8.12451 30.304" stroke="#001525" stroke-width="0.57" stroke-linecap="round" stroke-linejoin="round"/>
<path d="M13.3958 29.9554L7.9375 35.4109" stroke="#001525" stroke-width="0.57" stroke-linecap="round" stroke-linejoin="round"/>
</g>
<defs>
<clipPath id="clip0_2953_4411">
<rect width="28" height="28" fill="white" transform="translate(7.5 8)"/>
</clipPath>
</defs>
</svg>
