<svg width="43" height="44" viewBox="0 0 43 44" fill="none" xmlns="http://www.w3.org/2000/svg">
<rect y="0.5" width="43" height="43" rx="4" fill="#C6DDFF"/>
<g clip-path="url(#clip0_2953_4351)">
<path d="M16.002 14.8221V10.0009C16.002 9.08795 16.7603 8.33545 17.7082 8.33545C18.6561 8.33545 19.4145 9.08795 19.4145 10.0009V14.8921" stroke="#001525" stroke-width="0.575" stroke-linecap="round" stroke-linejoin="round"/>
<path d="M19.4145 21.615V33.9992C19.4145 34.9121 18.6561 35.6646 17.7082 35.6646C16.7603 35.6646 16.002 34.9121 16.002 33.9992V21.685" stroke="#001525" stroke-width="0.575" stroke-linecap="round" stroke-linejoin="round"/>
<path d="M28.4882 16.5021H33.2511C34.132 16.5021 34.8728 17.2546 34.8728 18.2084C34.8728 19.1621 34.132 19.9146 33.2511 19.9146H9.75154C8.86779 19.9146 8.12695 19.1651 8.12695 18.2084C8.12695 17.2517 8.86779 16.5021 9.75154 16.5021H28.4882Z" stroke="#001525" stroke-width="0.575" stroke-linecap="round" stroke-linejoin="round"/>
<path d="M16.002 10.0417C16.002 9.09962 16.7661 8.33545 17.7082 8.33545C18.6503 8.33545 19.4145 9.0967 19.4145 10.0417C19.4145 10.9867 18.6503 11.7479 17.7082 11.7479C16.7661 11.7479 16.002 10.9867 16.002 10.0417Z" fill="#85B4FF" stroke="#001525" stroke-width="0.575" stroke-linecap="round" stroke-linejoin="round"/>
<path d="M16.002 33.9584C16.002 33.0163 16.7661 32.2521 17.7082 32.2521C18.6503 32.2521 19.4145 33.0134 19.4145 33.9584C19.4145 34.9034 18.6503 35.6646 17.7082 35.6646C16.7661 35.6646 16.002 34.9034 16.002 33.9584Z" fill="#85B4FF" stroke="#001525" stroke-width="0.575" stroke-linecap="round" stroke-linejoin="round"/>
<path d="M8.12695 18.2084C8.12695 17.2663 8.89113 16.5021 9.83321 16.5021C10.7753 16.5021 11.5395 17.2634 11.5395 18.2084C11.5395 19.1534 10.7753 19.9146 9.83321 19.9146C8.89113 19.9146 8.12695 19.1534 8.12695 18.2084Z" fill="#85B4FF" stroke="#001525" stroke-width="0.575" stroke-linecap="round" stroke-linejoin="round"/>
<path d="M31.4604 18.2084C31.4604 17.2663 32.2246 16.5021 33.1667 16.5021C34.1088 16.5021 34.873 17.2634 34.873 18.2084C34.873 19.1534 34.1088 19.9146 33.1667 19.9146C32.2246 19.9146 31.4604 19.1534 31.4604 18.2084Z" fill="#85B4FF" stroke="#001525" stroke-width="0.575" stroke-linecap="round" stroke-linejoin="round"/>
<path d="M8.12695 10.0417C8.12695 9.09962 8.89113 8.33545 9.83321 8.33545C10.7753 8.33545 11.5395 9.0967 11.5395 10.0417C11.5395 10.9867 10.7753 11.7479 9.83321 11.7479C8.89113 11.7479 8.12695 10.9867 8.12695 10.0417Z" fill="#85B4FF" stroke="#001525" stroke-width="0.575" stroke-linecap="round" stroke-linejoin="round"/>
<path d="M8.12695 33.9584C8.12695 33.0163 8.89113 32.2521 9.83321 32.2521C10.7753 32.2521 11.5395 33.0134 11.5395 33.9584C11.5395 34.9034 10.7753 35.6646 9.83321 35.6646C8.89113 35.6646 8.12695 34.9034 8.12695 33.9584Z" fill="#85B4FF" stroke="#001525" stroke-width="0.575" stroke-linecap="round" stroke-linejoin="round"/>
<path d="M8.12695 25.5001C8.12695 24.558 8.89113 23.7938 9.83321 23.7938C10.7753 23.7938 11.5395 24.5551 11.5395 25.5001C11.5395 26.4451 10.7753 27.2063 9.83321 27.2063C8.89113 27.2063 8.12695 26.4451 8.12695 25.5001Z" fill="#85B4FF" stroke="#001525" stroke-width="0.575" stroke-linecap="round" stroke-linejoin="round"/>
<path d="M23.5854 25.5001C23.5854 24.558 24.3496 23.7938 25.2917 23.7938C26.2338 23.7938 26.998 24.5551 26.998 25.5001C26.998 26.4451 26.2338 27.2063 25.2917 27.2063C24.3496 27.2063 23.5854 26.4451 23.5854 25.5001Z" fill="#85B4FF" stroke="#001525" stroke-width="0.575" stroke-linecap="round" stroke-linejoin="round"/>
<path d="M31.4604 25.5001C31.4604 24.558 32.2246 23.7938 33.1667 23.7938C34.1088 23.7938 34.873 24.5551 34.873 25.5001C34.873 26.4451 34.1088 27.2063 33.1667 27.2063C32.2246 27.2063 31.4604 26.4451 31.4604 25.5001Z" fill="#85B4FF" stroke="#001525" stroke-width="0.575" stroke-linecap="round" stroke-linejoin="round"/>
<path d="M23.5854 10.0417C23.5854 9.09962 24.3496 8.33545 25.2917 8.33545C26.2338 8.33545 26.998 9.0967 26.998 10.0417C26.998 10.9867 26.2338 11.7479 25.2917 11.7479C24.3496 11.7479 23.5854 10.9867 23.5854 10.0417Z" fill="#85B4FF" stroke="#001525" stroke-width="0.575" stroke-linecap="round" stroke-linejoin="round"/>
<path d="M23.5854 33.9584C23.5854 33.0163 24.3496 32.2521 25.2917 32.2521C26.2338 32.2521 26.998 33.0134 26.998 33.9584C26.998 34.9034 26.2338 35.6646 25.2917 35.6646C24.3496 35.6646 23.5854 34.9034 23.5854 33.9584Z" fill="#85B4FF" stroke="#001525" stroke-width="0.575" stroke-linecap="round" stroke-linejoin="round"/>
<path d="M31.4604 10.0417C31.4604 9.09962 32.2246 8.33545 33.1667 8.33545C34.1088 8.33545 34.873 9.0967 34.873 10.0417C34.873 10.9867 34.1088 11.7479 33.1667 11.7479C32.2246 11.7479 31.4604 10.9867 31.4604 10.0417Z" fill="#85B4FF" stroke="#001525" stroke-width="0.575" stroke-linecap="round" stroke-linejoin="round"/>
<path d="M31.4604 33.9584C31.4604 33.0163 32.2246 32.2521 33.1667 32.2521C34.1088 32.2521 34.873 33.0134 34.873 33.9584C34.873 34.9034 34.1088 35.6646 33.1667 35.6646C32.2246 35.6646 31.4604 34.9034 31.4604 33.9584Z" fill="#85B4FF" stroke="#001525" stroke-width="0.575" stroke-linecap="round" stroke-linejoin="round"/>
</g>
<defs>
<clipPath id="clip0_2953_4351">
<rect width="28" height="28" fill="white" transform="translate(7.5 8)"/>
</clipPath>
</defs>
</svg>
