<svg width="43" height="44" viewBox="0 0 43 44" fill="none" xmlns="http://www.w3.org/2000/svg">
<rect y="0.5" width="43" height="43" rx="4" fill="#C6DDFF"/>
<g clip-path="url(#clip0_2961_7514)">
<path d="M32.0046 11.4635H10.9316V32.5365H32.0046V11.4635Z" fill="#85B4FF" stroke="#001525" stroke-width="0.57" stroke-linecap="round" stroke-linejoin="round"/>
<path d="M26.4014 29.8619L29.3297 26.9335V14.1352H13.606V29.8619H26.4014Z" fill="white" stroke="#001525" stroke-width="0.57" stroke-linecap="round" stroke-linejoin="round"/>
<path d="M7.91846 14.281H9.66554" stroke="#001525" stroke-width="0.57" stroke-linecap="round" stroke-linejoin="round"/>
<path d="M33.3169 14.281H35.0815" stroke="#001525" stroke-width="0.57" stroke-linecap="round" stroke-linejoin="round"/>
<path d="M7.91846 16.9002H9.66554" stroke="#001525" stroke-width="0.57" stroke-linecap="round" stroke-linejoin="round"/>
<path d="M33.3169 16.9002H35.0815" stroke="#001525" stroke-width="0.57" stroke-linecap="round" stroke-linejoin="round"/>
<path d="M7.91846 19.5193H9.66554" stroke="#001525" stroke-width="0.57" stroke-linecap="round" stroke-linejoin="round"/>
<path d="M33.3169 19.5193H35.0815" stroke="#001525" stroke-width="0.57" stroke-linecap="round" stroke-linejoin="round"/>
<path d="M7.91846 22.0014H9.66554" stroke="#001525" stroke-width="0.57" stroke-linecap="round" stroke-linejoin="round"/>
<path d="M33.3169 22.0014H35.0815" stroke="#001525" stroke-width="0.57" stroke-linecap="round" stroke-linejoin="round"/>
<path d="M7.91846 24.7635H9.66554" stroke="#001525" stroke-width="0.57" stroke-linecap="round" stroke-linejoin="round"/>
<path d="M33.3169 24.7635H35.0815" stroke="#001525" stroke-width="0.57" stroke-linecap="round" stroke-linejoin="round"/>
<path d="M7.91846 27.3827H9.66554" stroke="#001525" stroke-width="0.57" stroke-linecap="round" stroke-linejoin="round"/>
<path d="M33.3169 27.3827H35.0815" stroke="#001525" stroke-width="0.57" stroke-linecap="round" stroke-linejoin="round"/>
<path d="M7.91846 30.0048H9.66554" stroke="#001525" stroke-width="0.57" stroke-linecap="round" stroke-linejoin="round"/>
<path d="M33.3169 30.0048H35.0815" stroke="#001525" stroke-width="0.57" stroke-linecap="round" stroke-linejoin="round"/>
<path d="M13.5737 10.1773V8.34268" stroke="#001525" stroke-width="0.57" stroke-linecap="round" stroke-linejoin="round"/>
<path d="M16.1929 10.1773V8.34268" stroke="#001525" stroke-width="0.57" stroke-linecap="round" stroke-linejoin="round"/>
<path d="M18.812 10.1773V8.34268" stroke="#001525" stroke-width="0.57" stroke-linecap="round" stroke-linejoin="round"/>
<path d="M21.4341 10.1773V8.34268" stroke="#001525" stroke-width="0.57" stroke-linecap="round" stroke-linejoin="round"/>
<path d="M24.0566 10.1773V8.34268" stroke="#001525" stroke-width="0.57" stroke-linecap="round" stroke-linejoin="round"/>
<path d="M26.6758 10.1773V8.34268" stroke="#001525" stroke-width="0.57" stroke-linecap="round" stroke-linejoin="round"/>
<path d="M29.2949 10.1773V8.34268" stroke="#001525" stroke-width="0.57" stroke-linecap="round" stroke-linejoin="round"/>
<path d="M13.5737 35.6573V33.846" stroke="#001525" stroke-width="0.57" stroke-linecap="round" stroke-linejoin="round"/>
<path d="M16.1929 35.6573V33.846" stroke="#001525" stroke-width="0.57" stroke-linecap="round" stroke-linejoin="round"/>
<path d="M18.812 35.6573V33.846" stroke="#001525" stroke-width="0.57" stroke-linecap="round" stroke-linejoin="round"/>
<path d="M21.4341 35.6573V33.846" stroke="#001525" stroke-width="0.57" stroke-linecap="round" stroke-linejoin="round"/>
<path d="M24.0566 35.6573V33.846" stroke="#001525" stroke-width="0.57" stroke-linecap="round" stroke-linejoin="round"/>
<path d="M26.6758 35.6573V33.846" stroke="#001525" stroke-width="0.57" stroke-linecap="round" stroke-linejoin="round"/>
<path d="M29.2949 35.6573V33.846" stroke="#001525" stroke-width="0.57" stroke-linecap="round" stroke-linejoin="round"/>
<path d="M16.1929 25.5744L18.0975 18.2419C18.1733 17.9502 18.5846 17.9502 18.6604 18.2419L20.6029 25.5744" stroke="#001525" stroke-width="0.57" stroke-linecap="round"/>
<path d="M17.1001 23.0019H19.7018" stroke="#001525" stroke-width="0.57" stroke-linecap="round"/>
<path d="M22.061 18.0756H25.809" stroke="#001525" stroke-width="0.57" stroke-linecap="round"/>
<path d="M22.061 25.5744H25.809" stroke="#001525" stroke-width="0.57" stroke-linecap="round"/>
<path d="M23.9365 18.0756V25.5044" stroke="#001525" stroke-width="0.57" stroke-linecap="round"/>
</g>
<defs>
<clipPath id="clip0_2961_7514">
<rect width="28" height="28" fill="white" transform="translate(7.5 8)"/>
</clipPath>
</defs>
</svg>
