<svg width="32" height="32" viewBox="0 0 32 32" fill="none" xmlns="http://www.w3.org/2000/svg">
<circle cx="16" cy="16" r="16" fill="#306BEA"/>
<g clip-path="url(#clip0_2731_10176)">
<path d="M9.26557 14.0079H12.2656V23.0771H9.26557V14.0079ZM20.0079 13.7079C18.6925 13.7079 17.9079 14.1925 17.0771 15.2541V14.0079H14.0771V23.0771H17.1002V18.1618C17.1002 17.1233 17.631 16.1079 18.831 16.1079C20.031 16.1079 20.7463 17.1233 20.7463 18.1387V23.0771H23.7694V17.931C23.7694 14.3541 21.3463 13.7079 20.0079 13.7079ZM10.7771 9.60022C9.7848 9.60022 9.00018 10.3156 9.00018 11.1925C9.00018 12.0695 9.7848 12.7848 10.7771 12.7848C11.7694 12.7848 12.554 12.0695 12.554 11.1925C12.554 10.3156 11.7694 9.60022 10.7771 9.60022Z" fill="white"/>
</g>
<defs>
<clipPath id="clip0_2731_10176">
<rect width="14.7692" height="14.7692" fill="white" transform="translate(9.00009 9.00012)"/>
</clipPath>
</defs>
</svg>
