<svg width="32" height="32" viewBox="0 0 32 32" fill="none" xmlns="http://www.w3.org/2000/svg">
<circle cx="16" cy="16" r="16" fill="#306BEA"/>
<g clip-path="url(#clip0_2731_10186)">
<path d="M20.677 10.25H11.323C10.4445 10.2472 9.60089 10.5935 8.97772 11.2127C8.35454 11.8319 8.00285 12.6733 8 13.5518V18.1983C8.00285 19.0768 8.35454 19.9181 8.97772 20.5373C9.60089 21.1565 10.4445 21.5028 11.323 21.5H20.677C21.5555 21.5028 22.3991 21.1565 23.0223 20.5373C23.6455 19.9181 23.9972 19.0768 24 18.1983V13.5518C23.9972 12.6733 23.6455 11.8319 23.0223 11.2127C22.3991 10.5935 21.5555 10.2472 20.677 10.25ZM18.4298 16.1L14.0545 18.175C14.0278 18.1879 13.9983 18.1939 13.9687 18.1922C13.9391 18.1906 13.9104 18.1815 13.8853 18.1658C13.8602 18.15 13.8395 18.1282 13.8251 18.1022C13.8108 18.0763 13.8033 18.0472 13.8032 18.0175V13.7405C13.8032 13.7105 13.8109 13.681 13.8256 13.6548C13.8403 13.6287 13.8614 13.6067 13.887 13.5911C13.9126 13.5754 13.9418 13.5666 13.9718 13.5655C14.0018 13.5644 14.0316 13.5711 14.0582 13.5848L18.4333 15.7878C18.4622 15.8026 18.4864 15.8253 18.5032 15.8531C18.52 15.881 18.5287 15.913 18.5283 15.9456C18.5279 15.9781 18.5185 16.0099 18.501 16.0373C18.4836 16.0648 18.4588 16.0869 18.4295 16.101L18.4298 16.1Z" fill="white"/>
</g>
<defs>
<clipPath id="clip0_2731_10186">
<rect width="16" height="16" fill="white" transform="translate(8 8)"/>
</clipPath>
</defs>
</svg>
