<svg width="43" height="44" viewBox="0 0 43 44" fill="none" xmlns="http://www.w3.org/2000/svg">
<rect y="0.5" width="43" height="43" rx="4" fill="#C6DDFF"/>
<g clip-path="url(#clip0_12749_4260)">
<path d="M20.8496 30.4364V35.1089C20.8496 35.3947 20.6163 35.6281 20.3304 35.6281H8.38962C8.10087 35.6281 7.87044 35.3947 7.87044 35.1089V8.89099C7.87044 8.60516 8.10087 8.37183 8.38962 8.37183H20.3304C20.6163 8.37183 20.8496 8.60516 20.8496 8.89099V13.5635" stroke="#001525" stroke-width="0.575" stroke-linecap="round" stroke-linejoin="round"/>
<path d="M28.29 12.4852C28.4022 12.5975 28.4022 12.7795 28.29 12.8918L26.4603 14.7214C26.348 14.8337 26.166 14.8337 26.0537 14.7214C25.9415 14.6091 25.9415 14.4271 26.0537 14.3148L27.6801 12.6885L26.0537 11.0621C25.9415 10.9499 25.9415 10.7678 26.0537 10.6555C26.166 10.5433 26.348 10.5433 26.4603 10.6555L28.29 12.4852ZM12.7654 16.7472C12.6067 16.7472 12.4779 16.6185 12.4779 16.4597C12.4779 16.3009 12.6067 16.1722 12.7654 16.1722V16.7472ZM28.0867 12.6885V12.976H22.9738V12.6885V12.401H28.0867V12.6885ZM22.9738 12.6885V12.976C22.5055 12.976 22.1267 13.3548 22.1267 13.8231H21.8392H21.5517C21.5517 13.0372 22.1879 12.401 22.9738 12.401V12.6885ZM21.8392 13.8231H22.1267V15.3251H21.8392H21.5517V13.8231H21.8392ZM21.8392 15.3251H22.1267C22.1267 16.111 21.4905 16.7472 20.7046 16.7472V16.4597V16.1722C21.1729 16.1722 21.5517 15.7934 21.5517 15.3251H21.8392ZM20.7046 16.4597V16.7472H12.7654V16.4597V16.1722H20.7046V16.4597Z" fill="#001525"/>
<path d="M28.29 31.0731C28.4022 31.1854 28.4022 31.3674 28.29 31.4797L26.4603 33.3093C26.348 33.4216 26.166 33.4216 26.0537 33.3093C25.9415 33.197 25.9415 33.015 26.0537 32.9027L27.6801 31.2764L26.0537 29.65C25.9415 29.5378 25.9415 29.3557 26.0537 29.2434C26.166 29.1312 26.348 29.1312 26.4603 29.2434L28.29 31.0731ZM12.7654 27.7926C12.6067 27.7926 12.4779 27.6639 12.4779 27.5051C12.4779 27.3463 12.6067 27.2176 12.7654 27.2176V27.7926ZM28.0867 31.2764V31.5639H22.9738V31.2764V30.9889H28.0867V31.2764ZM22.9738 31.2764V31.5639C22.1879 31.5639 21.5517 30.9277 21.5517 30.1418H21.8392H22.1267C22.1267 30.6101 22.5055 30.9889 22.9738 30.9889V31.2764ZM21.8392 30.1418H21.5517V28.6397H21.8392H22.1267V30.1418H21.8392ZM21.8392 28.6397H21.5517C21.5517 28.1714 21.1729 27.7926 20.7046 27.7926V27.5051V27.2176C21.4905 27.2176 22.1267 27.8538 22.1267 28.6397H21.8392ZM20.7046 27.5051V27.7926H12.7654V27.5051V27.2176H20.7046V27.5051Z" fill="#001525"/>
<path d="M28.1384 21.7982C28.2506 21.9104 28.2506 22.0925 28.1384 22.2048L26.3087 24.0344C26.1964 24.1467 26.0144 24.1467 25.9021 24.0344C25.7899 23.9221 25.7899 23.7401 25.9021 23.6278L27.5285 22.0015L25.9021 20.3751C25.7899 20.2628 25.7899 20.0808 25.9021 19.9685C26.0144 19.8563 26.1964 19.8563 26.3087 19.9685L28.1384 21.7982ZM12.6138 22.289C12.455 22.289 12.3263 22.1602 12.3263 22.0015C12.3263 21.8427 12.455 21.714 12.6138 21.714V22.289ZM27.9351 22.0015V22.289H12.6138V22.0015V21.714H27.9351V22.0015Z" fill="#001525"/>
<path d="M29.9351 12.6885C29.9351 11.2535 31.0988 10.0927 32.5338 10.0927C33.9688 10.0927 35.1296 11.2564 35.1296 12.6885C35.1296 14.1206 33.9659 15.2843 32.5338 15.2843C31.1017 15.2843 29.9351 14.1206 29.9351 12.6885Z" fill="#85B4FF" stroke="#001525" stroke-width="0.575" stroke-linecap="round" stroke-linejoin="round"/>
<path d="M29.9351 22.0014C29.9351 20.5664 31.0988 19.4055 32.5338 19.4055C33.9688 19.4055 35.1296 20.5693 35.1296 22.0014C35.1296 23.4334 33.9659 24.5972 32.5338 24.5972C31.1017 24.5972 29.9351 23.4334 29.9351 22.0014Z" fill="#85B4FF" stroke="#001525" stroke-width="0.575" stroke-linecap="round" stroke-linejoin="round"/>
<path d="M29.9351 31.3639C29.9351 29.9289 31.0988 28.7681 32.5338 28.7681C33.9688 28.7681 35.1296 29.9318 35.1296 31.3639C35.1296 32.796 33.9659 33.9597 32.5338 33.9597C31.1017 33.9597 29.9351 32.796 29.9351 31.3639Z" fill="#85B4FF" stroke="#001525" stroke-width="0.575" stroke-linecap="round" stroke-linejoin="round"/>
</g>
<defs>
<clipPath id="clip0_12749_4260">
<rect width="28" height="28" fill="white" transform="matrix(-1 0 0 1 35.5 8)"/>
</clipPath>
</defs>
</svg>
